G04 ================== begin FILE IDENTIFICATION RECORD ==================*
G04 Layout Name:  E:/«∂»Î Ω/git/PCB_MCU/boardv5_0/BBear_balance_carv2_0.brd*
G04 Film Name:    SOLDERMASK_BOTTOM*
G04 File Format:  Gerber RS274X*
G04 File Origin:  Cadence Allegro 16.6-P004*
G04 Origin Date:  Tue Apr 04 18:31:46 2017*
G04 *
G04 Layer:  VIA CLASS/SOLDERMASK_BOTTOM*
G04 Layer:  PIN/SOLDERMASK_BOTTOM*
G04 Layer:  PACKAGE GEOMETRY/SOLDERMASK_BOTTOM*
G04 Layer:  BOARD GEOMETRY/SOLDERMASK_BOTTOM*
G04 *
G04 Offset:    (0.0000 0.0000)*
G04 Mirror:    No*
G04 Mode:      Positive*
G04 Rotation:  0*
G04 FullContactRelief:  No*
G04 UndefLineWidth:     0.1524*
G04 ================== end FILE IDENTIFICATION RECORD ====================*
%FSLAX25Y25*MOMM*%
%IR0*IPPOS*OFA0.00000B0.00000*MIA0B0*SFA1.00000B1.00000*%
%ADD12R,1.8999X1.8999*%
%AMMACRO17*
4,1,40,-.3759,.7747,
.3759,.7747,
.393251,.773025,
.410047,.768363,
.425778,.760855,
.439967,.750729,
.452182,.738293,
.462051,.723925,
.469276,.708062,
.473637,.691185,
.475,.6756,
.475,-.6756,
.473325,-.692951,
.468663,-.709747,
.461155,-.725478,
.451029,-.739667,
.438593,-.751882,
.424225,-.761751,
.408362,-.768976,
.391485,-.773337,
.3759,-.7747,
-.3759,-.7747,
-.393251,-.773025,
-.410047,-.768363,
-.425778,-.760855,
-.439967,-.750729,
-.452182,-.738293,
-.462051,-.723925,
-.469276,-.708062,
-.473637,-.691185,
-.475,-.6756,
-.475,.6756,
-.473325,.692951,
-.468663,.709747,
-.461155,.725478,
-.451029,.739667,
-.438593,.751882,
-.424225,.761751,
-.408362,.768976,
-.391485,.773337,
-.3759,.7747,
0.0*
%
%ADD17MACRO17*%
%ADD10C,4.1001*%
%ADD15C,1.1176*%
%ADD16C,1.9507*%
%ADD14R,1.5999X3.1001*%
%ADD13R,1.9507X1.9507*%
%ADD11C,1.8999*%
%LPD*%
G75*
G54D10*
X410030Y1872790D03*
X660010Y1022810D03*
X4350000Y1300000D03*
X6455230Y1022810D03*
X6705210Y1872790D03*
G54D11*
X306420Y2306320D03*
X1087120Y2313940D03*
X560420Y2306320D03*
X1341120Y2313940D03*
X1595120D03*
X3196940Y1605280D03*
X3392520Y2362200D03*
X3964020Y889000D03*
Y1143000D03*
Y1397000D03*
X3450940Y1605280D03*
X3646520Y2362200D03*
X4685380Y170180D03*
X4431380D03*
X4691380Y744220D03*
Y1244220D03*
X4827620Y2357120D03*
X4573620D03*
X4751420Y2077720D03*
X4497420D03*
X5447380Y170180D03*
X5193380D03*
X4939380D03*
X5678520Y2362200D03*
X5424520D03*
X5955380Y170180D03*
X5701380D03*
X6196680Y281940D03*
X6425280Y568960D03*
X5932520Y2362200D03*
X6450680Y281940D03*
X6704680D03*
X6679280Y568960D03*
X6846920Y2331720D03*
X6592920D03*
G54D12*
X814420Y2306320D03*
X1849120Y2313940D03*
X2942940Y1605280D03*
X3138520Y2362200D03*
X3964020Y1651000D03*
X4177380Y170180D03*
X4319620Y2357120D03*
X4243420Y2077720D03*
X5170520Y2362200D03*
X6338920Y2331720D03*
X6958680Y281940D03*
X6933280Y568960D03*
G54D13*
X1832960Y187960D03*
X2638140Y177800D03*
X2643220Y523240D03*
Y2016760D03*
X3303620Y523240D03*
Y2016760D03*
G54D14*
X1411320Y611990D03*
X1157320Y912010D03*
X1665320D03*
X1411320Y1928010D03*
X1665320Y1627990D03*
X1157320D03*
X1919320Y611990D03*
X2173320Y912010D03*
X1919320Y1928010D03*
X2173320Y1627990D03*
X5195920Y611990D03*
X4941920Y912010D03*
X5449920D03*
X5195920Y1928010D03*
X5449920Y1627990D03*
X4941920D03*
X5703920Y611990D03*
X5957920Y912010D03*
X5703920Y1928010D03*
X5957920Y1627990D03*
G54D15*
X1584040Y1386840D03*
X1886300Y1094740D03*
X2328260Y985520D03*
X1957420Y1277620D03*
X2010760Y1452880D03*
X2361280Y1732280D03*
X2244440Y2080260D03*
X3292060Y994280D03*
X3304540Y1170940D03*
X2653380Y1287780D03*
X3953860Y421640D03*
X3491580Y261620D03*
X3395060Y762000D03*
X3590640Y1005840D03*
X4113880Y447040D03*
X3765900Y1422400D03*
X3555080Y1805940D03*
X4103720Y2344420D03*
X3890360Y2128520D03*
X4601560Y347980D03*
X4685380Y967740D03*
X4846320Y1844040D03*
X4284060Y1635760D03*
X4384590Y1807010D03*
X5569300Y292100D03*
X5368640Y373380D03*
X5642960Y873760D03*
X5421980Y1165860D03*
X5251800Y962660D03*
X5234020Y1132840D03*
X5033360Y527960D03*
X5597240Y1252220D03*
X5460080Y1940560D03*
X5261960Y1648460D03*
X5396580Y2105660D03*
X5696300Y416560D03*
X5945220Y660400D03*
X5662870Y1016410D03*
X5909660Y533400D03*
X6120480Y736600D03*
X6117940Y883920D03*
X6168740Y1023620D03*
X6191600Y1160780D03*
X5912200Y1927860D03*
X5929980Y1407160D03*
X6780880Y848360D03*
X6463380Y1496060D03*
X6836760Y1330960D03*
X6745320Y1427480D03*
G54D16*
X2137760Y187960D03*
X2942940Y177800D03*
X2948020Y523240D03*
Y2016760D03*
X3608420Y523240D03*
Y2016760D03*
G54D17*
X4539530Y1617980D03*
X4724550D03*
X4539530Y1816100D03*
X4724550D03*
M02*
