G04 ================== begin FILE IDENTIFICATION RECORD ==================*
G04 Layout Name:  E:/«∂»Î Ω/git/PCB_MCU/boardv5_0/BBear_balance_carv2_0.brd*
G04 Film Name:    SOLDERMASK_TOP*
G04 File Format:  Gerber RS274X*
G04 File Origin:  Cadence Allegro 16.6-P004*
G04 Origin Date:  Tue Apr 04 18:31:46 2017*
G04 *
G04 Layer:  VIA CLASS/SOLDERMASK_TOP*
G04 Layer:  PIN/SOLDERMASK_TOP*
G04 Layer:  PACKAGE GEOMETRY/SOLDERMASK_TOP*
G04 Layer:  BOARD GEOMETRY/SOLDERMASK_TOP*
G04 *
G04 Offset:    (0.0000 0.0000)*
G04 Mirror:    No*
G04 Mode:      Positive*
G04 Rotation:  0*
G04 FullContactRelief:  No*
G04 UndefLineWidth:     0.1524*
G04 ================== end FILE IDENTIFICATION RECORD ====================*
%FSLAX25Y25*MOMM*%
%IR0*IPPOS*OFA0.00000B0.00000*MIA0B0*SFA1.00000B1.00000*%
%ADD12R,1.8999X1.8999*%
%AMMACRO18*
4,1,40,.7747,-.3759,
.7747,.3759,
.773025,.393251,
.768363,.410047,
.760855,.425778,
.750729,.439967,
.738293,.452182,
.723925,.462051,
.708062,.469276,
.691185,.473637,
.6756,.475,
-.6756,.475,
-.692951,.473325,
-.709747,.468663,
-.725478,.461155,
-.739667,.451029,
-.751882,.438593,
-.761751,.424225,
-.768976,.408362,
-.773337,.391485,
-.7747,.3759,
-.7747,-.3759,
-.773025,-.393251,
-.768363,-.410047,
-.760855,-.425778,
-.750729,-.439967,
-.738293,-.452182,
-.723925,-.462051,
-.708062,-.469276,
-.691185,-.473637,
-.6756,-.475,
.6756,-.475,
.692951,-.473325,
.709747,-.468663,
.725478,-.461155,
.739667,-.451029,
.751882,-.438593,
.761751,-.424225,
.768976,-.408362,
.773337,-.391485,
.7747,-.3759,
0.0*
%
%ADD18MACRO18*%
%AMMACRO14*
4,1,40,-.3759,-.7747,
.3759,-.7747,
.393251,-.773025,
.410047,-.768363,
.425778,-.760855,
.439967,-.750729,
.452182,-.738293,
.462051,-.723925,
.469276,-.708062,
.473637,-.691185,
.475,-.6756,
.475,.6756,
.473325,.692951,
.468663,.709747,
.461155,.725478,
.451029,.739667,
.438593,.751882,
.424225,.761751,
.408362,.768976,
.391485,.773337,
.3759,.7747,
-.3759,.7747,
-.393251,.773025,
-.410047,.768363,
-.425778,.760855,
-.439967,.750729,
-.452182,.738293,
-.462051,.723925,
-.469276,.708062,
-.473637,.691185,
-.475,.6756,
-.475,-.6756,
-.473325,-.692951,
-.468663,-.709747,
-.461155,-.725478,
-.451029,-.739667,
-.438593,-.751882,
-.424225,-.761751,
-.408362,-.768976,
-.391485,-.773337,
-.3759,-.7747,
0.0*
%
%ADD14MACRO14*%
%ADD22O,.4496X1.8491*%
%ADD23O,1.8491X.4496*%
%AMMACRO21*
4,1,40,-.7747,.3759,
-.7747,-.3759,
-.773025,-.393251,
-.768363,-.410047,
-.760855,-.425778,
-.750729,-.439967,
-.738293,-.452182,
-.723925,-.462051,
-.708062,-.469276,
-.691185,-.473637,
-.6756,-.475,
.6756,-.475,
.692951,-.473325,
.709747,-.468663,
.725478,-.461155,
.739667,-.451029,
.751882,-.438593,
.761751,-.424225,
.768976,-.408362,
.773337,-.391485,
.7747,-.3759,
.7747,.3759,
.773025,.393251,
.768363,.410047,
.760855,.425778,
.750729,.439967,
.738293,.452182,
.723925,.462051,
.708062,.469276,
.691185,.473637,
.6756,.475,
-.6756,.475,
-.692951,.473325,
-.709747,.468663,
-.725478,.461155,
-.739667,.451029,
-.751882,.438593,
-.761751,.424225,
-.768976,.408362,
-.773337,.391485,
-.7747,.3759,
0.0*
%
%ADD21MACRO21*%
%ADD10C,4.1001*%
%ADD15C,1.1176*%
%ADD20R,2.2499X1.05*%
%ADD19R,1.8499X1.1001*%
%ADD16C,1.9507*%
%ADD17R,2.2499X3.35*%
%ADD13R,1.9507X1.9507*%
%ADD11C,1.8999*%
%LPD*%
G75*
G54D10*
X410030Y1872790D03*
X660010Y1022810D03*
X4350000Y1300000D03*
X6455230Y1022810D03*
X6705210Y1872790D03*
G54D11*
X306420Y2306320D03*
X1087120Y2313940D03*
X560420Y2306320D03*
X1341120Y2313940D03*
X1595120D03*
X3196940Y1605280D03*
X3392520Y2362200D03*
X3964020Y889000D03*
Y1143000D03*
Y1397000D03*
X3450940Y1605280D03*
X3646520Y2362200D03*
X4685380Y170180D03*
X4431380D03*
X4691380Y744220D03*
Y1244220D03*
X4827620Y2357120D03*
X4573620D03*
X4751420Y2077720D03*
X4497420D03*
X5447380Y170180D03*
X5193380D03*
X4939380D03*
X5678520Y2362200D03*
X5424520D03*
X5955380Y170180D03*
X5701380D03*
X6196680Y281940D03*
X6425280Y568960D03*
X5932520Y2362200D03*
X6450680Y281940D03*
X6704680D03*
X6679280Y568960D03*
X6846920Y2331720D03*
X6592920D03*
G54D20*
X3087720Y764290D03*
Y994280D03*
Y1224280D03*
G54D21*
X3892900Y2431850D03*
Y2246830D03*
X4576160Y1807010D03*
Y1621990D03*
X4921600Y1634290D03*
Y1449270D03*
G54D12*
X814420Y2306320D03*
X1849120Y2313940D03*
X2942940Y1605280D03*
X3138520Y2362200D03*
X3964020Y1651000D03*
X4177380Y170180D03*
X4319620Y2357120D03*
X4243420Y2077720D03*
X5170520Y2362200D03*
X6338920Y2331720D03*
X6958680Y281940D03*
X6933280Y568960D03*
G54D13*
X1832960Y187960D03*
X2638140Y177800D03*
X2643220Y523240D03*
Y2016760D03*
X3303620Y523240D03*
Y2016760D03*
G54D22*
X5604610Y613890D03*
X5554590D03*
X5504610D03*
X5454590D03*
X5404610D03*
X5354590D03*
X5304610D03*
X5254590D03*
X5204610D03*
X5154590D03*
Y1468910D03*
X5204610D03*
X5254590D03*
X5304610D03*
X5354590D03*
X5404610D03*
X5454590D03*
X5504610D03*
X5554590D03*
X5604610D03*
X5704610Y613890D03*
X5654590D03*
Y1468910D03*
X5704610D03*
G54D23*
X5002090Y766390D03*
Y816410D03*
Y866390D03*
Y916410D03*
Y966390D03*
Y1016410D03*
Y1066390D03*
Y1116410D03*
Y1166390D03*
Y1216410D03*
Y1266390D03*
Y1316410D03*
X5857110Y1116410D03*
Y1066390D03*
Y1016410D03*
Y966390D03*
Y916410D03*
Y866390D03*
Y816410D03*
Y766390D03*
Y1316410D03*
Y1266390D03*
Y1216410D03*
Y1166390D03*
G54D14*
X1415330Y1097280D03*
X1600350D03*
X1412790Y815340D03*
X1597810D03*
X2090970Y1290320D03*
X2275990D03*
X3810550Y1986280D03*
X3995570D03*
X4686850Y495300D03*
X4871870D03*
G54D15*
X1584040Y1386840D03*
X1886300Y1094740D03*
X2328260Y985520D03*
X1957420Y1277620D03*
X2010760Y1452880D03*
X2361280Y1732280D03*
X2244440Y2080260D03*
X3292060Y994280D03*
X3304540Y1170940D03*
X2653380Y1287780D03*
X3953860Y421640D03*
X3491580Y261620D03*
X3395060Y762000D03*
X3590640Y1005840D03*
X4113880Y447040D03*
X3765900Y1422400D03*
X3555080Y1805940D03*
X4103720Y2344420D03*
X3890360Y2128520D03*
X4601560Y347980D03*
X4685380Y967740D03*
X4846320Y1844040D03*
X4284060Y1635760D03*
X4384590Y1807010D03*
X5569300Y292100D03*
X5368640Y373380D03*
X5642960Y873760D03*
X5421980Y1165860D03*
X5251800Y962660D03*
X5234020Y1132840D03*
X5033360Y527960D03*
X5597240Y1252220D03*
X5460080Y1940560D03*
X5261960Y1648460D03*
X5396580Y2105660D03*
X5696300Y416560D03*
X5945220Y660400D03*
X5662870Y1016410D03*
X5909660Y533400D03*
X6120480Y736600D03*
X6117940Y883920D03*
X6168740Y1023620D03*
X6191600Y1160780D03*
X5912200Y1927860D03*
X5929980Y1407160D03*
X6780880Y848360D03*
X6463380Y1496060D03*
X6836760Y1330960D03*
X6745320Y1427480D03*
G54D16*
X2137760Y187960D03*
X2942940Y177800D03*
X2948020Y523240D03*
Y2016760D03*
X3608420Y523240D03*
Y2016760D03*
G54D17*
X2507710Y994280D03*
G54D18*
X2043780Y578050D03*
Y763070D03*
X2404460Y1972510D03*
Y2157530D03*
X4460240Y552650D03*
Y737670D03*
X4234180Y547570D03*
Y732590D03*
G54D19*
X2085540Y2402840D03*
X2860540D03*
M02*
