G04 ================== begin FILE IDENTIFICATION RECORD ==================*
G04 Layout Name:  E:/«∂»Î Ω/git/PCB_MOTOR/pcb/bbear_balance_car_motor.brd*
G04 Film Name:    SILKSCREEN_TOP*
G04 File Format:  Gerber RS274X*
G04 File Origin:  Cadence Allegro 16.6-P004*
G04 Origin Date:  Thu Feb 16 21:45:47 2017*
G04 *
G04 Layer:  PACKAGE GEOMETRY/SILKSCREEN_TOP*
G04 Layer:  MANUFACTURING/AUTOSILK_TOP*
G04 Layer:  BOARD GEOMETRY/SILKSCREEN_TOP*
G04 *
G04 Offset:    (0.00 0.00)*
G04 Mirror:    No*
G04 Mode:      Positive*
G04 Rotation:  0*
G04 FullContactRelief:  No*
G04 UndefLineWidth:     0.00*
G04 ================== end FILE IDENTIFICATION RECORD ====================*
%FSLAX25Y25*MOIN*%
%IR0*IPPOS*OFA0.00000B0.00000*MIA0B0*SFA1.00000B1.00000*%
%ADD10C,.01*%
%ADD11C,.002*%
%ADD12C,.00394*%
%ADD13C,.00787*%
G75*
%LPD*%
G75*
G54D10*
G01X-113800Y23700D02*
Y-16400D01*
X-114000Y-16600D01*
X-113500Y-17100D01*
X-108400D01*
Y-18100D01*
X-116900Y-26600D01*
X-125100Y-18400D01*
Y-17300D01*
X-119300D01*
Y23700D01*
X-119700Y24100D01*
X-114200D01*
X-113800Y23700D01*
G01X-41400Y30100D02*
X-36700D01*
G01X-39400Y32300D02*
Y27600D01*
G01X-33700Y30000D02*
X-29000D01*
X-28900Y30100D01*
G01X31600Y29200D02*
X37000D01*
X37100Y29300D01*
G01X34100Y31900D02*
Y26700D01*
G01X39300Y29200D02*
X44000D01*
X44100Y29100D01*
G01X114100Y25200D02*
Y-16300D01*
X108100D01*
X108000Y-16200D01*
Y-17600D01*
X118000Y-27600D01*
X128500Y-17100D01*
Y-16400D01*
X128400Y-16300D01*
X121700D01*
Y25400D01*
X121900Y25600D01*
X114500D01*
X114100Y25200D01*
G01X91800Y-29300D02*
X98100D01*
X98200Y-29400D01*
G01X94900Y-26100D02*
Y-31700D01*
X95100Y-31900D01*
G01X92300Y29600D02*
X98800D01*
G01X95200Y32200D02*
Y26700D01*
X95100Y26600D01*
G54D11*
G01X-43709Y11607D02*
X-34160D01*
X-34127Y11640D01*
Y16005D01*
X-34169Y16047D01*
X-43727D01*
X-43730Y16044D01*
Y11628D01*
X-43709Y11607D01*
G01D02*
X-34160D01*
X-34127Y11640D01*
Y16005D01*
X-34169Y16047D01*
X-43727D01*
X-43730Y16044D01*
Y11628D01*
X-43709Y11607D01*
G54D12*
G01X-20276Y-20472D02*
X20276D01*
Y20472D01*
X-20276D01*
Y-20472D01*
G01D02*
X-6103D01*
G01Y20472D02*
X-20276D01*
Y-20472D01*
G01X6103D02*
X20276D01*
Y20472D01*
X6103D01*
G01X70200Y-7400D02*
X68200D01*
G01X74500Y-8700D02*
Y-5700D01*
G01X76000Y-7300D02*
X73100D01*
G01X67300Y-11000D02*
X60500D01*
Y-4600D01*
X67400D01*
G01X76900Y-4500D02*
X83900D01*
Y-10900D01*
X76900D01*
G01Y-4500D02*
X83900D01*
Y-10900D01*
X76900D01*
G01X67300Y-11000D02*
X60500D01*
Y-4600D01*
X67400D01*
G01X76000Y-7300D02*
X73100D01*
G01X74500Y-8700D02*
Y-5700D01*
G01X70200Y-7400D02*
X68200D01*
G54D13*
G01X-38700Y-9054D02*
Y-3346D01*
G01Y-9054D02*
Y-3346D01*
G01X33900Y-2446D02*
Y-8154D01*
G01Y-2446D02*
Y-8154D01*
G01X34300Y10754D02*
Y5046D01*
G01Y10754D02*
Y5046D01*
G01X61100Y10754D02*
Y5046D01*
G01Y10754D02*
Y5046D01*
M02*
