G04 ================== begin FILE IDENTIFICATION RECORD ==================*
G04 Layout Name:  E:/«∂»Î Ω/git/PCB_MCU/boardv4_020170213/BBear_balance_carv2_0.brd*
G04 Film Name:    PASTEMASK_TOP*
G04 File Format:  Gerber RS274X*
G04 File Origin:  Cadence Allegro 16.6-P004*
G04 Origin Date:  Wed Feb 15 23:05:13 2017*
G04 *
G04 Layer:  VIA CLASS/PASTEMASK_TOP*
G04 Layer:  PIN/PASTEMASK_TOP*
G04 Layer:  PACKAGE GEOMETRY/PASTEMASK_TOP*
G04 *
G04 Offset:    (0.00 0.00)*
G04 Mirror:    No*
G04 Mode:      Positive*
G04 Rotation:  0*
G04 FullContactRelief:  No*
G04 UndefLineWidth:     6.00*
G04 ================== end FILE IDENTIFICATION RECORD ====================*
%FSLAX25Y25*MOIN*%
%IR0*IPPOS*OFA0.00000B0.00000*MIA0B0*SFA1.00000B1.00000*%
%AMMACRO15*
4,1,40,.0285,-.0128,
.0285,.0128,
.028438,.01348,
.028258,.014139,
.027967,.014756,
.027573,.015314,
.027088,.015794,
.026527,.016184,
.025907,.016469,
.025247,.016643,
.0246,.0167,
-.0246,.0167,
-.02528,.016638,
-.025939,.016458,
-.026556,.016167,
-.027114,.015773,
-.027594,.015288,
-.027984,.014727,
-.028269,.014107,
-.028443,.013447,
-.0285,.0128,
-.0285,-.0128,
-.028438,-.01348,
-.028258,-.014139,
-.027967,-.014756,
-.027573,-.015314,
-.027088,-.015794,
-.026527,-.016184,
-.025907,-.016469,
-.025247,-.016643,
-.0246,-.0167,
.0246,-.0167,
.02528,-.016638,
.025939,-.016458,
.026556,-.016167,
.027114,-.015773,
.027594,-.015288,
.027984,-.014727,
.028269,-.014107,
.028443,-.013447,
.0285,-.0128,
0.0*
%
%ADD15MACRO15*%
%AMMACRO13*
4,1,40,-.0128,-.0285,
.0128,-.0285,
.01348,-.028438,
.014139,-.028258,
.014756,-.027967,
.015314,-.027573,
.015794,-.027088,
.016184,-.026527,
.016469,-.025907,
.016643,-.025247,
.0167,-.0246,
.0167,.0246,
.016638,.02528,
.016458,.025939,
.016167,.026556,
.015773,.027114,
.015288,.027594,
.014727,.027984,
.014107,.028269,
.013447,.028443,
.0128,.0285,
-.0128,.0285,
-.01348,.028438,
-.014139,.028258,
-.014756,.027967,
-.015314,.027573,
-.015794,.027088,
-.016184,.026527,
-.016469,.025907,
-.016643,.025247,
-.0167,.0246,
-.0167,-.0246,
-.016638,-.02528,
-.016458,-.025939,
-.016167,-.026556,
-.015773,-.027114,
-.015288,-.027594,
-.014727,-.027984,
-.014107,-.028269,
-.013447,-.028443,
-.0128,-.0285,
0.0*
%
%ADD13MACRO13*%
%ADD19O,.0098X.065*%
%ADD20O,.065X.0098*%
%ADD11C,.07087*%
%ADD12R,.07087X.07087*%
%ADD14R,.08465X.12795*%
%AMMACRO18*
4,1,40,-.0285,.0128,
-.0285,-.0128,
-.028438,-.01348,
-.028258,-.014139,
-.027967,-.014756,
-.027573,-.015314,
-.027088,-.015794,
-.026527,-.016184,
-.025907,-.016469,
-.025247,-.016643,
-.0246,-.0167,
.0246,-.0167,
.02528,-.016638,
.025939,-.016458,
.026556,-.016167,
.027114,-.015773,
.027594,-.015288,
.027984,-.014727,
.028269,-.014107,
.028443,-.013447,
.0285,-.0128,
.0285,.0128,
.028438,.01348,
.028258,.014139,
.027967,.014756,
.027573,.015314,
.027088,.015794,
.026527,.016184,
.025907,.016469,
.025247,.016643,
.0246,.0167,
-.0246,.0167,
-.02528,.016638,
-.025939,.016458,
-.026556,.016167,
-.027114,.015773,
-.027594,.015288,
-.027984,.014727,
-.028269,.014107,
-.028443,.013447,
-.0285,.0128,
0.0*
%
%ADD18MACRO18*%
%ADD10C,.15748*%
%ADD17R,.08465X.0374*%
%ADD16R,.0689X.03937*%
%LPD*%
G75*
G54D10*
X-123921Y23732D03*
X-114079Y-9732D03*
X114079D03*
X123921Y23732D03*
G54D11*
X-128000Y40800D03*
X-118000D03*
X-14200Y13200D03*
X-6500Y43000D03*
X16000Y-15000D03*
Y-5000D03*
Y5000D03*
X-4200Y13200D03*
X3500Y43000D03*
X44400Y-43300D03*
X34400D03*
X40800Y-20700D03*
Y-1015D03*
X50000Y42800D03*
X40000D03*
X47000Y31800D03*
X37000D03*
X74400Y-43300D03*
X64400D03*
X54400D03*
X83500Y43000D03*
X73500D03*
X94400Y-43300D03*
X84400D03*
X93500Y43000D03*
X129500Y41800D03*
X119500D03*
G54D20*
X56869Y-19827D03*
Y-17858D03*
Y-15890D03*
Y-13921D03*
Y-11953D03*
Y-9984D03*
Y-8016D03*
Y-6047D03*
Y-4079D03*
Y-2110D03*
Y-142D03*
Y1827D03*
X90531Y-6047D03*
Y-8016D03*
Y-9984D03*
Y-11953D03*
Y-13921D03*
Y-15890D03*
Y-17858D03*
Y-19827D03*
Y1827D03*
Y-142D03*
Y-2110D03*
Y-4079D03*
G54D12*
X-108000Y40800D03*
X-24200Y13200D03*
X-16500Y43000D03*
X16000Y15000D03*
X24400Y-43300D03*
X30000Y42800D03*
X27000Y31800D03*
X63500Y43000D03*
X109500Y41800D03*
G54D13*
X-84342Y-6800D03*
X-77058D03*
X-84442Y-17900D03*
X-77158D03*
X-57742Y800D03*
X-50458D03*
X9958Y28200D03*
X17242D03*
X44458Y-30500D03*
X51742D03*
G54D14*
X-41335Y-10855D03*
G54D15*
X-59600Y-27242D03*
Y-19958D03*
X-45400Y27658D03*
Y34942D03*
X26900Y-27942D03*
Y-20658D03*
G54D16*
X-57956Y44600D03*
X-27444D03*
G54D17*
X-18500Y-19910D03*
Y-10855D03*
Y-1800D03*
G54D18*
X13200Y45742D03*
Y38458D03*
X40100Y21142D03*
Y13858D03*
X26500Y6442D03*
Y-842D03*
X53700Y14342D03*
Y7058D03*
G54D19*
X80590Y-25831D03*
X78621D03*
X76653D03*
X74684D03*
X72716D03*
X70747D03*
X68779D03*
X66810D03*
X64842D03*
X62873D03*
Y7831D03*
X64842D03*
X66810D03*
X68779D03*
X70747D03*
X72716D03*
X74684D03*
X76653D03*
X78621D03*
X80590D03*
X84527Y-25831D03*
X82558D03*
Y7831D03*
X84527D03*
M02*
