G04 ================== begin FILE IDENTIFICATION RECORD ==================*
G04 Layout Name:  E:/«∂»Î Ω/git/PCB_MCU/boardv4_020170213/BBear_balance_carv2_0.brd*
G04 Film Name:    SILKSCREEN_BOTTOM*
G04 File Format:  Gerber RS274X*
G04 File Origin:  Cadence Allegro 16.6-P004*
G04 Origin Date:  Thu Feb 16 21:53:10 2017*
G04 *
G04 Layer:  PACKAGE GEOMETRY/SILKSCREEN_BOTTOM*
G04 Layer:  MANUFACTURING/AUTOSILK_BOTTOM*
G04 Layer:  BOARD GEOMETRY/SILKSCREEN_BOTTOM*
G04 *
G04 Offset:    (0.00 0.00)*
G04 Mirror:    No*
G04 Mode:      Positive*
G04 Rotation:  0*
G04 FullContactRelief:  No*
G04 UndefLineWidth:     6.00*
G04 ================== end FILE IDENTIFICATION RECORD ====================*
%FSLAX25Y25*MOIN*%
%IR0*IPPOS*OFA0.00000B0.00000*MIA0B0*SFA1.00000B1.00000*%
%ADD10C,.01*%
%ADD11C,.006*%
%ADD12C,.00394*%
%ADD13C,.00197*%
%ADD14C,.00787*%
G75*
%LPD*%
G75*
G54D10*
G01X-21900Y5000D02*
Y-13100D01*
X-21700Y-13300D01*
X-22000Y-13600D01*
X-27900D01*
X-17300Y-24200D01*
X-6900Y-13800D01*
Y-13500D01*
X-13900D01*
X-14000Y-13600D01*
Y4900D01*
X-13900Y5000D01*
X-21900D01*
X-21100Y4200D01*
X-14700D01*
Y3400D01*
X-14800Y3300D01*
X-21100D01*
Y2300D01*
X-15000D01*
X-14800Y2500D01*
Y1500D01*
X-15000Y1300D01*
X-21100D01*
X-21200Y1200D01*
Y200D01*
X-15100D01*
X-14800Y500D01*
Y-700D01*
X-15000Y-900D01*
X-20800D01*
X-21100Y-600D01*
X-21200Y-700D01*
Y-1900D01*
X-14900D01*
X-14800Y-1800D01*
Y-2700D01*
X-14900Y-2800D01*
X-21200D01*
Y-3700D01*
X-21100Y-3800D01*
X-15100D01*
X-15000Y-3700D01*
Y-4800D01*
X-21100D01*
X-21200Y-4700D01*
Y-5800D01*
X-15200D01*
X-14900Y-5500D01*
X-14800Y-5600D01*
Y-7000D01*
X-21000D01*
X-21100Y-6900D01*
X-21200Y-7000D01*
Y-8000D01*
X-14800D01*
X-14700Y-7900D01*
Y-9000D01*
X-14900Y-9200D01*
X-21200D01*
Y-10200D01*
X-21000Y-10400D01*
X-15100D01*
X-14800Y-10100D01*
Y-11200D01*
X-14900Y-11300D01*
X-21200D01*
Y-12100D01*
X-21100Y-12200D01*
X-14700D01*
Y-13100D01*
X-14900Y-13300D01*
X-21300D01*
X-21600Y-13000D01*
X-21700Y-13100D01*
Y-14200D01*
X-21600Y-14300D01*
X-8700D01*
X-17300Y-22900D01*
X-17500D01*
X-25900Y-14500D01*
Y-14300D01*
X-22200D01*
X-21500Y-15000D01*
Y-15200D01*
X-10700D01*
X-10300Y-14800D01*
X-10400D01*
X-17600Y-22000D01*
X-24500Y-15100D01*
Y-14900D01*
X-22700D01*
X-21600Y-16000D01*
X-12800D01*
X-12600Y-15800D01*
X-13000D01*
X-17700Y-20500D01*
X-18000D01*
X-22700Y-15800D01*
X-21600D01*
X-20300Y-17100D01*
X-15400D01*
X-15200Y-16900D01*
X-15500D01*
X-17700Y-19100D01*
X-18200D01*
X-19500Y-17800D01*
X-18000D01*
X-17500Y-18300D01*
X-17100Y-17900D01*
Y-17600D01*
G54D11*
G01X-122607Y-13400D02*
Y-16983D01*
X-122860Y-17733D01*
X-123367Y-18233D01*
X-124000Y-18400D01*
X-124633Y-18233D01*
X-125140Y-17733D01*
X-125393Y-16983D01*
Y-13400D01*
G01X-127897Y-14233D02*
X-128277Y-13733D01*
X-128720Y-13483D01*
X-129227Y-13400D01*
X-129860Y-13567D01*
X-130303Y-13983D01*
X-130430Y-14483D01*
X-130367Y-14983D01*
X-130113Y-15400D01*
X-128847Y-16233D01*
X-128277Y-16817D01*
X-127897Y-17650D01*
X-127770Y-18400D01*
X-130430D01*
G01X-134200D02*
Y-13400D01*
X-133440Y-14400D01*
G01Y-18400D02*
X-134960D01*
G01X-91707Y-24600D02*
Y-28183D01*
X-91960Y-28933D01*
X-92467Y-29433D01*
X-93100Y-29600D01*
X-93733Y-29433D01*
X-94240Y-28933D01*
X-94493Y-28183D01*
Y-24600D01*
G01X-98200Y-29600D02*
Y-24600D01*
X-97440Y-25600D01*
G01Y-29600D02*
X-98960D01*
G01X-102097Y-27517D02*
X-102540Y-26933D01*
X-102920Y-26600D01*
X-103427Y-26433D01*
X-103870Y-26600D01*
X-104187Y-26933D01*
X-104440Y-27433D01*
X-104503Y-28017D01*
X-104440Y-28517D01*
X-104187Y-29017D01*
X-103807Y-29433D01*
X-103363Y-29600D01*
X-102857Y-29433D01*
X-102413Y-28933D01*
X-102160Y-28183D01*
X-102097Y-27350D01*
X-102223Y-26267D01*
X-102413Y-25683D01*
X-102730Y-25100D01*
X-103173Y-24683D01*
X-103617Y-24600D01*
X-104060Y-24767D01*
X-104377Y-25183D01*
G01X-92007Y29500D02*
Y25917D01*
X-92260Y25167D01*
X-92767Y24667D01*
X-93400Y24500D01*
X-94033Y24667D01*
X-94540Y25167D01*
X-94793Y25917D01*
Y29500D01*
G01X-97423Y25083D02*
X-97867Y24667D01*
X-98373Y24500D01*
X-98880Y24667D01*
X-99323Y25167D01*
X-99640Y25917D01*
X-99767Y26667D01*
Y27583D01*
X-99640Y28333D01*
X-99323Y29000D01*
X-98943Y29333D01*
X-98500Y29500D01*
X-97993Y29333D01*
X-97613Y29000D01*
X-97360Y28500D01*
X-97233Y27833D01*
X-97360Y27250D01*
X-97677Y26667D01*
X-98057Y26333D01*
X-98500Y26250D01*
X-99007Y26417D01*
X-99387Y26833D01*
X-99767Y27583D01*
G01X36100Y17200D02*
Y11200D01*
X32900D01*
G01X28100D02*
X31300D01*
Y17200D01*
X28100D01*
G01X29380Y14300D02*
X31300D01*
G01X26660Y11200D02*
Y17200D01*
X25060D01*
X24420Y16900D01*
X23940Y16500D01*
X23540Y15900D01*
X23220Y15200D01*
X23140Y14200D01*
X23220Y13200D01*
X23540Y12500D01*
X23940Y11900D01*
X24420Y11500D01*
X25060Y11200D01*
X26660D01*
G01X20100D02*
Y17200D01*
X21060Y16000D01*
G01Y11200D02*
X19140D01*
G01X29800Y18300D02*
Y24300D01*
X27800D01*
X27160Y24000D01*
X26760Y23600D01*
X26600Y22800D01*
X26760Y22000D01*
X27240Y21500D01*
X27800Y21200D01*
X29800D01*
G01X27800D02*
X26600Y18300D01*
G01X24920Y20800D02*
X24360Y21500D01*
X23880Y21900D01*
X23240Y22100D01*
X22680Y21900D01*
X22280Y21500D01*
X21960Y20900D01*
X21880Y20200D01*
X21960Y19600D01*
X22280Y19000D01*
X22760Y18500D01*
X23320Y18300D01*
X23960Y18500D01*
X24520Y19100D01*
X24840Y20000D01*
X24920Y21000D01*
X24760Y22300D01*
X24520Y23000D01*
X24120Y23700D01*
X23560Y24200D01*
X23000Y24300D01*
X22440Y24100D01*
X22040Y23600D01*
G01X59493Y29100D02*
Y25517D01*
X59240Y24767D01*
X58733Y24267D01*
X58100Y24100D01*
X57467Y24267D01*
X56960Y24767D01*
X56707Y25517D01*
Y29100D01*
G01X53000Y24100D02*
Y29100D01*
X53760Y28100D01*
G01Y24100D02*
X52240D01*
G01X47900Y29100D02*
X48407Y28933D01*
X48787Y28517D01*
X49040Y28017D01*
X49230Y27350D01*
X49293Y26600D01*
X49230Y25850D01*
X49040Y25183D01*
X48787Y24683D01*
X48407Y24267D01*
X47900Y24100D01*
X47393Y24267D01*
X47013Y24683D01*
X46760Y25183D01*
X46570Y25850D01*
X46507Y26600D01*
X46570Y27350D01*
X46760Y28017D01*
X47013Y28517D01*
X47393Y28933D01*
X47900Y29100D01*
G01X108793Y-27000D02*
Y-30583D01*
X108540Y-31333D01*
X108033Y-31833D01*
X107400Y-32000D01*
X106767Y-31833D01*
X106260Y-31333D01*
X106007Y-30583D01*
Y-27000D01*
G01X102300Y-32000D02*
Y-27000D01*
X103060Y-28000D01*
G01Y-32000D02*
X101540D01*
G01X98593Y-31250D02*
X98213Y-31667D01*
X97770Y-31917D01*
X97200Y-32000D01*
X96630Y-31833D01*
X96187Y-31500D01*
X95870Y-30917D01*
X95807Y-30250D01*
X95933Y-29583D01*
X96250Y-29167D01*
X96693Y-28833D01*
X97137Y-28750D01*
X97580Y-28833D01*
X98150Y-29167D01*
X97960Y-27000D01*
X96250D01*
G54D12*
G01X-98106Y-20139D02*
Y-8230D01*
X-98128Y-8208D01*
G01X-88100Y-31861D02*
Y-20022D01*
X-88147Y-19975D01*
G01X-77980Y-20129D02*
Y-8148D01*
X-77958Y-8126D01*
G01X-77980Y-20129D02*
Y-8148D01*
X-77958Y-8126D01*
G01X-88100Y-31861D02*
Y-20022D01*
X-88147Y-19975D01*
G01X-98106Y-20139D02*
Y-8230D01*
X-98128Y-8208D01*
G01X-71020Y20129D02*
Y8148D01*
X-71042Y8126D01*
G01X-80988Y31918D02*
Y20060D01*
X-81048Y20000D01*
G01X-90843Y19906D02*
Y8394D01*
X-90913Y8324D01*
Y8416D01*
G01X-90843Y19906D02*
Y8394D01*
X-90913Y8324D01*
Y8416D01*
G01X-80988Y31918D02*
Y20060D01*
X-81048Y20000D01*
G01X-71020Y20129D02*
Y8148D01*
X-71042Y8126D01*
G01X-68012Y-31918D02*
Y-20060D01*
X-67952Y-20000D01*
G01X-58157Y-19906D02*
Y-8394D01*
X-58087Y-8324D01*
Y-8416D01*
G01X-58157Y-19906D02*
Y-8394D01*
X-58087Y-8324D01*
Y-8416D01*
G01X-68012Y-31918D02*
Y-20060D01*
X-67952Y-20000D01*
G01X-50894Y20139D02*
Y8230D01*
X-50872Y8208D01*
G01X-60900Y31861D02*
Y20022D01*
X-60853Y19975D01*
G01X-60900Y31861D02*
Y20022D01*
X-60853Y19975D01*
G01X-50894Y20139D02*
Y8230D01*
X-50872Y8208D01*
G01X50894Y-20139D02*
Y-8230D01*
X50872Y-8208D01*
G01X60900Y-31861D02*
Y-20022D01*
X60853Y-19975D01*
G01X71020Y-20129D02*
Y-8148D01*
X71042Y-8126D01*
G01X71020Y-20129D02*
Y-8148D01*
X71042Y-8126D01*
G01X60900Y-31861D02*
Y-20022D01*
X60853Y-19975D01*
G01X50894Y-20139D02*
Y-8230D01*
X50872Y-8208D01*
G01X77980Y20129D02*
Y8148D01*
X77958Y8126D01*
G01X68012Y31918D02*
Y20060D01*
X67952Y20000D01*
G01X58157Y19906D02*
Y8394D01*
X58087Y8324D01*
Y8416D01*
G01X58157Y19906D02*
Y8394D01*
X58087Y8324D01*
Y8416D01*
G01X68012Y31918D02*
Y20060D01*
X67952Y20000D01*
G01X77980Y20129D02*
Y8148D01*
X77958Y8126D01*
G01X80988Y-31918D02*
Y-20060D01*
X81048Y-20000D01*
G01X90843Y-19906D02*
Y-8394D01*
X90913Y-8324D01*
Y-8416D01*
G01X90843Y-19906D02*
Y-8394D01*
X90913Y-8324D01*
Y-8416D01*
G01X80988Y-31918D02*
Y-20060D01*
X81048Y-20000D01*
G01X98106Y20139D02*
Y8230D01*
X98128Y8208D01*
G01X88100Y31861D02*
Y20022D01*
X88147Y19975D01*
G01X88100Y31861D02*
Y20022D01*
X88147Y19975D01*
G01X98106Y20139D02*
Y8230D01*
X98128Y8208D01*
G54D13*
G01X-134700Y-19200D02*
X-135300Y-18600D01*
Y32500D01*
X-104500D01*
Y-19200D01*
X-134700D01*
G01D02*
X-135300Y-18600D01*
Y32500D01*
X-104500D01*
Y-19200D01*
X-134700D01*
G54D14*
G01X42300Y10846D02*
Y16554D01*
G01Y10846D02*
Y16554D01*
G01Y18646D02*
Y24354D01*
G01Y18646D02*
Y24354D01*
M02*
