G04 ================== begin FILE IDENTIFICATION RECORD ==================*
G04 Layout Name:  E:/«∂»Î Ω/git/PCB_MCU/boardv4_020170213/BBear_balance_carv2_0.brd*
G04 Film Name:    TOP*
G04 File Format:  Gerber RS274X*
G04 File Origin:  Cadence Allegro 16.6-P004*
G04 Origin Date:  Thu Feb 16 21:53:10 2017*
G04 *
G04 Layer:  ETCH/TOP*
G04 Layer:  PIN/TOP*
G04 Layer:  VIA CLASS/TOP*
G04 *
G04 Offset:    (0.00 0.00)*
G04 Mirror:    No*
G04 Mode:      Positive*
G04 Rotation:  0*
G04 FullContactRelief:  No*
G04 UndefLineWidth:     6.00*
G04 ================== end FILE IDENTIFICATION RECORD ====================*
%FSLAX25Y25*MOIN*%
%IR0*IPPOS*OFA0.00000B0.00000*MIA0B0*SFA1.00000B1.00000*%
%AMMACRO18*
4,1,40,.0285,-.0128,
.0285,.0128,
.028438,.01348,
.028258,.014139,
.027967,.014756,
.027573,.015314,
.027088,.015794,
.026527,.016184,
.025907,.016469,
.025247,.016643,
.0246,.0167,
-.0246,.0167,
-.02528,.016638,
-.025939,.016458,
-.026556,.016167,
-.027114,.015773,
-.027594,.015288,
-.027984,.014727,
-.028269,.014107,
-.028443,.013447,
-.0285,.0128,
-.0285,-.0128,
-.028438,-.01348,
-.028258,-.014139,
-.027967,-.014756,
-.027573,-.015314,
-.027088,-.015794,
-.026527,-.016184,
-.025907,-.016469,
-.025247,-.016643,
-.0246,-.0167,
.0246,-.0167,
.02528,-.016638,
.025939,-.016458,
.026556,-.016167,
.027114,-.015773,
.027594,-.015288,
.027984,-.014727,
.028269,-.014107,
.028443,-.013447,
.0285,-.0128,
0.0*
%
%ADD18MACRO18*%
%AMMACRO14*
4,1,40,-.0128,-.0285,
.0128,-.0285,
.01348,-.028438,
.014139,-.028258,
.014756,-.027967,
.015314,-.027573,
.015794,-.027088,
.016184,-.026527,
.016469,-.025907,
.016643,-.025247,
.0167,-.0246,
.0167,.0246,
.016638,.02528,
.016458,.025939,
.016167,.026556,
.015773,.027114,
.015288,.027594,
.014727,.027984,
.014107,.028269,
.013447,.028443,
.0128,.0285,
-.0128,.0285,
-.01348,.028438,
-.014139,.028258,
-.014756,.027967,
-.015314,.027573,
-.015794,.027088,
-.016184,.026527,
-.016469,.025907,
-.016643,.025247,
-.0167,.0246,
-.0167,-.0246,
-.016638,-.02528,
-.016458,-.025939,
-.016167,-.026556,
-.015773,-.027114,
-.015288,-.027594,
-.014727,-.027984,
-.014107,-.028269,
-.013447,-.028443,
-.0128,-.0285,
0.0*
%
%ADD14MACRO14*%
%ADD15C,.024*%
%ADD22O,.0098X.065*%
%ADD23O,.065X.0098*%
%ADD16C,.0728*%
%ADD11C,.07087*%
%ADD13R,.0728X.0728*%
%ADD12R,.07087X.07087*%
%ADD17R,.08465X.12795*%
%AMMACRO21*
4,1,40,-.0285,.0128,
-.0285,-.0128,
-.028438,-.01348,
-.028258,-.014139,
-.027967,-.014756,
-.027573,-.015314,
-.027088,-.015794,
-.026527,-.016184,
-.025907,-.016469,
-.025247,-.016643,
-.0246,-.0167,
.0246,-.0167,
.02528,-.016638,
.025939,-.016458,
.026556,-.016167,
.027114,-.015773,
.027594,-.015288,
.027984,-.014727,
.028269,-.014107,
.028443,-.013447,
.0285,-.0128,
.0285,.0128,
.028438,.01348,
.028258,.014139,
.027967,.014756,
.027573,.015314,
.027088,.015794,
.026527,.016184,
.025907,.016469,
.025247,.016643,
.0246,.0167,
-.0246,.0167,
-.02528,.016638,
-.025939,.016458,
-.026556,.016167,
-.027114,.015773,
-.027594,.015288,
-.027984,.014727,
-.028269,.014107,
-.028443,.013447,
-.0285,.0128,
0.0*
%
%ADD21MACRO21*%
%ADD10C,.15748*%
%ADD20R,.08465X.0374*%
%ADD19R,.0689X.03937*%
%ADD24C,.01*%
%ADD25C,.03*%
%ADD26C,.008*%
%ADD27C,.0809*%
%ADD29C,.08284*%
%ADD28C,.16752*%
%ADD32R,.0809X.0809*%
%ADD30R,.07892X.0494*%
%ADD31R,.08284X.08284*%
G75*
%LPD*%
G75*
G36*
G01X33002Y34385D02*
X37935Y39319D01*
X38066Y39247D01*
G03X36521Y40737I1935J3552D01*
G01X34728Y38944D01*
G02X34045Y39227I-283J283D01*
G01Y46845D01*
X25955D01*
Y40171D01*
X25747Y39963D01*
X25333Y39550D01*
X22833D01*
X20498Y37215D01*
Y11159D01*
X20386Y11047D01*
G02X20045Y11189I-141J142D01*
G01Y19045D01*
X13230D01*
X6673Y25602D01*
X5013D01*
G02X4748Y26301I0J400D01*
G03X-706Y26264I-2748J3099D01*
G02X-967Y25562I-262J-302D01*
G01X-1287D01*
X-2898Y27173D01*
Y34073D01*
X-5827Y37002D01*
X-9227D01*
X-12455Y40230D01*
Y44810D01*
X-10267Y46998D01*
X-9109D01*
G02X-8853Y46292I-1J-400D01*
G03X-4565Y39446I2353J-3292D01*
G01X-4434Y39518D01*
X-3701Y38784D01*
X-863D01*
X7786Y30135D01*
Y25739D01*
G03X8677Y24848I894J3D01*
G01X11239D01*
G03X12130Y25739I-3J894D01*
G01Y30661D01*
G03X11239Y31552I-894J-3D01*
G01X9203D01*
X2408Y38347D01*
G02X2763Y39023I283J283D01*
G03X7326Y44313I737J3977D01*
G02X7704Y44842I378J129D01*
G01X9075D01*
X9077Y44840D01*
X9848D01*
Y44461D01*
G03X10739Y43570I894J3D01*
G01X15661D01*
G03X16552Y44461I-2J893D01*
G01Y47023D01*
G03X15661Y47914I-894J-3D01*
G01X10739D01*
G03X9848Y47023I2J-893D01*
G01Y46646D01*
X7705D01*
X7147Y47204D01*
X7145D01*
X6233Y48116D01*
G02X6515Y48799I283J283D01*
G01X129500D01*
X129501Y48800D01*
X137300D01*
X138800Y47300D01*
Y-47500D01*
X137500Y-48800D01*
X129502D01*
X129501Y-48799D01*
X-129401D01*
X-129402Y-48800D01*
X-137300D01*
X-138800Y-47300D01*
Y47400D01*
X-137400Y48800D01*
X-129502D01*
X-129501Y48799D01*
X-11981D01*
G02X-11699Y48116I-1J-400D01*
G01X-12770Y47045D01*
X-20545D01*
Y38955D01*
X-17502D01*
Y21315D01*
X-21571Y17245D01*
X-28245D01*
Y9155D01*
X-26202D01*
Y8485D01*
X-28302Y6385D01*
Y-1224D01*
X-35931Y-8854D01*
X-36601D01*
Y-3956D01*
X-46069D01*
Y-9854D01*
X-47359D01*
G03X-50094Y-11362I-1041J-1346D01*
G01Y-11365D01*
X-50084Y-11467D01*
X-52046Y-13430D01*
Y-17230D01*
X-53915Y-19098D01*
X-55193D01*
X-55335Y-18956D01*
X-56248D01*
Y-18677D01*
G03X-57139Y-17786I-894J-3D01*
G01X-62061D01*
G03X-62952Y-18677I2J-893D01*
G01Y-21239D01*
G03X-62061Y-22130I894J3D01*
G01X-57139D01*
G03X-56250Y-21290I-3J893D01*
G01X-56239Y-21102D01*
X-53085D01*
X-50044Y-18060D01*
Y-14260D01*
X-48667Y-12884D01*
X-48572Y-12893D01*
G03X-46830Y-11856I172J1693D01*
G01X-46069D01*
Y-17754D01*
X-36601D01*
Y-12856D01*
X-23234D01*
Y-13226D01*
X-13766D01*
Y-11856D01*
X-11831D01*
G03Y-9854I1376J1001D01*
G01X-13766D01*
Y-8484D01*
X-23234D01*
Y-8854D01*
X-29304D01*
G02X-29587Y-8171I0J400D01*
G01X-24298Y-2882D01*
Y4727D01*
X-22198Y6827D01*
Y9155D01*
X-20155D01*
Y15829D01*
X-15498Y20485D01*
Y38955D01*
X-13730D01*
X-9973Y35198D01*
X-6573D01*
X-4702Y33327D01*
Y26427D01*
X-2033Y23758D01*
X4337D01*
X4377Y23798D01*
X5927D01*
X11955Y17770D01*
Y10746D01*
X4329D01*
X-5502Y915D01*
Y-13115D01*
X-2602Y-16015D01*
Y-23685D01*
X-4802Y-25885D01*
Y-33885D01*
X-6715Y-35798D01*
X-30415D01*
X-33475Y-38858D01*
X-39067D01*
X-44027Y-33898D01*
X-47356D01*
G03Y-35702I-1444J-902D01*
G01X-44773D01*
X-40342Y-40133D01*
Y-47142D01*
X-32058D01*
Y-40275D01*
X-29585Y-37802D01*
X-5885D01*
X-2798Y-34715D01*
Y-26715D01*
X-598Y-24515D01*
Y-15185D01*
X-3498Y-12285D01*
Y85D01*
X5159Y8742D01*
X13070D01*
G02X13334Y8042I0J-400D01*
G03X18666I2666J-3042D01*
G02X18930Y8742I264J300D01*
G01X20915D01*
X22502Y10329D01*
Y36385D01*
X23663Y37546D01*
X26163D01*
X26966Y38350D01*
X27371Y38755D01*
X33573D01*
G02X33856Y38072I0J-400D01*
G01X31386Y35603D01*
G02X31045Y35745I-141J142D01*
G01Y35845D01*
X22955D01*
Y27755D01*
X26098D01*
Y20827D01*
X34698Y12227D01*
Y5044D01*
G03X36502I902J-1444D01*
G01Y11519D01*
G02X37130Y11847I400J0D01*
G03X37639Y11686I512J732D01*
G01X42561D01*
G03X43452Y12577I-2J893D01*
G01Y15139D01*
G03X42561Y16030I-894J-3D01*
G01X37639D01*
G03X36748Y15139I2J-893D01*
G01Y13692D01*
G02X36066Y13409I-400J0D01*
G01X27902Y21573D01*
Y27755D01*
X30891D01*
X34819Y23826D01*
G02X34537Y23144I-283J-282D01*
G01X32558D01*
G03Y19140I0J-2002D01*
G01X37114D01*
X37163Y19109D01*
G03X37639Y18970I479J754D01*
G01X42561D01*
G03X43452Y19861I-2J893D01*
G01Y22423D01*
G03X42561Y23314I-894J-3D01*
G01X38165D01*
X33002Y28477D01*
Y29191D01*
G02X33725Y29426I400J0D01*
G03X33381Y33608I3275J2375D01*
G01X33326Y33497D01*
X33002D01*
Y34385D01*
G37*
G36*
G01X-2441Y40788D02*
G02X-2807Y41351I-1J400D01*
G03X-4126Y46275I-3693J1649D01*
G02X-3891Y46998I235J323D01*
G01X891D01*
G02X1126Y46275I0J-400D01*
G03X-193Y41351I2374J-3275D01*
G02X-559Y40788I-365J-163D01*
G01X-2441D01*
G37*
%LPC*%
G75*
G36*
G01X40921Y-41237D02*
X40098Y-40415D01*
Y-37676D01*
G02X42102I1002J1376D01*
G01Y-39585D01*
X42335Y-39819D01*
X42466Y-39747D01*
G02X40921Y-41237I1935J-3552D01*
G37*
G36*
G01X-61307Y127D02*
X-61316Y33D01*
X-60442Y-841D01*
Y-13359D01*
X-66898Y-19815D01*
Y-38458D01*
X-63758D01*
Y-46742D01*
X-72042D01*
Y-38458D01*
X-68902D01*
Y-37738D01*
X-68918Y-37700D01*
G02Y-36900I918J400D01*
G01X-68902Y-36862D01*
Y-18985D01*
X-62446Y-12529D01*
Y-1671D01*
X-62733Y-1384D01*
X-62827Y-1393D01*
G02X-61307Y127I-173J1693D01*
G37*
G36*
G01X20998Y-30956D02*
Y-16927D01*
X31939Y-5986D01*
X31922Y-5884D01*
G02X33316Y-7278I1678J284D01*
G01X33214Y-7261D01*
X22801Y-17673D01*
Y-30956D01*
G02X20998I-901J-1444D01*
G37*
G36*
G01X-13766Y-17538D02*
Y-20595D01*
G03X-13083Y-20878I400J0D01*
G01X-11204Y-18998D01*
X-7776D01*
G02Y-21002I1376J-1002D01*
G01X-10374D01*
X-13354Y-23982D01*
X-17165D01*
X-20448Y-27264D01*
X-20375Y-27396D01*
G02X-21866Y-25850I-3625J-2004D01*
G01X-18981Y-22964D01*
G03X-19263Y-22281I-283J283D01*
G01X-23234D01*
Y-17538D01*
X-13766D01*
G37*
G36*
G01X-83340Y-10152D02*
Y-14349D01*
G03X-83145Y-14549I200J0D01*
G02X-82270Y-15439I-18J-893D01*
G01Y-20361D01*
G02X-83161Y-21252I-894J3D01*
G01X-85723D01*
G02X-86614Y-20361I2J893D01*
G01Y-15439D01*
G02X-85723Y-14548I894J-3D01*
G01X-85444D01*
Y-13635D01*
X-85344Y-13535D01*
Y-10152D01*
X-85623D01*
G02X-86514Y-9261I2J893D01*
G01Y-4339D01*
G02X-85623Y-3448I893J-2D01*
G01X-83061D01*
G02X-82170Y-4339I-2J-893D01*
G01Y-9261D01*
G02X-83061Y-10152I-894J3D01*
G01X-83340D01*
G37*
G36*
G01X12447Y-13066D02*
X12519Y-12935D01*
X7198Y-7615D01*
Y4624D01*
G02X9202I1002J1376D01*
G01Y-6785D01*
X13935Y-11519D01*
X14066Y-11447D01*
G02X12447Y-13066I1934J-3553D01*
G37*
G36*
G01X-79230Y-9261D02*
Y-4865D01*
X-84602Y507D01*
Y26800D01*
X-97675D01*
X-103773Y32898D01*
X-111373D01*
X-115847Y37372D01*
X-115980Y37296D01*
G02X-114496Y38780I-2020J3504D01*
G01X-114572Y38647D01*
X-110627Y34702D01*
X-103027D01*
X-96929Y28604D01*
X-84038D01*
X-84000Y28620D01*
G02X-83600Y28704I402J-918D01*
G01X-74156D01*
X-68658Y34202D01*
X-61784D01*
X-58124Y30542D01*
X-55064D01*
X-53124Y28602D01*
X-50015D01*
X-49957Y28660D01*
X-48752D01*
Y28939D01*
G02X-47861Y29830I893J-2D01*
G01X-42939D01*
G02X-42048Y28939I-3J-894D01*
G01Y26377D01*
G02X-42939Y25486I-893J2D01*
G01X-47861D01*
G02X-48752Y26377I3J894D01*
G01Y26656D01*
X-49127D01*
X-49185Y26598D01*
X-53954D01*
X-55894Y28538D01*
X-58954D01*
X-62614Y32198D01*
X-67828D01*
X-73326Y26700D01*
X-82598D01*
Y1337D01*
X-77813Y-3448D01*
X-75777D01*
G02X-74886Y-4339I-2J-893D01*
G01Y-5798D01*
X-73973D01*
X-73873Y-5898D01*
X-67176D01*
G02Y-7902I1376J-1002D01*
G01X-74886D01*
Y-9261D01*
G02X-75777Y-10152I-894J3D01*
G01X-78339D01*
G02X-79230Y-9261I2J893D01*
G37*
G36*
G01X-10925Y15574D02*
G03X-10202Y15809I323J235D01*
G01Y18016D01*
X-6116Y22102D01*
X-1476D01*
G02Y20098I1376J-1002D01*
G01X-5286D01*
X-8198Y17186D01*
Y15809D01*
G03X-7475Y15574I400J0D01*
G02Y10826I3275J-2374D01*
G03X-8198Y10591I-323J-235D01*
G01Y9955D01*
X-16899Y1254D01*
G03X-16617Y571I283J-283D01*
G01X-13766D01*
Y-4172D01*
X-23234D01*
Y572D01*
X-19502D01*
Y1485D01*
X-10202Y10785D01*
Y11505D01*
X-10525D01*
X-10580Y11394D01*
G02X-10925Y15574I-3620J1805D01*
G37*
G36*
G01X-48030Y4248D02*
X-46505D01*
X-46455Y4198D01*
X-46391D01*
X-45941Y3748D01*
X-40943D01*
X-40493Y4198D01*
X-39107D01*
X-38657Y3748D01*
X-34933D01*
G02X-34651Y3631I-1J-400D01*
G03X-34085I283J283D01*
G01X-33765Y3952D01*
X-33742D01*
X-32002Y5692D01*
Y21715D01*
X-30702Y23015D01*
Y33685D01*
X-31515Y34498D01*
X-40577D01*
X-41135Y33940D01*
X-42048D01*
Y33661D01*
G02X-42939Y32770I-894J3D01*
G01X-47861D01*
G02X-48752Y33661I3J894D01*
G01Y36223D01*
G02X-47861Y37114I894J-3D01*
G01X-47283D01*
G03X-47001Y37796I-1J400D01*
G01X-52803Y43598D01*
X-54010D01*
Y42130D01*
X-61902D01*
Y47070D01*
X-54010D01*
Y45602D01*
X-53438D01*
X-53400Y45618D01*
G02X-53000Y45702I402J-918D01*
G01X-52073D01*
X-44398Y38027D01*
Y37114D01*
X-42939D01*
G02X-42119Y36568I-3J-893D01*
G03X-41468Y36441I368J156D01*
G01X-41407Y36502D01*
X-30685D01*
X-28698Y34515D01*
Y22185D01*
X-29998Y20885D01*
Y4862D01*
X-32912Y1948D01*
X-32935D01*
X-33916Y967D01*
X-33907Y873D01*
G02X-36976Y-302I-1693J-173D01*
G01X-37385D01*
X-37485Y-402D01*
X-42573D01*
X-43573Y-1402D01*
X-48286D01*
Y-1661D01*
G02X-49177Y-2552I-893J2D01*
G01X-51739D01*
G02X-52630Y-1661I2J893D01*
G01Y3261D01*
G02X-51739Y4152I893J-2D01*
G01X-49177D01*
G02X-48777Y4055I-5J-893D01*
G03X-48313Y4130I180J357D01*
G02X-48030Y4248I284J-282D01*
G37*
G36*
G01X-47273Y16507D02*
X-47367Y16516D01*
X-47444Y16439D01*
G03X-47303Y16098I141J-141D01*
G01X-47014D01*
Y14639D01*
G03X-46123Y13748I893J2D01*
G01X-44087D01*
X-42973Y12634D01*
G02X-43255Y11952I-283J-282D01*
G01X-44723D01*
G03X-45614Y11061I3J-894D01*
G01Y9102D01*
X-47324D01*
G03X-48873Y9793I-1376J-1002D01*
G01X-48967Y9784D01*
X-49841Y10658D01*
X-50541D01*
X-50956Y11073D01*
Y11648D01*
X-50677D01*
G03X-49786Y12539I-3J894D01*
G01Y13998D01*
X-65185D01*
X-65598Y13585D01*
Y5185D01*
X-67185Y3598D01*
X-76324D01*
G02Y5602I-1376J1002D01*
G01X-68015D01*
X-67602Y6015D01*
Y14415D01*
X-66015Y16002D01*
X-50715D01*
X-49786Y16930D01*
Y17462D01*
X-49787Y17472D01*
X-49788Y17557D01*
X-49587Y17758D01*
X-49273Y17444D01*
X-48784Y17933D01*
X-48793Y18027D01*
G02X-47273Y16507I1693J173D01*
G37*
G36*
G01X-41013Y12048D02*
X-39843D01*
X-38330Y10535D01*
Y10310D01*
G03X-37647Y10028I400J1D01*
G01X-36902Y10773D01*
Y25258D01*
X-40142D01*
Y33542D01*
X-31858D01*
Y25258D01*
X-35098D01*
Y10027D01*
X-38330Y6795D01*
Y6002D01*
X-41270D01*
Y6298D01*
X-59456D01*
G02Y8102I-1444J902D01*
G01X-41270D01*
Y11061D01*
G03X-41369Y11466I-893J-4D01*
G02X-41013Y12048I356J182D01*
G37*
G36*
G01X-51408Y36000D02*
Y33584D01*
X-51260Y33544D01*
G02X-53393Y32073I-440J-1644D01*
G01X-53384Y32167D01*
X-53412Y32195D01*
Y36000D01*
G02X-51408I1002J0D01*
G37*
G36*
G01X-74986Y-15439D02*
Y-20361D01*
G02X-75877Y-21252I-894J3D01*
G01X-78439D01*
G02X-79330Y-20361I2J893D01*
G01Y-15439D01*
G02X-78439Y-14548I894J-3D01*
G01X-75877D01*
G02X-74986Y-15439I-2J-893D01*
G37*
G36*
G01X-62061Y-25070D02*
X-57139D01*
G02X-56248Y-25961I-3J-894D01*
G01Y-28523D01*
G02X-57139Y-29414I-893J2D01*
G01X-62061D01*
G02X-62952Y-28523I3J894D01*
G01Y-25961D01*
G02X-62061Y-25070I893J-2D01*
G37*
G36*
G01X-55570Y3261D02*
Y-1661D01*
G02X-56461Y-2552I-893J2D01*
G01X-59023D01*
G02X-59914Y-1661I2J893D01*
G01Y3261D01*
G02X-59023Y4152I893J-2D01*
G01X-56461D01*
G02X-55570Y3261I-2J-893D01*
G37*
G36*
G01X24439Y-25770D02*
X29361D01*
G02X30252Y-26661I-3J-894D01*
G01Y-29223D01*
G02X29361Y-30114I-894J3D01*
G01X24439D01*
G02X23548Y-29223I3J894D01*
G01Y-26661D01*
G02X24439Y-25770I894J-3D01*
G37*
G36*
G01X28961Y4270D02*
X24039D01*
G02X23148Y5161I2J893D01*
G01Y7723D01*
G02X24039Y8614I893J-2D01*
G01X28961D01*
G02X29852Y7723I-2J-893D01*
G01Y5161D01*
G02X28961Y4270I-893J2D01*
G37*
G36*
G01X56161Y12170D02*
X51239D01*
G02X50348Y13061I3J894D01*
G01Y15623D01*
G02X51239Y16514I893J-2D01*
G01X56161D01*
G02X57052Y15623I-3J-894D01*
G01Y13061D01*
G02X56161Y12170I-893J2D01*
G37*
G36*
G01X-62096Y16613D02*
X-63926Y18443D01*
Y20574D01*
X-63048D01*
Y21058D01*
X-62076D01*
X-60052Y19034D01*
G02X-60334Y18352I-283J-282D01*
G01X-60523D01*
G03X-61414Y17461I3J-894D01*
G01Y16895D01*
G02X-62096Y16613I-400J1D01*
G37*
G36*
G01X58654Y-41086D02*
Y-40920D01*
X62020Y-37554D01*
X73429D01*
X74198Y-36785D01*
Y-35461D01*
X73798Y-35061D01*
Y-32580D01*
X71714Y-30496D01*
Y-29861D01*
G03X71151Y-29496I-400J0D01*
G02X70046Y-29292I-404J905D01*
G03X69480I-283J-283D01*
G02X68077I-701J701D01*
G03X67512I-282J-282D01*
G02X66109I-701J701D01*
G03X65543I-283J-283D01*
G02X64140I-701J701D01*
G03X63575I-282J-282D01*
G02X61882Y-28591I-701J701D01*
G01Y-27673D01*
G03X61199Y-27390I-400J0D01*
G01X59761Y-28828D01*
X59778Y-28930D01*
G02X58384Y-27536I-1678J-284D01*
G01X58486Y-27553D01*
X61110Y-24930D01*
X61882D01*
Y-23071D01*
G02X63575Y-22370I992J0D01*
G03X64140I282J282D01*
G02X65543I701J-701D01*
G03X66109I283J283D01*
G02X67512I701J-701D01*
G03X68077I282J282D01*
G02X69480I701J-701D01*
G03X70046I283J283D01*
G02X71449I701J-701D01*
G03X72014I282J282D01*
G02X73417I701J-701D01*
G03X73983I283J283D01*
G02X75386I701J-701D01*
G03X75951I282J282D01*
G02X77128Y-22201I701J-701D01*
G03X77720Y-21850I192J351D01*
G01Y-20906D01*
X80627Y-17998D01*
X84373D01*
X86140Y-19765D01*
G03X86810Y-19581I283J283D01*
G02X87070Y-19125I961J-246D01*
G03Y-18560I-282J282D01*
G02Y-17157I701J701D01*
G03Y-16591I-283J283D01*
G02Y-15188I701J701D01*
G03Y-14623I-282J282D01*
G02Y-13220I701J701D01*
G03Y-12654I-283J283D01*
G02X86866Y-11549I701J701D01*
G03X86501Y-10986I-365J163D01*
G01X84260D01*
G02Y-8982I-1376J1002D01*
G01X84866D01*
G03X85148Y-8300I-1J400D01*
G01X82154Y-5306D01*
Y-4571D01*
X80854Y-3271D01*
Y-2671D01*
X80567Y-2384D01*
X80473Y-2393D01*
G02X81993Y-873I-173J1693D01*
G01X81984Y-967D01*
X82858Y-1841D01*
Y-2441D01*
X84158Y-3741D01*
Y-4476D01*
X86696Y-7014D01*
X86860D01*
G03X87013Y-6686I0J200D01*
G02X87070Y-5346I758J639D01*
G03Y-4780I-283J283D01*
G02X86866Y-3675I701J701D01*
G03X86501Y-3112I-365J163D01*
G01X85866D01*
X83298Y-544D01*
Y2315D01*
X84433Y3449D01*
G03X84258Y4117I-283J283D01*
G02X83825Y4370I268J955D01*
G03X83260I-283J-282D01*
G02X81857I-701J701D01*
G03X81291I-283J-283D01*
G02X79888I-701J701D01*
G03X79323I-283J-282D01*
G02X77920I-701J701D01*
G03X77354I-283J-283D01*
G02X76249Y4166I-701J701D01*
G03X75686Y3801I-163J-365D01*
G01Y531D01*
X80402Y-4185D01*
Y-12485D01*
X81833Y-13916D01*
X81927Y-13907D01*
G02X80407Y-15427I173J-1693D01*
G01X80416Y-15333D01*
X78398Y-13315D01*
Y-5015D01*
X74568Y-1185D01*
G03X73886Y-1467I-282J-283D01*
G01Y-2463D01*
X74013Y-2512D01*
G02X71863Y-3369I-613J-1588D01*
G01X71882Y-3328D01*
Y-1799D01*
X71714Y-1631D01*
Y3801D01*
G03X71151Y4166I-400J0D01*
G02X70109Y4312I-404J905D01*
G03X69780Y4159I-129J-153D01*
G01Y3996D01*
X70758Y3019D01*
Y-9459D01*
X68384Y-11833D01*
X68393Y-11927D01*
G02X66873Y-10407I-1693J-173D01*
G01X66967Y-10416D01*
X68754Y-8629D01*
Y2189D01*
X68484Y2459D01*
G03X67802Y2177I-282J-283D01*
G01Y-2815D01*
X67002Y-3615D01*
Y-4024D01*
G02X64998I-1002J-1376D01*
G01Y-2785D01*
X65798Y-1985D01*
Y3986D01*
X65808Y3996D01*
Y4159D01*
G03X65480Y4312I-200J0D01*
G02X64140Y4370I-638J759D01*
G03X63575I-282J-282D01*
G02X61882Y5071I-701J701D01*
G01Y6830D01*
X58738D01*
X57965Y6056D01*
X57052D01*
Y5777D01*
G02X56965Y5397I-893J5D01*
G01X56905Y5269D01*
X57870Y4304D01*
Y2828D01*
X61534D01*
X63302Y1061D01*
Y-13685D01*
X64302Y-14685D01*
Y-16500D01*
G02X64102Y-17100I-1002J1D01*
G01Y-19273D01*
X55460Y-27914D01*
X54422D01*
X53914Y-28423D01*
Y-32577D01*
X55635Y-34298D01*
X67773D01*
X67873Y-34398D01*
X69856D01*
G02Y-36202I1444J-902D01*
G01X67127D01*
X67027Y-36102D01*
X54889D01*
X52639Y-33852D01*
X50461D01*
G02X49570Y-32961I3J894D01*
G01Y-28423D01*
X48149Y-27002D01*
X46860D01*
G03X46512Y-27599I0J-400D01*
G02X46630Y-28039I-775J-444D01*
G01Y-32961D01*
G02X45739Y-33852I-894J3D01*
G01X43177D01*
G02X42286Y-32961I3J894D01*
G01Y-28039D01*
G02X42608Y-27355I893J-3D01*
G01X42480Y-27002D01*
X41973D01*
X28445Y-40530D01*
Y-47345D01*
X20355D01*
Y-40671D01*
X19185Y-39502D01*
X10585D01*
X8498Y-37415D01*
Y-16815D01*
X3085Y-11402D01*
X2676D01*
G02Y-9398I-1376J1002D01*
G01X3915D01*
X10502Y-15985D01*
Y-36585D01*
X11415Y-37498D01*
X20015D01*
X21771Y-39255D01*
X27170D01*
X41227Y-25198D01*
X48895D01*
X50845Y-27148D01*
X52639D01*
X53676Y-26112D01*
X54714D01*
X59324Y-21501D01*
G03X59041Y-20819I-283J282D01*
G01X54109D01*
G02X53408Y-19125I0J992D01*
G03Y-18560I-282J282D01*
G02Y-17157I701J701D01*
G03Y-16591I-283J283D01*
G02Y-15188I701J701D01*
G03Y-14623I-282J282D01*
G02Y-13220I701J701D01*
G03Y-12654I-283J283D01*
G02X53204Y-11549I701J701D01*
G03X52839Y-10986I-365J163D01*
G01X50831D01*
X49410Y-12406D01*
X47510D01*
X47015Y-12902D01*
X45776D01*
G02Y-10898I-1376J1002D01*
G01X46185D01*
X46680Y-10404D01*
X48580D01*
X49299Y-9684D01*
G03X49017Y-9002I-283J282D01*
G01X42215D01*
X41802Y-9415D01*
Y-16778D01*
X41945Y-16820D01*
G02X36920Y-21845I-1145J-3880D01*
G01X36896Y-21764D01*
X35815D01*
X35773Y-21722D01*
X30252D01*
Y-21939D01*
G02X29361Y-22830I-894J3D01*
G01X24439D01*
G02X23548Y-21939I3J894D01*
G01Y-19377D01*
G02X24439Y-18486I894J-3D01*
G01X29361D01*
G02X30252Y-19377I-3J-894D01*
G01Y-19594D01*
X36655D01*
X36697Y-19636D01*
X36860D01*
X36911Y-19585D01*
X36926Y-19537D01*
G02X39655Y-16820I3874J-1163D01*
G01X39798Y-16778D01*
Y-8585D01*
X41385Y-6998D01*
X44402D01*
G03X44684Y-6316I-1J400D01*
G01X42865Y-4496D01*
X42734Y-4568D01*
G02X36920Y-2160I-1934J3553D01*
G01X36896Y-2078D01*
X35815D01*
X35642Y-1906D01*
X29852D01*
Y-2123D01*
G02X28961Y-3014I-893J2D01*
G01X24039D01*
G02X23148Y-2123I2J893D01*
G01Y-233D01*
G03X22466Y49I-400J-1D01*
G01X19479Y-2937D01*
G02X17934Y-1447I-3480J-2062D01*
G01X18065Y-1519D01*
X23285Y3702D01*
X29685D01*
X30798Y4815D01*
Y10785D01*
X28867Y12716D01*
X28773Y12707D01*
G02X30293Y14227I-173J1693D01*
G01X30284Y14133D01*
X32802Y11615D01*
Y3985D01*
X30515Y1698D01*
X29922D01*
G03X29624Y1032I0J-400D01*
G02X29852Y439I-665J-596D01*
G01Y222D01*
X36524D01*
X36697Y48D01*
X36860D01*
X36911Y100D01*
X36926Y148D01*
G02X44353Y-2949I3874J-1163D01*
G01X44281Y-3080D01*
X46247Y-5046D01*
X52838D01*
G03X53203Y-4483I0J400D01*
G02X53408Y-3377I906J404D01*
G03Y-2812I-282J283D01*
G02Y-1409I701J702D01*
G03Y-843I-283J283D01*
G02Y560I701J702D01*
G03Y1125I-283J282D01*
G02X54109Y2818I701J701D01*
G01X55868D01*
Y3474D01*
X54455Y4886D01*
X51239D01*
G02X50348Y5777I2J893D01*
G01Y8339D01*
G02X51239Y9230I893J-2D01*
G01X56161D01*
G02X56981Y8684I-3J-893D01*
G03X57632Y8557I368J156D01*
G01X57908Y8832D01*
X61872D01*
Y12496D01*
X62140Y12765D01*
Y12962D01*
X62580Y13401D01*
Y37960D01*
X62498Y38041D01*
Y38955D01*
X59455D01*
Y41998D01*
X58715D01*
X51315Y34598D01*
X51215D01*
X50481Y33865D01*
X50553Y33734D01*
G02X48934Y35353I-3553J-1934D01*
G01X49065Y35281D01*
X50385Y36602D01*
X50485D01*
X57885Y44002D01*
X59455D01*
Y47045D01*
X67545D01*
Y38955D01*
X64582D01*
Y12571D01*
X64144Y12132D01*
Y11935D01*
X63874Y11666D01*
Y11502D01*
G03X64203Y11349I200J0D01*
G02X65543Y11292I639J-758D01*
G03X66109I283J283D01*
G02X67512I701J-701D01*
G03X68077I282J282D01*
G02X69500Y11272I702J-701D01*
G01X69559Y11209D01*
X69846D01*
Y11608D01*
X69698Y11755D01*
Y31473D01*
X70739Y32514D01*
X70722Y32616D01*
G02X72116Y31222I1678J284D01*
G01X72014Y31239D01*
X71502Y30727D01*
Y12501D01*
X71648Y12354D01*
Y11812D01*
G03X72240Y11461I400J0D01*
G02X73417Y11292I476J-870D01*
G03X73983I283J283D01*
G02X75088Y11496I701J-701D01*
G03X75652Y11861I164J365D01*
G01Y14968D01*
X76798Y16115D01*
Y23085D01*
X75167Y24716D01*
X75073Y24707D01*
G02X76593Y26227I-173J1693D01*
G01X76584Y26133D01*
X78802Y23915D01*
Y15285D01*
X77654Y14138D01*
Y11862D01*
G03X78217Y11497I400J0D01*
G02X79323Y11292I404J-906D01*
G03X79888I282J282D01*
G02X81291I701J-701D01*
G03X81857I283J283D01*
G02X83197Y11349I701J-701D01*
G03X83526Y11502I129J153D01*
G01Y11666D01*
X82498Y12693D01*
Y39078D01*
X82355Y39120D01*
G02X84645I1145J3880D01*
G01X84502Y39078D01*
Y13523D01*
X85528Y12496D01*
Y7831D01*
G02X85520Y7702I-1001J-3D01*
G01X85518Y7689D01*
Y5071D01*
G02X85517Y5026I-991J0D01*
G01X85513Y4937D01*
X85717Y4734D01*
X85998Y5015D01*
Y14915D01*
X91698Y20615D01*
Y24524D01*
G02X93702I1002J1376D01*
G01Y19785D01*
X88002Y14085D01*
Y4185D01*
X85302Y1485D01*
Y286D01*
X86696Y-1108D01*
X86859D01*
G03X87012Y-780I0J200D01*
G02X87070Y560I759J638D01*
G03Y1125I-283J282D01*
G02X87771Y2818I701J701D01*
G01X89630D01*
Y3590D01*
X91720Y5681D01*
X91732Y5740D01*
G02X92651Y3871I1668J-340D01*
G01X92523Y3934D01*
X92100Y3511D01*
G03X92383Y2828I283J-283D01*
G01X96388D01*
X98802Y415D01*
Y-28716D01*
X92916Y-34602D01*
X85576D01*
G02X83198Y-32224I-1376J1002D01*
G01Y-29993D01*
X83526Y-29666D01*
Y-29502D01*
G03X83197Y-29349I-200J0D01*
G02X82083Y-29461I-639J758D01*
G03X81492Y-29812I-191J-351D01*
G01Y-34317D01*
X83873Y-36698D01*
X93727D01*
X99398Y-31027D01*
Y36073D01*
X102898Y39573D01*
Y40817D01*
X104783Y42702D01*
X105455D01*
Y45845D01*
X113545D01*
Y37755D01*
X105455D01*
Y39859D01*
G03X104772Y40141I-400J-1D01*
G01X104702Y40071D01*
Y38827D01*
X101202Y35327D01*
Y-31773D01*
X94473Y-38502D01*
X83127D01*
X80884Y-36259D01*
G03X80202Y-36542I-282J-283D01*
G01Y-37124D01*
G02X78198I-1002J-1376D01*
G01Y-36715D01*
X76884Y-35401D01*
G03X76202Y-35683I-282J-283D01*
G01Y-37615D01*
X75128Y-38689D01*
G03X75320Y-39361I283J-283D01*
G02X71734Y-40258I-920J-3939D01*
G03X71470Y-39558I-264J300D01*
G01X67330D01*
G03X67066Y-40258I0J-400D01*
G02X60436Y-44103I-2666J-3042D01*
G03X59761Y-43900I-392J-80D01*
G01X59359Y-44302D01*
X58322D01*
X58280Y-44445D01*
G02X57908Y-41286I-3880J1145D01*
G03X58654Y-41086I346J200D01*
G37*
G36*
G01X12128Y35198D02*
Y36286D01*
X10739D01*
G02X9848Y37177I3J894D01*
G01Y39739D01*
G02X10739Y40630I893J-2D01*
G01X15661D01*
G02X16552Y39739I-3J-894D01*
G01Y37177D01*
G02X15661Y36286I-893J2D01*
G01X14172D01*
Y35486D01*
X14072Y35386D01*
Y35201D01*
X14149Y35141D01*
G02X12128Y35198I-1049J-1341D01*
G37*
G36*
G01X18523Y24848D02*
X15961D01*
G02X15070Y25739I3J894D01*
G01Y30661D01*
G02X15961Y31552I894J-3D01*
G01X16240D01*
Y32465D01*
X17498Y33723D01*
Y39715D01*
X19816Y42033D01*
X19807Y42128D01*
G02X21328Y40607I1693J172D01*
G01X21233Y40616D01*
X19502Y38885D01*
Y32893D01*
X18741Y32132D01*
G03X18863Y31483I283J-283D01*
G02X18963Y31434I-342J-825D01*
G02X19414Y30661I-442J-776D01*
G01Y25739D01*
G02X18523Y24848I-894J3D01*
G37*
G54D27*
X119500Y41800D03*
X129500D03*
X93500Y43000D03*
X84400Y-43300D03*
X94400D03*
X73500Y43000D03*
X50000Y42800D03*
X34400Y-43300D03*
X-128000Y40800D03*
G54D29*
X2000Y-29400D03*
X-24000Y29400D03*
X-24200Y-43000D03*
X-55900Y-42600D03*
G54D28*
X123921Y23732D03*
X114079Y-9732D03*
X-114079D03*
X-123921Y23732D03*
G54D32*
X-108000Y40800D03*
G54D30*
X-27444Y44600D03*
G54D31*
X-10000Y29400D03*
Y-29400D03*
X-36000D03*
%LPD*%
G75*
G36*
G01X-59300Y16600D02*
X-59400Y16500D01*
X-62800D01*
X-64600Y18300D01*
Y21600D01*
X-64500Y21700D01*
X-60600D01*
X-59300Y20400D01*
Y16600D01*
G37*
G36*
G01X-49200Y9000D02*
X-51300Y11100D01*
Y13998D01*
X-49885D01*
X-49884Y14000D01*
X-49200D01*
Y14200D01*
X-47100Y16300D01*
X-46500D01*
Y14100D01*
X-46300Y13900D01*
X-43000D01*
X-42600Y13500D01*
Y9000D01*
X-49200D01*
G37*
G36*
G01X-41602Y8102D02*
X-41800Y8300D01*
Y12400D01*
X-39900D01*
X-37600Y10100D01*
X-39598Y8102D01*
X-41602D01*
G37*
G36*
G01X85576Y-32598D02*
G03X85202Y-32224I-1376J-1002D01*
G01Y-30823D01*
X85528Y-30496D01*
Y-25831D01*
G03X85520Y-25702I-1001J3D01*
G01X85518Y-25689D01*
Y-23071D01*
G03X83825Y-22370I-992J0D01*
G02X83260I-283J282D01*
G03X81857I-701J-701D01*
G02X81291I-283J283D01*
G03X80114Y-22201I-701J-701D01*
G02X79522Y-21850I-192J351D01*
G01Y-21652D01*
X81373Y-19802D01*
X83627D01*
X88798Y-24973D01*
Y-26473D01*
X90939Y-28614D01*
X90922Y-28716D01*
G03X92316Y-27322I1678J-284D01*
G01X92214Y-27339D01*
X90602Y-25727D01*
Y-24227D01*
X87389Y-21014D01*
X87596Y-20807D01*
X87689Y-20815D01*
G03X87771Y-20818I77J988D01*
G01X93291D01*
G03X93992Y-19125I0J992D01*
G02Y-18560I282J282D01*
G03Y-17157I-701J701D01*
G02Y-16591I283J283D01*
G03Y-15188I-701J701D01*
G02Y-14623I282J282D01*
G03Y-13220I-701J701D01*
G02Y-12654I283J283D01*
G03Y-11251I-701J702D01*
G02Y-10686I282J283D01*
G03Y-9283I-701J701D01*
G02Y-8717I283J283D01*
G03Y-7314I-701J701D01*
G02Y-6749I282J282D01*
G03Y-5346I-701J701D01*
G02Y-4780I283J283D01*
G03Y-3377I-701J702D01*
G02Y-2812I282J283D01*
G03Y-1409I-701J702D01*
G02Y-843I283J283D01*
G03X94196Y262I-701J701D01*
G02X94561Y826I365J164D01*
G01X95558D01*
X96798Y-415D01*
Y-27886D01*
X92086Y-32598D01*
X85576D01*
G37*
G54D10*
X-123921Y23732D03*
X-114079Y-9732D03*
X114079D03*
X123921Y23732D03*
G54D20*
X-18500Y-19910D03*
Y-10855D03*
Y-1800D03*
G54D11*
X-128000Y40800D03*
X-118000D03*
X-14200Y13200D03*
X-6500Y43000D03*
X16000Y-15000D03*
Y-5000D03*
Y5000D03*
X-4200Y13200D03*
X3500Y43000D03*
X44400Y-43300D03*
X34400D03*
X40800Y-20700D03*
Y-1015D03*
X50000Y42800D03*
X40000D03*
X47000Y31800D03*
X37000D03*
X74400Y-43300D03*
X64400D03*
X54400D03*
X83500Y43000D03*
X73500D03*
X94400Y-43300D03*
X84400D03*
X93500Y43000D03*
X129500Y41800D03*
X119500D03*
G54D21*
X13200Y45742D03*
Y38458D03*
X40100Y21142D03*
Y13858D03*
X26500Y6442D03*
Y-842D03*
X53700Y14342D03*
Y7058D03*
G54D12*
X-108000Y40800D03*
X-24200Y13200D03*
X-16500Y43000D03*
X16000Y15000D03*
X24400Y-43300D03*
X30000Y42800D03*
X27000Y31800D03*
X63500Y43000D03*
X109500Y41800D03*
G54D13*
X-67900Y-42600D03*
X-36200Y-43000D03*
X-36000Y-29400D03*
Y29400D03*
X-10000Y-29400D03*
Y29400D03*
G54D22*
X80590Y-25831D03*
X78621D03*
X76653D03*
X74684D03*
X72716D03*
X70747D03*
X68779D03*
X66810D03*
X64842D03*
X62873D03*
Y7831D03*
X64842D03*
X66810D03*
X68779D03*
X70747D03*
X72716D03*
X74684D03*
X76653D03*
X78621D03*
X80590D03*
X84527Y-25831D03*
X82558D03*
Y7831D03*
X84527D03*
G54D23*
X56869Y-19827D03*
Y-17858D03*
Y-15890D03*
Y-13921D03*
Y-11953D03*
Y-9984D03*
Y-8016D03*
Y-6047D03*
Y-4079D03*
Y-2110D03*
Y-142D03*
Y1827D03*
X90531Y-6047D03*
Y-8016D03*
Y-9984D03*
Y-11953D03*
Y-13921D03*
Y-15890D03*
Y-17858D03*
Y-19827D03*
Y1827D03*
Y-142D03*
Y-2110D03*
Y-4079D03*
G54D14*
X-84342Y-6800D03*
X-77058D03*
X-84442Y-17900D03*
X-77158D03*
X-57742Y800D03*
X-50458D03*
X9958Y28200D03*
X17242D03*
X44458Y-30500D03*
X51742D03*
G54D24*
G01X-84342Y-6800D02*
Y-13950D01*
X-84442Y-14050D01*
Y-17900D01*
G01X-83600Y16800D02*
Y922D01*
X-77058Y-5620D01*
Y-6800D01*
G01X-65800Y-6900D02*
X-74288D01*
X-74388Y-6800D01*
X-77058D01*
G01X-83600Y16800D02*
Y27702D01*
G01X-47100Y18200D02*
X-50300Y15000D01*
X-65600D01*
X-66600Y14000D01*
Y5600D01*
X-67600Y4600D01*
X-77700D01*
G01X-83600Y27702D02*
X-73741D01*
X-68243Y33200D01*
X-62199D01*
X-58539Y29540D01*
X-55479D01*
X-53539Y27600D01*
X-49600D01*
X-49542Y27658D01*
X-45400D01*
G01X-63000Y300D02*
X-61444Y-1256D01*
Y-12944D01*
X-67900Y-19400D01*
Y-37200D01*
X-68000Y-37300D01*
X-67900Y-37400D01*
Y-42600D01*
G01X-41335Y-10855D02*
X-48055D01*
X-48400Y-11200D01*
G01D02*
X-51045Y-13845D01*
Y-17645D01*
X-53500Y-20100D01*
X-55608D01*
X-55750Y-19958D01*
X-59600D01*
G01X-50458Y800D02*
X-49258Y-400D01*
X-43988D01*
X-42988Y600D01*
X-37900D01*
X-37800Y700D01*
X-35600D01*
G01D02*
X-33350Y2950D01*
X-33327D01*
X-31000Y5277D01*
Y21300D01*
X-29700Y22600D01*
Y34100D01*
X-31100Y35500D01*
X-40992D01*
X-41550Y34942D01*
X-45400D01*
G01X-57956Y44600D02*
X-53100D01*
X-53000Y44700D01*
X-52488D01*
X-45400Y37612D01*
Y34942D01*
G01X-52410Y36000D02*
Y32610D01*
X-51700Y31900D01*
G01X-36200Y-43000D02*
X-30000Y-36800D01*
X-6300D01*
X-3800Y-34300D01*
Y-26300D01*
X-1600Y-24100D01*
Y-15600D01*
X-4500Y-12700D01*
Y500D01*
X4744Y9744D01*
X20500D01*
X21500Y10744D01*
Y36800D01*
X23248Y38548D01*
X25748D01*
X30000Y42800D01*
G01X-6400Y-20000D02*
X-10789D01*
X-13769Y-22980D01*
X-17580D01*
X-24000Y-29400D01*
G01X-18500Y-10855D02*
X-10455D01*
G01X-16500Y43000D02*
Y20900D01*
X-24200Y13200D01*
G01X-18500Y-1800D02*
Y1070D01*
X-9200Y10370D01*
Y17601D01*
X-5701Y21100D01*
X-100D01*
G01X1300Y-10400D02*
X3500D01*
X9500Y-16400D01*
Y-37000D01*
X11000Y-38500D01*
X19600D01*
X24400Y-43300D01*
G01X8200Y6000D02*
Y-7200D01*
X16000Y-15000D01*
G01X28600Y14400D02*
X31800Y11200D01*
Y4400D01*
X30100Y2700D01*
X23700D01*
X16000Y-5000D01*
G01X21500Y42300D02*
X18500Y39300D01*
Y33308D01*
X17242Y32050D01*
Y28200D01*
G01X-6500Y43000D02*
X-3286Y39786D01*
X-448D01*
X9958Y29380D01*
Y28200D01*
G01X44400Y-43300D02*
X41100Y-40000D01*
Y-36300D01*
G01X26900Y-27942D02*
X25720D01*
G01X40800Y-1015D02*
X45832Y-6047D01*
X56869D01*
G01X44400Y-11900D02*
X46600D01*
X47095Y-11405D01*
X48995D01*
X50416Y-9984D01*
X56869D01*
G01X40800Y-20700D02*
Y-9000D01*
X41800Y-8000D01*
X52603D01*
X52619Y-8016D01*
X56869D01*
G01X26900Y-20658D02*
X36214D01*
X36256Y-20700D01*
X40800D01*
G01X26500Y-842D02*
X36083D01*
X36256Y-1015D01*
X40800D01*
G01X40000Y42800D02*
X32000Y34800D01*
Y28062D01*
X38920Y21142D01*
G01X47000Y31800D02*
X50800Y35600D01*
X50900D01*
X58300Y43000D01*
X63500D01*
G01X79200Y-38500D02*
Y-36300D01*
X76600Y-33700D01*
Y-31419D01*
X74684Y-29503D01*
Y-25831D01*
G01X54400Y-43300D02*
X58944D01*
X59656Y-42588D01*
Y-41335D01*
X62435Y-38556D01*
X73844D01*
X75200Y-37200D01*
Y-35046D01*
X74800Y-34646D01*
Y-32165D01*
X72716Y-30081D01*
Y-25831D01*
G01X82100Y-15600D02*
X79400Y-12900D01*
Y-4600D01*
X74684Y116D01*
Y7831D01*
G01X66700Y-12100D02*
X69756Y-9044D01*
Y2604D01*
X68779Y3581D01*
Y7831D01*
G01X66000Y-5400D02*
Y-3200D01*
X66800Y-2400D01*
Y3571D01*
X66810Y3581D01*
Y7831D01*
G01X56869Y1827D02*
X61119D01*
X62300Y646D01*
Y-15500D01*
X63300Y-16500D01*
G01D02*
Y-15100D01*
X62121Y-13921D01*
X56869D01*
G01X80300Y-700D02*
X81856Y-2256D01*
Y-2856D01*
X83156Y-4156D01*
Y-4891D01*
X86281Y-8016D01*
X90531D01*
G01X74900Y26400D02*
X77800Y23500D01*
Y15700D01*
X76653Y14553D01*
Y7831D01*
G01X73400Y-4100D02*
Y-3534D01*
X72884Y-3018D01*
Y-1384D01*
X72716Y-1216D01*
Y7831D01*
G01X64842Y7254D02*
Y7831D01*
G01X62873D02*
X58323D01*
X57550Y7058D01*
X53700D01*
G01D02*
X56869Y3889D01*
Y1827D01*
G01X62873Y7831D02*
Y12081D01*
X63142Y12350D01*
Y12547D01*
X63581Y12986D01*
Y38375D01*
X63500Y38456D01*
Y43000D01*
G01Y43600D02*
Y43000D01*
G01X82558Y-29442D02*
Y-25831D01*
G01X84200Y-33600D02*
Y-30408D01*
X84527Y-30081D01*
Y-25831D01*
G01X84200Y-33600D02*
X92501D01*
X97800Y-28301D01*
Y0D01*
X95973Y1827D01*
X90531D01*
G01Y-9984D02*
X82884D01*
G01X92700Y25900D02*
Y20200D01*
X87000Y14500D01*
Y4600D01*
X84300Y1900D01*
Y-129D01*
X86281Y-2110D01*
X90531D01*
G01X83500Y43000D02*
Y13108D01*
X84527Y12081D01*
Y7831D01*
G01X88731Y-142D02*
X90531D01*
G01X83500Y43600D02*
Y43000D01*
G54D15*
X-77700Y4600D03*
X-48800Y-34800D03*
X-65800Y-6900D03*
X-48400Y-11200D03*
X-63000Y300D03*
X-60900Y7200D03*
X-47100Y18200D03*
X-51700Y31900D03*
X-10455Y-10855D03*
X-35600Y700D03*
X15600Y-33400D03*
X-2600Y-39700D03*
X-6400Y-20000D03*
X1300Y-10400D03*
X21900Y-32400D03*
X8200Y6000D03*
X-100Y21100D03*
X21500Y42300D03*
X13100Y33800D03*
X41100Y-36300D03*
X44400Y-11900D03*
X33600Y-5600D03*
X28600Y14400D03*
X32558Y21142D03*
X35600Y3600D03*
X79200Y-38500D03*
X71300Y-35300D03*
X82100Y-15600D03*
X73400Y-4100D03*
X66700Y-12100D03*
X66000Y-5400D03*
X58100Y-29214D03*
X80300Y-700D03*
X74900Y26400D03*
X72400Y32900D03*
X84200Y-33600D03*
X94000Y-24000D03*
X82884Y-9984D03*
X92600Y-29000D03*
X92700Y25900D03*
X93400Y5400D03*
G54D25*
G01X-41335Y-10855D02*
X-35102D01*
G01D02*
X-26300Y-2053D01*
Y5556D01*
X-24200Y7656D01*
Y13200D01*
G01X-35102Y-10855D02*
X-18500D01*
G01X40100Y21142D02*
X38920D01*
G01D02*
X32558D01*
G54D16*
X-55900Y-42600D03*
X-24200Y-43000D03*
X-24000Y-29400D03*
Y29400D03*
X2000Y-29400D03*
Y29400D03*
G54D26*
G01X-132246Y40800D02*
X-128000D01*
G01Y36554D02*
Y40800D01*
G01D02*
Y45046D01*
G01Y40800D02*
X-123754D01*
G01X-83600Y27702D02*
X-97302D01*
X-103400Y33800D01*
X-111000D01*
X-118000Y40800D01*
G01X-77158Y-21452D02*
Y-17900D01*
G01D02*
Y-14348D01*
G01X-79530Y-17900D02*
X-77158D01*
G01D02*
X-74786D01*
G01X-83500Y16900D02*
X-83600Y16800D01*
G01X-55900Y-46942D02*
Y-42600D01*
G01D02*
Y-38258D01*
G01X-60242Y-42600D02*
X-55900D01*
G01D02*
X-51558D01*
G01X-48800Y-34800D02*
X-44400D01*
X-36200Y-43000D01*
G01X-63152Y-27242D02*
X-59600D01*
G01D02*
X-56048D01*
G01X-59600Y-29614D02*
Y-27242D01*
G01D02*
Y-24870D01*
G01X-57742Y-2752D02*
Y800D01*
G01D02*
Y4352D01*
G01X-60114Y800D02*
X-57742D01*
G01D02*
X-55370D01*
G01X-60900Y7200D02*
X-39200D01*
X-36000Y10400D01*
Y29400D01*
G01X-24200Y-47342D02*
Y-43000D01*
G01D02*
Y-38658D01*
G01X-28542Y-43000D02*
X-24200D01*
G01D02*
X-19858D01*
G01X-18500Y-19910D02*
Y-17338D01*
G01X-23435Y-19910D02*
X-18500D01*
G01D02*
X-13565D01*
G01X-27444Y41929D02*
Y44600D01*
G01D02*
Y47271D01*
G01X-31591Y44600D02*
X-27444D01*
G01D02*
X-23297D01*
G01X13200Y45742D02*
X9450D01*
X9448Y45744D01*
X7332D01*
X6774Y46302D01*
X6772D01*
X5174Y47900D01*
X-10640D01*
X-15540Y43000D01*
X-16500D01*
G01X16000Y15000D02*
X6300Y24700D01*
X4004D01*
X3964Y24660D01*
X-1660D01*
X-3800Y26800D01*
Y33700D01*
X-6200Y36100D01*
X-9600D01*
X-16500Y43000D01*
G01X16000Y754D02*
Y5000D01*
G01X11754D02*
X16000D01*
G01D02*
X20246D01*
G01X3500Y38754D02*
Y43000D01*
G01X-746D02*
X3500D01*
G01D02*
X7746D01*
G01X13100Y33800D02*
Y35788D01*
X13200Y35888D01*
Y38458D01*
G01X34400Y-47546D02*
Y-43300D01*
G01D02*
Y-39054D01*
G01X30154Y-43300D02*
X34400D01*
G01D02*
X38646D01*
G01X24400D02*
X41600Y-26100D01*
X48522D01*
X51742Y-29320D01*
G01X44458Y-34052D02*
Y-30500D01*
G01X42086D02*
X44458D01*
G01D02*
X46830D01*
G01X26900Y-27942D02*
X30452D01*
G01X26900Y-30314D02*
Y-27942D01*
G01D02*
Y-25570D01*
G01X21900Y-32400D02*
Y-17300D01*
X33600Y-5600D01*
G01X50148Y14342D02*
X53700D01*
G01X22948Y6442D02*
X26500D01*
G01D02*
X30052D01*
G01X26500D02*
Y8814D01*
G01X40100Y13858D02*
X43652D01*
G01X40100Y11486D02*
Y13858D01*
G01D02*
Y16230D01*
G01X35600Y3600D02*
Y12600D01*
X27000Y21200D01*
Y31800D01*
G01X37000Y27554D02*
Y31800D01*
G01D02*
Y36046D01*
G01Y31800D02*
X41246D01*
G01X71300Y-35300D02*
X67500D01*
X67400Y-35200D01*
X55262D01*
X51742Y-31680D01*
Y-30500D01*
G01X76653Y-28953D02*
Y-25831D01*
G01Y-21347D02*
Y-25831D01*
G01X52547Y-11953D02*
X56869D01*
G01X76700Y-21300D02*
X76653Y-21347D01*
G01X51300Y-13200D02*
X52547Y-11953D01*
G01X63300Y-16500D02*
X63200Y-16600D01*
Y-18900D01*
X55087Y-27013D01*
X54049D01*
X51742Y-29320D01*
G01Y-30500D02*
Y-29320D01*
G01X92600Y-29000D02*
X89700Y-26100D01*
Y-24600D01*
X84000Y-18900D01*
X81000D01*
X78621Y-21279D01*
Y-25831D01*
G01X62873D02*
X61483D01*
X58100Y-29214D01*
G01X64842Y11842D02*
Y7831D01*
G01X53700Y14342D02*
X57252D01*
G01X53700Y11970D02*
Y14342D01*
G01D02*
Y16714D01*
G01X65100Y12100D02*
X64842Y11842D01*
G01X72400Y32900D02*
X70600Y31100D01*
Y12128D01*
X70747Y11981D01*
Y7831D01*
G01X109500Y41800D02*
X105156D01*
X103800Y40444D01*
Y39200D01*
X100300Y35700D01*
Y-31400D01*
X94100Y-37600D01*
X83500D01*
X80590Y-34690D01*
Y-25831D01*
G01X82600Y-20500D02*
X82558Y-20542D01*
G01D02*
Y-25831D01*
G01X95100Y-900D02*
X94342Y-142D01*
G01D02*
X90531D01*
G01Y1827D02*
Y3217D01*
X92714Y5400D01*
X93400D01*
G01X93500Y38754D02*
Y43000D01*
G01D02*
Y47246D01*
G01X89254Y43000D02*
X93500D01*
G01D02*
X97746D01*
G01X129500Y37554D02*
Y41800D01*
G01D02*
Y46046D01*
G01X125254Y41800D02*
X129500D01*
G01D02*
X133746D01*
G54D17*
X-41335Y-10855D03*
G54D18*
X-59600Y-27242D03*
Y-19958D03*
X-45400Y27658D03*
Y34942D03*
X26900Y-27942D03*
Y-20658D03*
G54D19*
X-57956Y44600D03*
X-27444D03*
M02*
