G04 ================== begin FILE IDENTIFICATION RECORD ==================*
G04 Layout Name:  E:/«∂»Î Ω/git/PCB_MCU/boardv5_0/BBear_balance_carv2_0.brd*
G04 Film Name:    DRILL_DRAW*
G04 File Format:  Gerber RS274X*
G04 File Origin:  Cadence Allegro 16.6-P004*
G04 Origin Date:  Tue Apr 04 18:31:46 2017*
G04 *
G04 Layer:  MANUFACTURING/NCLEGEND-1-2*
G04 Layer:  BOARD GEOMETRY/OUTLINE*
G04 *
G04 Offset:    (0.0000 0.0000)*
G04 Mirror:    No*
G04 Mode:      Positive*
G04 Rotation:  0*
G04 FullContactRelief:  No*
G04 UndefLineWidth:     0.1524*
G04 ================== end FILE IDENTIFICATION RECORD ====================*
%FSLAX25Y25*MOMM*%
%IR0*IPPOS*OFA0.00000B0.00000*MIA0B0*SFA1.00000B1.00000*%
%AMMACRO13*
1,1,.1524,.635,0.0*
20,1,.1524,.635,0.0,.625353,-.110267,0.0*
1,1,.1524,.625353,-.110267*
20,1,.1524,.625353,-.110267,.596705,-.217183,0.0*
1,1,.1524,.596705,-.217183*
20,1,.1524,.596705,-.217183,.549926,-.3175,0.0*
1,1,.1524,.549926,-.3175*
20,1,.1524,.549926,-.3175,.486438,-.40817,0.0*
1,1,.1524,.486438,-.40817*
20,1,.1524,.486438,-.40817,.40817,-.486438,0.0*
1,1,.1524,.40817,-.486438*
20,1,.1524,.40817,-.486438,.3175,-.549926,0.0*
1,1,.1524,.3175,-.549926*
20,1,.1524,.3175,-.549926,.217183,-.596705,0.0*
1,1,.1524,.217183,-.596705*
20,1,.1524,.217183,-.596705,.110267,-.625353,0.0*
1,1,.1524,.110267,-.625353*
20,1,.1524,.110267,-.625353,0.0,-.635,0.0*
1,1,.1524,0.0,-.635*
20,1,.1524,0.0,-.635,-.110267,-.625353,0.0*
1,1,.1524,-.110267,-.625353*
20,1,.1524,-.110267,-.625353,-.217183,-.596705,0.0*
1,1,.1524,-.217183,-.596705*
20,1,.1524,-.217183,-.596705,-.3175,-.549926,0.0*
1,1,.1524,-.3175,-.549926*
20,1,.1524,-.3175,-.549926,-.40817,-.486438,0.0*
1,1,.1524,-.40817,-.486438*
20,1,.1524,-.40817,-.486438,-.486438,-.40817,0.0*
1,1,.1524,-.486438,-.40817*
20,1,.1524,-.486438,-.40817,-.549926,-.3175,0.0*
1,1,.1524,-.549926,-.3175*
20,1,.1524,-.549926,-.3175,-.596705,-.217183,0.0*
1,1,.1524,-.596705,-.217183*
20,1,.1524,-.596705,-.217183,-.625353,-.110267,0.0*
1,1,.1524,-.625353,-.110267*
20,1,.1524,-.625353,-.110267,-.635,0.0,0.0*
1,1,.1524,-.635,0.0*
20,1,.1524,-.635,0.0,-.625353,.110267,0.0*
1,1,.1524,-.625353,.110267*
20,1,.1524,-.625353,.110267,-.596705,.217183,0.0*
1,1,.1524,-.596705,.217183*
20,1,.1524,-.596705,.217183,-.549926,.3175,0.0*
1,1,.1524,-.549926,.3175*
20,1,.1524,-.549926,.3175,-.486438,.40817,0.0*
1,1,.1524,-.486438,.40817*
20,1,.1524,-.486438,.40817,-.40817,.486438,0.0*
1,1,.1524,-.40817,.486438*
20,1,.1524,-.40817,.486438,-.3175,.549926,0.0*
1,1,.1524,-.3175,.549926*
20,1,.1524,-.3175,.549926,-.217183,.596705,0.0*
1,1,.1524,-.217183,.596705*
20,1,.1524,-.217183,.596705,-.110267,.625353,0.0*
1,1,.1524,-.110267,.625353*
20,1,.1524,-.110267,.625353,0.0,.635,0.0*
1,1,.1524,0.0,.635*
20,1,.1524,0.0,.635,.110267,.625353,0.0*
1,1,.1524,.110267,.625353*
20,1,.1524,.110267,.625353,.217183,.596705,0.0*
1,1,.1524,.217183,.596705*
20,1,.1524,.217183,.596705,.3175,.549926,0.0*
1,1,.1524,.3175,.549926*
20,1,.1524,.3175,.549926,.40817,.486438,0.0*
1,1,.1524,.40817,.486438*
20,1,.1524,.40817,.486438,.486438,.40817,0.0*
1,1,.1524,.486438,.40817*
20,1,.1524,.486438,.40817,.549926,.3175,0.0*
1,1,.1524,.549926,.3175*
20,1,.1524,.549926,.3175,.596705,.217183,0.0*
1,1,.1524,.596705,.217183*
20,1,.1524,.596705,.217183,.625353,.110267,0.0*
1,1,.1524,.625353,.110267*
20,1,.1524,.625353,.110267,.635,0.0,0.0*
1,1,.1524,.635,0.0*
1,1,.1524,.3175,0.0*
20,1,.1524,.3175,0.0,-.3175,0.0,0.0*
1,1,.1524,-.3175,0.0*
1,1,.1524,0.0,.3175*
20,1,.1524,0.0,.3175,0.0,-.3175,0.0*
1,1,.1524,0.0,-.3175*
%
%ADD13MACRO13*%
%AMMACRO10*
1,1,.1524,1.59995,0.0*
20,1,.1524,1.59995,0.0,.799975,1.385597,0.0*
1,1,.1524,.799975,1.385597*
20,1,.1524,.799975,1.385597,-.799975,1.385597,0.0*
1,1,.1524,-.799975,1.385597*
20,1,.1524,-.799975,1.385597,-1.59995,0.0,0.0*
1,1,.1524,-1.59995,0.0*
20,1,.1524,-1.59995,0.0,-.799975,-1.385597,0.0*
1,1,.1524,-.799975,-1.385597*
20,1,.1524,-.799975,-1.385597,.799975,-1.385597,0.0*
1,1,.1524,.799975,-1.385597*
20,1,.1524,.799975,-1.385597,1.59995,0.0,0.0*
1,1,.1524,1.59995,0.0*
1,1,.1524,.2133,.0534*
20,1,.1524,.2133,.0534,.32,.1334,0.0*
1,1,.1524,.32,.1334*
20,1,.1524,.32,.1334,.4,.2667,0.0*
1,1,.1524,.4,.2667*
20,1,.1524,.4,.2667,.4534,.4534,0.0*
1,1,.1524,.4534,.4534*
20,1,.1524,.4534,.4534,.4,.6133,0.0*
1,1,.1524,.4,.6133*
20,1,.1524,.4,.6133,.2934,.72,0.0*
1,1,.1524,.2934,.72*
20,1,.1524,.2934,.72,.1067,.8,0.0*
1,1,.1524,.1067,.8*
20,1,.1524,.1067,.8,-.6132,.8,0.0*
1,1,.1524,-.6132,.8*
20,1,.1524,-.6132,.8,-.6132,-.7999,0.0*
1,1,.1524,-.6132,-.7999*
20,1,.1524,-.6132,-.7999,.2667,-.7999,0.0*
1,1,.1524,.2667,-.7999*
20,1,.1524,.2667,-.7999,.4534,-.6933,0.0*
1,1,.1524,.4534,-.6933*
20,1,.1524,.4534,-.6933,.56,-.5333,0.0*
1,1,.1524,.56,-.5333*
20,1,.1524,.56,-.5333,.6133,-.3466,0.0*
1,1,.1524,.6133,-.3466*
20,1,.1524,.6133,-.3466,.56,-.16,0.0*
1,1,.1524,.56,-.16*
20,1,.1524,.56,-.16,.4,0.0,0.0*
1,1,.1524,.4,0.0*
20,1,.1524,.4,0.0,.2133,.0534,0.0*
1,1,.1524,.2133,.0534*
20,1,.1524,.2133,.0534,-.6132,.0534,0.0*
1,1,.1524,-.6132,.0534*
%
%ADD10MACRO10*%
%AMMACRO12*
1,1,.1524,.5499,0.0*
20,1,.1524,.5499,0.0,.541546,-.095489,0.0*
1,1,.1524,.541546,-.095489*
20,1,.1524,.541546,-.095489,.516737,-.188077,0.0*
1,1,.1524,.516737,-.188077*
20,1,.1524,.516737,-.188077,.476227,-.27495,0.0*
1,1,.1524,.476227,-.27495*
20,1,.1524,.476227,-.27495,.421248,-.353469,0.0*
1,1,.1524,.421248,-.353469*
20,1,.1524,.421248,-.353469,.353469,-.421248,0.0*
1,1,.1524,.353469,-.421248*
20,1,.1524,.353469,-.421248,.27495,-.476227,0.0*
1,1,.1524,.27495,-.476227*
20,1,.1524,.27495,-.476227,.188077,-.516737,0.0*
1,1,.1524,.188077,-.516737*
20,1,.1524,.188077,-.516737,.095489,-.541546,0.0*
1,1,.1524,.095489,-.541546*
20,1,.1524,.095489,-.541546,0.0,-.5499,0.0*
1,1,.1524,0.0,-.5499*
20,1,.1524,0.0,-.5499,-.095489,-.541546,0.0*
1,1,.1524,-.095489,-.541546*
20,1,.1524,-.095489,-.541546,-.188077,-.516737,0.0*
1,1,.1524,-.188077,-.516737*
20,1,.1524,-.188077,-.516737,-.27495,-.476227,0.0*
1,1,.1524,-.27495,-.476227*
20,1,.1524,-.27495,-.476227,-.353469,-.421248,0.0*
1,1,.1524,-.353469,-.421248*
20,1,.1524,-.353469,-.421248,-.421248,-.353469,0.0*
1,1,.1524,-.421248,-.353469*
20,1,.1524,-.421248,-.353469,-.476227,-.27495,0.0*
1,1,.1524,-.476227,-.27495*
20,1,.1524,-.476227,-.27495,-.516737,-.188077,0.0*
1,1,.1524,-.516737,-.188077*
20,1,.1524,-.516737,-.188077,-.541546,-.095489,0.0*
1,1,.1524,-.541546,-.095489*
20,1,.1524,-.541546,-.095489,-.5499,0.0,0.0*
1,1,.1524,-.5499,0.0*
20,1,.1524,-.5499,0.0,-.541546,.095489,0.0*
1,1,.1524,-.541546,.095489*
20,1,.1524,-.541546,.095489,-.516737,.188077,0.0*
1,1,.1524,-.516737,.188077*
20,1,.1524,-.516737,.188077,-.476227,.27495,0.0*
1,1,.1524,-.476227,.27495*
20,1,.1524,-.476227,.27495,-.421248,.353469,0.0*
1,1,.1524,-.421248,.353469*
20,1,.1524,-.421248,.353469,-.353469,.421248,0.0*
1,1,.1524,-.353469,.421248*
20,1,.1524,-.353469,.421248,-.27495,.476227,0.0*
1,1,.1524,-.27495,.476227*
20,1,.1524,-.27495,.476227,-.188077,.516737,0.0*
1,1,.1524,-.188077,.516737*
20,1,.1524,-.188077,.516737,-.095489,.541546,0.0*
1,1,.1524,-.095489,.541546*
20,1,.1524,-.095489,.541546,0.0,.5499,0.0*
1,1,.1524,0.0,.5499*
20,1,.1524,0.0,.5499,.095489,.541546,0.0*
1,1,.1524,.095489,.541546*
20,1,.1524,.095489,.541546,.188077,.516737,0.0*
1,1,.1524,.188077,.516737*
20,1,.1524,.188077,.516737,.27495,.476227,0.0*
1,1,.1524,.27495,.476227*
20,1,.1524,.27495,.476227,.353469,.421248,0.0*
1,1,.1524,.353469,.421248*
20,1,.1524,.353469,.421248,.421248,.353469,0.0*
1,1,.1524,.421248,.353469*
20,1,.1524,.421248,.353469,.476227,.27495,0.0*
1,1,.1524,.476227,.27495*
20,1,.1524,.476227,.27495,.516737,.188077,0.0*
1,1,.1524,.516737,.188077*
20,1,.1524,.516737,.188077,.541546,.095489,0.0*
1,1,.1524,.541546,.095489*
20,1,.1524,.541546,.095489,.5499,0.0,0.0*
1,1,.1524,.5499,0.0*
%
%ADD12MACRO12*%
%AMMACRO11*
1,1,.1524,.5,0.0*
20,1,.1524,.5,0.0,.25,.433013,0.0*
1,1,.1524,.25,.433013*
20,1,.1524,.25,.433013,-.25,.433013,0.0*
1,1,.1524,-.25,.433013*
20,1,.1524,-.25,.433013,-.5,0.0,0.0*
1,1,.1524,-.5,0.0*
20,1,.1524,-.5,0.0,-.25,-.433013,0.0*
1,1,.1524,-.25,-.433013*
20,1,.1524,-.25,-.433013,.25,-.433013,0.0*
1,1,.1524,.25,-.433013*
20,1,.1524,.25,-.433013,.5,0.0,0.0*
1,1,.1524,.5,0.0*
1,1,.1524,.1833,.2083*
20,1,.1524,.1833,.2083,.1333,.2333,0.0*
1,1,.1524,.1333,.2333*
20,1,.1524,.1333,.2333,.075,.25,0.0*
1,1,.1524,.075,.25*
20,1,.1524,.075,.25,.0083,.25,0.0*
1,1,.1524,.0083,.25*
20,1,.1524,.0083,.25,-.0667,.225,0.0*
1,1,.1524,-.0667,.225*
20,1,.1524,-.0667,.225,-.125,.1833,0.0*
1,1,.1524,-.125,.1833*
20,1,.1524,-.125,.1833,-.1667,.1333,0.0*
1,1,.1524,-.1667,.1333*
20,1,.1524,-.1667,.1333,-.2,.05,0.0*
1,1,.1524,-.2,.05*
20,1,.1524,-.2,.05,-.2083,-.025,0.0*
1,1,.1524,-.2083,-.025*
20,1,.1524,-.2083,-.025,-.1917,-.1,0.0*
1,1,.1524,-.1917,-.1*
20,1,.1524,-.1917,-.1,-.1667,-.15,0.0*
1,1,.1524,-.1667,-.15*
20,1,.1524,-.1667,-.15,-.1167,-.2,0.0*
1,1,.1524,-.1167,-.2*
20,1,.1524,-.1167,-.2,-.0583,-.2333,0.0*
1,1,.1524,-.0583,-.2333*
20,1,.1524,-.0583,-.2333,0.0,-.25,0.0*
1,1,.1524,0.0,-.25*
20,1,.1524,0.0,-.25,.0583,-.25,0.0*
1,1,.1524,.0583,-.25*
20,1,.1524,.0583,-.25,.1167,-.2333,0.0*
1,1,.1524,.1167,-.2333*
20,1,.1524,.1167,-.2333,.1667,-.2083,0.0*
1,1,.1524,.1667,-.2083*
20,1,.1524,.1667,-.2083,.2083,-.175,0.0*
1,1,.1524,.2083,-.175*
%
%ADD11MACRO11*%
%ADD14C,.1524*%
G75*
%LPD*%
G75*
G54D10*
X410030Y1872790D03*
X660010Y1022810D03*
X2133950Y-5408690D03*
X4350000Y1300000D03*
X6455230Y1022810D03*
X6705210Y1872790D03*
G54D11*
X306420Y2306320D03*
X1087120Y2313940D03*
X560420Y2306320D03*
X814420D03*
X1341120Y2313940D03*
X1595120D03*
X1849120D03*
X2133950Y-3981210D03*
X3196940Y1605280D03*
X2942940D03*
X3392520Y2362200D03*
X3138520D03*
X3964020Y889000D03*
Y1143000D03*
Y1397000D03*
Y1651000D03*
X3450940Y1605280D03*
X3646520Y2362200D03*
X4685380Y170180D03*
X4431380D03*
X4177380D03*
X4691380Y744220D03*
Y1244220D03*
X4827620Y2357120D03*
X4573620D03*
X4319620D03*
X4751420Y2077720D03*
X4497420D03*
X4243420D03*
X5447380Y170180D03*
X5193380D03*
X4939380D03*
X5678520Y2362200D03*
X5424520D03*
X5170520D03*
X5955380Y170180D03*
X5701380D03*
X6196680Y281940D03*
X6425280Y568960D03*
X5932520Y2362200D03*
X6338920Y2331720D03*
X6450680Y281940D03*
X6704680D03*
X6958680D03*
X6679280Y568960D03*
X6933280D03*
X6846920Y2331720D03*
X6592920D03*
G54D12*
X1832960Y187960D03*
X2133950Y-4694950D03*
X2137760Y187960D03*
X2638140Y177800D03*
X2643220Y523240D03*
Y2016760D03*
X2942940Y177800D03*
X3303620Y523240D03*
X2948020D03*
X3303620Y2016760D03*
X2948020D03*
X3608420Y523240D03*
Y2016760D03*
G54D13*
X1584040Y1386840D03*
X2133950Y-3267470D03*
X1886300Y1094740D03*
X2328260Y985520D03*
X1957420Y1277620D03*
X2010760Y1452880D03*
X2361280Y1732280D03*
X2244440Y2080260D03*
X3292060Y994280D03*
X3304540Y1170940D03*
X2653380Y1287780D03*
X3953860Y421640D03*
X3491580Y261620D03*
X3395060Y762000D03*
X3590640Y1005840D03*
X4113880Y447040D03*
X3765900Y1422400D03*
X3555080Y1805940D03*
X4103720Y2344420D03*
X3890360Y2128520D03*
X4601560Y347980D03*
X4685380Y967740D03*
X4846320Y1844040D03*
X4284060Y1635760D03*
X4384590Y1807010D03*
X5569300Y292100D03*
X5368640Y373380D03*
X5642960Y873760D03*
X5421980Y1165860D03*
X5251800Y962660D03*
X5234020Y1132840D03*
X5033360Y527960D03*
X5597240Y1252220D03*
X5460080Y1940560D03*
X5261960Y1648460D03*
X5396580Y2105660D03*
X5696300Y416560D03*
X5945220Y660400D03*
X5662870Y1016410D03*
X5909660Y533400D03*
X6120480Y736600D03*
X6117940Y883920D03*
X6168740Y1023620D03*
X6191600Y1160780D03*
X5912200Y1927860D03*
X5929980Y1407160D03*
X6780880Y848360D03*
X6463380Y1496060D03*
X6836760Y1330960D03*
X6745320Y1427480D03*
G54D14*
G01X65120Y2540000D02*
X7050120D01*
G02X7113620Y2476500I0J-63500D01*
G01Y63500D01*
G02X7050120Y0I-63500J0D01*
G01X65120D01*
G02X1620Y63500I0J63500D01*
G01Y2476500D01*
G02X65120Y2540000I63500J0D01*
G01X992220Y-5765560D02*
Y-833120D01*
X13275660D01*
Y-5765560D01*
X992220D01*
G01Y-5051820D02*
X13275660D01*
G01X992220Y-4338080D02*
X13275660D01*
G01X992220Y-3624340D02*
X13275660D01*
G01X992220Y-2910600D02*
X13275660D01*
G01X992220Y-2196860D02*
X13275660D01*
G01X992220Y-1483120D02*
X13275660D01*
G01X1271740Y-2673110D02*
Y-2355610D01*
X1421360D01*
G01X1366230Y-2509060D02*
X1271740D01*
G01X1614270Y-2355610D02*
X1708750D01*
G01X1661510D02*
Y-2673110D01*
G01X1614270D02*
X1708750D01*
G01X2000090Y-2514360D02*
X2078840D01*
Y-2609610D01*
X2055210Y-2641370D01*
X2027650Y-2662530D01*
X1988280Y-2673110D01*
X1948910Y-2662530D01*
X1921350Y-2641370D01*
X1897730Y-2609610D01*
X1881980Y-2572570D01*
X1874100Y-2530240D01*
Y-2493190D01*
X1881980Y-2461450D01*
X1897730Y-2424400D01*
X1921350Y-2392650D01*
X1944970Y-2371490D01*
X1976470Y-2355610D01*
X2004030D01*
X2035520Y-2366190D01*
X2059150Y-2387360D01*
G01X2204820Y-2355610D02*
Y-2583150D01*
X2220560Y-2630790D01*
X2252060Y-2662530D01*
X2291430Y-2673110D01*
X2330800Y-2662530D01*
X2362300Y-2630790D01*
X2378040Y-2583150D01*
Y-2355610D01*
G01X2527650Y-2673110D02*
Y-2355610D01*
X2626070D01*
X2657570Y-2371490D01*
X2677260Y-2392650D01*
X2685130Y-2434990D01*
X2677260Y-2477320D01*
X2653630Y-2503770D01*
X2626070Y-2519660D01*
X2527650D01*
G01X2626070D02*
X2685130Y-2673110D01*
G01X3000090D02*
X2842610D01*
Y-2355610D01*
X3000090D01*
G01X2937100Y-2509060D02*
X2842610D01*
G01X3275680Y-2196860D02*
Y-5765560D01*
G01X2783550Y-1959370D02*
X2881980Y-1641870D01*
X2980410Y-1959370D01*
G01X2944970Y-1848250D02*
X2818980D01*
G01X3118200Y-1641870D02*
Y-1959370D01*
X3275680D01*
G01X3433160Y-1641870D02*
Y-1959370D01*
X3590640D01*
G01X4055210Y-1641870D02*
Y-1869410D01*
X4070950Y-1917050D01*
X4102450Y-1948790D01*
X4141820Y-1959370D01*
X4181190Y-1948790D01*
X4212690Y-1917050D01*
X4228430Y-1869410D01*
Y-1641870D01*
G01X4366230Y-1959370D02*
Y-1641870D01*
X4547330Y-1959370D01*
Y-1641870D01*
G01X4724500D02*
X4818980D01*
G01X4771740D02*
Y-1959370D01*
G01X4724500D02*
X4818980D01*
G01X5086700Y-1641870D02*
Y-1959370D01*
G01X4996150Y-1641870D02*
X5177250D01*
G01X5318980Y-1917050D02*
X5350480Y-1943500D01*
X5385910Y-1959370D01*
X5417410D01*
X5448900Y-1943500D01*
X5472530Y-1917050D01*
X5484340Y-1879990D01*
X5476470Y-1842960D01*
X5456780Y-1811210D01*
X5421340Y-1790030D01*
X5374100Y-1779450D01*
X5346540Y-1758290D01*
X5334730Y-1721250D01*
X5342610Y-1684200D01*
X5362290Y-1657750D01*
X5389850Y-1641870D01*
X5417410D01*
X5444970Y-1652450D01*
X5468590Y-1678910D01*
G01X5933150Y-1959370D02*
X6031580Y-1641870D01*
X6130010Y-1959370D01*
G01X6094570Y-1848250D02*
X5968580D01*
G01X6267800Y-1959370D02*
Y-1641870D01*
X6366220D01*
X6397720Y-1657750D01*
X6417410Y-1678910D01*
X6425280Y-1721250D01*
X6417410Y-1763580D01*
X6393780Y-1790030D01*
X6366220Y-1805920D01*
X6267800D01*
G01X6366220D02*
X6425280Y-1959370D01*
G01X6740240D02*
X6582760D01*
Y-1641870D01*
X6740240D01*
G01X6677250Y-1795320D02*
X6582760D01*
G01X7244180Y-1641870D02*
X7338660D01*
G01X7291420D02*
Y-1959370D01*
G01X7244180D02*
X7338660D01*
G01X7515830D02*
Y-1641870D01*
X7696930Y-1959370D01*
Y-1641870D01*
G01X8133930Y-1959370D02*
Y-1641870D01*
X8236300Y-1906450D01*
X8338670Y-1641870D01*
Y-1959370D01*
G01X8504020Y-1641870D02*
X8598500D01*
G01X8551260D02*
Y-1959370D01*
G01X8504020D02*
X8598500D01*
G01X8787480Y-1641870D02*
Y-1959370D01*
X8944960D01*
G01X9102440Y-1641870D02*
Y-1959370D01*
X9259920D01*
G01X9448900Y-1641870D02*
X9543380D01*
G01X9496140D02*
Y-1959370D01*
G01X9448900D02*
X9543380D01*
G01X9708730D02*
Y-1641870D01*
X9811100Y-1906450D01*
X9913470Y-1641870D01*
Y-1959370D01*
G01X10204800D02*
X10047320D01*
Y-1641870D01*
X10204800D01*
G01X10141810Y-1795320D02*
X10047320D01*
G01X10441020Y-1641870D02*
Y-1959370D01*
G01X10350470Y-1641870D02*
X10531570D01*
G01X10834720Y-1959370D02*
X10677240D01*
Y-1641870D01*
X10834720D01*
G01X10771730Y-1795320D02*
X10677240D01*
G01X10992200Y-1959370D02*
Y-1641870D01*
X11090620D01*
X11122120Y-1657750D01*
X11141810Y-1678910D01*
X11149680Y-1721250D01*
X11141810Y-1763580D01*
X11118180Y-1790030D01*
X11090620Y-1805920D01*
X10992200D01*
G01X11090620D02*
X11149680Y-1959370D01*
G01X11303220Y-1917050D02*
X11334720Y-1943500D01*
X11370150Y-1959370D01*
X11401650D01*
X11433140Y-1943500D01*
X11456770Y-1917050D01*
X11468580Y-1879990D01*
X11460710Y-1842960D01*
X11441020Y-1811210D01*
X11405580Y-1790030D01*
X11358340Y-1779450D01*
X11330780Y-1758290D01*
X11318970Y-1721250D01*
X11326850Y-1684200D01*
X11346530Y-1657750D01*
X11374090Y-1641870D01*
X11401650D01*
X11429210Y-1652450D01*
X11452830Y-1678910D01*
G01X3110330Y-1309370D02*
Y-991870D01*
X3189060D01*
X3220560Y-1007750D01*
X3244180Y-1028910D01*
X3263870Y-1060660D01*
X3279620Y-1097710D01*
X3283550Y-1150620D01*
X3279620Y-1203540D01*
X3263870Y-1240580D01*
X3244180Y-1272340D01*
X3220560Y-1293500D01*
X3189060Y-1309370D01*
X3110330D01*
G01X3433160D02*
Y-991870D01*
X3531580D01*
X3563080Y-1007750D01*
X3582770Y-1028910D01*
X3590640Y-1071250D01*
X3582770Y-1113580D01*
X3559140Y-1140030D01*
X3531580Y-1155920D01*
X3433160D01*
G01X3531580D02*
X3590640Y-1309370D01*
G01X3779620Y-991870D02*
X3874100D01*
G01X3826860D02*
Y-1309370D01*
G01X3779620D02*
X3874100D01*
G01X4063080Y-991870D02*
Y-1309370D01*
X4220560D01*
G01X4378040Y-991870D02*
Y-1309370D01*
X4535520D01*
G01X5173310Y-1018330D02*
X5149690Y-1002450D01*
X5122140Y-991870D01*
X5090640D01*
X5055200Y-1007750D01*
X5027650Y-1034200D01*
X5007960Y-1065960D01*
X4992210Y-1118870D01*
X4988270Y-1166500D01*
X4996150Y-1214120D01*
X5007960Y-1245870D01*
X5031580Y-1277630D01*
X5059140Y-1298790D01*
X5086700Y-1309370D01*
X5114260D01*
X5141820Y-1298790D01*
X5165440Y-1282920D01*
X5185130Y-1261760D01*
G01X5318980Y-1309370D02*
Y-991870D01*
G01X5484340D02*
Y-1309370D01*
G01Y-1150620D02*
X5318980D01*
G01X5618190Y-1309370D02*
X5716620Y-991870D01*
X5815050Y-1309370D01*
G01X5779610Y-1198250D02*
X5653620D01*
G01X5952840Y-1309370D02*
Y-991870D01*
X6051260D01*
X6082760Y-1007750D01*
X6102450Y-1028910D01*
X6110320Y-1071250D01*
X6102450Y-1113580D01*
X6078820Y-1140030D01*
X6051260Y-1155920D01*
X5952840D01*
G01X6051260D02*
X6110320Y-1309370D01*
G01X6346540Y-991870D02*
Y-1309370D01*
G01X6255990Y-991870D02*
X6437090D01*
G01X6661500Y-1319950D02*
X6653620Y-1314660D01*
Y-1304080D01*
X6661500Y-1298790D01*
X6669380Y-1304080D01*
Y-1314660D01*
X6661500Y-1319950D01*
G01Y-1177090D02*
X6653620Y-1171790D01*
Y-1161210D01*
X6661500Y-1155920D01*
X6669380Y-1161210D01*
Y-1171790D01*
X6661500Y-1177090D01*
G01X7291420Y-991870D02*
Y-1309370D01*
G01X7200870Y-991870D02*
X7381970D01*
G01X7606380Y-1309370D02*
X7574880Y-1304080D01*
X7547330Y-1282920D01*
X7523700Y-1251160D01*
X7507950Y-1214120D01*
X7500080Y-1171790D01*
Y-1129450D01*
X7507950Y-1087120D01*
X7523700Y-1050080D01*
X7547330Y-1018330D01*
X7574880Y-997160D01*
X7606380Y-991870D01*
X7637870Y-997160D01*
X7665430Y-1018330D01*
X7689060Y-1050080D01*
X7704810Y-1087120D01*
X7712680Y-1129450D01*
Y-1171790D01*
X7704810Y-1214120D01*
X7689060Y-1251160D01*
X7665430Y-1282920D01*
X7637870Y-1304080D01*
X7606380Y-1309370D01*
G01X7842600D02*
Y-991870D01*
X7937090D01*
X7968580Y-1007750D01*
X7992210Y-1044790D01*
X8000080Y-1087120D01*
X7992210Y-1129450D01*
X7972520Y-1161210D01*
X7937090Y-1177090D01*
X7842600D01*
G01X8551260Y-991870D02*
Y-1309370D01*
G01X8496140Y-1097710D02*
X8606380D01*
G01X8866220Y-1309370D02*
X8842600Y-1304080D01*
X8818980Y-1282920D01*
X8803220Y-1245870D01*
X8795350Y-1203540D01*
X8803220Y-1161210D01*
X8818980Y-1124160D01*
X8842600Y-1103000D01*
X8866220Y-1097710D01*
X8889840Y-1103000D01*
X8913460Y-1124160D01*
X8929210Y-1161210D01*
X8933150Y-1203540D01*
X8929210Y-1245870D01*
X8913460Y-1282920D01*
X8889840Y-1304080D01*
X8866220Y-1309370D01*
G01X9527630Y-1140030D02*
X9543380Y-1124160D01*
X9555190Y-1097710D01*
X9563070Y-1060660D01*
X9555190Y-1028910D01*
X9539450Y-1007750D01*
X9511890Y-991870D01*
X9405590D01*
Y-1309370D01*
X9535510D01*
X9563070Y-1288210D01*
X9578820Y-1256450D01*
X9586690Y-1219410D01*
X9578820Y-1182380D01*
X9555190Y-1150620D01*
X9527630Y-1140030D01*
X9405590D01*
G01X9811100Y-1309370D02*
X9779600Y-1304080D01*
X9752050Y-1282920D01*
X9728420Y-1251160D01*
X9712670Y-1214120D01*
X9704800Y-1171790D01*
Y-1129450D01*
X9712670Y-1087120D01*
X9728420Y-1050080D01*
X9752050Y-1018330D01*
X9779600Y-997160D01*
X9811100Y-991870D01*
X9842590Y-997160D01*
X9870150Y-1018330D01*
X9893780Y-1050080D01*
X9909530Y-1087120D01*
X9917400Y-1129450D01*
Y-1171790D01*
X9909530Y-1214120D01*
X9893780Y-1251160D01*
X9870150Y-1282920D01*
X9842590Y-1304080D01*
X9811100Y-1309370D01*
G01X10126060Y-991870D02*
Y-1309370D01*
G01X10035510Y-991870D02*
X10216610D01*
G01X10441020D02*
Y-1309370D01*
G01X10350470Y-991870D02*
X10531570D01*
G01X10755980Y-1309370D02*
X10724480Y-1304080D01*
X10696930Y-1282920D01*
X10673300Y-1251160D01*
X10657550Y-1214120D01*
X10649680Y-1171790D01*
Y-1129450D01*
X10657550Y-1087120D01*
X10673300Y-1050080D01*
X10696930Y-1018330D01*
X10724480Y-997160D01*
X10755980Y-991870D01*
X10787470Y-997160D01*
X10815030Y-1018330D01*
X10838660Y-1050080D01*
X10854410Y-1087120D01*
X10862280Y-1129450D01*
Y-1171790D01*
X10854410Y-1214120D01*
X10838660Y-1251160D01*
X10815030Y-1282920D01*
X10787470Y-1304080D01*
X10755980Y-1309370D01*
G01X10968570D02*
Y-991870D01*
X11070940Y-1256450D01*
X11173310Y-991870D01*
Y-1309370D01*
G01X4889850Y-4853700D02*
Y-4536200D01*
X4842610Y-4599700D01*
G01Y-4853700D02*
X4937090D01*
G01X5204810Y-4864280D02*
X5196930Y-4858990D01*
Y-4848410D01*
X5204810Y-4843120D01*
X5212690Y-4848410D01*
Y-4858990D01*
X5204810Y-4864280D01*
G01X5519770Y-4536200D02*
X5488270Y-4546780D01*
X5464650Y-4573240D01*
X5448900Y-4604990D01*
X5437090Y-4647330D01*
X5433160Y-4694950D01*
X5437090Y-4742580D01*
X5448900Y-4784910D01*
X5464650Y-4816670D01*
X5488270Y-4843120D01*
X5519770Y-4853700D01*
X5551260Y-4843120D01*
X5574890Y-4816670D01*
X5590640Y-4784910D01*
X5602450Y-4742580D01*
X5606380Y-4694950D01*
X5602450Y-4647330D01*
X5590640Y-4604990D01*
X5574890Y-4573240D01*
X5551260Y-4546780D01*
X5519770Y-4536200D01*
G01X5767800Y-4816670D02*
X5795360Y-4843120D01*
X5826850Y-4853700D01*
X5858350Y-4843120D01*
X5885910Y-4811380D01*
X5905600Y-4763740D01*
X5913470Y-4716120D01*
Y-4657910D01*
X5905600Y-4610290D01*
X5885910Y-4567950D01*
X5862290Y-4546780D01*
X5834730Y-4536200D01*
X5803230Y-4546780D01*
X5779610Y-4567950D01*
X5763860Y-4599700D01*
X5755990Y-4642040D01*
X5763860Y-4679070D01*
X5783550Y-4716120D01*
X5807170Y-4737290D01*
X5834730Y-4742580D01*
X5866220Y-4732000D01*
X5889850Y-4705540D01*
X5913470Y-4657910D01*
G01X6082760Y-4816670D02*
X6110320Y-4843120D01*
X6141810Y-4853700D01*
X6173310Y-4843120D01*
X6200870Y-4811380D01*
X6220560Y-4763740D01*
X6228430Y-4716120D01*
Y-4657910D01*
X6220560Y-4610290D01*
X6200870Y-4567950D01*
X6177250Y-4546780D01*
X6149690Y-4536200D01*
X6118190Y-4546780D01*
X6094570Y-4567950D01*
X6078820Y-4599700D01*
X6070950Y-4642040D01*
X6078820Y-4679070D01*
X6098510Y-4716120D01*
X6122130Y-4737290D01*
X6149690Y-4742580D01*
X6181180Y-4732000D01*
X6204810Y-4705540D01*
X6228430Y-4657910D01*
G01X6464650Y-4853700D02*
X6492210Y-4848410D01*
X6523700Y-4832540D01*
X6543390Y-4806090D01*
X6551260Y-4769030D01*
X6543390Y-4732000D01*
X6519770Y-4700250D01*
X6484330Y-4684360D01*
X6444970D01*
X6421340Y-4673780D01*
X6401650Y-4647330D01*
X6393780Y-4610290D01*
X6405600Y-4573240D01*
X6433150Y-4546780D01*
X6464650Y-4536200D01*
X6496140Y-4546780D01*
X6523700Y-4573240D01*
X6535520Y-4610290D01*
X6527640Y-4647330D01*
X6507960Y-4673780D01*
X6484330Y-4684360D01*
X6444970D01*
X6409530Y-4700250D01*
X6385910Y-4732000D01*
X6378040Y-4769030D01*
X6385910Y-4806090D01*
X6405600Y-4832540D01*
X6437090Y-4848410D01*
X6464650Y-4853700D01*
G01X4803240Y-5503940D02*
X4826850Y-5540990D01*
X4858350Y-5562150D01*
X4893790Y-5567440D01*
X4925290Y-5562150D01*
X4956780Y-5535700D01*
X4976460Y-5503940D01*
X4980400Y-5472190D01*
X4972530Y-5435160D01*
X4944970Y-5408690D01*
X4917410Y-5398100D01*
X4881970D01*
G01X4917410D02*
X4941030Y-5382230D01*
X4960720Y-5355780D01*
X4968590Y-5324030D01*
X4960720Y-5292270D01*
X4941030Y-5265820D01*
X4905600Y-5249940D01*
X4870170Y-5255230D01*
X4834730Y-5276400D01*
G01X5204810Y-5578020D02*
X5196930Y-5572730D01*
Y-5562150D01*
X5204810Y-5556860D01*
X5212690Y-5562150D01*
Y-5572730D01*
X5204810Y-5578020D01*
G01X5519770Y-5567440D02*
Y-5249940D01*
X5472530Y-5313440D01*
G01Y-5567440D02*
X5567010D01*
G01X5767800Y-5530410D02*
X5795360Y-5556860D01*
X5826850Y-5567440D01*
X5858350Y-5556860D01*
X5885910Y-5525120D01*
X5905600Y-5477480D01*
X5913470Y-5429860D01*
Y-5371650D01*
X5905600Y-5324030D01*
X5885910Y-5281690D01*
X5862290Y-5260520D01*
X5834730Y-5249940D01*
X5803230Y-5260520D01*
X5779610Y-5281690D01*
X5763860Y-5313440D01*
X5755990Y-5355780D01*
X5763860Y-5392810D01*
X5783550Y-5429860D01*
X5807170Y-5451030D01*
X5834730Y-5456320D01*
X5866220Y-5445740D01*
X5889850Y-5419280D01*
X5913470Y-5371650D01*
G01X6082760Y-5530410D02*
X6110320Y-5556860D01*
X6141810Y-5567440D01*
X6173310Y-5556860D01*
X6200870Y-5525120D01*
X6220560Y-5477480D01*
X6228430Y-5429860D01*
Y-5371650D01*
X6220560Y-5324030D01*
X6200870Y-5281690D01*
X6177250Y-5260520D01*
X6149690Y-5249940D01*
X6118190Y-5260520D01*
X6094570Y-5281690D01*
X6078820Y-5313440D01*
X6070950Y-5355780D01*
X6078820Y-5392810D01*
X6098510Y-5429860D01*
X6122130Y-5451030D01*
X6149690Y-5456320D01*
X6181180Y-5445740D01*
X6204810Y-5419280D01*
X6228430Y-5371650D01*
G01X6397720Y-5530410D02*
X6425280Y-5556860D01*
X6456770Y-5567440D01*
X6488270Y-5556860D01*
X6515830Y-5525120D01*
X6535520Y-5477480D01*
X6543390Y-5429860D01*
Y-5371650D01*
X6535520Y-5324030D01*
X6515830Y-5281690D01*
X6492210Y-5260520D01*
X6464650Y-5249940D01*
X6433150Y-5260520D01*
X6409530Y-5281690D01*
X6393780Y-5313440D01*
X6385910Y-5355780D01*
X6393780Y-5392810D01*
X6413470Y-5429860D01*
X6437090Y-5451030D01*
X6464650Y-5456320D01*
X6496140Y-5445740D01*
X6519770Y-5419280D01*
X6543390Y-5371650D01*
G01X4889850Y-3108720D02*
X4858350Y-3119300D01*
X4834730Y-3145760D01*
X4818980Y-3177510D01*
X4807170Y-3219850D01*
X4803240Y-3267470D01*
X4807170Y-3315100D01*
X4818980Y-3357430D01*
X4834730Y-3389190D01*
X4858350Y-3415640D01*
X4889850Y-3426220D01*
X4921340Y-3415640D01*
X4944970Y-3389190D01*
X4960720Y-3357430D01*
X4972530Y-3315100D01*
X4976460Y-3267470D01*
X4972530Y-3219850D01*
X4960720Y-3177510D01*
X4944970Y-3145760D01*
X4921340Y-3119300D01*
X4889850Y-3108720D01*
G01X5204810Y-3436800D02*
X5196930Y-3431510D01*
Y-3420930D01*
X5204810Y-3415640D01*
X5212690Y-3420930D01*
Y-3431510D01*
X5204810Y-3436800D01*
G01X5433160Y-3362720D02*
X5456770Y-3399770D01*
X5488270Y-3420930D01*
X5523710Y-3426220D01*
X5555210Y-3420930D01*
X5586700Y-3394480D01*
X5606380Y-3362720D01*
X5610320Y-3330970D01*
X5602450Y-3293940D01*
X5574890Y-3267470D01*
X5547330Y-3256880D01*
X5511890D01*
G01X5547330D02*
X5570950Y-3241010D01*
X5590640Y-3214560D01*
X5598510Y-3182810D01*
X5590640Y-3151050D01*
X5570950Y-3124600D01*
X5535520Y-3108720D01*
X5500090Y-3114010D01*
X5464650Y-3135180D01*
G01X5748120Y-3362720D02*
X5771730Y-3399770D01*
X5803230Y-3420930D01*
X5838670Y-3426220D01*
X5870170Y-3420930D01*
X5901660Y-3394480D01*
X5921340Y-3362720D01*
X5925280Y-3330970D01*
X5917410Y-3293940D01*
X5889850Y-3267470D01*
X5862290Y-3256880D01*
X5826850D01*
G01X5862290D02*
X5885910Y-3241010D01*
X5905600Y-3214560D01*
X5913470Y-3182810D01*
X5905600Y-3151050D01*
X5885910Y-3124600D01*
X5850480Y-3108720D01*
X5815050Y-3114010D01*
X5779610Y-3135180D01*
G01X6149690Y-3108720D02*
X6118190Y-3119300D01*
X6094570Y-3145760D01*
X6078820Y-3177510D01*
X6067010Y-3219850D01*
X6063080Y-3267470D01*
X6067010Y-3315100D01*
X6078820Y-3357430D01*
X6094570Y-3389190D01*
X6118190Y-3415640D01*
X6149690Y-3426220D01*
X6181180Y-3415640D01*
X6204810Y-3389190D01*
X6220560Y-3357430D01*
X6232370Y-3315100D01*
X6236300Y-3267470D01*
X6232370Y-3219850D01*
X6220560Y-3177510D01*
X6204810Y-3145760D01*
X6181180Y-3119300D01*
X6149690Y-3108720D01*
G01X6389840Y-3161640D02*
X6413470Y-3129890D01*
X6441030Y-3114010D01*
X6472530Y-3108720D01*
X6511890Y-3119300D01*
X6539460Y-3145760D01*
X6547330Y-3177510D01*
X6543390Y-3209270D01*
X6527640Y-3235720D01*
X6448900Y-3288640D01*
X6413470Y-3325680D01*
X6389840Y-3378610D01*
X6381970Y-3426220D01*
X6547330D01*
G01X5362290Y-4139960D02*
Y-3822460D01*
X5315050Y-3885960D01*
G01Y-4139960D02*
X5409530D01*
G01X5677250Y-4150540D02*
X5669370Y-4145250D01*
Y-4134670D01*
X5677250Y-4129380D01*
X5685130Y-4134670D01*
Y-4145250D01*
X5677250Y-4150540D01*
G01X5992210Y-3822460D02*
X5960710Y-3833040D01*
X5937090Y-3859500D01*
X5921340Y-3891250D01*
X5909530Y-3933590D01*
X5905600Y-3981210D01*
X5909530Y-4028840D01*
X5921340Y-4071170D01*
X5937090Y-4102930D01*
X5960710Y-4129380D01*
X5992210Y-4139960D01*
X6023700Y-4129380D01*
X6047330Y-4102930D01*
X6063080Y-4071170D01*
X6074890Y-4028840D01*
X6078820Y-3981210D01*
X6074890Y-3933590D01*
X6063080Y-3891250D01*
X6047330Y-3859500D01*
X6023700Y-3833040D01*
X5992210Y-3822460D01*
G01X5122130Y-2630790D02*
X5153630Y-2657240D01*
X5189060Y-2673110D01*
X5220560D01*
X5252050Y-2657240D01*
X5275680Y-2630790D01*
X5287490Y-2593730D01*
X5279620Y-2556700D01*
X5259930Y-2524950D01*
X5224490Y-2503770D01*
X5177250Y-2493190D01*
X5149690Y-2472030D01*
X5137880Y-2434990D01*
X5145760Y-2397940D01*
X5165440Y-2371490D01*
X5193000Y-2355610D01*
X5220560D01*
X5248120Y-2366190D01*
X5271740Y-2392650D01*
G01X5472530Y-2355610D02*
X5567010D01*
G01X5519770D02*
Y-2673110D01*
G01X5472530D02*
X5567010D01*
G01X5759920Y-2355610D02*
X5909540D01*
X5759920Y-2673110D01*
X5909540D01*
G01X6228430D02*
X6070950D01*
Y-2355610D01*
X6228430D01*
G01X6165440Y-2509060D02*
X6070950D01*
G01X8078820Y-2196860D02*
Y-5765560D01*
G01X8826850Y-4853700D02*
Y-4536200D01*
X8921340D01*
X8952830Y-4552080D01*
X8976460Y-4589120D01*
X8984330Y-4631450D01*
X8976460Y-4673780D01*
X8956770Y-4705540D01*
X8921340Y-4721420D01*
X8826850D01*
G01X9141810Y-4536200D02*
Y-4853700D01*
X9299290D01*
G01X9437080D02*
X9535510Y-4536200D01*
X9633940Y-4853700D01*
G01X9598500Y-4742580D02*
X9472510D01*
G01X9850470Y-4536200D02*
Y-4853700D01*
G01X9759920Y-4536200D02*
X9941020D01*
G01X10244170Y-4853700D02*
X10086690D01*
Y-4536200D01*
X10244170D01*
G01X10181180Y-4689650D02*
X10086690D01*
G01X10393780Y-4853700D02*
Y-4536200D01*
X10472510D01*
X10504010Y-4552080D01*
X10527630Y-4573240D01*
X10547320Y-4604990D01*
X10563070Y-4642040D01*
X10567000Y-4694950D01*
X10563070Y-4747870D01*
X10547320Y-4784910D01*
X10527630Y-4816670D01*
X10504010Y-4837830D01*
X10472510Y-4853700D01*
X10393780D01*
G01X8826850Y-5567440D02*
Y-5249940D01*
X8921340D01*
X8952830Y-5265820D01*
X8976460Y-5302860D01*
X8984330Y-5345190D01*
X8976460Y-5387520D01*
X8956770Y-5419280D01*
X8921340Y-5435160D01*
X8826850D01*
G01X9141810Y-5249940D02*
Y-5567440D01*
X9299290D01*
G01X9437080D02*
X9535510Y-5249940D01*
X9633940Y-5567440D01*
G01X9598500Y-5456320D02*
X9472510D01*
G01X9850470Y-5249940D02*
Y-5567440D01*
G01X9759920Y-5249940D02*
X9941020D01*
G01X10244170Y-5567440D02*
X10086690D01*
Y-5249940D01*
X10244170D01*
G01X10181180Y-5403390D02*
X10086690D01*
G01X10393780Y-5567440D02*
Y-5249940D01*
X10472510D01*
X10504010Y-5265820D01*
X10527630Y-5286980D01*
X10547320Y-5318730D01*
X10563070Y-5355780D01*
X10567000Y-5408690D01*
X10563070Y-5461610D01*
X10547320Y-5498650D01*
X10527630Y-5530410D01*
X10504010Y-5551570D01*
X10472510Y-5567440D01*
X10393780D01*
G01X8826850Y-4139960D02*
Y-3822460D01*
X8921340D01*
X8952830Y-3838340D01*
X8976460Y-3875380D01*
X8984330Y-3917710D01*
X8976460Y-3960040D01*
X8956770Y-3991800D01*
X8921340Y-4007680D01*
X8826850D01*
G01X9141810Y-3822460D02*
Y-4139960D01*
X9299290D01*
G01X9437080D02*
X9535510Y-3822460D01*
X9633940Y-4139960D01*
G01X9598500Y-4028840D02*
X9472510D01*
G01X9850470Y-3822460D02*
Y-4139960D01*
G01X9759920Y-3822460D02*
X9941020D01*
G01X10244170Y-4139960D02*
X10086690D01*
Y-3822460D01*
X10244170D01*
G01X10181180Y-3975910D02*
X10086690D01*
G01X10393780Y-4139960D02*
Y-3822460D01*
X10472510D01*
X10504010Y-3838340D01*
X10527630Y-3859500D01*
X10547320Y-3891250D01*
X10563070Y-3928300D01*
X10567000Y-3981210D01*
X10563070Y-4034130D01*
X10547320Y-4071170D01*
X10527630Y-4102930D01*
X10504010Y-4124090D01*
X10472510Y-4139960D01*
X10393780D01*
G01X8826850Y-3426220D02*
Y-3108720D01*
X8921340D01*
X8952830Y-3124600D01*
X8976460Y-3161640D01*
X8984330Y-3203970D01*
X8976460Y-3246300D01*
X8956770Y-3278060D01*
X8921340Y-3293940D01*
X8826850D01*
G01X9141810Y-3108720D02*
Y-3426220D01*
X9299290D01*
G01X9437080D02*
X9535510Y-3108720D01*
X9633940Y-3426220D01*
G01X9598500Y-3315100D02*
X9472510D01*
G01X9850470Y-3108720D02*
Y-3426220D01*
G01X9759920Y-3108720D02*
X9941020D01*
G01X10244170Y-3426220D02*
X10086690D01*
Y-3108720D01*
X10244170D01*
G01X10181180Y-3262170D02*
X10086690D01*
G01X10393780Y-3426220D02*
Y-3108720D01*
X10472510D01*
X10504010Y-3124600D01*
X10527630Y-3145760D01*
X10547320Y-3177510D01*
X10563070Y-3214560D01*
X10567000Y-3267470D01*
X10563070Y-3320390D01*
X10547320Y-3357430D01*
X10527630Y-3389190D01*
X10504010Y-3410350D01*
X10472510Y-3426220D01*
X10393780D01*
G01X8826850Y-2673110D02*
Y-2355610D01*
X8921340D01*
X8952830Y-2371490D01*
X8976460Y-2408530D01*
X8984330Y-2450860D01*
X8976460Y-2493190D01*
X8956770Y-2524950D01*
X8921340Y-2540830D01*
X8826850D01*
G01X9141810Y-2355610D02*
Y-2673110D01*
X9299290D01*
G01X9437080D02*
X9535510Y-2355610D01*
X9633940Y-2673110D01*
G01X9598500Y-2561990D02*
X9472510D01*
G01X9850470Y-2355610D02*
Y-2673110D01*
G01X9759920Y-2355610D02*
X9941020D01*
G01X10244170Y-2673110D02*
X10086690D01*
Y-2355610D01*
X10244170D01*
G01X10181180Y-2509060D02*
X10086690D01*
G01X10393780Y-2673110D02*
Y-2355610D01*
X10472510D01*
X10504010Y-2371490D01*
X10527630Y-2392650D01*
X10547320Y-2424400D01*
X10563070Y-2461450D01*
X10567000Y-2514360D01*
X10563070Y-2567280D01*
X10547320Y-2604320D01*
X10527630Y-2636080D01*
X10504010Y-2657240D01*
X10472510Y-2673110D01*
X10393780D01*
G01X11307160Y-2196860D02*
Y-5765560D01*
G01X12133930Y-4853700D02*
Y-4536200D01*
X12086690Y-4599700D01*
G01Y-4853700D02*
X12181170D01*
G01X12374080Y-4589120D02*
X12397710Y-4557370D01*
X12425270Y-4541490D01*
X12456770Y-4536200D01*
X12496130Y-4546780D01*
X12523700Y-4573240D01*
X12531570Y-4604990D01*
X12527630Y-4636750D01*
X12511880Y-4663200D01*
X12433140Y-4716120D01*
X12397710Y-4753160D01*
X12374080Y-4806090D01*
X12366210Y-4853700D01*
X12531570D01*
G01X12204800Y-5519830D02*
X12228410Y-5546280D01*
X12255970Y-5562150D01*
X12291410Y-5567440D01*
X12326850Y-5556860D01*
X12354400Y-5535700D01*
X12374090Y-5498650D01*
X12378020Y-5456320D01*
X12370150Y-5413990D01*
X12350460Y-5387520D01*
X12322900Y-5366360D01*
X12295350Y-5361070D01*
X12267790Y-5366360D01*
X12232360Y-5387520D01*
X12244170Y-5249940D01*
X12350460D01*
G01X12181170Y-4139960D02*
Y-3822460D01*
X12035500Y-4050000D01*
X12232360D01*
G01X12441010Y-4139960D02*
X12448890Y-4071170D01*
X12460700Y-4012970D01*
X12476450Y-3960040D01*
X12496130Y-3901840D01*
X12527630Y-3822460D01*
X12370150D01*
G01X12181170Y-3426220D02*
Y-3108720D01*
X12035500Y-3336260D01*
X12232360D01*
G01X12381960Y-3389190D02*
X12409520Y-3415640D01*
X12441010Y-3426220D01*
X12472510Y-3415640D01*
X12500070Y-3383900D01*
X12519760Y-3336260D01*
X12527630Y-3288640D01*
Y-3230430D01*
X12519760Y-3182810D01*
X12500070Y-3140470D01*
X12476450Y-3119300D01*
X12448890Y-3108720D01*
X12417390Y-3119300D01*
X12393770Y-3140470D01*
X12378020Y-3172220D01*
X12370150Y-3214560D01*
X12378020Y-3251590D01*
X12397710Y-3288640D01*
X12421330Y-3309810D01*
X12448890Y-3315100D01*
X12480380Y-3304520D01*
X12504010Y-3278060D01*
X12527630Y-3230430D01*
G01X11976450Y-2673110D02*
X11944950Y-2667820D01*
X11917400Y-2646660D01*
X11893770Y-2614900D01*
X11878020Y-2577860D01*
X11870150Y-2535530D01*
Y-2493190D01*
X11878020Y-2450860D01*
X11893770Y-2413820D01*
X11917400Y-2382070D01*
X11944950Y-2360900D01*
X11976450Y-2355610D01*
X12007940Y-2360900D01*
X12035500Y-2382070D01*
X12059130Y-2413820D01*
X12074880Y-2450860D01*
X12082750Y-2493190D01*
Y-2535530D01*
X12074880Y-2577860D01*
X12059130Y-2614900D01*
X12035500Y-2646660D01*
X12007940Y-2667820D01*
X11976450Y-2673110D01*
G01X12007940Y-2588440D02*
X12055190Y-2673110D01*
G01X12291410Y-2355610D02*
Y-2673110D01*
G01X12200860Y-2355610D02*
X12381960D01*
G01X12606370Y-2673110D02*
Y-2530240D01*
X12527630Y-2355610D01*
G01X12685110D02*
X12606370Y-2530240D01*
M02*
