G04 ================== begin FILE IDENTIFICATION RECORD ==================*
G04 Layout Name:  E:/«∂»Î Ω/git/PCB/boardv2_01231/BBear_balance_carv2_0.brd*
G04 Film Name:    SOLDERMASK_TOP*
G04 File Format:  Gerber RS274X*
G04 File Origin:  Cadence Allegro 16.6-P004*
G04 Origin Date:  Tue Jan 03 00:02:05 2017*
G04 *
G04 Layer:  VIA CLASS/SOLDERMASK_TOP*
G04 Layer:  PIN/SOLDERMASK_TOP*
G04 Layer:  PACKAGE GEOMETRY/SOLDERMASK_TOP*
G04 Layer:  BOARD GEOMETRY/SOLDERMASK_TOP*
G04 *
G04 Offset:    (0.00 0.00)*
G04 Mirror:    No*
G04 Mode:      Positive*
G04 Rotation:  0*
G04 FullContactRelief:  No*
G04 UndefLineWidth:     6.00*
G04 ================== end FILE IDENTIFICATION RECORD ====================*
%FSLAX25Y25*MOIN*%
%IR0*IPPOS*OFA0.00000B0.00000*MIA0B0*SFA1.00000B1.00000*%
%AMMACRO19*
4,1,40,.0305,-.0148,
.0305,.0148,
.030434,.015483,
.03025,.016144,
.029954,.016763,
.029555,.017322,
.029066,.017803,
.0285,.018191,
.027875,.018475,
.027211,.018647,
.0266,.0187,
-.0266,.0187,
-.027283,.018634,
-.027944,.01845,
-.028563,.018154,
-.029122,.017755,
-.029603,.017266,
-.029991,.0167,
-.030275,.016075,
-.030447,.015411,
-.0305,.0148,
-.0305,-.0148,
-.030434,-.015483,
-.03025,-.016144,
-.029954,-.016763,
-.029555,-.017322,
-.029066,-.017803,
-.0285,-.018191,
-.027875,-.018475,
-.027211,-.018647,
-.0266,-.0187,
.0266,-.0187,
.027283,-.018634,
.027944,-.01845,
.028563,-.018154,
.029122,-.017755,
.029603,-.017266,
.029991,-.0167,
.030275,-.016075,
.030447,-.015411,
.0305,-.0148,
0.0*
%
%ADD19MACRO19*%
%AMMACRO14*
4,1,40,-.0148,-.0305,
.0148,-.0305,
.015483,-.030434,
.016144,-.03025,
.016763,-.029954,
.017322,-.029555,
.017803,-.029066,
.018191,-.0285,
.018475,-.027875,
.018647,-.027211,
.0187,-.0266,
.0187,.0266,
.018634,.027283,
.01845,.027944,
.018154,.028563,
.017755,.029122,
.017266,.029603,
.0167,.029991,
.016075,.030275,
.015411,.030447,
.0148,.0305,
-.0148,.0305,
-.015483,.030434,
-.016144,.03025,
-.016763,.029954,
-.017322,.029555,
-.017803,.029066,
-.018191,.0285,
-.018475,.027875,
-.018647,.027211,
-.0187,.0266,
-.0187,-.0266,
-.018634,-.027283,
-.01845,-.027944,
-.018154,-.028563,
-.017755,-.029122,
-.017266,-.029603,
-.0167,-.029991,
-.016075,-.030275,
-.015411,-.030447,
-.0148,-.0305,
0.0*
%
%ADD14MACRO14*%
%ADD16C,.044*%
%ADD15R,.1811X.07283*%
%ADD11C,.0748*%
%ADD17C,.0768*%
%ADD12R,.0748X.0748*%
%ADD13R,.0768X.0768*%
%ADD18R,.08858X.13189*%
%AMMACRO25*
4,1,40,-.0305,.0148,
-.0305,-.0148,
-.030434,-.015483,
-.03025,-.016144,
-.029954,-.016763,
-.029555,-.017322,
-.029066,-.017803,
-.0285,-.018191,
-.027875,-.018475,
-.027211,-.018647,
-.0266,-.0187,
.0266,-.0187,
.027283,-.018634,
.027944,-.01845,
.028563,-.018154,
.029122,-.017755,
.029603,-.017266,
.029991,-.0167,
.030275,-.016075,
.030447,-.015411,
.0305,-.0148,
.0305,.0148,
.030434,.015483,
.03025,.016144,
.029954,.016763,
.029555,.017322,
.029066,.017803,
.0285,.018191,
.027875,.018475,
.027211,.018647,
.0266,.0187,
-.0266,.0187,
-.027283,.018634,
-.027944,.01845,
-.028563,.018154,
-.029122,.017755,
-.029603,.017266,
-.029991,.0167,
-.030275,.016075,
-.030447,.015411,
-.0305,.0148,
0.0*
%
%ADD25MACRO25*%
%AMMACRO20*
4,1,40,.0148,.0305,
-.0148,.0305,
-.015483,.030434,
-.016144,.03025,
-.016763,.029954,
-.017322,.029555,
-.017803,.029066,
-.018191,.0285,
-.018475,.027875,
-.018647,.027211,
-.0187,.0266,
-.0187,-.0266,
-.018634,-.027283,
-.01845,-.027944,
-.018154,-.028563,
-.017755,-.029122,
-.017266,-.029603,
-.0167,-.029991,
-.016075,-.030275,
-.015411,-.030447,
-.0148,-.0305,
.0148,-.0305,
.015483,-.030434,
.016144,-.03025,
.016763,-.029954,
.017322,-.029555,
.017803,-.029066,
.018191,-.0285,
.018475,-.027875,
.018647,-.027211,
.0187,-.0266,
.0187,.0266,
.018634,.027283,
.01845,.027944,
.018154,.028563,
.017755,.029122,
.017266,.029603,
.0167,.029991,
.016075,.030275,
.015411,.030447,
.0148,.0305,
0.0*
%
%ADD20MACRO20*%
%ADD21R,.0315X.02362*%
%ADD10C,.16142*%
%ADD26O,.0177X.0728*%
%ADD27O,.0728X.0177*%
%ADD22R,.02559X.0315*%
%ADD23R,.07283X.04331*%
%ADD24R,.08858X.04134*%
%LPD*%
G75*
G54D10*
X-123921Y23732D03*
X-114079Y-9732D03*
X114079D03*
X123921Y23732D03*
G54D20*
X-44842Y17100D03*
X-37558D03*
G54D11*
X-128000Y40800D03*
X-118000D03*
X-14200Y13200D03*
X-6500Y43000D03*
X16000Y-15000D03*
Y-5000D03*
Y5000D03*
X-4200Y13200D03*
X3500Y43000D03*
X44400Y-43300D03*
X34400D03*
X40800Y-20700D03*
Y-1015D03*
X50000Y42800D03*
X40000D03*
X47000Y31800D03*
X37000D03*
X74400Y-43300D03*
X64400D03*
X54400D03*
X83500Y43000D03*
X73500D03*
X94400Y-43300D03*
X84400D03*
X93500Y43000D03*
X129500Y41800D03*
X119500D03*
G54D21*
X-55872Y22060D03*
X-64928D03*
Y25800D03*
X-55872Y29540D03*
X-64928D03*
G54D12*
X-108000Y40800D03*
X-24200Y13200D03*
X-16500Y43000D03*
X16000Y15000D03*
X24400Y-43300D03*
X30000Y42800D03*
X27000Y31800D03*
X63500Y43000D03*
X109500Y41800D03*
G54D22*
X-52410Y36000D03*
X-66190D03*
G54D13*
X-67900Y-42600D03*
X-36200Y-43000D03*
X-36000Y-29400D03*
Y29400D03*
X-10000Y-29400D03*
Y29400D03*
G54D23*
X-57956Y44600D03*
X-27444D03*
G54D14*
X-84342Y-6800D03*
X-77058D03*
X-84442Y-17900D03*
X-77158D03*
X-92142Y9400D03*
X-84858D03*
X-75942Y1200D03*
X-68658D03*
X-77442Y15600D03*
X-70158D03*
X-57742Y800D03*
X-50458D03*
X-43442Y8600D03*
X-59242Y15000D03*
X-51958D03*
X-36158Y8600D03*
X9958Y28200D03*
X17242D03*
X44458Y-30500D03*
X51742D03*
G54D24*
X-18500Y-19910D03*
Y-10855D03*
Y-1800D03*
G54D15*
X-83600Y27702D03*
Y40498D03*
G54D25*
X40100Y21142D03*
Y13858D03*
X26500Y6442D03*
Y-842D03*
X53700Y14342D03*
Y7058D03*
G54D16*
X-70700Y25700D03*
X-71900Y35600D03*
X-65800Y-6900D03*
X-48400Y-11200D03*
X-63000Y300D03*
X-66200Y9900D03*
X-49400Y23100D03*
X-48700Y8100D03*
X-60900Y7200D03*
X-51700Y31900D03*
X-10455Y-10855D03*
X-35600Y700D03*
X15600Y-33400D03*
X-2600Y-39700D03*
X-6400Y-20000D03*
X1300Y-10400D03*
X21900Y-32400D03*
X8200Y6000D03*
X-100Y21100D03*
X20500Y43300D03*
X41100Y-36300D03*
X44400Y-11900D03*
X33600Y-5600D03*
X28600Y14400D03*
X32558Y21142D03*
X35600Y3600D03*
X79200Y-38500D03*
X71300Y-35300D03*
X82100Y-15600D03*
X73400Y-4100D03*
X66700Y-12100D03*
X66000Y-5400D03*
X58100Y-29214D03*
X80300Y-700D03*
X74900Y26400D03*
X72400Y32900D03*
X84200Y-33600D03*
X94000Y-24000D03*
X82884Y-9984D03*
X92600Y-29000D03*
X92700Y25900D03*
X93400Y5400D03*
G54D26*
X80590Y-25831D03*
X78621D03*
X76653D03*
X74684D03*
X72716D03*
X70747D03*
X68779D03*
X66810D03*
X64842D03*
X62873D03*
Y7831D03*
X64842D03*
X66810D03*
X68779D03*
X70747D03*
X72716D03*
X74684D03*
X76653D03*
X78621D03*
X80590D03*
X84527Y-25831D03*
X82558D03*
Y7831D03*
X84527D03*
G54D17*
X-55900Y-42600D03*
X-24200Y-43000D03*
X-24000Y-29400D03*
Y29400D03*
X2000Y-29400D03*
Y29400D03*
G54D27*
X56869Y-19827D03*
Y-17858D03*
Y-15890D03*
Y-13921D03*
Y-11953D03*
Y-9984D03*
Y-8016D03*
Y-6047D03*
Y-4079D03*
Y-2110D03*
Y-142D03*
Y1827D03*
X90531Y-6047D03*
Y-8016D03*
Y-9984D03*
Y-11953D03*
Y-13921D03*
Y-15890D03*
Y-17858D03*
Y-19827D03*
Y1827D03*
Y-142D03*
Y-2110D03*
Y-4079D03*
G54D18*
X-41335Y-10855D03*
G54D19*
X-59600Y-27242D03*
Y-19958D03*
X-45400Y27658D03*
Y34942D03*
X13300Y36458D03*
Y43742D03*
X26900Y-27942D03*
Y-20658D03*
M02*
