G04 ================== begin FILE IDENTIFICATION RECORD ==================*
G04 Layout Name:  E:/«∂»Î Ω/git/PCB_MOTOR/pcb/bbear_balance_car_motor.brd*
G04 Film Name:    BOTTOM*
G04 File Format:  Gerber RS274X*
G04 File Origin:  Cadence Allegro 16.6-P004*
G04 Origin Date:  Fri Feb 17 19:51:42 2017*
G04 *
G04 Layer:  ETCH/BOTTOM*
G04 Layer:  PIN/BOTTOM*
G04 Layer:  VIA CLASS/BOTTOM*
G04 *
G04 Offset:    (0.00 0.00)*
G04 Mirror:    No*
G04 Mode:      Positive*
G04 Rotation:  0*
G04 FullContactRelief:  No*
G04 UndefLineWidth:     6.00*
G04 ================== end FILE IDENTIFICATION RECORD ====================*
%FSLAX25Y25*MOIN*%
%IR0*IPPOS*OFA0.00000B0.00000*MIA0B0*SFA1.00000B1.00000*%
%ADD13C,.024*%
%ADD10C,.07087*%
%ADD11R,.07087X.07087*%
%AMMACRO12*
4,1,40,-.0128,.0285,
.0128,.0285,
.01348,.028438,
.014139,.028258,
.014756,.027967,
.015314,.027573,
.015794,.027088,
.016184,.026527,
.016469,.025907,
.016643,.025247,
.0167,.0246,
.0167,-.0246,
.016638,-.02528,
.016458,-.025939,
.016167,-.026556,
.015773,-.027114,
.015288,-.027594,
.014727,-.027984,
.014107,-.028269,
.013447,-.028443,
.0128,-.0285,
-.0128,-.0285,
-.01348,-.028438,
-.014139,-.028258,
-.014756,-.027967,
-.015314,-.027573,
-.015794,-.027088,
-.016184,-.026527,
-.016469,-.025907,
-.016643,-.025247,
-.0167,-.0246,
-.0167,.0246,
-.016638,.02528,
-.016458,.025939,
-.016167,.026556,
-.015773,.027114,
-.015288,.027594,
-.014727,.027984,
-.014107,.028269,
-.013447,.028443,
-.0128,.0285,
0.0*
%
%ADD12MACRO12*%
%ADD14C,.01*%
%ADD15C,.02*%
%ADD16C,.008*%
%ADD17C,.0809*%
%ADD18R,.0809X.0809*%
G75*
%LPD*%
G75*
G36*
G01X-132999Y-32999D02*
Y32999D01*
X132999D01*
Y-32999D01*
X-132999D01*
G37*
%LPC*%
G75*
G36*
G01X-50941Y17788D02*
X-37307D01*
X-33930Y21165D01*
Y25561D01*
G02X-33039Y26452I893J-2D01*
G01X-30477D01*
G02X-29586Y25561I-3J-894D01*
G01Y20639D01*
G02X-30477Y19748I-894J3D01*
G01X-32513D01*
X-36477Y15784D01*
X-52201D01*
X-52935Y16519D01*
X-53066Y16447D01*
G02X-51307Y18351I-1935J3552D01*
G03X-50941Y17788I365J-163D01*
G37*
G36*
G01X-63066Y23553D02*
X-62935Y23481D01*
X-58757Y27660D01*
X-41005D01*
X-39797Y26452D01*
X-37761D01*
G02X-36870Y25561I-3J-894D01*
G01Y20639D01*
G02X-37761Y19748I-893J2D01*
G01X-40323D01*
G02X-41214Y20639I3J894D01*
G01Y25035D01*
X-41835Y25656D01*
X-57927D01*
X-61519Y22065D01*
X-61447Y21934D01*
G02X-63066Y23553I-3553J-1934D01*
G37*
G36*
G01X16802Y15824D02*
Y-5385D01*
X22333Y-10916D01*
X22427Y-10907D01*
G02X20907Y-12427I173J-1693D01*
G01X20916Y-12333D01*
X14798Y-6215D01*
Y15824D01*
G02X16802I1002J1376D01*
G37*
G36*
G01X-28206Y16207D02*
Y4301D01*
G02X-31210I-1502J-801D01*
G01Y16207D01*
G02X-28206I1502J801D01*
G37*
G36*
G01X50015Y13598D02*
X40163D01*
X35013Y18748D01*
X32977D01*
G02X32086Y19639I3J894D01*
G01Y24561D01*
G02X32977Y25452I893J-2D01*
G01X35539D01*
G02X36430Y24561I-3J-894D01*
G01Y20165D01*
X40993Y15602D01*
X49185D01*
X50955Y17371D01*
Y24045D01*
X58573D01*
G03X58856Y24728I0J400D01*
G01X57185Y26398D01*
X46077D01*
X43714Y24035D01*
Y19639D01*
G02X42823Y18748I-893J2D01*
G01X40261D01*
G02X39370Y19639I3J894D01*
G01Y24561D01*
G02X40261Y25452I893J-2D01*
G01X42297D01*
X45247Y28402D01*
X58015D01*
X62935Y23481D01*
X63066Y23553D01*
G02X61447Y21934I1934J-3553D01*
G01X61519Y22065D01*
X59728Y23856D01*
G03X59045Y23573I-283J-283D01*
G01Y15955D01*
X52371D01*
X50015Y13598D01*
G37*
G54D17*
X-55000Y-20000D03*
X-65000D03*
X-75000D03*
X-85000D03*
X-75000Y20000D03*
X-85000D03*
X85000D03*
X95000D03*
X85000Y-20000D03*
X95000D03*
X75000Y20000D03*
X65000Y-20000D03*
X75000D03*
G54D18*
X-95000D03*
Y20000D03*
X55000Y-20000D03*
%LPD*%
G75*
G54D10*
X-75000Y-20000D03*
X-85000D03*
X-75000Y20000D03*
X-85000D03*
X-55000Y-20000D03*
X-65000D03*
X-55000Y20000D03*
X-65000D03*
X75000Y-20000D03*
X65000D03*
X75000Y20000D03*
X65000D03*
X95000Y-20000D03*
X85000D03*
X95000Y20000D03*
X85000D03*
G54D11*
X-95000Y-20000D03*
Y20000D03*
X55000Y-20000D03*
Y20000D03*
G54D12*
X-39042Y23100D03*
X-31758D03*
X34258Y22100D03*
X41542D03*
G54D13*
X-29708Y17008D03*
Y3500D03*
X15800Y17200D03*
X22600Y-12600D03*
G54D14*
G01X-55000Y20000D02*
X-51786Y16786D01*
X-36892D01*
X-31758Y21920D01*
Y23100D01*
G01X-39042D02*
Y24280D01*
X-41420Y26658D01*
X-58342D01*
X-65000Y20000D01*
G01X15800Y17200D02*
Y-5800D01*
X22600Y-12600D01*
G01X41542Y22100D02*
Y23280D01*
X45662Y27400D01*
X57600D01*
X65000Y20000D01*
G01X55000D02*
X49600Y14600D01*
X40578D01*
X34258Y20920D01*
Y22100D01*
G54D15*
G01X-29708Y3500D02*
Y17008D01*
G54D16*
G01X85000Y-24246D02*
Y-20000D01*
G01D02*
Y-15754D01*
G01X80754Y-20000D02*
X85000D01*
G01D02*
X89246D01*
G01X85000Y15754D02*
Y20000D01*
G01D02*
Y24246D01*
G01X80754Y20000D02*
X85000D01*
G01D02*
X89246D01*
M02*
