G04 ================== begin FILE IDENTIFICATION RECORD ==================*
G04 Layout Name:  E:/«∂»Î Ω/git/PCB_MOTOR/pcb/bbear_balance_car_motor.brd*
G04 Film Name:    DRILL_DRAW*
G04 File Format:  Gerber RS274X*
G04 File Origin:  Cadence Allegro 16.6-P004*
G04 Origin Date:  Fri Feb 17 19:51:42 2017*
G04 *
G04 Layer:  MANUFACTURING/NCLEGEND-1-2*
G04 Layer:  BOARD GEOMETRY/OUTLINE*
G04 *
G04 Offset:    (0.00 0.00)*
G04 Mirror:    No*
G04 Mode:      Positive*
G04 Rotation:  0*
G04 FullContactRelief:  No*
G04 UndefLineWidth:     6.00*
G04 ================== end FILE IDENTIFICATION RECORD ====================*
%FSLAX25Y25*MOIN*%
%IR0*IPPOS*OFA0.00000B0.00000*MIA0B0*SFA1.00000B1.00000*%
%AMMACRO11*
1,1,.006,.025,0.0*
20,1,.006,.025,0.0,.02462,-.004341,0.0*
1,1,.006,.02462,-.004341*
20,1,.006,.02462,-.004341,.023492,-.008551,0.0*
1,1,.006,.023492,-.008551*
20,1,.006,.023492,-.008551,.021651,-.0125,0.0*
1,1,.006,.021651,-.0125*
20,1,.006,.021651,-.0125,.019151,-.01607,0.0*
1,1,.006,.019151,-.01607*
20,1,.006,.019151,-.01607,.01607,-.019151,0.0*
1,1,.006,.01607,-.019151*
20,1,.006,.01607,-.019151,.0125,-.021651,0.0*
1,1,.006,.0125,-.021651*
20,1,.006,.0125,-.021651,.008551,-.023492,0.0*
1,1,.006,.008551,-.023492*
20,1,.006,.008551,-.023492,.004341,-.02462,0.0*
1,1,.006,.004341,-.02462*
20,1,.006,.004341,-.02462,0.0,-.025,0.0*
1,1,.006,0.0,-.025*
20,1,.006,0.0,-.025,-.004341,-.02462,0.0*
1,1,.006,-.004341,-.02462*
20,1,.006,-.004341,-.02462,-.008551,-.023492,0.0*
1,1,.006,-.008551,-.023492*
20,1,.006,-.008551,-.023492,-.0125,-.021651,0.0*
1,1,.006,-.0125,-.021651*
20,1,.006,-.0125,-.021651,-.01607,-.019151,0.0*
1,1,.006,-.01607,-.019151*
20,1,.006,-.01607,-.019151,-.019151,-.01607,0.0*
1,1,.006,-.019151,-.01607*
20,1,.006,-.019151,-.01607,-.021651,-.0125,0.0*
1,1,.006,-.021651,-.0125*
20,1,.006,-.021651,-.0125,-.023492,-.008551,0.0*
1,1,.006,-.023492,-.008551*
20,1,.006,-.023492,-.008551,-.02462,-.004341,0.0*
1,1,.006,-.02462,-.004341*
20,1,.006,-.02462,-.004341,-.025,0.0,0.0*
1,1,.006,-.025,0.0*
20,1,.006,-.025,0.0,-.02462,.004341,0.0*
1,1,.006,-.02462,.004341*
20,1,.006,-.02462,.004341,-.023492,.008551,0.0*
1,1,.006,-.023492,.008551*
20,1,.006,-.023492,.008551,-.021651,.0125,0.0*
1,1,.006,-.021651,.0125*
20,1,.006,-.021651,.0125,-.019151,.01607,0.0*
1,1,.006,-.019151,.01607*
20,1,.006,-.019151,.01607,-.01607,.019151,0.0*
1,1,.006,-.01607,.019151*
20,1,.006,-.01607,.019151,-.0125,.021651,0.0*
1,1,.006,-.0125,.021651*
20,1,.006,-.0125,.021651,-.008551,.023492,0.0*
1,1,.006,-.008551,.023492*
20,1,.006,-.008551,.023492,-.004341,.02462,0.0*
1,1,.006,-.004341,.02462*
20,1,.006,-.004341,.02462,0.0,.025,0.0*
1,1,.006,0.0,.025*
20,1,.006,0.0,.025,.004341,.02462,0.0*
1,1,.006,.004341,.02462*
20,1,.006,.004341,.02462,.008551,.023492,0.0*
1,1,.006,.008551,.023492*
20,1,.006,.008551,.023492,.0125,.021651,0.0*
1,1,.006,.0125,.021651*
20,1,.006,.0125,.021651,.01607,.019151,0.0*
1,1,.006,.01607,.019151*
20,1,.006,.01607,.019151,.019151,.01607,0.0*
1,1,.006,.019151,.01607*
20,1,.006,.019151,.01607,.021651,.0125,0.0*
1,1,.006,.021651,.0125*
20,1,.006,.021651,.0125,.023492,.008551,0.0*
1,1,.006,.023492,.008551*
20,1,.006,.023492,.008551,.02462,.004341,0.0*
1,1,.006,.02462,.004341*
20,1,.006,.02462,.004341,.025,0.0,0.0*
1,1,.006,.025,0.0*
1,1,.006,.0125,0.0*
20,1,.006,.0125,0.0,-.0125,0.0,0.0*
1,1,.006,-.0125,0.0*
1,1,.006,0.0,.0125*
20,1,.006,0.0,.0125,0.0,-.0125,0.0*
1,1,.006,0.0,-.0125*
%
%ADD11MACRO11*%
%AMMACRO10*
1,1,.006,.019685,0.0*
20,1,.006,.019685,0.0,.009843,.017048,0.0*
1,1,.006,.009843,.017048*
20,1,.006,.009843,.017048,-.009842,.017048,0.0*
1,1,.006,-.009842,.017048*
20,1,.006,-.009842,.017048,-.019685,0.0,0.0*
1,1,.006,-.019685,0.0*
20,1,.006,-.019685,0.0,-.009843,-.017048,0.0*
1,1,.006,-.009843,-.017048*
20,1,.006,-.009843,-.017048,.009842,-.017048,0.0*
1,1,.006,.009842,-.017048*
20,1,.006,.009842,-.017048,.019685,0.0,0.0*
1,1,.006,.019685,0.0*
1,1,.006,.00722,.0082*
20,1,.006,.00722,.0082,.00525,.00918,0.0*
1,1,.006,.00525,.00918*
20,1,.006,.00525,.00918,.00295,.00984,0.0*
1,1,.006,.00295,.00984*
20,1,.006,.00295,.00984,.00033,.00984,0.0*
1,1,.006,.00033,.00984*
20,1,.006,.00033,.00984,-.00262,.00886,0.0*
1,1,.006,-.00262,.00886*
20,1,.006,-.00262,.00886,-.00492,.00722,0.0*
1,1,.006,-.00492,.00722*
20,1,.006,-.00492,.00722,-.00656,.00525,0.0*
1,1,.006,-.00656,.00525*
20,1,.006,-.00656,.00525,-.00787,.00197,0.0*
1,1,.006,-.00787,.00197*
20,1,.006,-.00787,.00197,-.0082,-.00098,0.0*
1,1,.006,-.0082,-.00098*
20,1,.006,-.0082,-.00098,-.00754,-.00394,0.0*
1,1,.006,-.00754,-.00394*
20,1,.006,-.00754,-.00394,-.00656,-.0059,0.0*
1,1,.006,-.00656,-.0059*
20,1,.006,-.00656,-.0059,-.00459,-.00787,0.0*
1,1,.006,-.00459,-.00787*
20,1,.006,-.00459,-.00787,-.0023,-.00918,0.0*
1,1,.006,-.0023,-.00918*
20,1,.006,-.0023,-.00918,0.0,-.00984,0.0*
1,1,.006,0.0,-.00984*
20,1,.006,0.0,-.00984,.0023,-.00984,0.0*
1,1,.006,.0023,-.00984*
20,1,.006,.0023,-.00984,.00459,-.00918,0.0*
1,1,.006,.00459,-.00918*
20,1,.006,.00459,-.00918,.00656,-.0082,0.0*
1,1,.006,.00656,-.0082*
20,1,.006,.00656,-.0082,.0082,-.00689,0.0*
1,1,.006,.0082,-.00689*
%
%ADD10MACRO10*%
%ADD12C,.006*%
G75*
%LPD*%
G75*
G54D10*
X-91550Y-178450D03*
X-75000Y-20000D03*
X-85000D03*
X-95000D03*
X-75000Y20000D03*
X-85000D03*
X-95000D03*
X-55000Y-20000D03*
X-65000D03*
X-55000Y20000D03*
X-65000D03*
X75000Y-20000D03*
X65000D03*
X55000D03*
X75000Y20000D03*
X65000D03*
X55000D03*
X95000Y-20000D03*
X85000D03*
X95000Y20000D03*
X85000D03*
G54D11*
X-91550Y-150350D03*
X-29708Y17008D03*
Y3500D03*
X15800Y17200D03*
X22600Y-12600D03*
G54D12*
G01X-136500Y-192500D02*
Y-55100D01*
X347100D01*
Y-192500D01*
X-136500D01*
G01Y-164400D02*
X347100D01*
G01X-136500Y-136300D02*
X347100D01*
G01X-136500Y-108200D02*
X347100D01*
G01X-136500Y-80100D02*
X347100D01*
G01X-134000Y-31500D02*
Y31500D01*
G02X-131500Y34000I2500J0D01*
G01X131500D01*
G02X134000Y31500I0J-2500D01*
G01Y-31500D01*
G02X131500Y-34000I-2500J0D01*
G01X-131500D01*
G02X-134000Y-31500I0J2500D01*
G01X-125495Y-126950D02*
Y-114450D01*
X-119605D01*
G01X-121775Y-120492D02*
X-125495D01*
G01X-112010Y-114450D02*
X-108290D01*
G01X-110150D02*
Y-126950D01*
G01X-112010D02*
X-108290D01*
G01X-96820Y-120700D02*
X-93720D01*
Y-124450D01*
X-94650Y-125700D01*
X-95735Y-126533D01*
X-97285Y-126950D01*
X-98835Y-126533D01*
X-99920Y-125700D01*
X-100850Y-124450D01*
X-101470Y-122992D01*
X-101780Y-121325D01*
Y-119867D01*
X-101470Y-118617D01*
X-100850Y-117158D01*
X-99920Y-115908D01*
X-98990Y-115075D01*
X-97750Y-114450D01*
X-96665D01*
X-95425Y-114867D01*
X-94495Y-115700D01*
G01X-88760Y-114450D02*
Y-123408D01*
X-88140Y-125284D01*
X-86900Y-126533D01*
X-85350Y-126950D01*
X-83800Y-126533D01*
X-82560Y-125284D01*
X-81940Y-123408D01*
Y-114450D01*
G01X-76050Y-126950D02*
Y-114450D01*
X-72175D01*
X-70935Y-115075D01*
X-70160Y-115908D01*
X-69850Y-117575D01*
X-70160Y-119242D01*
X-71090Y-120283D01*
X-72175Y-120908D01*
X-76050D01*
G01X-72175D02*
X-69850Y-126950D01*
G01X-57450D02*
X-63650D01*
Y-114450D01*
X-57450D01*
G01X-59930Y-120492D02*
X-63650D01*
G01X-46600Y-108200D02*
Y-192500D01*
G01X-53110Y-73850D02*
Y-61350D01*
X-50010D01*
X-48770Y-61975D01*
X-47840Y-62808D01*
X-47065Y-64058D01*
X-46445Y-65517D01*
X-46290Y-67600D01*
X-46445Y-69683D01*
X-47065Y-71142D01*
X-47840Y-72392D01*
X-48770Y-73225D01*
X-50010Y-73850D01*
X-53110D01*
G01X-40400D02*
Y-61350D01*
X-36525D01*
X-35285Y-61975D01*
X-34510Y-62808D01*
X-34200Y-64475D01*
X-34510Y-66142D01*
X-35440Y-67183D01*
X-36525Y-67808D01*
X-40400D01*
G01X-36525D02*
X-34200Y-73850D01*
G01X-26760Y-61350D02*
X-23040D01*
G01X-24900D02*
Y-73850D01*
G01X-26760D02*
X-23040D01*
G01X-15600Y-61350D02*
Y-73850D01*
X-9400D01*
G01X-3200Y-61350D02*
Y-73850D01*
X3000D01*
G01X28110Y-62392D02*
X27180Y-61767D01*
X26095Y-61350D01*
X24855D01*
X23460Y-61975D01*
X22375Y-63017D01*
X21600Y-64267D01*
X20980Y-66350D01*
X20825Y-68225D01*
X21135Y-70100D01*
X21600Y-71350D01*
X22530Y-72600D01*
X23615Y-73433D01*
X24700Y-73850D01*
X25785D01*
X26870Y-73433D01*
X27800Y-72809D01*
X28575Y-71975D01*
G01X33845Y-73850D02*
Y-61350D01*
G01X40355D02*
Y-73850D01*
G01Y-67600D02*
X33845D01*
G01X45625Y-73850D02*
X49500Y-61350D01*
X53375Y-73850D01*
G01X51980Y-69475D02*
X47020D01*
G01X58800Y-73850D02*
Y-61350D01*
X62675D01*
X63915Y-61975D01*
X64690Y-62808D01*
X65000Y-64475D01*
X64690Y-66142D01*
X63760Y-67183D01*
X62675Y-67808D01*
X58800D01*
G01X62675D02*
X65000Y-73850D01*
G01X74300Y-61350D02*
Y-73850D01*
G01X70735Y-61350D02*
X77865D01*
G01X86700Y-74267D02*
X86390Y-74058D01*
Y-73642D01*
X86700Y-73433D01*
X87010Y-73642D01*
Y-74058D01*
X86700Y-74267D01*
G01Y-68642D02*
X86390Y-68433D01*
Y-68017D01*
X86700Y-67808D01*
X87010Y-68017D01*
Y-68433D01*
X86700Y-68642D01*
G01X111500Y-61350D02*
Y-73850D01*
G01X107935Y-61350D02*
X115065D01*
G01X123900Y-73850D02*
X122660Y-73642D01*
X121575Y-72809D01*
X120645Y-71558D01*
X120025Y-70100D01*
X119715Y-68433D01*
Y-66767D01*
X120025Y-65100D01*
X120645Y-63642D01*
X121575Y-62392D01*
X122660Y-61558D01*
X123900Y-61350D01*
X125140Y-61558D01*
X126225Y-62392D01*
X127155Y-63642D01*
X127775Y-65100D01*
X128085Y-66767D01*
Y-68433D01*
X127775Y-70100D01*
X127155Y-71558D01*
X126225Y-72809D01*
X125140Y-73642D01*
X123900Y-73850D01*
G01X133200D02*
Y-61350D01*
X136920D01*
X138160Y-61975D01*
X139090Y-63433D01*
X139400Y-65100D01*
X139090Y-66767D01*
X138315Y-68017D01*
X136920Y-68642D01*
X133200D01*
G01X161100Y-61350D02*
Y-73850D01*
G01X158930Y-65517D02*
X163270D01*
G01X173500Y-73850D02*
X172570Y-73642D01*
X171640Y-72809D01*
X171020Y-71350D01*
X170710Y-69683D01*
X171020Y-68017D01*
X171640Y-66558D01*
X172570Y-65725D01*
X173500Y-65517D01*
X174430Y-65725D01*
X175360Y-66558D01*
X175980Y-68017D01*
X176135Y-69683D01*
X175980Y-71350D01*
X175360Y-72809D01*
X174430Y-73642D01*
X173500Y-73850D01*
G01X199540Y-67183D02*
X200160Y-66558D01*
X200625Y-65517D01*
X200935Y-64058D01*
X200625Y-62808D01*
X200005Y-61975D01*
X198920Y-61350D01*
X194735D01*
Y-73850D01*
X199850D01*
X200935Y-73017D01*
X201555Y-71767D01*
X201865Y-70308D01*
X201555Y-68850D01*
X200625Y-67600D01*
X199540Y-67183D01*
X194735D01*
G01X210700Y-73850D02*
X209460Y-73642D01*
X208375Y-72809D01*
X207445Y-71558D01*
X206825Y-70100D01*
X206515Y-68433D01*
Y-66767D01*
X206825Y-65100D01*
X207445Y-63642D01*
X208375Y-62392D01*
X209460Y-61558D01*
X210700Y-61350D01*
X211940Y-61558D01*
X213025Y-62392D01*
X213955Y-63642D01*
X214575Y-65100D01*
X214885Y-66767D01*
Y-68433D01*
X214575Y-70100D01*
X213955Y-71558D01*
X213025Y-72809D01*
X211940Y-73642D01*
X210700Y-73850D01*
G01X223100Y-61350D02*
Y-73850D01*
G01X219535Y-61350D02*
X226665D01*
G01X235500D02*
Y-73850D01*
G01X231935Y-61350D02*
X239065D01*
G01X247900Y-73850D02*
X246660Y-73642D01*
X245575Y-72809D01*
X244645Y-71558D01*
X244025Y-70100D01*
X243715Y-68433D01*
Y-66767D01*
X244025Y-65100D01*
X244645Y-63642D01*
X245575Y-62392D01*
X246660Y-61558D01*
X247900Y-61350D01*
X249140Y-61558D01*
X250225Y-62392D01*
X251155Y-63642D01*
X251775Y-65100D01*
X252085Y-66767D01*
Y-68433D01*
X251775Y-70100D01*
X251155Y-71558D01*
X250225Y-72809D01*
X249140Y-73642D01*
X247900Y-73850D01*
G01X256270D02*
Y-61350D01*
X260300Y-71767D01*
X264330Y-61350D01*
Y-73850D01*
G01X-22575Y-98850D02*
X-18700Y-86350D01*
X-14825Y-98850D01*
G01X-16220Y-94475D02*
X-21180D01*
G01X-9400Y-86350D02*
Y-98850D01*
X-3200D01*
G01X3000Y-86350D02*
Y-98850D01*
X9200D01*
G01X27490Y-86350D02*
Y-95308D01*
X28110Y-97184D01*
X29350Y-98433D01*
X30900Y-98850D01*
X32450Y-98433D01*
X33690Y-97184D01*
X34310Y-95308D01*
Y-86350D01*
G01X39735Y-98850D02*
Y-86350D01*
X46865Y-98850D01*
Y-86350D01*
G01X53840D02*
X57560D01*
G01X55700D02*
Y-98850D01*
G01X53840D02*
X57560D01*
G01X68100Y-86350D02*
Y-98850D01*
G01X64535Y-86350D02*
X71665D01*
G01X77245Y-97184D02*
X78485Y-98225D01*
X79880Y-98850D01*
X81120D01*
X82360Y-98225D01*
X83290Y-97184D01*
X83755Y-95725D01*
X83445Y-94267D01*
X82670Y-93017D01*
X81275Y-92183D01*
X79415Y-91767D01*
X78330Y-90933D01*
X77865Y-89475D01*
X78175Y-88017D01*
X78950Y-86975D01*
X80035Y-86350D01*
X81120D01*
X82205Y-86767D01*
X83135Y-87808D01*
G01X101425Y-98850D02*
X105300Y-86350D01*
X109175Y-98850D01*
G01X107780Y-94475D02*
X102820D01*
G01X114600Y-98850D02*
Y-86350D01*
X118475D01*
X119715Y-86975D01*
X120490Y-87808D01*
X120800Y-89475D01*
X120490Y-91142D01*
X119560Y-92183D01*
X118475Y-92808D01*
X114600D01*
G01X118475D02*
X120800Y-98850D01*
G01X133200D02*
X127000D01*
Y-86350D01*
X133200D01*
G01X130720Y-92392D02*
X127000D01*
G01X153040Y-86350D02*
X156760D01*
G01X154900D02*
Y-98850D01*
G01X153040D02*
X156760D01*
G01X163735D02*
Y-86350D01*
X170865Y-98850D01*
Y-86350D01*
G01X188070Y-98850D02*
Y-86350D01*
X192100Y-96767D01*
X196130Y-86350D01*
Y-98850D01*
G01X202640Y-86350D02*
X206360D01*
G01X204500D02*
Y-98850D01*
G01X202640D02*
X206360D01*
G01X213800Y-86350D02*
Y-98850D01*
X220000D01*
G01X226045Y-97184D02*
X227285Y-98225D01*
X228680Y-98850D01*
X229920D01*
X231160Y-98225D01*
X232090Y-97184D01*
X232555Y-95725D01*
X232245Y-94267D01*
X231470Y-93017D01*
X230075Y-92183D01*
X228215Y-91767D01*
X227130Y-90933D01*
X226665Y-89475D01*
X226975Y-88017D01*
X227750Y-86975D01*
X228835Y-86350D01*
X229920D01*
X231005Y-86767D01*
X231935Y-87808D01*
G01X19740Y-182200D02*
X20670Y-183659D01*
X21910Y-184492D01*
X23305Y-184700D01*
X24545Y-184492D01*
X25785Y-183450D01*
X26560Y-182200D01*
X26715Y-180950D01*
X26405Y-179492D01*
X25320Y-178450D01*
X24235Y-178033D01*
X22840D01*
G01X24235D02*
X25165Y-177408D01*
X25940Y-176367D01*
X26250Y-175117D01*
X25940Y-173867D01*
X25165Y-172825D01*
X23770Y-172200D01*
X22375Y-172408D01*
X20980Y-173242D01*
G01X32915Y-183242D02*
X34000Y-184283D01*
X35240Y-184700D01*
X36480Y-184283D01*
X37565Y-183034D01*
X38340Y-181158D01*
X38650Y-179283D01*
Y-176992D01*
X38340Y-175117D01*
X37565Y-173450D01*
X36635Y-172617D01*
X35550Y-172200D01*
X34310Y-172617D01*
X33380Y-173450D01*
X32760Y-174700D01*
X32450Y-176367D01*
X32760Y-177825D01*
X33535Y-179283D01*
X34465Y-180117D01*
X35550Y-180325D01*
X36790Y-179909D01*
X37720Y-178867D01*
X38650Y-176992D01*
G01X47950Y-185117D02*
X47640Y-184908D01*
Y-184492D01*
X47950Y-184283D01*
X48260Y-184492D01*
Y-184908D01*
X47950Y-185117D01*
G01X56940Y-182200D02*
X57870Y-183659D01*
X59110Y-184492D01*
X60505Y-184700D01*
X61745Y-184492D01*
X62985Y-183450D01*
X63760Y-182200D01*
X63915Y-180950D01*
X63605Y-179492D01*
X62520Y-178450D01*
X61435Y-178033D01*
X60040D01*
G01X61435D02*
X62365Y-177408D01*
X63140Y-176367D01*
X63450Y-175117D01*
X63140Y-173867D01*
X62365Y-172825D01*
X60970Y-172200D01*
X59575Y-172408D01*
X58180Y-173242D01*
G01X72440Y-184700D02*
X72750Y-181992D01*
X73215Y-179700D01*
X73835Y-177617D01*
X74610Y-175325D01*
X75850Y-172200D01*
X69650D01*
G01X29350Y-156600D02*
Y-144100D01*
X27490Y-146600D01*
G01Y-156600D02*
X31210D01*
G01X38340Y-154100D02*
X39270Y-155559D01*
X40510Y-156392D01*
X41905Y-156600D01*
X43145Y-156392D01*
X44385Y-155350D01*
X45160Y-154100D01*
X45315Y-152850D01*
X45005Y-151392D01*
X43920Y-150350D01*
X42835Y-149933D01*
X41440D01*
G01X42835D02*
X43765Y-149308D01*
X44540Y-148267D01*
X44850Y-147017D01*
X44540Y-145767D01*
X43765Y-144725D01*
X42370Y-144100D01*
X40975Y-144308D01*
X39580Y-145142D01*
G01X54150Y-157017D02*
X53840Y-156808D01*
Y-156392D01*
X54150Y-156183D01*
X54460Y-156392D01*
Y-156808D01*
X54150Y-157017D01*
G01X66550Y-144100D02*
X65310Y-144517D01*
X64380Y-145558D01*
X63760Y-146808D01*
X63295Y-148475D01*
X63140Y-150350D01*
X63295Y-152225D01*
X63760Y-153892D01*
X64380Y-155142D01*
X65310Y-156183D01*
X66550Y-156600D01*
X67790Y-156183D01*
X68720Y-155142D01*
X69340Y-153892D01*
X69805Y-152225D01*
X69960Y-150350D01*
X69805Y-148475D01*
X69340Y-146808D01*
X68720Y-145558D01*
X67790Y-144517D01*
X66550Y-144100D01*
G01X26095Y-125284D02*
X27335Y-126325D01*
X28730Y-126950D01*
X29970D01*
X31210Y-126325D01*
X32140Y-125284D01*
X32605Y-123825D01*
X32295Y-122367D01*
X31520Y-121117D01*
X30125Y-120283D01*
X28265Y-119867D01*
X27180Y-119033D01*
X26715Y-117575D01*
X27025Y-116117D01*
X27800Y-115075D01*
X28885Y-114450D01*
X29970D01*
X31055Y-114867D01*
X31985Y-115908D01*
G01X39890Y-114450D02*
X43610D01*
G01X41750D02*
Y-126950D01*
G01X39890D02*
X43610D01*
G01X51205Y-114450D02*
X57095D01*
X51205Y-126950D01*
X57095D01*
G01X69650D02*
X63450D01*
Y-114450D01*
X69650D01*
G01X67170Y-120492D02*
X63450D01*
G01X142500Y-108200D02*
Y-192500D01*
G01X171950Y-184700D02*
Y-172200D01*
X175670D01*
X176910Y-172825D01*
X177840Y-174283D01*
X178150Y-175950D01*
X177840Y-177617D01*
X177065Y-178867D01*
X175670Y-179492D01*
X171950D01*
G01X184350Y-172200D02*
Y-184700D01*
X190550D01*
G01X195975D02*
X199850Y-172200D01*
X203725Y-184700D01*
G01X202330Y-180325D02*
X197370D01*
G01X212250Y-172200D02*
Y-184700D01*
G01X208685Y-172200D02*
X215815D01*
G01X227750Y-184700D02*
X221550D01*
Y-172200D01*
X227750D01*
G01X225270Y-178242D02*
X221550D01*
G01X233640Y-184700D02*
Y-172200D01*
X236740D01*
X237980Y-172825D01*
X238910Y-173658D01*
X239685Y-174908D01*
X240305Y-176367D01*
X240460Y-178450D01*
X240305Y-180533D01*
X239685Y-181992D01*
X238910Y-183242D01*
X237980Y-184075D01*
X236740Y-184700D01*
X233640D01*
G01X171950Y-156600D02*
Y-144100D01*
X175670D01*
X176910Y-144725D01*
X177840Y-146183D01*
X178150Y-147850D01*
X177840Y-149517D01*
X177065Y-150767D01*
X175670Y-151392D01*
X171950D01*
G01X184350Y-144100D02*
Y-156600D01*
X190550D01*
G01X195975D02*
X199850Y-144100D01*
X203725Y-156600D01*
G01X202330Y-152225D02*
X197370D01*
G01X212250Y-144100D02*
Y-156600D01*
G01X208685Y-144100D02*
X215815D01*
G01X227750Y-156600D02*
X221550D01*
Y-144100D01*
X227750D01*
G01X225270Y-150142D02*
X221550D01*
G01X233640Y-156600D02*
Y-144100D01*
X236740D01*
X237980Y-144725D01*
X238910Y-145558D01*
X239685Y-146808D01*
X240305Y-148267D01*
X240460Y-150350D01*
X240305Y-152433D01*
X239685Y-153892D01*
X238910Y-155142D01*
X237980Y-155975D01*
X236740Y-156600D01*
X233640D01*
G01X171950Y-126950D02*
Y-114450D01*
X175670D01*
X176910Y-115075D01*
X177840Y-116533D01*
X178150Y-118200D01*
X177840Y-119867D01*
X177065Y-121117D01*
X175670Y-121742D01*
X171950D01*
G01X184350Y-114450D02*
Y-126950D01*
X190550D01*
G01X195975D02*
X199850Y-114450D01*
X203725Y-126950D01*
G01X202330Y-122575D02*
X197370D01*
G01X212250Y-114450D02*
Y-126950D01*
G01X208685Y-114450D02*
X215815D01*
G01X227750Y-126950D02*
X221550D01*
Y-114450D01*
X227750D01*
G01X225270Y-120492D02*
X221550D01*
G01X233640Y-126950D02*
Y-114450D01*
X236740D01*
X237980Y-115075D01*
X238910Y-115908D01*
X239685Y-117158D01*
X240305Y-118617D01*
X240460Y-120700D01*
X240305Y-122783D01*
X239685Y-124242D01*
X238910Y-125492D01*
X237980Y-126325D01*
X236740Y-126950D01*
X233640D01*
G01X269600Y-108200D02*
Y-192500D01*
G01X299205Y-174283D02*
X300135Y-173034D01*
X301220Y-172408D01*
X302460Y-172200D01*
X304010Y-172617D01*
X305095Y-173658D01*
X305405Y-174908D01*
X305250Y-176159D01*
X304630Y-177200D01*
X301530Y-179283D01*
X300135Y-180742D01*
X299205Y-182825D01*
X298895Y-184700D01*
X305405D01*
G01X314550Y-172200D02*
X313310Y-172617D01*
X312380Y-173658D01*
X311760Y-174908D01*
X311295Y-176575D01*
X311140Y-178450D01*
X311295Y-180325D01*
X311760Y-181992D01*
X312380Y-183242D01*
X313310Y-184283D01*
X314550Y-184700D01*
X315790Y-184283D01*
X316720Y-183242D01*
X317340Y-181992D01*
X317805Y-180325D01*
X317960Y-178450D01*
X317805Y-176575D01*
X317340Y-174908D01*
X316720Y-173658D01*
X315790Y-172617D01*
X314550Y-172200D01*
G01X310210Y-156600D02*
Y-144100D01*
X304475Y-153058D01*
X312225D01*
G01X295950Y-126950D02*
X294710Y-126742D01*
X293625Y-125909D01*
X292695Y-124658D01*
X292075Y-123200D01*
X291765Y-121533D01*
Y-119867D01*
X292075Y-118200D01*
X292695Y-116742D01*
X293625Y-115492D01*
X294710Y-114658D01*
X295950Y-114450D01*
X297190Y-114658D01*
X298275Y-115492D01*
X299205Y-116742D01*
X299825Y-118200D01*
X300135Y-119867D01*
Y-121533D01*
X299825Y-123200D01*
X299205Y-124658D01*
X298275Y-125909D01*
X297190Y-126742D01*
X295950Y-126950D01*
G01X297190Y-123617D02*
X299050Y-126950D01*
G01X308350Y-114450D02*
Y-126950D01*
G01X304785Y-114450D02*
X311915D01*
G01X320750Y-126950D02*
Y-121325D01*
X317650Y-114450D01*
G01X323850D02*
X320750Y-121325D01*
M02*
