G04 ================== begin FILE IDENTIFICATION RECORD ==================*
G04 Layout Name:  E:/«∂»Î Ω/git/PCB_MOTOR/pcb/bbear_balance_car_motor.brd*
G04 Film Name:    SILKSCREEN_TOP*
G04 File Format:  Gerber RS274X*
G04 File Origin:  Cadence Allegro 16.6-P004*
G04 Origin Date:  Fri Feb 17 19:51:42 2017*
G04 *
G04 Layer:  PACKAGE GEOMETRY/SILKSCREEN_TOP*
G04 Layer:  MANUFACTURING/AUTOSILK_TOP*
G04 Layer:  BOARD GEOMETRY/SILKSCREEN_TOP*
G04 *
G04 Offset:    (0.00 0.00)*
G04 Mirror:    No*
G04 Mode:      Positive*
G04 Rotation:  0*
G04 FullContactRelief:  No*
G04 UndefLineWidth:     6.00*
G04 ================== end FILE IDENTIFICATION RECORD ====================*
%FSLAX25Y25*MOIN*%
%IR0*IPPOS*OFA0.00000B0.00000*MIA0B0*SFA1.00000B1.00000*%
%ADD10C,.01*%
%ADD11C,.002*%
%ADD12C,.006*%
%ADD13C,.00394*%
%ADD14C,.00787*%
G75*
%LPD*%
G75*
G54D10*
G01X-113800Y23700D02*
Y-16400D01*
X-114000Y-16600D01*
X-113500Y-17100D01*
X-108400D01*
Y-18100D01*
X-116900Y-26600D01*
X-125100Y-18400D01*
Y-17300D01*
X-119300D01*
Y23700D01*
X-119700Y24100D01*
X-114200D01*
X-113800Y23700D01*
G01X-41400Y30100D02*
X-36700D01*
G01X-39400Y32300D02*
Y27600D01*
G01X-33700Y30000D02*
X-29000D01*
X-28900Y30100D01*
G01X31600Y29200D02*
X37000D01*
X37100Y29300D01*
G01X34100Y31900D02*
Y26700D01*
G01X39300Y29200D02*
X44000D01*
X44100Y29100D01*
G01X114100Y25200D02*
Y-16300D01*
X108100D01*
X108000Y-16200D01*
Y-17600D01*
X118000Y-27600D01*
X128500Y-17100D01*
Y-16400D01*
X128400Y-16300D01*
X121700D01*
Y25400D01*
X121900Y25600D01*
X114500D01*
X114100Y25200D01*
G01X91800Y-29300D02*
X98100D01*
X98200Y-29400D01*
G01X94900Y-26100D02*
Y-31700D01*
X95100Y-31900D01*
G01X92300Y29600D02*
X98800D01*
G01X95200Y32200D02*
Y26700D01*
X95100Y26600D01*
G54D11*
G01X-43709Y11607D02*
X-34160D01*
X-34127Y11640D01*
Y16005D01*
X-34169Y16047D01*
X-43727D01*
X-43730Y16044D01*
Y11628D01*
X-43709Y11607D01*
G01D02*
X-34160D01*
X-34127Y11640D01*
Y16005D01*
X-34169Y16047D01*
X-43727D01*
X-43730Y16044D01*
Y11628D01*
X-43709Y11607D01*
G54D12*
G01X-101893Y-7400D02*
Y-10983D01*
X-101640Y-11733D01*
X-101133Y-12233D01*
X-100500Y-12400D01*
X-99867Y-12233D01*
X-99360Y-11733D01*
X-99107Y-10983D01*
Y-7400D01*
G01X-95400Y-12400D02*
Y-7400D01*
X-96160Y-8400D01*
G01Y-12400D02*
X-94640D01*
G01X-47500Y-25500D02*
Y-14500D01*
X-102500D01*
Y-25500D01*
X-47500D01*
G01D02*
Y-14500D01*
X-102500D01*
Y-25500D01*
X-47500D01*
G01X-102893Y31500D02*
Y27917D01*
X-102640Y27167D01*
X-102133Y26667D01*
X-101500Y26500D01*
X-100867Y26667D01*
X-100360Y27167D01*
X-100107Y27917D01*
Y31500D01*
G01X-97603Y30667D02*
X-97223Y31167D01*
X-96780Y31417D01*
X-96273Y31500D01*
X-95640Y31333D01*
X-95197Y30917D01*
X-95070Y30417D01*
X-95133Y29917D01*
X-95387Y29500D01*
X-96653Y28667D01*
X-97223Y28083D01*
X-97603Y27250D01*
X-97730Y26500D01*
X-95070D01*
G01X-47500Y14500D02*
Y25500D01*
X-102500D01*
Y14500D01*
X-47500D01*
G01D02*
Y25500D01*
X-102500D01*
Y14500D01*
X-47500D01*
G01X-50740Y-3800D02*
X-51220Y-3500D01*
X-51780Y-3300D01*
X-52420D01*
X-53140Y-3600D01*
X-53700Y-4100D01*
X-54100Y-4700D01*
X-54420Y-5700D01*
X-54500Y-6600D01*
X-54340Y-7500D01*
X-54100Y-8100D01*
X-53620Y-8700D01*
X-53060Y-9100D01*
X-52500Y-9300D01*
X-51940D01*
X-51380Y-9100D01*
X-50900Y-8800D01*
X-50500Y-8400D01*
G01X-47700Y-9300D02*
Y-3300D01*
X-48660Y-4500D01*
G01Y-9300D02*
X-46740D01*
G01X-50793Y7867D02*
X-50540Y8117D01*
X-50350Y8533D01*
X-50223Y9117D01*
X-50350Y9617D01*
X-50603Y9950D01*
X-51047Y10200D01*
X-52757D01*
Y5200D01*
X-50667D01*
X-50223Y5533D01*
X-49970Y6033D01*
X-49843Y6617D01*
X-49970Y7200D01*
X-50350Y7700D01*
X-50793Y7867D01*
X-52757D01*
G01X-46200Y5200D02*
Y10200D01*
X-46960Y9200D01*
G01Y5200D02*
X-45440D01*
G01X-18207Y29683D02*
X-18587Y29933D01*
X-19030Y30100D01*
X-19537D01*
X-20107Y29850D01*
X-20550Y29433D01*
X-20867Y28933D01*
X-21120Y28100D01*
X-21183Y27350D01*
X-21057Y26600D01*
X-20867Y26100D01*
X-20487Y25600D01*
X-20043Y25267D01*
X-19600Y25100D01*
X-19157D01*
X-18713Y25267D01*
X-18333Y25517D01*
X-18017Y25850D01*
G01X-15893Y26100D02*
X-15513Y25517D01*
X-15007Y25183D01*
X-14437Y25100D01*
X-13930Y25183D01*
X-13423Y25600D01*
X-13107Y26100D01*
X-13043Y26600D01*
X-13170Y27183D01*
X-13613Y27600D01*
X-14057Y27767D01*
X-14627D01*
G01X-14057D02*
X-13677Y28017D01*
X-13360Y28433D01*
X-13233Y28933D01*
X-13360Y29433D01*
X-13677Y29850D01*
X-14247Y30100D01*
X-14817Y30017D01*
X-15387Y29683D01*
G01X47407Y-8900D02*
Y-12483D01*
X47660Y-13233D01*
X48167Y-13733D01*
X48800Y-13900D01*
X49433Y-13733D01*
X49940Y-13233D01*
X50193Y-12483D01*
Y-8900D01*
G01X52507Y-12900D02*
X52887Y-13483D01*
X53393Y-13817D01*
X53963Y-13900D01*
X54470Y-13817D01*
X54977Y-13400D01*
X55293Y-12900D01*
X55357Y-12400D01*
X55230Y-11817D01*
X54787Y-11400D01*
X54343Y-11233D01*
X53773D01*
G01X54343D02*
X54723Y-10983D01*
X55040Y-10567D01*
X55167Y-10067D01*
X55040Y-9567D01*
X54723Y-9150D01*
X54153Y-8900D01*
X53583Y-8983D01*
X53013Y-9317D01*
G01X102500Y-25500D02*
Y-14500D01*
X47500D01*
Y-25500D01*
X102500D01*
G01D02*
Y-14500D01*
X47500D01*
Y-25500D01*
X102500D01*
G01X31760Y-11000D02*
X31280Y-10700D01*
X30720Y-10500D01*
X30080D01*
X29360Y-10800D01*
X28800Y-11300D01*
X28400Y-11900D01*
X28080Y-12900D01*
X28000Y-13800D01*
X28160Y-14700D01*
X28400Y-15300D01*
X28880Y-15900D01*
X29440Y-16300D01*
X30000Y-16500D01*
X30560D01*
X31120Y-16300D01*
X31600Y-16000D01*
X32000Y-15600D01*
G01X33280Y-11500D02*
X33760Y-10900D01*
X34320Y-10600D01*
X34960Y-10500D01*
X35760Y-10700D01*
X36320Y-11200D01*
X36480Y-11800D01*
X36400Y-12400D01*
X36080Y-12900D01*
X34480Y-13900D01*
X33760Y-14600D01*
X33280Y-15600D01*
X33120Y-16500D01*
X36480D01*
G01X102500Y14500D02*
Y25500D01*
X47500D01*
Y14500D01*
X102500D01*
G01D02*
Y25500D01*
X47500D01*
Y14500D01*
X102500D01*
G01X41600Y5600D02*
Y11600D01*
X43600D01*
X44240Y11300D01*
X44640Y10900D01*
X44800Y10100D01*
X44640Y9300D01*
X44160Y8800D01*
X43600Y8500D01*
X41600D01*
G01X43600D02*
X44800Y5600D01*
G01X48000D02*
Y11600D01*
X47040Y10400D01*
G01Y5600D02*
X48960D01*
G01X47807Y31900D02*
Y28317D01*
X48060Y27567D01*
X48567Y27067D01*
X49200Y26900D01*
X49833Y27067D01*
X50340Y27567D01*
X50593Y28317D01*
Y31900D01*
G01X55060Y26900D02*
Y31900D01*
X52717Y28317D01*
X55883D01*
G01X68400Y4800D02*
Y10800D01*
X70400D01*
X71040Y10500D01*
X71440Y10100D01*
X71600Y9300D01*
X71440Y8500D01*
X70960Y8000D01*
X70400Y7700D01*
X68400D01*
G01X70400D02*
X71600Y4800D01*
G01X73280Y9800D02*
X73760Y10400D01*
X74320Y10700D01*
X74960Y10800D01*
X75760Y10600D01*
X76320Y10100D01*
X76480Y9500D01*
X76400Y8900D01*
X76080Y8400D01*
X74480Y7400D01*
X73760Y6700D01*
X73280Y5700D01*
X73120Y4800D01*
X76480D01*
G01X87607Y-9700D02*
Y-4700D01*
X88873D01*
X89380Y-4950D01*
X89760Y-5283D01*
X90077Y-5783D01*
X90330Y-6367D01*
X90393Y-7200D01*
X90330Y-8033D01*
X90077Y-8617D01*
X89760Y-9117D01*
X89380Y-9450D01*
X88873Y-9700D01*
X87607D01*
G01X94100D02*
Y-4700D01*
X93340Y-5700D01*
G01Y-9700D02*
X94860D01*
G54D13*
G01X-20276Y-20472D02*
X20276D01*
Y20472D01*
X-20276D01*
Y-20472D01*
G01D02*
X-6103D01*
G01Y20472D02*
X-20276D01*
Y-20472D01*
G01X6103D02*
X20276D01*
Y20472D01*
X6103D01*
G01X70200Y-7400D02*
X68200D01*
G01X74500Y-8700D02*
Y-5700D01*
G01X76000Y-7300D02*
X73100D01*
G01X67300Y-11000D02*
X60500D01*
Y-4600D01*
X67400D01*
G01X76900Y-4500D02*
X83900D01*
Y-10900D01*
X76900D01*
G01Y-4500D02*
X83900D01*
Y-10900D01*
X76900D01*
G01X67300Y-11000D02*
X60500D01*
Y-4600D01*
X67400D01*
G01X76000Y-7300D02*
X73100D01*
G01X74500Y-8700D02*
Y-5700D01*
G01X70200Y-7400D02*
X68200D01*
G54D14*
G01X-38700Y-9054D02*
Y-3346D01*
G01Y-9054D02*
Y-3346D01*
G01X33900Y-2446D02*
Y-8154D01*
G01Y-2446D02*
Y-8154D01*
G01X34300Y10754D02*
Y5046D01*
G01Y10754D02*
Y5046D01*
G01X61100Y10754D02*
Y5046D01*
G01Y10754D02*
Y5046D01*
M02*
