G04 ================== begin FILE IDENTIFICATION RECORD ==================*
G04 Layout Name:  E:/«∂»Î Ω/git/PCB_MCU/boardv5_0/BBear_balance_carv2_0.brd*
G04 Film Name:    BOTTOM*
G04 File Format:  Gerber RS274X*
G04 File Origin:  Cadence Allegro 16.6-P004*
G04 Origin Date:  Tue Apr 04 18:24:07 2017*
G04 *
G04 Layer:  ETCH/BOTTOM*
G04 Layer:  PIN/BOTTOM*
G04 Layer:  VIA CLASS/BOTTOM*
G04 *
G04 Offset:    (0.0000 0.0000)*
G04 Mirror:    No*
G04 Mode:      Positive*
G04 Rotation:  0*
G04 FullContactRelief:  No*
G04 UndefLineWidth:     0.1524*
G04 ================== end FILE IDENTIFICATION RECORD ====================*
%FSLAX25Y25*MOMM*%
%IR0*IPPOS*OFA0.00000B0.00000*MIA0B0*SFA1.00000B1.00000*%
%ADD15C,.6096*%
%AMMACRO17*
4,1,40,-.3251,.7239,
.3251,.7239,
.34237,.722321,
.359104,.717767,
.374793,.710376,
.388959,.700374,
.401174,.688063,
.411066,.673818,
.418333,.658072,
.422756,.641303,
.4242,.6248,
.4242,-.6248,
.422621,-.64207,
.418067,-.658804,
.410676,-.674493,
.400674,-.688659,
.388363,-.700874,
.374118,-.710766,
.358372,-.718033,
.341603,-.722456,
.3251,-.7239,
-.3251,-.7239,
-.34237,-.722321,
-.359104,-.717767,
-.374793,-.710376,
-.388959,-.700374,
-.401174,-.688063,
-.411066,-.673818,
-.418333,-.658072,
-.422756,-.641303,
-.4242,-.6248,
-.4242,.6248,
-.422621,.64207,
-.418067,.658804,
-.410676,.674493,
-.400674,.688659,
-.388363,.700874,
-.374118,.710766,
-.358372,.718033,
-.341603,.722456,
-.3251,.7239,
0.0*
%
%ADD17MACRO17*%
%ADD14R,1.5001X3.*%
%ADD10C,4.*%
%ADD11C,1.8001*%
%ADD12R,1.8001X1.8001*%
%ADD16C,1.8491*%
%ADD13R,1.8491X1.8491*%
%ADD18C,.2032*%
%ADD19C,.254*%
%ADD24R,2.1036X2.1036*%
%ADD25C,2.1036*%
%ADD22C,2.0546*%
%ADD20R,2.0544X2.0544*%
%ADD21C,4.2544*%
%ADD23R,1.7544X3.2544*%
G75*
%LPD*%
G75*
G36*
G01X67660Y30480D02*
X32100Y66040D01*
Y2473960D01*
X67660Y2509520D01*
X268270D01*
X268290Y2509490D01*
X7047610D01*
X7080600Y2476500D01*
Y73660D01*
X7037450Y30510D01*
X6052930D01*
G02X6045750Y47850I6J10159D01*
G01X6112780Y114880D01*
Y162240D01*
X6112880Y162350D01*
Y196410D01*
X6112780Y196870D01*
Y213460D01*
X6120070D01*
X6121570Y211850D01*
G03X6223320Y381160I75106J70093D01*
G01X6219560Y382170D01*
Y404300D01*
X6217020Y406840D01*
Y433660D01*
X6150290Y500390D01*
Y685810D01*
X6143360Y692740D01*
Y699860D01*
X6145500Y701380D01*
G03X6097600Y699960I-25015J35220D01*
G01Y673780D01*
X6104530Y666850D01*
Y481430D01*
X6171260Y414700D01*
Y387880D01*
X6173700Y385440D01*
X6169190Y380930D01*
X6167940Y380570D01*
G03X6125930Y356420I28749J-98625D01*
G02X6108770Y363790I-6999J7365D01*
G01Y366450D01*
X6097590Y377630D01*
Y377680D01*
X6095100Y380170D01*
Y380220D01*
X6090020Y385300D01*
Y385350D01*
X5970260Y505110D01*
Y505160D01*
X5951820Y523600D01*
X5952250Y526190D01*
G03X5916870Y490810I-42590J7210D01*
G01X5919460Y491240D01*
X5924500Y486200D01*
Y486150D01*
X6044260Y366390D01*
Y366340D01*
X6049340Y361260D01*
Y361210D01*
X6051830Y358720D01*
Y358670D01*
X6062700Y347810D01*
X6060100Y344290D01*
G03X6055640Y330710I18422J-13573D01*
G01Y223790D01*
X6067020Y212410D01*
Y191950D01*
X6067120Y191490D01*
Y180800D01*
X6057650D01*
X6057010Y185140D01*
G03X5887690Y92900I-101634J-14961D01*
G02X5881000Y75100I-6694J-7641D01*
G01X5775760D01*
G02X5769070Y92900I4J10159D01*
G03X5633690I-67690J77280D01*
G02X5627000Y75100I-6694J-7641D01*
G01X5521760D01*
G02X5515070Y92900I4J10159D01*
G03X5513560Y248750I-67690J77276D01*
G02X5520110Y266680I6547J7770D01*
G01X5534370D01*
G03Y317520I34930J25420D01*
G01X5132790D01*
X5076910Y373400D01*
X4636490D01*
G03X4631820Y378810I-34924J-25427D01*
G02X4638940Y396220I7118J7250D01*
G01X5055620D01*
X5060700Y391140D01*
X5295350D01*
X5598850Y694640D01*
G02X5616200Y687460I7189J-7181D01*
G01Y449270D01*
X5647940D01*
G02X5657150Y434820I0J-10160D01*
G03X5653320Y412180I39149J-18267D01*
G01X5653570Y409780D01*
X5645130Y401340D01*
X5416530D01*
X5413990Y398800D01*
X5403570D01*
G03Y347960I-34930J-25420D01*
G01X5435050D01*
X5437590Y350500D01*
X5666190D01*
X5689520Y373830D01*
X5691920Y373580D01*
G03X5735450Y434820I4379J42978D01*
G02X5744660Y449270I9210J4290D01*
G01X5791640D01*
Y774710D01*
X5609960D01*
Y804810D01*
X5636180Y831030D01*
X5638580Y830780D01*
G03X5599980Y869380I4380J42980D01*
G01X5600230Y866980D01*
X5559120Y825870D01*
Y726810D01*
X5300990Y468680D01*
G02X5283640Y475860I-7189J7181D01*
G01Y774710D01*
X5150970D01*
G02X5143790Y792050I4J10158D01*
G01X5197530Y845800D01*
X5325830D01*
X5344850Y864820D01*
G02X5362200Y857640I7189J-7181D01*
G01Y749290D01*
X5537640D01*
Y1074730D01*
X5391330D01*
G02X5384140Y1092070I-3J10160D01*
G01X5415200Y1123130D01*
X5417600Y1122880D01*
G03X5379000Y1161480I4380J42980D01*
G01X5379250Y1159080D01*
X5315280Y1095110D01*
Y907150D01*
X5304770Y896640D01*
X5176470D01*
X5041600Y761760D01*
Y663950D01*
X5025370Y647720D01*
X4856450D01*
G02X4852860Y656390I3J5080D01*
G01X4855580Y659110D01*
Y749290D01*
X5029640D01*
Y1074730D01*
X4876140D01*
G02X4872550Y1083400I3J5080D01*
G01X4876250Y1087100D01*
X5091410D01*
X5209070Y969440D01*
X5208820Y967040D01*
G03X5247420Y1005640I42980J-4380D01*
G01X5245020Y1005390D01*
X5121180Y1129230D01*
G02X5124770Y1137900I3593J3590D01*
G01X5137130D01*
X5167610Y1107420D01*
X5199090D01*
G03Y1158260I34930J25420D01*
G01X5188670D01*
X5158190Y1188740D01*
X4866780D01*
G02X4859590Y1206080I-3J10160D01*
G01X4880310Y1226800D01*
X5562310D01*
G03Y1277640I34930J25420D01*
G01X4859250D01*
X4811210Y1229600D01*
G02X4793890Y1237450I-7184J7183D01*
G03X4685960Y1141630I-102509J6769D01*
G02X4692600Y1124300I-540J-10144D01*
G01X4683360Y1115060D01*
X4645290D01*
X4614830Y1084600D01*
X4614810D01*
X4597030Y1066820D01*
X4234530D01*
X4173390Y1127950D01*
G03X4171810Y1129410I-18025J-17921D01*
G01X4171620Y1129570D01*
X4170510Y1130710D01*
X4169410Y1132410D01*
X4168680Y1134260D01*
X4168290Y1136370D01*
Y1185370D01*
X4155460Y1198200D01*
Y1236410D01*
X4152920Y1238950D01*
Y1243920D01*
X4122440Y1274400D01*
Y1487470D01*
X4122860Y1488440D01*
G03X4117530Y1516570I-23301J10155D01*
G01X4091190Y1542920D01*
X4066740D01*
Y1753720D01*
X3861300D01*
Y1542920D01*
X3850470D01*
X3772680Y1465130D01*
X3770280Y1465380D01*
G03X3808880Y1426780I-4380J-42980D01*
G01X3808630Y1429180D01*
X3871530Y1492080D01*
X3889640D01*
G02X3896330Y1474280I-4J-10159D01*
G03X3907080Y1311500I67690J-77275D01*
G02X3901450Y1292880I-5631J-8459D01*
G01X3420830D01*
X3403050Y1310660D01*
X2722330D01*
X2719790Y1313200D01*
X2688310D01*
G03Y1262360I-34930J-25420D01*
G01X2698730D01*
X2701270Y1259820D01*
X3381990D01*
X3399770Y1242040D01*
X3894420D01*
G02X3900680Y1223880I-2J-10160D01*
G03X3910710Y1055180I63339J-80882D01*
G02X3905440Y1036340I-5274J-8682D01*
G01X3727430D01*
X3608050Y916960D01*
X2889230D01*
X2622880Y650610D01*
Y628420D01*
X2538040D01*
Y418060D01*
X2748400D01*
Y628420D01*
X2697110D01*
G02X2689930Y645760I3J10158D01*
G01X2910290Y866120D01*
X3629110D01*
X3748490Y985500D01*
X3891290D01*
G02X3897840Y967570I3J-10160D01*
G03X4018470Y976110I66180J-78571D01*
G01X4016080Y977600D01*
Y985500D01*
X4030060D01*
X4030100Y985480D01*
X4035540D01*
X4035880Y985460D01*
X4058900D01*
Y974990D01*
X4177930Y855960D01*
X4265870D01*
X4268410Y853420D01*
X4637200D01*
G02X4642080Y834350I2J-10159D01*
G03X4740680I49300J-90130D01*
G02X4745560Y853420I4878J8911D01*
G01X4764490D01*
X4787400Y876330D01*
G02X4804740Y869140I7180J-7187D01*
G01Y680170D01*
X4744350Y619780D01*
X4081230D01*
X3923750Y777260D01*
X3471630D01*
X3461470Y787420D01*
X3429990D01*
G03Y736580I-34930J-25420D01*
G01X3440410D01*
X3450570Y726420D01*
X3902690D01*
X4060170Y568940D01*
X4751450D01*
G02X4755040Y560270I-3J-5080D01*
G01X4748510Y553740D01*
X4015190D01*
X3921210Y647720D01*
X3753570D01*
X3715470Y685820D01*
X3312390D01*
X3278200Y651630D01*
Y628420D01*
X3198440D01*
Y418060D01*
X3408800D01*
Y634980D01*
X3553790D01*
G02X3558600Y615870I0J-10160D01*
G03X3659320Y431200I49820J-92630D01*
G01X3662660Y433050D01*
X3826490Y269220D01*
X4074660D01*
Y75100D01*
X3011780D01*
G02X3005720Y93410I5J10159D01*
G03X2880160I-62780J84390D01*
G02X2874100Y75100I-6065J-8151D01*
G01X2743320D01*
Y282980D01*
X2532960D01*
Y75100D01*
X2190260D01*
G02X2185630Y94310I-7J10161D01*
G03X2089890I-47870J93650D01*
G02X2085260Y75100I-4623J-9049D01*
G01X1938140D01*
Y293140D01*
X1727780D01*
Y75100D01*
X1411760D01*
X1063360Y423500D01*
Y749290D01*
X1245040D01*
Y1074730D01*
X1205120D01*
G02X1197930Y1092070I-3J10160D01*
G01X1330120Y1224260D01*
X1637930D01*
X1724290Y1137900D01*
X1844370D01*
G02X1852350Y1121460I-3J-10158D01*
G03X1921230Y1069320I33949J-26719D01*
G01X1952710D01*
X1967950Y1084560D01*
X2085600D01*
Y749290D01*
X2261040D01*
Y1051800D01*
G02X2278390Y1058980I10161J-1D01*
G01X2290140Y1047230D01*
Y1043570D01*
X2302840Y1030870D01*
Y1020450D01*
G03X2353680I25420J-34930D01*
G01Y1051930D01*
X2340980Y1064630D01*
Y1068290D01*
X2288710Y1120560D01*
G02X2295900Y1137900I7187J7180D01*
G01X2347330D01*
X2380350Y1170920D01*
X2730130D01*
X2803790Y1097260D01*
X3266810D01*
X3297760Y1128210D01*
X3300160Y1127960D01*
G03X3261560Y1166560I4380J42980D01*
G01X3261810Y1164160D01*
X3245750Y1148100D01*
X2824850D01*
X2751190Y1221760D01*
X2359290D01*
X2326270Y1188740D01*
X1745350D01*
X1658990Y1275100D01*
X1309060D01*
X1131900Y1097940D01*
Y1074730D01*
X1063360D01*
Y1465270D01*
X1212670D01*
X1313980Y1363960D01*
X1547400D01*
G03Y1409720I36640J22880D01*
G01X1332940D01*
X1245040Y1497610D01*
Y1790710D01*
X1063360D01*
Y2136380D01*
X976720Y2223020D01*
X930080D01*
X917140Y2235950D01*
Y2409040D01*
X711700D01*
Y2203600D01*
X884790D01*
X911120Y2177260D01*
X957760D01*
X1017600Y2117420D01*
Y404540D01*
X1374290Y47850D01*
G02X1367110Y30510I-7186J-7181D01*
G01X273370D01*
X273350Y30480D01*
X67660D01*
G37*
G36*
G01X3847550Y320060D02*
X3698610Y469000D01*
X3700460Y472340D01*
G03X3658240Y615870I-92041J50900D01*
G02X3663050Y634980I4810J8950D01*
G01X3694410D01*
X3732510Y596880D01*
X3900150D01*
X3994130Y502900D01*
X4125120D01*
G02X4128710Y494230I-2J-5079D01*
G01X4123680Y489200D01*
X4121090Y489630D01*
G03X4157030Y444970I-7209J-42593D01*
G02X4167180Y454640I10148J-490D01*
G01X4495340D01*
G02X4502530Y437300I3J-10160D01*
G01X4385290Y320060D01*
X3847550D01*
G37*
G36*
G01X4505760Y75100D02*
G02X4499070Y92900I4J10159D01*
G03X4434240Y272870I-67688J77279D01*
G02X4427340Y290210I283J10156D01*
G01X4533350Y396220D01*
X4564180D01*
G02X4571300Y378810I2J-10160D01*
G03X4636490Y322560I30260J-30831D01*
G01X5055850D01*
X5111730Y266680D01*
X5120650D01*
G02X5127200Y248750I3J-10160D01*
G03X5125690Y92900I66180J-78574D01*
G02X5119000Y75100I-6694J-7641D01*
G01X5013760D01*
G02X5007070Y92900I4J10159D01*
G03X4871690I-67690J77280D01*
G02X4865000Y75100I-6694J-7641D01*
G01X4759760D01*
G02X4753070Y92900I4J10159D01*
G03X4617690I-67690J77280D01*
G02X4611000Y75100I-6694J-7641D01*
G01X4505760D01*
G37*
G36*
G01X4280100D02*
Y269220D01*
X4361780D01*
G02X4368040Y251060I-2J-10160D01*
G03X4363690Y92900I63339J-80882D01*
G02X4357000Y75100I-6694J-7641D01*
G01X4280100D01*
G37*
%LPC*%
G75*
G36*
G01X5886780Y1962790D02*
Y2105260D01*
X5840680Y2151360D01*
X5614650D01*
X5509240Y2256770D01*
X5494000D01*
X5476980Y2273790D01*
X5473640Y2271980D01*
G02X5518960Y2321770I-49115J90226D01*
G03X5528300Y2307610I9339J-4000D01*
G01X5530300D01*
X5635710Y2202200D01*
X5861740D01*
X5937620Y2126320D01*
Y1962790D01*
G02X5886780I-25420J-34930D01*
G37*
G36*
G01X2007040Y2071090D02*
Y1765290D01*
X1831600D01*
Y2090730D01*
X1961970D01*
X2136940Y2265700D01*
X2866060D01*
X2970900Y2160860D01*
Y2119500D01*
X2974690Y2118500D01*
G02X2921350I-26670J-101740D01*
G01X2925140Y2119500D01*
Y2141900D01*
X2847100Y2219940D01*
X2155900D01*
X2007040Y2071090D01*
G37*
G36*
G01X3621490Y1780520D02*
X3590010D01*
G02Y1831360I-34930J25420D01*
G01X3600430D01*
X3601500Y1832430D01*
X4349660D01*
G02Y1781590I34930J-25420D01*
G01X3622560D01*
X3621490Y1780520D01*
G37*
G36*
G01X3401820Y1695500D02*
G02X3362580Y1657690I49108J-90232D01*
G01X3237210Y1783060D01*
X2505690D01*
X2451260Y1837490D01*
G03X2433920Y1830300I-7180J-7187D01*
G01Y1768970D01*
X2404010Y1739060D01*
X2404260Y1736660D01*
G02X2365660Y1775260I-42980J-4380D01*
G01X2368060Y1775010D01*
X2383080Y1790030D01*
Y1905670D01*
X2251220Y2037530D01*
X2248820Y2037280D01*
G02X2287420Y2075880I-4380J42980D01*
G01X2287170Y2073480D01*
X2526750Y1833900D01*
X3258270D01*
X3398480Y1693690D01*
X3401820Y1695500D01*
G37*
G36*
G01X2033640Y1567860D02*
Y1489520D01*
G02X1987880I-22880J-36640D01*
G01Y1586820D01*
X2051930Y1650870D01*
X2085600D01*
Y1790710D01*
X2261040D01*
Y1465270D01*
X2085600D01*
Y1605110D01*
X2070890D01*
X2033640Y1567860D01*
G37*
G36*
G01X5966620Y1430040D02*
X6032260D01*
X6115380Y1513160D01*
Y1975440D01*
X6222760Y2082820D01*
X6314200D01*
X6316040Y2084660D01*
Y2087200D01*
X6505920Y2277080D01*
G02X6541600Y2242730I86989J54651D01*
G01X6538230Y2244670D01*
X6361800Y2068240D01*
Y2065700D01*
X6333160Y2037060D01*
X6241720D01*
X6161140Y1956480D01*
Y1494200D01*
X6051220Y1384280D01*
X5966620D01*
G02Y1430040I-36640J22880D01*
G37*
G36*
G01X3533730Y968860D02*
X3326990D01*
G02Y1019700I-34930J25420D01*
G01X3512670D01*
X3524230Y1031260D01*
X3555710D01*
G02Y980420I34930J-25420D01*
G01X3545290D01*
X3533730Y968860D01*
G37*
G36*
G01X7016600Y684640D02*
Y1327040D01*
X6939040Y1404600D01*
X6781960D01*
G02Y1450360I-36640J22880D01*
G01X6958000D01*
X7062360Y1346000D01*
Y665680D01*
X7036000Y639330D01*
Y466240D01*
X6830560D01*
Y671680D01*
X7003650D01*
X7016600Y684640D01*
G37*
G36*
G01X6395990Y368990D02*
X6399360Y370930D01*
G02X6361690Y333260I51320J-88990D01*
G01X6363630Y336630D01*
X6194120Y506140D01*
Y785540D01*
X6156340Y823320D01*
X6146180D01*
X6127740Y841760D01*
X6125150Y841330D01*
G02X6160530Y876710I-7210J42590D01*
G01X6160100Y874120D01*
X6165140Y869080D01*
X6175300D01*
X6239880Y804500D01*
Y525100D01*
X6245360Y519620D01*
G03X6262700Y526800I7181J7186D01*
G01Y805860D01*
X6183580Y884980D01*
Y976420D01*
X6178540Y981460D01*
X6175950Y981030D01*
G02X6211330Y1016410I-7210J42590D01*
G01X6210900Y1013820D01*
X6229340Y995380D01*
Y903940D01*
X6308460Y824820D01*
Y532720D01*
X6330170Y511000D01*
X6336430Y517260D01*
X6334660Y520580D01*
G02X6450810Y668470I90623J48383D01*
G01X6453610Y667750D01*
X6657100Y871240D01*
X6744240D01*
G02X6815820Y873760I36640J-22882D01*
G03X6834200Y879740I8219J5974D01*
G01Y1184320D01*
X6776480Y1242040D01*
X6532460D01*
G03X6528940Y1222350I2J-10160D01*
G02X6381520I-73710J-199540D01*
G03X6378000Y1242040I-3522J9530D01*
G01X6300140D01*
X6277650Y1219550D01*
Y1214470D01*
X6233760Y1170580D01*
X6234190Y1167990D01*
G02X6198810Y1203370I-42590J-7210D01*
G01X6201400Y1202940D01*
X6231890Y1233430D01*
Y1238510D01*
X6281180Y1287800D01*
X6795440D01*
X6879960Y1203280D01*
Y814810D01*
G03X6897300Y807630I10159J6D01*
G01X6912940Y823270D01*
Y1222420D01*
X6846560Y1288800D01*
X6843970Y1288370D01*
G02X6879350Y1323750I-7210J42590D01*
G01X6878920Y1321160D01*
X6958700Y1241380D01*
Y804310D01*
X6847840Y693450D01*
X6836130D01*
X6766330Y623650D01*
X6768270Y620280D01*
G02X6611870Y491440I-88992J-51319D01*
G01X6610440Y492680D01*
X6603460D01*
Y482260D01*
X6604960Y478640D01*
X6605870Y474070D01*
X6627800Y452140D01*
X6820840D01*
X6888310Y384660D01*
X7061400D01*
Y179220D01*
X6855960D01*
Y352310D01*
X6801880Y406380D01*
X6637120D01*
G03X6629940Y389040I6J-10159D01*
G01X6649990Y368990D01*
X6653360Y370930D01*
G02X6615690Y333260I51320J-88990D01*
G01X6617630Y336630D01*
X6547880Y406380D01*
X6383120D01*
G03X6375940Y389040I6J-10159D01*
G01X6395990Y368990D01*
G37*
G36*
G01X2000150Y1284400D02*
X2000400Y1282000D01*
G02X1961800Y1320600I-42980J-4380D01*
G01X1964200Y1320350D01*
X1971520Y1327670D01*
Y1332750D01*
X2071350Y1432580D01*
X2988290D01*
X3040920Y1485210D01*
G03X3033740Y1502560I-7181J7189D01*
G01X2840220D01*
Y1708000D01*
X3045670D01*
Y1514480D01*
G03X3063010Y1507300I10158J3D01*
G01X3108530Y1552820D01*
X3106720Y1556160D01*
G02X3147820Y1515060I90220J49120D01*
G01X3144480Y1516870D01*
X3009350Y1381740D01*
X2092410D01*
X2022360Y1311690D01*
Y1306610D01*
X2000150Y1284400D01*
G37*
G36*
G01X5688290Y1051340D02*
G02X5637450I-25420J-34930D01*
G01Y1173440D01*
X5675960Y1211950D01*
Y1277250D01*
X5627350Y1325860D01*
X4837390D01*
X4674830Y1488420D01*
X4475220D01*
X4441210Y1522430D01*
Y1529940D01*
X4365890Y1605260D01*
X4334490D01*
X4329410Y1610340D01*
X4318990D01*
G02Y1661180I-34930J25420D01*
G01X4350470D01*
X4355550Y1656100D01*
X4386950D01*
X4467050Y1576000D01*
G03X4484390Y1583190I7180J7187D01*
G01Y1680480D01*
G02X4507000Y1703090I22669J-59D01*
G01X4514110D01*
Y1730990D01*
X4507000D01*
G02X4484390Y1753600I59J22669D01*
G01Y1878600D01*
G02X4484640Y1881890I22668J-68D01*
G03X4474590Y1893550I-10049J1500D01*
G01X4284650D01*
X4263060Y1871960D01*
X3703080D01*
X3701560Y1873480D01*
X3414540D01*
X3376440Y1911580D01*
X3198440D01*
Y2121940D01*
X3408800D01*
Y1943940D01*
X3433500Y1919240D01*
X3533110D01*
G03X3539740Y1937090I-3J10157D01*
G02X3710160Y2043430I68677J79665D01*
G01X3711160Y2039640D01*
X4091790D01*
X4123350Y2008080D01*
G03X4140700Y2015260I7189J7180D01*
G01Y2054840D01*
X4121060D01*
X4070260Y2105640D01*
X3927000D01*
G02Y2151400I-36640J22880D01*
G01X4089220D01*
X4123350Y2117270D01*
G03X4140700Y2124450I7189J7180D01*
G01Y2180440D01*
X4207220D01*
G03X4214400Y2197790I-1J10161D01*
G01X4110500Y2301690D01*
X4108100Y2301440D01*
G02X4146700Y2340040I-4380J42980D01*
G01X4146450Y2337640D01*
X4199550Y2284540D01*
G03X4216900Y2291720I7189J7181D01*
G01Y2459840D01*
X4422340D01*
Y2254400D01*
X4254220D01*
G03X4247040Y2237050I1J-10161D01*
G01X4260450Y2223640D01*
X5314550D01*
X5389800Y2148390D01*
X5392200Y2148640D01*
G02X5353600Y2110040I4380J-42980D01*
G01X5353850Y2112440D01*
X5293490Y2172800D01*
X4825800D01*
G03X4819110Y2155000I4J-10159D01*
G02X4816210Y1997990I-67688J-77282D01*
G03X4822610Y1979950I6407J-7882D01*
G01X4947570D01*
X4976630Y1950890D01*
X5108200D01*
Y2090730D01*
X5283640D01*
Y1779350D01*
G03X5292320Y1775760I5081J-3D01*
G01X5300040Y1783480D01*
Y1826630D01*
X5399870Y1926460D01*
X5410030D01*
X5417350Y1933780D01*
X5417100Y1936180D01*
G02X5455700Y1897580I42980J4380D01*
G01X5453300Y1897830D01*
X5431090Y1875620D01*
X5420930D01*
X5350880Y1805570D01*
Y1762420D01*
X5305480Y1717020D01*
X5228510D01*
X5119740Y1608260D01*
Y1455080D01*
X5058700Y1394040D01*
G03X5065890Y1376700I7187J-7180D01*
G01X5648410D01*
X5726800Y1298310D01*
Y1190890D01*
X5688290Y1152380D01*
Y1051340D01*
G37*
G54D24*
X2643220Y2016760D03*
G54D25*
X2948020Y523240D03*
G54D22*
X306420Y2306320D03*
X1087120Y2313940D03*
X560420Y2306320D03*
X1341120Y2313940D03*
X1595120D03*
X3392520Y2362200D03*
X3646520D03*
X4827620Y2357120D03*
X4573620D03*
X5678520Y2362200D03*
X5932520D03*
X6846920Y2331720D03*
G54D20*
X6338920D03*
X1849120Y2313940D03*
X3138520Y2362200D03*
X5170520D03*
G54D21*
X410030Y1872790D03*
X660010Y1022810D03*
X6705210Y1872790D03*
G54D23*
X1411320Y611990D03*
X1665320Y912010D03*
X1411320Y1928010D03*
X1665320Y1627990D03*
X1919320Y611990D03*
X5449920Y1627990D03*
X5957920Y912010D03*
X5703920Y1928010D03*
X5957920Y1627990D03*
%LPD*%
G75*
G36*
G01X4845520Y1464210D02*
X4844180Y1465560D01*
X4839240Y1467620D01*
X4837590Y1468720D01*
X4810390Y1495920D01*
Y1499360D01*
X4810370Y1499380D01*
Y1538140D01*
X4779690Y1568820D01*
Y1680480D01*
G03X4757080Y1703090I-22669J-59D01*
G01X4692020D01*
G03X4669410Y1680480I59J-22669D01*
G01Y1555480D01*
G03X4669810Y1551310I22668J70D01*
G02X4659830Y1539260I-9983J-1890D01*
G01X4604250D01*
G02X4594270Y1551310I3J10160D01*
G03X4594670Y1555480I-22268J4240D01*
G01Y1680480D01*
G03X4572060Y1703090I-22669J-59D01*
G01X4564950D01*
Y1730990D01*
X4572060D01*
G03X4594670Y1753600I-59J22669D01*
G01Y1878600D01*
G03X4594420Y1881890I-22668J-68D01*
G02X4604470Y1893550I10049J1500D01*
G01X4659610D01*
G02X4669660Y1881890I1J-10160D01*
G03X4669410Y1878600I22418J-3358D01*
G01Y1753600D01*
G03X4692020Y1730990I22669J59D01*
G01X4757080D01*
G03X4779690Y1753600I-59J22669D01*
G01Y1878600D01*
G03X4779440Y1881890I-22668J-68D01*
G02X4789490Y1893550I10049J1500D01*
G01X4894320D01*
X4931740Y1856120D01*
Y1823030D01*
X4919040Y1810330D01*
Y1790710D01*
X4854200D01*
Y1467810D01*
G02X4845520Y1464210I-5084J-7D01*
G37*
G54D10*
X410030Y1872790D03*
X660010Y1022810D03*
X4350000Y1300000D03*
X6455230Y1022810D03*
X6705210Y1872790D03*
G54D11*
X306420Y2306320D03*
X1087120Y2313940D03*
X560420Y2306320D03*
X1341120Y2313940D03*
X1595120D03*
X3196940Y1605280D03*
X3392520Y2362200D03*
X3964020Y889000D03*
Y1143000D03*
Y1397000D03*
X3450940Y1605280D03*
X3646520Y2362200D03*
X4685380Y170180D03*
X4431380D03*
X4691380Y744220D03*
Y1244220D03*
X4827620Y2357120D03*
X4573620D03*
X4751420Y2077720D03*
X4497420D03*
X5447380Y170180D03*
X5193380D03*
X4939380D03*
X5678520Y2362200D03*
X5424520D03*
X5955380Y170180D03*
X5701380D03*
X6196680Y281940D03*
X6425280Y568960D03*
X5932520Y2362200D03*
X6450680Y281940D03*
X6704680D03*
X6679280Y568960D03*
X6846920Y2331720D03*
X6592920D03*
G54D12*
X814420Y2306320D03*
X1849120Y2313940D03*
X2942940Y1605280D03*
X3138520Y2362200D03*
X3964020Y1651000D03*
X4177380Y170180D03*
X4319620Y2357120D03*
X4243420Y2077720D03*
X5170520Y2362200D03*
X6338920Y2331720D03*
X6958680Y281940D03*
X6933280Y568960D03*
G54D13*
X1832960Y187960D03*
X2638140Y177800D03*
X2643220Y523240D03*
Y2016760D03*
X3303620Y523240D03*
Y2016760D03*
G54D14*
X1411320Y611990D03*
X1157320Y912010D03*
X1665320D03*
X1411320Y1928010D03*
X1665320Y1627990D03*
X1157320D03*
X1919320Y611990D03*
X2173320Y912010D03*
X1919320Y1928010D03*
X2173320Y1627990D03*
X5195920Y611990D03*
X4941920Y912010D03*
X5449920D03*
X5195920Y1928010D03*
X5449920Y1627990D03*
X4941920D03*
X5703920Y611990D03*
X5957920Y912010D03*
X5703920Y1928010D03*
X5957920Y1627990D03*
G54D15*
X1584040Y1386840D03*
X1886300Y1094740D03*
X2328260Y985520D03*
X1957420Y1277620D03*
X2010760Y1452880D03*
X2361280Y1732280D03*
X2244440Y2080260D03*
X3292060Y994280D03*
X3304540Y1170940D03*
X2653380Y1287780D03*
X3953860Y421640D03*
X3491580Y261620D03*
X3395060Y762000D03*
X3590640Y1005840D03*
X4113880Y447040D03*
X3765900Y1422400D03*
X3555080Y1805940D03*
X4103720Y2344420D03*
X3890360Y2128520D03*
X4601560Y347980D03*
X4685380Y967740D03*
X4846320Y1844040D03*
X4284060Y1635760D03*
X4384590Y1807010D03*
X5569300Y292100D03*
X5368640Y373380D03*
X5642960Y873760D03*
X5421980Y1165860D03*
X5251800Y962660D03*
X5234020Y1132840D03*
X5033360Y527960D03*
X5597240Y1252220D03*
X5460080Y1940560D03*
X5261960Y1648460D03*
X5396580Y2105660D03*
X5696300Y416560D03*
X5945220Y660400D03*
X5662870Y1016410D03*
X5909660Y533400D03*
X6120480Y736600D03*
X6117940Y883920D03*
X6168740Y1023620D03*
X6191600Y1160780D03*
X5912200Y1927860D03*
X5929980Y1407160D03*
X6780880Y848360D03*
X6463380Y1496060D03*
X6836760Y1330960D03*
X6745320Y1427480D03*
G54D16*
X2137760Y187960D03*
X2942940Y177800D03*
X2948020Y523240D03*
Y2016760D03*
X3608420Y523240D03*
Y2016760D03*
G54D17*
X4539530Y1617980D03*
X4724550D03*
X4539530Y1816100D03*
X4724550D03*
G54D18*
G01X198610Y2306320D02*
X306420D01*
G01X979310Y2313940D02*
X1087120D01*
G01X306420Y2198510D02*
Y2306320D01*
G01D02*
Y2414130D01*
G01Y2306320D02*
X414230D01*
G01X814420D02*
X920600Y2200140D01*
X967240D01*
X1040480Y2126900D01*
Y414020D01*
X1402280Y52220D01*
X6017760D01*
X6089900Y124360D01*
Y171090D01*
X6090000Y171200D01*
Y193950D01*
X6089900Y194410D01*
Y221890D01*
X6078520Y233270D01*
Y330710D01*
X6085890Y338070D01*
Y356970D01*
X6074710Y368150D01*
Y368200D01*
X6072220Y370690D01*
Y370740D01*
X6067140Y375820D01*
Y375870D01*
X5947380Y495630D01*
Y495680D01*
X5909660Y533400D01*
G01X1411320Y444190D02*
Y611990D01*
G01D02*
Y779790D01*
G01X1318510Y611990D02*
X1411320D01*
G01D02*
X1504130D01*
G01X1411320Y1760210D02*
Y1928010D01*
G01X1584040Y1386840D02*
X1323460D01*
X1157320Y1552980D01*
Y1627990D01*
G01X1341120Y2206130D02*
Y2313940D01*
G01D02*
Y2421750D01*
G01X1233310Y2313940D02*
X1341120D01*
G01D02*
X1448930D01*
G01X1411320Y1928010D02*
Y2095810D01*
G01X1318510Y1928010D02*
X1411320D01*
G01D02*
X1504130D01*
G01X1087120Y2206130D02*
Y2313940D01*
G01D02*
Y2421750D01*
G01Y2313940D02*
X1194930D01*
G01X2137760Y187960D02*
Y298220D01*
G01X2027500Y187960D02*
X2137760D01*
G01D02*
X2248020D01*
G01X2010760Y1452880D02*
Y1577340D01*
X2061410Y1627990D01*
X2173320D01*
G01X1906620Y1928010D02*
Y1940710D01*
G01D02*
Y2003020D01*
X2146420Y2242820D01*
X2856580D01*
X2948020Y2151380D01*
Y2016760D01*
G01X1919320Y1928010D02*
X1906620Y1940710D01*
G01X2942940Y177800D02*
Y288060D01*
G01X2832680Y177800D02*
X2942940D01*
G01D02*
X3053200D01*
G01X4941920Y1627990D02*
Y1800850D01*
X4954620Y1813550D01*
Y1883060D01*
X4921250Y1916430D01*
X4275170D01*
X4253580Y1894840D01*
X3712560D01*
X3711040Y1896360D01*
X3424020D01*
X3303620Y2016760D01*
G01X4155420Y1109980D02*
Y1113410D01*
X4152520Y1116400D01*
X4148990Y1121860D01*
X4146580Y1127900D01*
X4145410Y1134300D01*
Y1175890D01*
X4132580Y1188720D01*
Y1226930D01*
X4130040Y1229470D01*
Y1234440D01*
X4099560Y1264920D01*
Y1498600D01*
G01X3646520Y2254390D02*
Y2362200D01*
G01D02*
Y2470010D01*
G01X3538710Y2362200D02*
X3646520D01*
G01D02*
X3754330D01*
G01X5195920Y1928010D02*
X4967150D01*
X4938090Y1957070D01*
X4142000D01*
X4082310Y2016760D01*
X3608420D01*
G01X3890360Y2128520D02*
X4079740D01*
X4130540Y2077720D01*
X4243420D01*
G01X4323570Y170180D02*
X4431380D01*
G01D02*
X4539190D01*
G01X4113880Y447040D02*
X4144360Y477520D01*
X4784440D01*
X4834880Y527960D01*
X5033360D01*
G01X4724550Y1725910D02*
Y1816100D01*
G01X4664330D02*
X4724550D01*
G01D02*
X4784770D01*
G01X5221320Y1928010D02*
X5195920D01*
G01X6120480Y736600D02*
Y683260D01*
X6127410Y676330D01*
Y490910D01*
X6194140Y424180D01*
Y397360D01*
X6196680Y394820D01*
Y281940D01*
G01X6117940Y883920D02*
X6155660Y846200D01*
X6165820D01*
X6217000Y795020D01*
Y515620D01*
X6450680Y281940D01*
G01X6168740Y1023620D02*
X6206460Y985900D01*
Y894460D01*
X6285580Y815340D01*
Y523240D01*
X6379560Y429260D01*
X6557360D01*
X6704680Y281940D01*
G01X5929980Y1407160D02*
X6041740D01*
X6138260Y1503680D01*
Y1965960D01*
X6232240Y2059940D01*
X6323680D01*
X6338920Y2075180D01*
Y2077720D01*
X6592920Y2331720D01*
G01X6958680Y281940D02*
X6811360Y429260D01*
X6618320D01*
X6584230Y463350D01*
Y465580D01*
X6582960Y471960D01*
X6580580Y477700D01*
Y500790D01*
X6549740Y531620D01*
Y674040D01*
X6632620Y756920D01*
X6821470D01*
X6857080Y792530D01*
Y1193800D01*
X6785960Y1264920D01*
X6290660D01*
X6254770Y1229030D01*
Y1223950D01*
X6191600Y1160780D01*
G01X5932520Y2254390D02*
Y2362200D01*
G01D02*
Y2470010D01*
G01X5824710Y2362200D02*
X5932520D01*
G01D02*
X6040330D01*
G01X6425280Y568960D02*
Y607060D01*
X6666580Y848360D01*
X6780880D01*
G01X6679280Y568960D02*
X6826650Y716330D01*
X6838360D01*
X6935820Y813790D01*
Y1231900D01*
X6836760Y1330960D01*
G01X6933280Y568960D02*
X7039480Y675160D01*
Y1336520D01*
X6948520Y1427480D01*
X6745320D01*
G01X6846920Y2223910D02*
Y2331720D01*
G01D02*
Y2439530D01*
G01X6739110Y2331720D02*
X6846920D01*
G01D02*
X6954730D01*
G54D19*
G01X1157320Y912010D02*
Y1087410D01*
X1319590Y1249680D01*
X1648460D01*
X1734820Y1163320D01*
X2336800D01*
X2369820Y1196340D01*
X2740660D01*
X2814320Y1122680D01*
X3256280D01*
X3304540Y1170940D01*
G01X2328260Y985520D02*
Y1041400D01*
X2315560Y1054100D01*
Y1057760D01*
X2263340Y1109980D01*
X1957420D01*
X1942180Y1094740D01*
X1886300D01*
G01X1957420Y1277620D02*
X1996940Y1317140D01*
Y1322220D01*
X2081880Y1407160D01*
X2998820D01*
X3196940Y1605280D01*
G01X2244440Y2080260D02*
X2408500Y1916200D01*
G01D02*
X2516220Y1808480D01*
X3247740D01*
X3450940Y1605280D01*
G01X2361280Y1732280D02*
X2408500Y1779500D01*
Y1916200D01*
G01X5421980Y1165860D02*
X5340700Y1084580D01*
Y896620D01*
X5315300Y871220D01*
X5187000D01*
X5067020Y751230D01*
Y653420D01*
X5035900Y622300D01*
X4853020D01*
X4759040Y528320D01*
X4004660D01*
X3910680Y622300D01*
X3743040D01*
X3704940Y660400D01*
X3322920D01*
X3303620Y641100D01*
Y523240D01*
G01X2643220D02*
X2648300Y528320D01*
Y640080D01*
X2899760Y891540D01*
X3618580D01*
X3737960Y1010920D01*
X4036060D01*
X4036100Y1010900D01*
X4036290D01*
X4036630Y1010880D01*
X4069450D01*
X4084320Y996010D01*
Y985520D01*
X4188460Y881380D01*
X4276400D01*
X4278940Y878840D01*
X4753960D01*
X4787900Y912780D01*
Y1105680D01*
X4845540Y1163320D01*
X5147660D01*
X5178140Y1132840D01*
X5234020D01*
G01X3292060Y994280D02*
X3523200D01*
X3534760Y1005840D01*
X3590640D01*
G01X4685380Y967740D02*
X4645860Y928220D01*
X4266090D01*
X4099560Y1094750D01*
Y1160670D01*
X4089400Y1170830D01*
Y1209040D01*
X4030980Y1267460D01*
X3410300D01*
X3392520Y1285240D01*
X2711800D01*
X2709260Y1287780D01*
X2653380D01*
G01X5642960Y873760D02*
X5584540Y815340D01*
Y716280D01*
X5284820Y416560D01*
X5071230D01*
X5066150Y421640D01*
X4522820D01*
X4395820Y294640D01*
X3837020D01*
X3608420Y523240D01*
G01X5251800Y962660D02*
X5101940Y1112520D01*
X4865720D01*
X4833620Y1080420D01*
Y893840D01*
X4830160Y890380D01*
Y669640D01*
X4754880Y594360D01*
X4070700D01*
X3913220Y751840D01*
X3461100D01*
X3450940Y762000D01*
X3395060D01*
G01X5597240Y1252220D02*
X4869780D01*
X4741270Y1123710D01*
X4727960D01*
X4693890Y1089640D01*
X4655820D01*
X4625360Y1059180D01*
X4625340D01*
X4607560Y1041400D01*
X4224000D01*
X4155420Y1109980D01*
G01X4099560Y1498600D02*
X4080660Y1517500D01*
X3861000D01*
X3765900Y1422400D01*
G01X3555080Y1805940D02*
X3610960D01*
X3612030Y1807010D01*
X4384590D01*
G01X5569300Y292100D02*
X5122260D01*
X5066380Y347980D01*
X4601560D01*
G01X5460080Y1940560D02*
X5420560Y1901040D01*
X5410400D01*
X5325460Y1816100D01*
Y1772950D01*
X5294950Y1742440D01*
X5157820D01*
X5094320Y1678940D01*
Y1465610D01*
X5040950Y1412240D01*
X4861560D01*
X4829760Y1444030D01*
X4827170Y1445110D01*
X4821380Y1448980D01*
X4784970Y1485390D01*
Y1488830D01*
X4784950Y1488850D01*
Y1527610D01*
X4724550Y1588010D01*
Y1617980D01*
G01X4539530D02*
Y1816100D01*
G01X5662870Y1016410D02*
Y1162910D01*
X5701380Y1201420D01*
Y1287780D01*
X5637880Y1351280D01*
X4847920D01*
X4685360Y1513840D01*
X4485750D01*
X4466630Y1532960D01*
Y1540470D01*
X4376420Y1630680D01*
X4345020D01*
X4339940Y1635760D01*
X4284060D01*
G01X4103720Y2344420D02*
X4249920Y2198220D01*
X5304020D01*
X5396580Y2105660D01*
G01X5368640Y373380D02*
X5424520D01*
X5427060Y375920D01*
X5655660D01*
X5696300Y416560D01*
G01X5424520Y2362200D02*
X5504530Y2282190D01*
X5519770D01*
X5625180Y2176780D01*
X5851210D01*
X5912200Y2115790D01*
Y1927860D01*
M02*
