G04 ================== begin FILE IDENTIFICATION RECORD ==================*
G04 Layout Name:  E:/«∂»Î Ω/git/PCB/boardv2_0/BBear_balance_carv2_0.brd*
G04 Film Name:    BOTTOM*
G04 File Format:  Gerber RS274X*
G04 File Origin:  Cadence Allegro 16.6-P004*
G04 Origin Date:  Thu Nov 24 02:42:32 2016*
G04 *
G04 Layer:  ETCH/BOTTOM*
G04 Layer:  PIN/BOTTOM*
G04 Layer:  VIA CLASS/BOTTOM*
G04 *
G04 Offset:    (0.00 0.00)*
G04 Mirror:    No*
G04 Mode:      Positive*
G04 Rotation:  0*
G04 FullContactRelief:  No*
G04 UndefLineWidth:     6.00*
G04 ================== end FILE IDENTIFICATION RECORD ====================*
%FSLAX25Y25*MOIN*%
%IR0*IPPOS*OFA0.00000B0.00000*MIA0B0*SFA1.00000B1.00000*%
%ADD12C,.024*%
%ADD13C,.0728*%
%ADD11R,.05906X.11811*%
%ADD14C,.07087*%
%ADD10R,.0728X.0728*%
%ADD15R,.07087X.07087*%
%AMMACRO16*
4,1,40,-.0128,.0285,
.0128,.0285,
.01348,.028438,
.014139,.028258,
.014756,.027967,
.015314,.027573,
.015794,.027088,
.016184,.026527,
.016469,.025907,
.016643,.025247,
.0167,.0246,
.0167,-.0246,
.016638,-.02528,
.016458,-.025939,
.016167,-.026556,
.015773,-.027114,
.015288,-.027594,
.014727,-.027984,
.014107,-.028269,
.013447,-.028443,
.0128,-.0285,
-.0128,-.0285,
-.01348,-.028438,
-.014139,-.028258,
-.014756,-.027967,
-.015314,-.027573,
-.015794,-.027088,
-.016184,-.026527,
-.016469,-.025907,
-.016643,-.025247,
-.0167,-.0246,
-.0167,.0246,
-.016638,.02528,
-.016458,.025939,
-.016167,.026556,
-.015773,.027114,
-.015288,.027594,
-.014727,.027984,
-.014107,.028269,
-.013447,.028443,
-.0128,.0285,
0.0*
%
%ADD16MACRO16*%
%ADD17C,.01*%
%ADD18C,.008*%
%ADD22C,.0809*%
%ADD21C,.08284*%
%ADD20R,.06908X.12814*%
%ADD23R,.0809X.0809*%
%ADD19R,.08284X.08284*%
G75*
%LPD*%
G75*
G36*
G01X98039Y-41534D02*
G03Y-45066I-3639J-1766D01*
G02X98799Y-45240I360J-174D01*
G01Y-46801D01*
X96801Y-48799D01*
X-97001D01*
X-98500Y-47300D01*
Y48500D01*
X-98300Y48700D01*
X98500D01*
X98799Y48401D01*
Y-41360D01*
G02X98039Y-41534I-400J0D01*
G37*
%LPC*%
G75*
G36*
G01X91698Y27276D02*
Y32884D01*
X89884Y34698D01*
X80985D01*
X76835Y38848D01*
X76235D01*
X75565Y39519D01*
X75434Y39447D01*
G02X77219Y41409I-1934J3553D01*
G03X77587Y40852I368J-157D01*
G01X77665D01*
X81815Y36702D01*
X90714D01*
X93702Y33714D01*
Y27276D01*
G02X91698I-1002J-1376D01*
G37*
G36*
G01X-69698Y32615D02*
Y27076D01*
G02X-71702I-1002J-1376D01*
G01Y31785D01*
X-72902Y32985D01*
Y34224D01*
G02X-70898I1002J1376D01*
G01Y33815D01*
X-69698Y32615D01*
G37*
G36*
G01X31182Y20140D02*
X8834D01*
G02Y22144I-1376J1002D01*
G01X31182D01*
G02Y20140I1376J-1002D01*
G37*
G36*
G01X-57954Y19315D02*
G03X-58637Y19597I-400J-1D01*
G01X-63642Y14592D01*
Y11041D01*
X-64516Y10167D01*
X-64507Y10073D01*
G02X-66027Y11593I-1693J-173D01*
G01X-65933Y11584D01*
X-65646Y11871D01*
Y15422D01*
X-62251Y18816D01*
G03X-62534Y19499I-283J283D01*
G01X-67954D01*
Y32313D01*
X-62821D01*
X-55932Y39202D01*
X-27227D01*
X-23098Y35073D01*
Y33446D01*
X-22949Y33407D01*
G02X-25051I-1051J-4007D01*
G01X-24902Y33446D01*
Y34327D01*
X-27973Y37398D01*
X-55186D01*
X-61046Y31539D01*
Y20987D01*
G03X-60363Y20705I400J1D01*
G01X-58866Y22202D01*
X-55115D01*
X-53215Y24102D01*
X-50776D01*
G02Y22098I1376J-1002D01*
G01X-52385D01*
X-53300Y21184D01*
G03X-53017Y20501I283J-283D01*
G01X-51046D01*
Y7687D01*
X-57954D01*
Y13192D01*
X-58533D01*
X-59998Y11727D01*
Y8644D01*
G02X-61802I-902J-1444D01*
G01Y12473D01*
X-59279Y14996D01*
X-57954D01*
Y19315D01*
G37*
G36*
G01X-940Y-11856D02*
X-9079D01*
G02Y-9854I-1376J1001D01*
G01X-1770D01*
X-1315Y-9398D01*
X-76D01*
G02Y-11402I1376J-1002D01*
G01X-485D01*
X-940Y-11856D01*
G37*
G36*
G01X28445Y-47345D02*
X20355D01*
Y-39402D01*
X10585D01*
X4136Y-32952D01*
X4004Y-33025D01*
G02X35Y-25754I-2004J3625D01*
G03X-154Y-25002I-189J352D01*
G01X-5858D01*
Y-33542D01*
X-14142D01*
Y-25258D01*
X-11002D01*
Y-24345D01*
X-9655Y-22998D01*
X6215D01*
X7715Y-24498D01*
X14315D01*
X19815Y-29998D01*
X45085D01*
X50585Y-24498D01*
X57785D01*
X58424Y-23860D01*
Y-20009D01*
X62434Y-15998D01*
X68785D01*
X69198Y-15585D01*
Y-6885D01*
X71716Y-4367D01*
X71707Y-4273D01*
G02X73227Y-5793I1693J173D01*
G01X73133Y-5784D01*
X71912Y-7004D01*
G03X72195Y-7687I283J-283D01*
G01X77954D01*
Y-20501D01*
X71046D01*
Y-17536D01*
G03X70363Y-17254I-400J-1D01*
G01X69615Y-18002D01*
X63264D01*
X62449Y-18816D01*
G03X62732Y-19499I283J-283D01*
G01X67954D01*
Y-31264D01*
G03X68637Y-31546I400J1D01*
G01X79042Y-21141D01*
Y-18241D01*
X79916Y-17367D01*
X79907Y-17273D01*
G02X81427Y-18793I1693J173D01*
G01X81333Y-18784D01*
X81046Y-19071D01*
Y-19499D01*
X87954D01*
Y-32313D01*
X86106D01*
G03X85743Y-32882I0J-400D01*
G02X84027Y-35293I-1543J-718D01*
G01X83933Y-35284D01*
X83015Y-36202D01*
X80800D01*
G03X80439Y-36772I1J-400D01*
G02X77524Y-38502I-1538J-729D01*
G01X77115D01*
X76408Y-39208D01*
G03X76485Y-39834I283J-283D01*
G02X71793Y-40207I-2085J-3466D01*
G03X71535Y-39502I-258J305D01*
G01X67265D01*
G03X67007Y-40207I0J-400D01*
G02X61793I-2607J-3093D01*
G03X61535Y-39502I-258J305D01*
G01X61185D01*
X58985Y-37302D01*
X42476D01*
G02X39906Y-35087I-1376J1002D01*
G03X39626Y-34402I-280J285D01*
G01X38415D01*
X34242Y-38574D01*
G03X34514Y-39257I283J-283D01*
G02X31905Y-40116I-115J-4043D01*
G03X31658Y-39402I-247J314D01*
G01X28445D01*
Y-47345D01*
G37*
G36*
G01X-51046Y-20501D02*
X-57954D01*
Y-7302D01*
X-62585D01*
X-63185Y-7902D01*
X-64424D01*
G02Y-5898I-1376J1002D01*
G01X-64015D01*
X-63415Y-5298D01*
X-50541D01*
X-47898Y-7941D01*
Y-8085D01*
X-47398Y-8585D01*
Y-9824D01*
G02X-49402I-1002J-1376D01*
G01Y-9415D01*
X-49902Y-8915D01*
Y-8771D01*
X-50363Y-8310D01*
G03X-51046Y-8592I-283J-283D01*
G01Y-20501D01*
G37*
G36*
G01X-31858Y-33542D02*
X-40142D01*
Y-25258D01*
X-36802D01*
Y-24385D01*
X-26315Y-13898D01*
X1985D01*
X6685Y-9198D01*
X13692D01*
G03X13899Y-8457I-1J400D01*
G02X13505Y-1816I2101J3457D01*
G03X13258Y-1102I-247J314D01*
G01X-6215D01*
X-6915Y-402D01*
X-33715D01*
X-33815Y-302D01*
X-34224D01*
G02Y1702I-1376J1002D01*
G01X-32985D01*
X-32885Y1602D01*
X-6085D01*
X-5385Y902D01*
X13535D01*
G03X13756Y1634I-1J400D01*
G02X13334Y8042I2244J3366D01*
G03X13070Y8742I-264J300D01*
G01X12359D01*
X9884Y6267D01*
X9893Y6173D01*
G02X8373Y7693I-1693J-173D01*
G01X8467Y7684D01*
X11529Y10746D01*
X11955D01*
Y13117D01*
G03X11272Y13400I-400J0D01*
G01X10071Y12198D01*
X-278D01*
X-320Y12055D01*
G02X-7753Y15134I-3880J1146D01*
G01X-7681Y15265D01*
X-12615Y20198D01*
X-41415D01*
X-43616Y22399D01*
G03X-44298Y22117I-282J-283D01*
G01Y13285D01*
X-47698Y9885D01*
Y9476D01*
G02X-47362Y7049I-1002J-1376D01*
G03X-47047Y6402I315J-247D01*
G01X-22415D01*
X-20344Y8472D01*
G03X-20627Y9155I-283J283D01*
G01X-28245D01*
Y17245D01*
X-20155D01*
Y9627D01*
G03X-19472Y9344I400J0D01*
G01X-17679Y11137D01*
G02X-16134Y9647I3480J2062D01*
G01X-16265Y9719D01*
X-21585Y4398D01*
X-57685D01*
X-60442Y1641D01*
Y1441D01*
X-61316Y567D01*
X-61307Y473D01*
G02X-62827Y1993I-1693J-173D01*
G01X-62733Y1984D01*
X-62446Y2271D01*
Y2471D01*
X-58515Y6402D01*
X-50353D01*
G03X-50038Y7049I0J400D01*
G02X-49702Y9476I1338J1051D01*
G01Y10715D01*
X-46302Y14115D01*
Y25085D01*
X-51433Y30216D01*
X-51527Y30207D01*
G02X-50007Y31727I-173J1693D01*
G01X-50016Y31633D01*
X-40585Y22202D01*
X-11785D01*
X-6263Y16679D01*
G02X-320Y14345I2063J-3479D01*
G01X-278Y14202D01*
X9241D01*
X11041Y16002D01*
X11955D01*
Y19045D01*
X20045D01*
Y10746D01*
X29873D01*
G03X30155Y11428I-1J400D01*
G01X28867Y12716D01*
X28773Y12707D01*
G02X30293Y14227I-173J1693D01*
G01X30284Y14133D01*
X34715Y9702D01*
X45715D01*
X46636Y8781D01*
G03X47318Y9063I282J283D01*
G01Y9727D01*
X46697Y10348D01*
X44661D01*
G02X43770Y11239I3J894D01*
G01Y16161D01*
G02X44661Y17052I893J-2D01*
G01X47223D01*
G02X48114Y16161I-3J-894D01*
G01Y11765D01*
X49322Y10557D01*
Y8895D01*
X50363Y7854D01*
G03X51046Y8136I283J283D01*
G01Y20501D01*
X53158D01*
G03X53441Y21184I0J400D01*
G01X50077Y24548D01*
X48499D01*
G03X48104Y24090I0J-400D01*
G02X48114Y23961I-884J-133D01*
G01Y19039D01*
G02X47223Y18148I-893J2D01*
G01X44661D01*
G02X43770Y19039I3J894D01*
G01Y23961D01*
G02X43780Y24090I894J-4D01*
G03X43385Y24548I-395J58D01*
G01X41215D01*
G03X40820Y24090I0J-400D01*
G02X40830Y23961I-884J-133D01*
G01Y19039D01*
G02X39939Y18148I-893J2D01*
G01X39660D01*
Y17052D01*
X39939D01*
G02X40830Y16161I-3J-894D01*
G01Y11239D01*
G02X39939Y10348I-893J2D01*
G01X37377D01*
G02X36486Y11239I3J894D01*
G01Y16161D01*
G02X37377Y17052I893J-2D01*
G01X37656D01*
Y18148D01*
X37377D01*
G02X36486Y19039I3J894D01*
G01Y23961D01*
G02X36496Y24090I894J-4D01*
G03X36101Y24548I-395J58D01*
G01X28623D01*
X27773Y23698D01*
X5727D01*
X5667Y23758D01*
X-5633D01*
X-7133Y25258D01*
X-14142D01*
Y33542D01*
X-5858D01*
Y26533D01*
X-4887Y25562D01*
X-967D01*
G03X-706Y26264I-1J400D01*
G02X6007Y30451I2706J3136D01*
G01X6046Y30302D01*
X21030D01*
X22172Y29160D01*
G03X22855Y29443I283J283D01*
G01Y35498D01*
X20576D01*
G02Y37502I-1376J1002D01*
G01X22400D01*
X22444Y37546D01*
X69171D01*
X72133Y34584D01*
X72227Y34593D01*
G02X70707Y33073I173J-1693D01*
G01X70716Y33167D01*
X68341Y35542D01*
X59830D01*
G03X59566Y34842I0J-400D01*
G02X60888Y32479I-2666J-3043D01*
G01X60916Y32313D01*
X67954D01*
Y20736D01*
G03X68637Y20454I400J1D01*
G01X72342Y24159D01*
Y25259D01*
X73216Y26133D01*
X73207Y26227D01*
G02X74727Y24707I1693J173D01*
G01X74633Y24716D01*
X74346Y24429D01*
Y23329D01*
X72200Y21184D01*
G03X72483Y20501I283J-283D01*
G01X77954D01*
Y7687D01*
X71046D01*
Y19064D01*
G03X70363Y19346I-400J-1D01*
G01X61502Y10485D01*
Y7286D01*
X59100Y4884D01*
G03X59382Y4202I283J-282D01*
G01X82315D01*
X85402Y1115D01*
Y-3115D01*
X83886Y-4631D01*
Y-8608D01*
G02X81882I-1002J-1376D01*
G01Y-3801D01*
X83398Y-2285D01*
Y285D01*
X81485Y2198D01*
X50385D01*
X44885Y7699D01*
X44532D01*
G03X44250Y7016I1J-400D01*
G01X50964Y302D01*
X78924D01*
G02Y-1702I1376J-1002D01*
G01X50134D01*
X43034Y5398D01*
X33639D01*
X30295Y8742D01*
X18930D01*
G03X18666Y8042I0J-400D01*
G02X18244Y1634I-2666J-3042D01*
G03X18465Y902I222J-332D01*
G01X21315D01*
X32615Y-10398D01*
X42115D01*
X42615Y-10898D01*
X43024D01*
G02Y-12902I1376J-1002D01*
G01X41785D01*
X41285Y-12402D01*
X31785D01*
X20485Y-1102D01*
X18742D01*
G03X18495Y-1816I0J-400D01*
G02X18101Y-8457I-2495J-3184D01*
G03X18308Y-9198I208J-341D01*
G01X23615D01*
X28815Y-14398D01*
X46685D01*
X47098Y-13985D01*
Y-6384D01*
X50284Y-3198D01*
X63015D01*
X64215Y-4398D01*
X64624D01*
G02Y-6402I1376J-1002D01*
G01X63385D01*
X62185Y-5202D01*
X61701D01*
G03X61559Y-5543I0J-200D01*
G01X66433Y-10416D01*
X66527Y-10407D01*
G02X65007Y-11927I173J-1693D01*
G01X65016Y-11833D01*
X60385Y-7202D01*
X51915D01*
X51771Y-7346D01*
G03X51912Y-7687I141J-141D01*
G01X57954D01*
Y-20501D01*
X51102D01*
Y-21315D01*
X44815Y-27602D01*
X19785D01*
X13585Y-21402D01*
X-4215D01*
X-4615Y-21002D01*
X-5024D01*
G02Y-18998I-1376J1002D01*
G01X-3785D01*
X-3385Y-19398D01*
X14415D01*
X20615Y-25598D01*
X43985D01*
X49099Y-20485D01*
Y-15783D01*
G03X48416Y-15501I-400J-1D01*
G01X47515Y-16402D01*
X42935D01*
G03X42743Y-17152I1J-400D01*
G02X38857I-1943J-3548D01*
G03X38665Y-16402I-193J350D01*
G01X27985D01*
X22785Y-11202D01*
X18865D01*
G03X18607Y-11907I0J-400D01*
G02X13393I-2607J-3093D01*
G03X13135Y-11202I-258J305D01*
G01X7515D01*
X2815Y-15902D01*
X-25485D01*
X-34159Y-24576D01*
G03X-33877Y-25258I283J-282D01*
G01X-31858D01*
Y-33542D01*
G37*
G54D22*
X-6500Y43000D03*
X3500D03*
X44400Y-43300D03*
X40800Y-1015D03*
X50000Y42800D03*
X40000D03*
X54400Y-43300D03*
X83500Y43000D03*
X84400Y-43300D03*
X93500Y43000D03*
G54D21*
X-55900Y-42600D03*
X-24000Y-29400D03*
G54D20*
X-84500Y-25906D03*
X-94500Y-14094D03*
X-74500D03*
X-84500Y25906D03*
X-74500Y14094D03*
X-94500D03*
X-64500Y-25906D03*
X94500Y-14094D03*
X84500Y25906D03*
X94500Y14094D03*
G54D23*
X-16500Y43000D03*
X30000Y42800D03*
X63500Y43000D03*
G54D19*
X-67900Y-42600D03*
X-36000Y29400D03*
%LPD*%
G75*
G36*
G01X11415Y-37398D02*
X5552Y-31536D01*
X5625Y-31404D01*
G03X3965Y-25754I-3625J2004D01*
G02X4154Y-25002I189J352D01*
G01X5385D01*
X6885Y-26502D01*
X13485D01*
X18985Y-32002D01*
X37017D01*
G02X37299Y-32684I-1J-400D01*
G01X32585Y-37398D01*
X11415D01*
G37*
G36*
G01X39452Y28662D02*
G03X39566Y34842I-2552J3138D01*
G02X39830Y35542I264J300D01*
G01X43970D01*
G02X44234Y34842I0J-400D01*
G03X44348Y28662I2666J-3042D01*
G02X44095Y27952I-252J-310D01*
G01X39705D01*
G02X39452Y28662I-1J400D01*
G37*
G36*
G01X30945Y27952D02*
Y35542D01*
X33970D01*
G02X34234Y34842I0J-400D01*
G03X34348Y28662I2666J-3042D01*
G02X34095Y27952I-252J-310D01*
G01X30945D01*
G37*
G54D10*
X-67900Y-42600D03*
X-36000Y-29400D03*
Y29400D03*
X-10000Y-29400D03*
Y29400D03*
G54D11*
X-84500Y-25906D03*
X-94500Y-14094D03*
X-74500D03*
X-84500Y25906D03*
X-74500Y14094D03*
X-94500D03*
X-64500Y-25906D03*
X-54500Y-14094D03*
X-64500Y25906D03*
X-54500Y14094D03*
X64500Y-25906D03*
X54500Y-14094D03*
X74500D03*
X64500Y25906D03*
X74500Y14094D03*
X54500D03*
X84500Y-25906D03*
X94500Y-14094D03*
X84500Y25906D03*
X94500Y14094D03*
G54D12*
X-70700Y25700D03*
X-71900Y35600D03*
X-65800Y-6900D03*
X-48400Y-11200D03*
X-63000Y300D03*
X-66200Y9900D03*
X-49400Y23100D03*
X-48700Y8100D03*
X-60900Y7200D03*
X-51700Y31900D03*
X-10455Y-10855D03*
X-35600Y700D03*
X-2600Y-39700D03*
X15600Y-33400D03*
X-6400Y-20000D03*
X1300Y-10400D03*
X8200Y6000D03*
X7458Y21142D03*
X19200Y36500D03*
X41100Y-36300D03*
X44400Y-11900D03*
X28600Y14400D03*
X32558Y21142D03*
X78900Y-37500D03*
X71600Y-35200D03*
X81600Y-17100D03*
X73400Y-4100D03*
X66700Y-12100D03*
X66000Y-5400D03*
X80300Y-700D03*
X74900Y26400D03*
X72400Y32900D03*
X84200Y-33600D03*
X92000Y-25600D03*
X82884Y-9984D03*
X92700Y25900D03*
G54D13*
X-55900Y-42600D03*
X-24000Y-29400D03*
Y29400D03*
X2000Y-29400D03*
Y29400D03*
G54D14*
X-14200Y13200D03*
X-6500Y43000D03*
X16000Y-15000D03*
Y-5000D03*
Y5000D03*
X-4200Y13200D03*
X3500Y43000D03*
X44400Y-43300D03*
X34400D03*
X40800Y-20700D03*
Y-1015D03*
X46900Y31800D03*
X36900D03*
X50000Y42800D03*
X40000D03*
X74400Y-43300D03*
X64400D03*
X54400D03*
X83500Y43000D03*
X73500D03*
X56900Y31800D03*
X94400Y-43300D03*
X84400D03*
X93500Y43000D03*
G54D15*
X-24200Y13200D03*
X-16500Y43000D03*
X16000Y15000D03*
X24400Y-43300D03*
X26900Y31800D03*
X30000Y42800D03*
X63500Y43000D03*
G54D16*
X38658Y13700D03*
X45942D03*
X38658Y21500D03*
X45942D03*
G54D17*
G01X-70700Y25700D02*
Y32200D01*
X-71900Y33400D01*
Y35600D01*
G01X-48400Y-11200D02*
Y-9000D01*
X-48900Y-8500D01*
Y-8356D01*
X-50956Y-6300D01*
X-63000D01*
X-63600Y-6900D01*
X-65800D01*
G01X-63000Y300D02*
X-61444Y1856D01*
Y2056D01*
X-58100Y5400D01*
X-22000D01*
X-14200Y13200D01*
G01X-66200Y9900D02*
X-64644Y11456D01*
Y15007D01*
X-58451Y21200D01*
X-54700D01*
X-52800Y23100D01*
X-49400D01*
G01X-4200Y13200D02*
X-12200Y21200D01*
X-41000D01*
X-45300Y25500D01*
G01X-48700Y8100D02*
Y10300D01*
X-45300Y13700D01*
Y25500D01*
G01X-51700Y31900D02*
X-45300Y25500D01*
G01X73400Y-4100D02*
X70200Y-7300D01*
Y-16000D01*
X69200Y-17000D01*
X62849D01*
X59425Y-20424D01*
Y-24275D01*
X58200Y-25500D01*
X51000D01*
X45500Y-31000D01*
X19400D01*
X13900Y-25500D01*
X7300D01*
X5800Y-24000D01*
X-9240D01*
X-10000Y-24760D01*
Y-29400D01*
G01X66000Y-5400D02*
X63800D01*
X62600Y-4200D01*
X50699D01*
X48100Y-6799D01*
Y-14400D01*
X47100Y-15400D01*
X28400D01*
X23200Y-10200D01*
X7100D01*
X2400Y-14900D01*
X-25900D01*
X-35800Y-24800D01*
Y-29200D01*
X-36000Y-29400D01*
G01X-10455Y-10855D02*
X-1355D01*
X-900Y-10400D01*
X1300D01*
G01X44400Y-11900D02*
X42200D01*
X41700Y-11400D01*
X32200D01*
X20900Y-100D01*
X-5800D01*
X-6500Y600D01*
X-33300D01*
X-33400Y700D01*
X-35600D01*
G01X2000Y-29400D02*
X11000Y-38400D01*
X33000D01*
X38000Y-33400D01*
X59391D01*
X59591Y-33600D01*
X68000D01*
X80044Y-21556D01*
Y-18656D01*
X81600Y-17100D01*
G01X66700Y-12100D02*
X60800Y-6200D01*
X51500D01*
X50100Y-7600D01*
Y-20900D01*
X44400Y-26600D01*
X20200D01*
X14000Y-20400D01*
X-3800D01*
X-4200Y-20000D01*
X-6400D01*
G01X80300Y-700D02*
X50549D01*
X43449Y6400D01*
X34054D01*
X30710Y9744D01*
X11944D01*
X8200Y6000D01*
G01X-4200Y13200D02*
X9656D01*
X11456Y15000D01*
X16000D01*
G01X7458Y21142D02*
X32558D01*
G01X19200Y36500D02*
X22815D01*
X22859Y36544D01*
X68756D01*
X72400Y32900D01*
G01X78900Y-37500D02*
X76700D01*
X75700Y-38500D01*
X61600D01*
X59400Y-36300D01*
X41100D01*
G01X45942Y13700D02*
Y12520D01*
X48320Y10142D01*
Y8480D01*
X51200Y5600D01*
X58399D01*
X60500Y7701D01*
Y10900D01*
X73344Y23744D01*
Y24844D01*
X74900Y26400D01*
G01X38658Y13700D02*
Y21500D01*
G01X28600Y14400D02*
X34300Y8700D01*
X45300D01*
X50800Y3200D01*
X81900D01*
X84400Y700D01*
Y-2700D01*
X82884Y-4216D01*
Y-9984D01*
G01X71600Y-35200D02*
X82600D01*
X84200Y-33600D01*
G01X73500Y43000D02*
X76650Y39850D01*
X77250D01*
X81400Y35700D01*
X90299D01*
X92700Y33299D01*
Y25900D01*
G54D18*
G01X-55900Y-46942D02*
Y-42600D01*
G01D02*
Y-38258D01*
G01X-60242Y-42600D02*
X-55900D01*
G01D02*
X-51558D01*
G01X-60900Y7200D02*
Y12100D01*
X-58906Y14094D01*
X-54500D01*
G01X-65000Y25906D02*
Y26406D01*
G01D02*
Y28859D01*
X-55559Y38300D01*
X-27600D01*
X-24000Y34700D01*
Y29400D01*
G01X-64500Y25906D02*
X-65000Y26406D01*
G01X-10000Y29400D02*
X-5260Y24660D01*
X6040D01*
X6100Y24600D01*
X27400D01*
X28250Y25450D01*
X50450D01*
X55000Y20900D01*
Y14594D01*
X54500Y14094D01*
G01X11754Y5000D02*
X16000D01*
G01D02*
X20246D01*
G01X3500Y38754D02*
Y43000D01*
G01D02*
Y47246D01*
G01X-746Y43000D02*
X3500D01*
G01D02*
X7746D01*
G01X64500Y25906D02*
X53595D01*
X52451Y27050D01*
X23007D01*
X20657Y29400D01*
X2000D01*
G01X34400Y-47546D02*
Y-43300D01*
G01X30154D02*
X34400D01*
G01D02*
X38646D01*
G01X45942Y17948D02*
Y21500D01*
G01X43570D02*
X45942D01*
G01D02*
X48314D01*
G01X32654Y31800D02*
X36900D01*
G01D02*
X41146D01*
G01X65500Y25906D02*
X64500D01*
G01X93500Y38754D02*
Y43000D01*
G01D02*
Y47246D01*
G01X89254Y43000D02*
X93500D01*
G01D02*
X97746D01*
M02*
