G04 ================== begin FILE IDENTIFICATION RECORD ==================*
G04 Layout Name:  E:/«∂»Î Ω/git/PCB/boardv2_0/BBear_balance_carv2_0.brd*
G04 Film Name:    SOLDERMASK_BOTTOM*
G04 File Format:  Gerber RS274X*
G04 File Origin:  Cadence Allegro 16.6-P004*
G04 Origin Date:  Thu Nov 24 02:42:32 2016*
G04 *
G04 Layer:  VIA CLASS/SOLDERMASK_BOTTOM*
G04 Layer:  PIN/SOLDERMASK_BOTTOM*
G04 Layer:  PACKAGE GEOMETRY/SOLDERMASK_BOTTOM*
G04 Layer:  BOARD GEOMETRY/SOLDERMASK_BOTTOM*
G04 *
G04 Offset:    (0.00 0.00)*
G04 Mirror:    No*
G04 Mode:      Positive*
G04 Rotation:  0*
G04 FullContactRelief:  No*
G04 UndefLineWidth:     6.00*
G04 ================== end FILE IDENTIFICATION RECORD ====================*
%FSLAX25Y25*MOIN*%
%IR0*IPPOS*OFA0.00000B0.00000*MIA0B0*SFA1.00000B1.00000*%
%ADD12C,.044*%
%ADD14C,.0748*%
%ADD13C,.0768*%
%ADD11R,.06299X.12205*%
%ADD15R,.0748X.0748*%
%ADD10R,.0768X.0768*%
%AMMACRO16*
4,1,40,-.0148,.0305,
.0148,.0305,
.015483,.030434,
.016144,.03025,
.016763,.029954,
.017322,.029555,
.017803,.029066,
.018191,.0285,
.018475,.027875,
.018647,.027211,
.0187,.0266,
.0187,-.0266,
.018634,-.027283,
.01845,-.027944,
.018154,-.028563,
.017755,-.029122,
.017266,-.029603,
.0167,-.029991,
.016075,-.030275,
.015411,-.030447,
.0148,-.0305,
-.0148,-.0305,
-.015483,-.030434,
-.016144,-.03025,
-.016763,-.029954,
-.017322,-.029555,
-.017803,-.029066,
-.018191,-.0285,
-.018475,-.027875,
-.018647,-.027211,
-.0187,-.0266,
-.0187,.0266,
-.018634,.027283,
-.01845,.027944,
-.018154,.028563,
-.017755,.029122,
-.017266,.029603,
-.0167,.029991,
-.016075,.030275,
-.015411,.030447,
-.0148,.0305,
0.0*
%
%ADD16MACRO16*%
%LPD*%
G75*
G54D10*
X-67900Y-42600D03*
X-36000Y-29400D03*
Y29400D03*
X-10000Y-29400D03*
Y29400D03*
G54D11*
X-84500Y-25906D03*
X-94500Y-14094D03*
X-74500D03*
X-84500Y25906D03*
X-74500Y14094D03*
X-94500D03*
X-64500Y-25906D03*
X-54500Y-14094D03*
X-64500Y25906D03*
X-54500Y14094D03*
X64500Y-25906D03*
X54500Y-14094D03*
X74500D03*
X64500Y25906D03*
X74500Y14094D03*
X54500D03*
X84500Y-25906D03*
X94500Y-14094D03*
X84500Y25906D03*
X94500Y14094D03*
G54D12*
X-70700Y25700D03*
X-71900Y35600D03*
X-65800Y-6900D03*
X-48400Y-11200D03*
X-63000Y300D03*
X-66200Y9900D03*
X-49400Y23100D03*
X-48700Y8100D03*
X-60900Y7200D03*
X-51700Y31900D03*
X-10455Y-10855D03*
X-35600Y700D03*
X-2600Y-39700D03*
X15600Y-33400D03*
X-6400Y-20000D03*
X1300Y-10400D03*
X8200Y6000D03*
X7458Y21142D03*
X19200Y36500D03*
X41100Y-36300D03*
X44400Y-11900D03*
X28600Y14400D03*
X32558Y21142D03*
X78900Y-37500D03*
X71600Y-35200D03*
X81600Y-17100D03*
X73400Y-4100D03*
X66700Y-12100D03*
X66000Y-5400D03*
X80300Y-700D03*
X74900Y26400D03*
X72400Y32900D03*
X84200Y-33600D03*
X92000Y-25600D03*
X82884Y-9984D03*
X92700Y25900D03*
G54D13*
X-55900Y-42600D03*
X-24000Y-29400D03*
Y29400D03*
X2000Y-29400D03*
Y29400D03*
G54D14*
X-14200Y13200D03*
X-6500Y43000D03*
X16000Y-15000D03*
Y-5000D03*
Y5000D03*
X-4200Y13200D03*
X3500Y43000D03*
X44400Y-43300D03*
X34400D03*
X40800Y-20700D03*
Y-1015D03*
X46900Y31800D03*
X36900D03*
X50000Y42800D03*
X40000D03*
X74400Y-43300D03*
X64400D03*
X54400D03*
X83500Y43000D03*
X73500D03*
X56900Y31800D03*
X94400Y-43300D03*
X84400D03*
X93500Y43000D03*
G54D15*
X-24200Y13200D03*
X-16500Y43000D03*
X16000Y15000D03*
X24400Y-43300D03*
X26900Y31800D03*
X30000Y42800D03*
X63500Y43000D03*
G54D16*
X38658Y13700D03*
X45942D03*
X38658Y21500D03*
X45942D03*
M02*
