G04 ================== begin FILE IDENTIFICATION RECORD ==================*
G04 Layout Name:  E:/«∂»Î Ω/git/PCB/boardv2_0/BBear_balance_carv2_0.brd*
G04 Film Name:    SOLDERMASK_TOP*
G04 File Format:  Gerber RS274X*
G04 File Origin:  Cadence Allegro 16.6-P004*
G04 Origin Date:  Sun Oct 23 00:39:26 2016*
G04 *
G04 Layer:  VIA CLASS/SOLDERMASK_TOP*
G04 Layer:  PIN/SOLDERMASK_TOP*
G04 Layer:  PACKAGE GEOMETRY/SOLDERMASK_TOP*
G04 Layer:  BOARD GEOMETRY/SOLDERMASK_TOP*
G04 *
G04 Offset:    (0.00 0.00)*
G04 Mirror:    No*
G04 Mode:      Positive*
G04 Rotation:  0*
G04 FullContactRelief:  No*
G04 UndefLineWidth:     6.00*
G04 ================== end FILE IDENTIFICATION RECORD ====================*
%FSLAX25Y25*MOIN*%
%IR0*IPPOS*OFA0.00000B0.00000*MIA0B0*SFA1.00000B1.00000*%
%AMMACRO18*
4,1,40,.0305,-.0148,
.0305,.0148,
.030434,.015483,
.03025,.016144,
.029954,.016763,
.029555,.017322,
.029066,.017803,
.0285,.018191,
.027875,.018475,
.027211,.018647,
.0266,.0187,
-.0266,.0187,
-.027283,.018634,
-.027944,.01845,
-.028563,.018154,
-.029122,.017755,
-.029603,.017266,
-.029991,.0167,
-.030275,.016075,
-.030447,.015411,
-.0305,.0148,
-.0305,-.0148,
-.030434,-.015483,
-.03025,-.016144,
-.029954,-.016763,
-.029555,-.017322,
-.029066,-.017803,
-.0285,-.018191,
-.027875,-.018475,
-.027211,-.018647,
-.0266,-.0187,
.0266,-.0187,
.027283,-.018634,
.027944,-.01845,
.028563,-.018154,
.029122,-.017755,
.029603,-.017266,
.029991,-.0167,
.030275,-.016075,
.030447,-.015411,
.0305,-.0148,
0.0*
%
%ADD18MACRO18*%
%AMMACRO11*
4,1,40,-.0148,-.0305,
.0148,-.0305,
.015483,-.030434,
.016144,-.03025,
.016763,-.029954,
.017322,-.029555,
.017803,-.029066,
.018191,-.0285,
.018475,-.027875,
.018647,-.027211,
.0187,-.0266,
.0187,.0266,
.018634,.027283,
.01845,.027944,
.018154,.028563,
.017755,.029122,
.017266,.029603,
.0167,.029991,
.016075,.030275,
.015411,.030447,
.0148,.0305,
-.0148,.0305,
-.015483,.030434,
-.016144,.03025,
-.016763,.029954,
-.017322,.029555,
-.017803,.029066,
-.018191,.0285,
-.018475,.027875,
-.018647,.027211,
-.0187,.0266,
-.0187,-.0266,
-.018634,-.027283,
-.01845,-.027944,
-.018154,-.028563,
-.017755,-.029122,
-.017266,-.029603,
-.0167,-.029991,
-.016075,-.030275,
-.015411,-.030447,
-.0148,-.0305,
0.0*
%
%ADD11MACRO11*%
%ADD12C,.044*%
%ADD15C,.095*%
%ADD19C,.0748*%
%ADD16C,.0768*%
%ADD21R,.0748X.0748*%
%ADD10R,.0768X.0768*%
%ADD17R,.08858X.13189*%
%AMMACRO22*
4,1,40,-.0305,.0148,
-.0305,-.0148,
-.030434,-.015483,
-.03025,-.016144,
-.029954,-.016763,
-.029555,-.017322,
-.029066,-.017803,
-.0285,-.018191,
-.027875,-.018475,
-.027211,-.018647,
-.0266,-.0187,
.0266,-.0187,
.027283,-.018634,
.027944,-.01845,
.028563,-.018154,
.029122,-.017755,
.029603,-.017266,
.029991,-.0167,
.030275,-.016075,
.030447,-.015411,
.0305,-.0148,
.0305,.0148,
.030434,.015483,
.03025,.016144,
.029954,.016763,
.029555,.017322,
.029066,.017803,
.0285,.018191,
.027875,.018475,
.027211,.018647,
.0266,.0187,
-.0266,.0187,
-.027283,.018634,
-.027944,.01845,
-.028563,.018154,
-.029122,.017755,
-.029603,.017266,
-.029991,.0167,
-.030275,.016075,
-.030447,.015411,
-.0305,.0148,
0.0*
%
%ADD22MACRO22*%
%AMMACRO14*
4,1,40,.0148,.0305,
-.0148,.0305,
-.015483,.030434,
-.016144,.03025,
-.016763,.029954,
-.017322,.029555,
-.017803,.029066,
-.018191,.0285,
-.018475,.027875,
-.018647,.027211,
-.0187,.0266,
-.0187,-.0266,
-.018634,-.027283,
-.01845,-.027944,
-.018154,-.028563,
-.017755,-.029122,
-.017266,-.029603,
-.0167,-.029991,
-.016075,-.030275,
-.015411,-.030447,
-.0148,-.0305,
.0148,-.0305,
.015483,-.030434,
.016144,-.03025,
.016763,-.029954,
.017322,-.029555,
.017803,-.029066,
.018191,-.0285,
.018475,-.027875,
.018647,-.027211,
.0187,-.0266,
.0187,.0266,
.018634,.027283,
.01845,.027944,
.018154,.028563,
.017755,.029122,
.017266,.029603,
.0167,.029991,
.016075,.030275,
.015411,.030447,
.0148,.0305,
0.0*
%
%ADD14MACRO14*%
%ADD13C,.11*%
%ADD23O,.0177X.0728*%
%ADD24O,.0728X.0177*%
%ADD20R,.08858X.04134*%
%LPD*%
G75*
G54D10*
X-75000Y-42400D03*
X-10000Y-29400D03*
X-33000D03*
X-10000Y29400D03*
X-33000D03*
X34500Y42800D03*
G54D20*
X-18500Y-19910D03*
Y-10855D03*
Y-1800D03*
G54D11*
X-84342Y-6800D03*
X-77058D03*
X-84442Y-17900D03*
X-77158D03*
X-92142Y9400D03*
X-84858D03*
X-52942Y29100D03*
X-45658D03*
X11858Y30100D03*
X19142D03*
X49958Y-31300D03*
X57242D03*
G54D21*
X-24200Y13200D03*
X-31000Y43100D03*
X-16500Y43000D03*
X14400Y-13600D03*
X24400Y-43300D03*
X63700Y43000D03*
G54D12*
X-71600Y-6900D03*
X-74300Y500D03*
X-51045Y-10855D03*
X-59600Y5400D03*
X-38900Y21000D03*
X-10455Y-10855D03*
X1300Y-10400D03*
X1400Y2800D03*
X7458Y21142D03*
X41100Y-36300D03*
X25500Y-33800D03*
X48800Y-11400D03*
X32558Y21142D03*
X26900Y16100D03*
X22200Y11400D03*
X78900Y-37500D03*
X63900Y-33600D03*
X81600Y-17100D03*
X75300D03*
X69600Y-16900D03*
X66800Y-10100D03*
X78500Y-6000D03*
X80300Y-700D03*
X76653Y19653D03*
X70600Y16100D03*
X84200Y-33600D03*
X94100Y7300D03*
X90000Y35600D03*
G54D13*
X-92080Y24557D03*
X-64520D03*
G54D22*
X40100Y21142D03*
Y13858D03*
X26500Y6442D03*
Y-842D03*
X53700Y14342D03*
Y7058D03*
X92000Y19342D03*
Y12058D03*
G54D23*
X80590Y-25831D03*
X78621D03*
X76653D03*
X74684D03*
X72716D03*
X70747D03*
X68779D03*
X66810D03*
X64842D03*
X62873D03*
Y7831D03*
X64842D03*
X66810D03*
X68779D03*
X70747D03*
X72716D03*
X74684D03*
X76653D03*
X78621D03*
X80590D03*
X84527Y-25831D03*
X82558D03*
Y7831D03*
X84527D03*
G54D14*
X-74342Y9300D03*
X-67058D03*
G54D24*
X56869Y-19827D03*
Y-17858D03*
Y-15890D03*
Y-13921D03*
Y-11953D03*
Y-9984D03*
Y-8016D03*
Y-6047D03*
Y-4079D03*
Y-2110D03*
Y-142D03*
Y1827D03*
X90531Y-6047D03*
Y-8016D03*
Y-9984D03*
Y-11953D03*
Y-13921D03*
Y-15890D03*
Y-17858D03*
Y-19827D03*
Y1827D03*
Y-142D03*
Y-2110D03*
Y-4079D03*
G54D15*
X-87158Y34400D03*
X-69442D03*
G54D16*
X-63000Y-42400D03*
X-21000Y-29400D03*
Y29400D03*
X2000Y-29400D03*
Y29400D03*
X46500Y42800D03*
G54D17*
X-41335Y-10855D03*
G54D18*
X-59600Y-27242D03*
Y-19958D03*
X26900Y-27942D03*
Y-20658D03*
X93200Y-33642D03*
Y-26358D03*
G54D19*
X-51000Y43100D03*
X-41000D03*
X-14200Y13200D03*
X-6500Y43000D03*
X14400Y-43600D03*
Y-33600D03*
Y-23600D03*
X-4200Y13200D03*
X3500Y43000D03*
X44400Y-43300D03*
X34400D03*
X40800Y-20700D03*
Y-1015D03*
X74400Y-43300D03*
X64400D03*
X54400D03*
X83700Y43000D03*
X73700D03*
X94400Y-43300D03*
X84400D03*
X93700Y43000D03*
M02*
