G04 ================== begin FILE IDENTIFICATION RECORD ==================*
G04 Layout Name:  E:/«∂»Î Ω/git/PCB/boardv2_0/BBear_balance_carv2_0.brd*
G04 Film Name:    SOLDERMASK_BOTTOM*
G04 File Format:  Gerber RS274X*
G04 File Origin:  Cadence Allegro 16.6-P004*
G04 Origin Date:  Sun Oct 23 00:39:26 2016*
G04 *
G04 Layer:  VIA CLASS/SOLDERMASK_BOTTOM*
G04 Layer:  PIN/SOLDERMASK_BOTTOM*
G04 Layer:  PACKAGE GEOMETRY/SOLDERMASK_BOTTOM*
G04 Layer:  BOARD GEOMETRY/SOLDERMASK_BOTTOM*
G04 *
G04 Offset:    (0.00 0.00)*
G04 Mirror:    No*
G04 Mode:      Positive*
G04 Rotation:  0*
G04 FullContactRelief:  No*
G04 UndefLineWidth:     6.00*
G04 ================== end FILE IDENTIFICATION RECORD ====================*
%FSLAX25Y25*MOIN*%
%IR0*IPPOS*OFA0.00000B0.00000*MIA0B0*SFA1.00000B1.00000*%
%AMMACRO15*
4,1,40,.0148,-.0305,
-.0148,-.0305,
-.015483,-.030434,
-.016144,-.03025,
-.016763,-.029954,
-.017322,-.029555,
-.017803,-.029066,
-.018191,-.0285,
-.018475,-.027875,
-.018647,-.027211,
-.0187,-.0266,
-.0187,.0266,
-.018634,.027283,
-.01845,.027944,
-.018154,.028563,
-.017755,.029122,
-.017266,.029603,
-.0167,.029991,
-.016075,.030275,
-.015411,.030447,
-.0148,.0305,
.0148,.0305,
.015483,.030434,
.016144,.03025,
.016763,.029954,
.017322,.029555,
.017803,.029066,
.018191,.0285,
.018475,.027875,
.018647,.027211,
.0187,.0266,
.0187,-.0266,
.018634,-.027283,
.01845,-.027944,
.018154,-.028563,
.017755,-.029122,
.017266,-.029603,
.0167,-.029991,
.016075,-.030275,
.015411,-.030447,
.0148,-.0305,
0.0*
%
%ADD15MACRO15*%
%ADD11C,.044*%
%ADD13C,.095*%
%ADD16C,.0748*%
%ADD14C,.0768*%
%ADD17R,.0748X.0748*%
%ADD10R,.0768X.0768*%
%AMMACRO18*
4,1,40,-.0148,.0305,
.0148,.0305,
.015483,.030434,
.016144,.03025,
.016763,.029954,
.017322,.029555,
.017803,.029066,
.018191,.0285,
.018475,.027875,
.018647,.027211,
.0187,.0266,
.0187,-.0266,
.018634,-.027283,
.01845,-.027944,
.018154,-.028563,
.017755,-.029122,
.017266,-.029603,
.0167,-.029991,
.016075,-.030275,
.015411,-.030447,
.0148,-.0305,
-.0148,-.0305,
-.015483,-.030434,
-.016144,-.03025,
-.016763,-.029954,
-.017322,-.029555,
-.017803,-.029066,
-.018191,-.0285,
-.018475,-.027875,
-.018647,-.027211,
-.0187,-.0266,
-.0187,.0266,
-.018634,.027283,
-.01845,.027944,
-.018154,.028563,
-.017755,.029122,
-.017266,.029603,
-.0167,.029991,
-.016075,.030275,
-.015411,.030447,
-.0148,.0305,
0.0*
%
%ADD18MACRO18*%
%ADD12C,.11*%
%LPD*%
G75*
G54D10*
X-75000Y-42400D03*
X-10000Y-29400D03*
X-33000D03*
X-10000Y29400D03*
X-33000D03*
X34500Y42800D03*
G54D11*
X-71600Y-6900D03*
X-74300Y500D03*
X-51045Y-10855D03*
X-59600Y5400D03*
X-38900Y21000D03*
X-10455Y-10855D03*
X1300Y-10400D03*
X1400Y2800D03*
X7458Y21142D03*
X41100Y-36300D03*
X25500Y-33800D03*
X48800Y-11400D03*
X32558Y21142D03*
X26900Y16100D03*
X22200Y11400D03*
X78900Y-37500D03*
X63900Y-33600D03*
X81600Y-17100D03*
X75300D03*
X69600Y-16900D03*
X66800Y-10100D03*
X78500Y-6000D03*
X80300Y-700D03*
X76653Y19653D03*
X70600Y16100D03*
X84200Y-33600D03*
X94100Y7300D03*
X90000Y35600D03*
G54D12*
X-92080Y24557D03*
X-64520D03*
G54D13*
X-87158Y34400D03*
X-69442D03*
G54D14*
X-63000Y-42400D03*
X-21000Y-29400D03*
Y29400D03*
X2000Y-29400D03*
Y29400D03*
X46500Y42800D03*
G54D15*
X-46358Y24000D03*
X-53642D03*
X46358D03*
X53642D03*
X69742Y26900D03*
X62458D03*
G54D16*
X-51000Y43100D03*
X-41000D03*
X-14200Y13200D03*
X-6500Y43000D03*
X14400Y-43600D03*
Y-33600D03*
Y-23600D03*
X-4200Y13200D03*
X3500Y43000D03*
X44400Y-43300D03*
X34400D03*
X40800Y-20700D03*
Y-1015D03*
X74400Y-43300D03*
X64400D03*
X54400D03*
X83700Y43000D03*
X73700D03*
X94400Y-43300D03*
X84400D03*
X93700Y43000D03*
G54D17*
X-24200Y13200D03*
X-31000Y43100D03*
X-16500Y43000D03*
X14400Y-13600D03*
X24400Y-43300D03*
X63700Y43000D03*
G54D18*
X77858Y27100D03*
X85142D03*
M02*
