G04 ================== begin FILE IDENTIFICATION RECORD ==================*
G04 Layout Name:  E:/«∂»Î Ω/git/PCB_SPEED/pcb/BBear_speed_sensor.brd*
G04 Film Name:    PASTEMASKTOP*
G04 File Format:  Gerber RS274X*
G04 File Origin:  Cadence Allegro 16.6-P004*
G04 Origin Date:  Fri Sep 29 22:18:40 2017*
G04 *
G04 Layer:  VIA CLASS/PASTEMASK_TOP*
G04 Layer:  PIN/PASTEMASK_TOP*
G04 Layer:  PACKAGE GEOMETRY/PASTEMASK_TOP*
G04 *
G04 Offset:    (0.0000 0.0000)*
G04 Mirror:    No*
G04 Mode:      Positive*
G04 Rotation:  0*
G04 FullContactRelief:  No*
G04 UndefLineWidth:     0.1524*
G04 ================== end FILE IDENTIFICATION RECORD ====================*
%FSLAX25Y25*MOMM*%
%IR0*IPPOS*OFA0.00000B0.00000*MIA0B0*SFA1.00000B1.00000*%
%AMMACRO12*
4,1,40,-.3251,-.7239,
.3251,-.7239,
.34237,-.722321,
.359104,-.717767,
.374793,-.710376,
.388959,-.700374,
.401174,-.688063,
.411066,-.673818,
.418333,-.658072,
.422756,-.641303,
.4242,-.6248,
.4242,.6248,
.422621,.64207,
.418067,.658804,
.410676,.674493,
.400674,.688659,
.388363,.700874,
.374118,.710766,
.358372,.718033,
.341603,.722456,
.3251,.7239,
-.3251,.7239,
-.34237,.722321,
-.359104,.717767,
-.374793,.710376,
-.388959,.700374,
-.401174,.688063,
-.411066,.673818,
-.418333,.658072,
-.422756,.641303,
-.4242,.6248,
-.4242,-.6248,
-.422621,-.64207,
-.418067,-.658804,
-.410676,-.674493,
-.400674,-.688659,
-.388363,-.700874,
-.374118,-.710766,
-.358372,-.718033,
-.341603,-.722456,
-.3251,-.7239,
0.0*
%
%ADD12MACRO12*%
%ADD16R,.48X1.5*%
%AMMACRO11*
4,1,40,.3251,.7239,
-.3251,.7239,
-.34237,.722321,
-.359104,.717767,
-.374793,.710376,
-.388959,.700374,
-.401174,.688063,
-.411066,.673818,
-.418333,.658072,
-.422756,.641303,
-.4242,.6248,
-.4242,-.6248,
-.422621,-.64207,
-.418067,-.658804,
-.410676,-.674493,
-.400674,-.688659,
-.388363,-.700874,
-.374118,-.710766,
-.358372,-.718033,
-.341603,-.722456,
-.3251,-.7239,
.3251,-.7239,
.34237,-.722321,
.359104,-.717767,
.374793,-.710376,
.388959,-.700374,
.401174,-.688063,
.411066,-.673818,
.418333,-.658072,
.422756,-.641303,
.4242,-.6248,
.4242,.6248,
.422621,.64207,
.418067,.658804,
.410676,.674493,
.400674,.688659,
.388363,.700874,
.374118,.710766,
.358372,.718033,
.341603,.722456,
.3251,.7239,
0.0*
%
%ADD11MACRO11*%
%ADD10C,4.*%
%ADD13C,1.5*%
%ADD15C,1.8*%
%ADD14R,1.8X1.8*%
%LPD*%
G75*
G54D10*
X-1000000Y750000D03*
Y1450000D03*
X-750000Y0D03*
X750000D03*
X1000000Y750000D03*
Y1450000D03*
G54D11*
X-521770Y-609600D03*
X-336750D03*
X-277930Y490220D03*
X-275390Y1188720D03*
X-92910Y490220D03*
X-90370Y1188720D03*
X110690Y828040D03*
X87830Y1193800D03*
X295710Y828040D03*
X272850Y1193800D03*
G54D12*
X-521770Y-375920D03*
X-336750D03*
X-283010Y828040D03*
X-288090Y1526540D03*
X-97990Y828040D03*
X-103070Y1526540D03*
X113230Y492760D03*
X90370Y1529080D03*
X298250Y492760D03*
X275390Y1529080D03*
G54D13*
X-500000Y600000D03*
Y900000D03*
Y1300000D03*
Y1600000D03*
X500000Y600000D03*
Y900000D03*
Y1300000D03*
Y1600000D03*
G54D14*
X-373380Y-904240D03*
G54D15*
X-119380D03*
X134620D03*
X388620D03*
G54D16*
X-184920Y-351360D03*
X-185920Y178640D03*
X-57920Y-351360D03*
X-58920Y178640D03*
X69080Y-351360D03*
X68080Y178640D03*
X196080Y-351360D03*
X195080Y178640D03*
M02*
