G04 ================== begin FILE IDENTIFICATION RECORD ==================*
G04 Layout Name:  E:/«∂»Î Ω/git/PCB_SPEED/pcb/BBear_speed_sensor.brd*
G04 Film Name:    SILKSCREENTOP*
G04 File Format:  Gerber RS274X*
G04 File Origin:  Cadence Allegro 16.6-P004*
G04 Origin Date:  Fri Sep 29 22:18:40 2017*
G04 *
G04 Layer:  PACKAGE GEOMETRY/SILKSCREEN_TOP*
G04 Layer:  MANUFACTURING/AUTOSILK_TOP*
G04 Layer:  BOARD GEOMETRY/SILKSCREEN_TOP*
G04 *
G04 Offset:    (0.0000 0.0000)*
G04 Mirror:    No*
G04 Mode:      Positive*
G04 Rotation:  0*
G04 FullContactRelief:  No*
G04 UndefLineWidth:     0.1524*
G04 ================== end FILE IDENTIFICATION RECORD ====================*
%FSLAX25Y25*MOMM*%
%IR0*IPPOS*OFA0.00000B0.00000*MIA0B0*SFA1.00000B1.00000*%
%ADD10C,.2*%
%ADD11C,.1999*%
%ADD12C,1.*%
%ADD13C,.1524*%
G75*
%LPD*%
G75*
G54D10*
G01X-593980Y503620D02*
X-408560D01*
Y998920D01*
X-593980D01*
Y503620D01*
G01D02*
X-408560D01*
Y998920D01*
X-593980D01*
Y503620D01*
G01X-589280Y695960D02*
X-411480Y693420D01*
X-495300Y797560D01*
X-589280Y695960D01*
G01X-594360Y797560D02*
X-408940Y792480D01*
G01X-593980Y1203620D02*
X-408560D01*
Y1698920D01*
X-593980D01*
Y1203620D01*
G01D02*
X-408560D01*
Y1698920D01*
X-593980D01*
Y1203620D01*
G01X-203200Y78740D02*
X210820D01*
Y-256540D01*
X-203200D01*
Y78740D01*
G01D02*
X210820D01*
Y-256540D01*
X-203200D01*
Y-229410D01*
G01Y-156670D02*
Y78740D01*
G01X593980Y996380D02*
X408560D01*
Y501080D01*
X593980D01*
Y996380D01*
G01D02*
X408560D01*
Y501080D01*
X593980D01*
Y996380D01*
G01Y1696380D02*
X408560D01*
Y1201080D01*
X593980D01*
Y1696380D01*
G01D02*
X408560D01*
Y1201080D01*
X593980D01*
Y1696380D01*
G01X414020Y1397000D02*
X594360Y1391920D01*
G01X406400Y1501140D02*
X596900Y1496060D01*
X502920Y1397000D01*
X406400Y1501140D01*
G54D11*
G01X-429260Y-682090D02*
Y-537110D01*
G01Y-682090D02*
Y-537110D01*
G01Y-303430D02*
Y-448410D01*
G01Y-303430D02*
Y-448410D01*
G01X-190500Y900530D02*
Y755550D01*
G01Y900530D02*
Y755550D01*
G01X-195580Y1599030D02*
Y1454050D01*
G01Y1599030D02*
Y1454050D01*
G01X-185420Y417730D02*
Y562710D01*
G01Y417730D02*
Y562710D01*
G01X-182880Y1116230D02*
Y1261210D01*
G01Y1116230D02*
Y1261210D01*
G01X205740Y565250D02*
Y420270D01*
G01Y565250D02*
Y420270D01*
G01X203200Y755550D02*
Y900530D01*
G01Y755550D02*
Y900530D01*
G01X180340Y1121310D02*
Y1266290D01*
G01Y1121310D02*
Y1266290D01*
G01X182880Y1601570D02*
Y1456590D01*
G01Y1601570D02*
Y1456590D01*
G54D12*
G01X142240Y12700D02*
Y2540D01*
G01Y12700D02*
Y2540D01*
G54D13*
G01X-721570Y-843280D02*
X-697230Y-922020D01*
X-672890Y-843280D01*
G01X-597070Y-849840D02*
X-602910Y-845900D01*
X-609730Y-843280D01*
X-617520D01*
X-626280Y-847220D01*
X-633090Y-853780D01*
X-637960Y-861650D01*
X-641860Y-874780D01*
X-642830Y-886590D01*
X-640880Y-898400D01*
X-637960Y-906270D01*
X-632120Y-914150D01*
X-625310Y-919400D01*
X-618490Y-922020D01*
X-611670D01*
X-604860Y-919400D01*
X-599020Y-915460D01*
X-594150Y-910210D01*
G01X-518330Y-849840D02*
X-524170Y-845900D01*
X-530990Y-843280D01*
X-538780D01*
X-547540Y-847220D01*
X-554350Y-853780D01*
X-559220Y-861650D01*
X-563120Y-874780D01*
X-564090Y-886590D01*
X-562140Y-898400D01*
X-559220Y-906270D01*
X-553380Y-914150D01*
X-546570Y-919400D01*
X-539750Y-922020D01*
X-532930D01*
X-526120Y-919400D01*
X-520280Y-915460D01*
X-515410Y-910210D01*
G01X-734480Y-650240D02*
Y-571500D01*
X-710140D01*
X-702350Y-575440D01*
X-697480Y-580690D01*
X-695540Y-591190D01*
X-697480Y-601680D01*
X-703330Y-608240D01*
X-710140Y-612180D01*
X-734480D01*
G01X-710140D02*
X-695540Y-650240D01*
G01X-657690Y-638430D02*
X-651850Y-644990D01*
X-645030Y-648930D01*
X-636270Y-650240D01*
X-627510Y-647620D01*
X-620690Y-642370D01*
X-615820Y-633180D01*
X-614850Y-622680D01*
X-616800Y-612180D01*
X-621670Y-605620D01*
X-628480Y-600370D01*
X-635300Y-599060D01*
X-642110Y-600370D01*
X-650870Y-605620D01*
X-647950Y-571500D01*
X-621670D01*
G01X-731940Y-414020D02*
Y-335280D01*
X-707600D01*
X-699810Y-339220D01*
X-694940Y-344470D01*
X-693000Y-354970D01*
X-694940Y-365460D01*
X-700790Y-372020D01*
X-707600Y-375960D01*
X-731940D01*
G01X-707600D02*
X-693000Y-414020D01*
G01X-652230Y-381210D02*
X-645410Y-372020D01*
X-639570Y-366780D01*
X-631780Y-364150D01*
X-624970Y-366780D01*
X-620100Y-372020D01*
X-616200Y-379900D01*
X-615230Y-389090D01*
X-616200Y-396960D01*
X-620100Y-404840D01*
X-625940Y-411400D01*
X-632760Y-414020D01*
X-640550Y-411400D01*
X-647360Y-403520D01*
X-651260Y-391710D01*
X-652230Y-378590D01*
X-650280Y-361530D01*
X-647360Y-352340D01*
X-642490Y-343150D01*
X-635680Y-336590D01*
X-628860Y-335280D01*
X-622050Y-337900D01*
X-617180Y-344470D01*
G01X-708830Y440480D02*
X-714670Y444420D01*
X-721490Y447040D01*
X-729280D01*
X-738040Y443100D01*
X-744850Y436540D01*
X-749720Y428670D01*
X-753620Y415540D01*
X-754590Y403730D01*
X-752640Y391920D01*
X-749720Y384050D01*
X-743880Y376170D01*
X-737070Y370920D01*
X-730250Y368300D01*
X-723430D01*
X-716620Y370920D01*
X-710780Y374860D01*
X-705910Y380110D01*
G01X-672930Y384050D02*
X-667090Y374860D01*
X-659300Y369610D01*
X-650540Y368300D01*
X-642750Y369610D01*
X-634960Y376170D01*
X-630090Y384050D01*
X-629120Y391920D01*
X-631060Y401110D01*
X-637880Y407670D01*
X-644690Y410300D01*
X-653460D01*
G01X-644690D02*
X-638850Y414230D01*
X-633980Y420790D01*
X-632040Y428670D01*
X-633980Y436540D01*
X-638850Y443100D01*
X-647620Y447040D01*
X-656380Y445730D01*
X-665140Y440480D01*
G01X-713910Y1664760D02*
X-719750Y1668700D01*
X-726570Y1671320D01*
X-734360D01*
X-743120Y1667380D01*
X-749930Y1660820D01*
X-754800Y1652950D01*
X-758700Y1639820D01*
X-759670Y1628010D01*
X-757720Y1616200D01*
X-754800Y1608330D01*
X-748960Y1600450D01*
X-742150Y1595200D01*
X-735330Y1592580D01*
X-728510D01*
X-721700Y1595200D01*
X-715860Y1599140D01*
X-710990Y1604390D01*
G01X-675090Y1658200D02*
X-669250Y1666070D01*
X-662430Y1670010D01*
X-654640Y1671320D01*
X-644910Y1668700D01*
X-638090Y1662130D01*
X-636140Y1654260D01*
X-637120Y1646380D01*
X-641010Y1639820D01*
X-660480Y1626700D01*
X-669250Y1617510D01*
X-675090Y1604390D01*
X-677040Y1592580D01*
X-636140D01*
G01X-660820Y1140460D02*
Y1061720D01*
X-621880D01*
G01X-543140D02*
X-582080D01*
Y1140460D01*
X-543140D01*
G01X-558720Y1102400D02*
X-582080D01*
G01X-505290Y1061720D02*
Y1140460D01*
X-485820D01*
X-478030Y1136520D01*
X-472190Y1131270D01*
X-467320Y1123400D01*
X-463420Y1114210D01*
X-462450Y1101090D01*
X-463420Y1087970D01*
X-467320Y1078780D01*
X-472190Y1070900D01*
X-478030Y1065660D01*
X-485820Y1061720D01*
X-505290D01*
G01X-423630Y1127340D02*
X-417790Y1135210D01*
X-410970Y1139150D01*
X-403180Y1140460D01*
X-393450Y1137840D01*
X-386630Y1131270D01*
X-384680Y1123400D01*
X-385660Y1115520D01*
X-389550Y1108960D01*
X-409020Y1095840D01*
X-417790Y1086650D01*
X-423630Y1073530D01*
X-425580Y1061720D01*
X-384680D01*
G01X507620Y-1043940D02*
Y-764540D01*
X-492380D01*
Y-1043940D01*
X507620D01*
G01D02*
Y-764540D01*
X-492380D01*
Y-1043940D01*
X507620D01*
G01X-376340Y218440D02*
Y139700D01*
X-337400D01*
G01X-278130D02*
Y218440D01*
X-289810Y202690D01*
G01Y139700D02*
X-266450D01*
G01X-196000Y622300D02*
Y701040D01*
X-171660D01*
X-163870Y697100D01*
X-159000Y691850D01*
X-157060Y681350D01*
X-159000Y670860D01*
X-164850Y664300D01*
X-171660Y660360D01*
X-196000D01*
G01X-171660D02*
X-157060Y622300D01*
G01X-99740D02*
X-97790Y639360D01*
X-94870Y653790D01*
X-90970Y666920D01*
X-86110Y681350D01*
X-78320Y701040D01*
X-117260D01*
G01X-340780Y1724660D02*
Y1645920D01*
X-301840D01*
G01X-223100D02*
X-262040D01*
Y1724660D01*
X-223100D01*
G01X-238680Y1686600D02*
X-262040D01*
G01X-185250Y1645920D02*
Y1724660D01*
X-165780D01*
X-157990Y1720720D01*
X-152150Y1715470D01*
X-147280Y1707600D01*
X-143380Y1698410D01*
X-142410Y1685290D01*
X-143380Y1672170D01*
X-147280Y1662980D01*
X-152150Y1655100D01*
X-157990Y1649860D01*
X-165780Y1645920D01*
X-185250D01*
G01X-85090D02*
Y1724660D01*
X-96770Y1708910D01*
G01Y1645920D02*
X-73410D01*
G01X-83820Y-737870D02*
X-85130Y-745660D01*
X-90380Y-752470D01*
X-98250Y-758320D01*
X-107440Y-762210D01*
X-117940Y-764160D01*
X-128440D01*
X-138940Y-762210D01*
X-148130Y-758320D01*
X-156000Y-752470D01*
X-161250Y-745660D01*
X-162560Y-737870D01*
X-161250Y-730080D01*
X-156000Y-723270D01*
X-148130Y-717420D01*
X-138940Y-713530D01*
X-128440Y-711580D01*
X-117940D01*
X-107440Y-713530D01*
X-98250Y-717420D01*
X-90380Y-723270D01*
X-85130Y-730080D01*
X-83820Y-737870D01*
G01X-162560Y-680550D02*
X-106130D01*
X-94320Y-676660D01*
X-86440Y-668870D01*
X-83820Y-659130D01*
X-86440Y-649390D01*
X-94320Y-641600D01*
X-106130Y-637710D01*
X-162560D01*
G01Y-580390D02*
X-83820D01*
G01X-162560Y-602780D02*
Y-558000D01*
G01X-83820Y-501650D02*
X-162560D01*
X-146810Y-513330D01*
G01X-83820D02*
Y-489970D01*
G01X-162980Y1315720D02*
Y1394460D01*
X-138640D01*
X-130850Y1390520D01*
X-125980Y1385270D01*
X-124040Y1374770D01*
X-125980Y1364280D01*
X-131830Y1357720D01*
X-138640Y1353780D01*
X-162980D01*
G01X-138640D02*
X-124040Y1315720D01*
G01X-64770D02*
Y1394460D01*
X-76450Y1378710D01*
G01Y1315720D02*
X-53090D01*
G01X108800Y1643380D02*
Y1722120D01*
X133140D01*
X140930Y1718180D01*
X145800Y1712930D01*
X147740Y1702430D01*
X145800Y1691940D01*
X139950Y1685380D01*
X133140Y1681440D01*
X108800D01*
G01X133140D02*
X147740Y1643380D01*
G01X185590Y1659130D02*
X191430Y1649940D01*
X199220Y1644690D01*
X207980Y1643380D01*
X215770Y1644690D01*
X223560Y1651250D01*
X228430Y1659130D01*
X229400Y1667000D01*
X227460Y1676190D01*
X220640Y1682750D01*
X213830Y1685380D01*
X205060D01*
G01X213830D02*
X219670Y1689310D01*
X224540Y1695870D01*
X226480Y1703750D01*
X224540Y1711620D01*
X219670Y1718180D01*
X210900Y1722120D01*
X202140Y1720810D01*
X193380Y1715560D01*
G01X223520Y-745490D02*
X222210Y-753280D01*
X216960Y-760090D01*
X209090Y-765940D01*
X199900Y-769830D01*
X189400Y-771780D01*
X178900D01*
X168400Y-769830D01*
X159210Y-765940D01*
X151340Y-760090D01*
X146090Y-753280D01*
X144780Y-745490D01*
X146090Y-737700D01*
X151340Y-730890D01*
X159210Y-725040D01*
X168400Y-721150D01*
X178900Y-719200D01*
X189400D01*
X199900Y-721150D01*
X209090Y-725040D01*
X216960Y-730890D01*
X222210Y-737700D01*
X223520Y-745490D01*
G01X144780Y-688170D02*
X201210D01*
X213020Y-684280D01*
X220900Y-676490D01*
X223520Y-666750D01*
X220900Y-657010D01*
X213020Y-649220D01*
X201210Y-645330D01*
X144780D01*
G01Y-588010D02*
X223520D01*
G01X144780Y-610400D02*
Y-565620D01*
G01X157900Y-527770D02*
X150030Y-521930D01*
X146090Y-515110D01*
X144780Y-507320D01*
X147400Y-497590D01*
X153970Y-490770D01*
X161840Y-488820D01*
X169720Y-489800D01*
X176280Y-493690D01*
X189400Y-513160D01*
X198590Y-521930D01*
X211710Y-527770D01*
X223520Y-529720D01*
Y-488820D01*
G01X159600Y617220D02*
Y695960D01*
X183940D01*
X191730Y692020D01*
X196600Y686770D01*
X198540Y676270D01*
X196600Y665780D01*
X190750Y659220D01*
X183940Y655280D01*
X159600D01*
G01X183940D02*
X198540Y617220D01*
G01X257810D02*
X264630Y618530D01*
X272410Y622470D01*
X277280Y629030D01*
X279230Y638220D01*
X277280Y647400D01*
X271440Y655280D01*
X262680Y659220D01*
X252940D01*
X247100Y661840D01*
X242230Y668400D01*
X240280Y677590D01*
X243210Y686770D01*
X250020Y693340D01*
X257810Y695960D01*
X265600Y693340D01*
X272410Y686770D01*
X275340Y677590D01*
X273390Y668400D01*
X268520Y661840D01*
X262680Y659220D01*
X252940D01*
X244180Y655280D01*
X238340Y647400D01*
X236390Y638220D01*
X238340Y629030D01*
X243210Y622470D01*
X250990Y618530D01*
X257810Y617220D01*
G01X172300Y962660D02*
Y1041400D01*
X196640D01*
X204430Y1037460D01*
X209300Y1032210D01*
X211240Y1021710D01*
X209300Y1011220D01*
X203450Y1004660D01*
X196640Y1000720D01*
X172300D01*
G01X196640D02*
X211240Y962660D01*
G01X253960Y971840D02*
X260770Y965280D01*
X268560Y962660D01*
X276350Y965280D01*
X283170Y973160D01*
X288040Y984970D01*
X289980Y996780D01*
Y1011220D01*
X288040Y1023030D01*
X283170Y1033530D01*
X277330Y1038780D01*
X270510Y1041400D01*
X262720Y1038780D01*
X256880Y1033530D01*
X252980Y1025650D01*
X251040Y1015150D01*
X252980Y1005970D01*
X257850Y996780D01*
X263690Y991530D01*
X270510Y990220D01*
X278300Y992840D01*
X284140Y999400D01*
X289980Y1011220D01*
G01X134200Y1320800D02*
Y1399540D01*
X158540D01*
X166330Y1395600D01*
X171200Y1390350D01*
X173140Y1379850D01*
X171200Y1369360D01*
X165350Y1362800D01*
X158540Y1358860D01*
X134200D01*
G01X158540D02*
X173140Y1320800D01*
G01X213910Y1386420D02*
X219750Y1394290D01*
X226570Y1398230D01*
X234360Y1399540D01*
X244090Y1396920D01*
X250910Y1390350D01*
X252860Y1382480D01*
X251880Y1374600D01*
X247990Y1368040D01*
X228520Y1354920D01*
X219750Y1345730D01*
X213910Y1332610D01*
X211960Y1320800D01*
X252860D01*
G01X308480Y-723560D02*
X316270Y-730120D01*
X325040Y-734060D01*
X332820D01*
X340610Y-730120D01*
X346460Y-723560D01*
X349380Y-714370D01*
X347430Y-705190D01*
X342560Y-697320D01*
X333800Y-692060D01*
X322110Y-689440D01*
X315300Y-684190D01*
X312380Y-675010D01*
X314330Y-665820D01*
X319190Y-659260D01*
X326010Y-655320D01*
X332820D01*
X339640Y-657940D01*
X345480Y-664510D01*
G01X407670Y-734060D02*
Y-655320D01*
X395990Y-671070D01*
G01Y-734060D02*
X419350D01*
G01X573530Y-892810D02*
X593010D01*
Y-916430D01*
X587160Y-924310D01*
X580350Y-929560D01*
X570610Y-932180D01*
X560870Y-929560D01*
X554060Y-924310D01*
X548220Y-916430D01*
X544320Y-907250D01*
X542370Y-896750D01*
Y-887560D01*
X544320Y-879690D01*
X548220Y-870500D01*
X554060Y-862630D01*
X559900Y-857380D01*
X567690Y-853440D01*
X574510D01*
X582290Y-856060D01*
X588140Y-861310D01*
G01X624040Y-932180D02*
Y-853440D01*
X668820Y-932180D01*
Y-853440D01*
G01X703750Y-932180D02*
Y-853440D01*
X723220D01*
X731010Y-857380D01*
X736850Y-862630D01*
X741720Y-870500D01*
X745620Y-879690D01*
X746590Y-892810D01*
X745620Y-905930D01*
X741720Y-915120D01*
X736850Y-923000D01*
X731010Y-928240D01*
X723220Y-932180D01*
X703750D01*
G01X708490Y481120D02*
X702650Y485060D01*
X695830Y487680D01*
X688040D01*
X679280Y483740D01*
X672470Y477180D01*
X667600Y469310D01*
X663700Y456180D01*
X662730Y444370D01*
X664680Y432560D01*
X667600Y424690D01*
X673440Y416810D01*
X680250Y411560D01*
X687070Y408940D01*
X693890D01*
X700700Y411560D01*
X706540Y415500D01*
X711410Y420750D01*
G01X777490Y408940D02*
Y487680D01*
X741470Y431250D01*
X790150D01*
G01X693250Y1700320D02*
X687410Y1704260D01*
X680590Y1706880D01*
X672800D01*
X664040Y1702940D01*
X657230Y1696380D01*
X652360Y1688510D01*
X648460Y1675380D01*
X647490Y1663570D01*
X649440Y1651760D01*
X652360Y1643890D01*
X658200Y1636010D01*
X665010Y1630760D01*
X671830Y1628140D01*
X678650D01*
X685460Y1630760D01*
X691300Y1634700D01*
X696170Y1639950D01*
G01X750570Y1628140D02*
Y1706880D01*
X738890Y1691130D01*
G01Y1628140D02*
X762250D01*
M02*
