G04 ================== begin FILE IDENTIFICATION RECORD ==================*
G04 Layout Name:  E:/«∂»Î Ω/git/PCB_SPEED/pcb/BBear_speed_sensor.brd*
G04 Film Name:    SOLDERMASKTOP*
G04 File Format:  Gerber RS274X*
G04 File Origin:  Cadence Allegro 16.6-P004*
G04 Origin Date:  Fri Sep 29 22:18:40 2017*
G04 *
G04 Layer:  VIA CLASS/SOLDERMASK_TOP*
G04 Layer:  PIN/SOLDERMASK_TOP*
G04 Layer:  PACKAGE GEOMETRY/SOLDERMASK_TOP*
G04 Layer:  BOARD GEOMETRY/SOLDERMASK_TOP*
G04 *
G04 Offset:    (0.0000 0.0000)*
G04 Mirror:    No*
G04 Mode:      Positive*
G04 Rotation:  0*
G04 FullContactRelief:  No*
G04 UndefLineWidth:     0.1524*
G04 ================== end FILE IDENTIFICATION RECORD ====================*
%FSLAX25Y25*MOMM*%
%IR0*IPPOS*OFA0.00000B0.00000*MIA0B0*SFA1.00000B1.00000*%
%AMMACRO13*
4,1,40,-.3759,-.7747,
.3759,-.7747,
.393251,-.773025,
.410047,-.768363,
.425778,-.760855,
.439967,-.750729,
.452182,-.738293,
.462051,-.723925,
.469276,-.708062,
.473637,-.691185,
.475,-.6756,
.475,.6756,
.473325,.692951,
.468663,.709747,
.461155,.725478,
.451029,.739667,
.438593,.751882,
.424225,.761751,
.408362,.768976,
.391485,.773337,
.3759,.7747,
-.3759,.7747,
-.393251,.773025,
-.410047,.768363,
-.425778,.760855,
-.439967,.750729,
-.452182,.738293,
-.462051,.723925,
-.469276,.708062,
-.473637,.691185,
-.475,.6756,
-.475,-.6756,
-.473325,-.692951,
-.468663,-.709747,
-.461155,-.725478,
-.451029,-.739667,
-.438593,-.751882,
-.424225,-.761751,
-.408362,-.768976,
-.391485,-.773337,
-.3759,-.7747,
0.0*
%
%ADD13MACRO13*%
%ADD17R,.58X1.6*%
%AMMACRO12*
4,1,40,.3759,.7747,
-.3759,.7747,
-.393251,.773025,
-.410047,.768363,
-.425778,.760855,
-.439967,.750729,
-.452182,.738293,
-.462051,.723925,
-.469276,.708062,
-.473637,.691185,
-.475,.6756,
-.475,-.6756,
-.473325,-.692951,
-.468663,-.709747,
-.461155,-.725478,
-.451029,-.739667,
-.438593,-.751882,
-.424225,-.761751,
-.408362,-.768976,
-.391485,-.773337,
-.3759,-.7747,
.3759,-.7747,
.393251,-.773025,
.410047,-.768363,
.425778,-.760855,
.439967,-.750729,
.452182,-.738293,
.462051,-.723925,
.469276,-.708062,
.473637,-.691185,
.475,-.6756,
.475,.6756,
.473325,.692951,
.468663,.709747,
.461155,.725478,
.451029,.739667,
.438593,.751882,
.424225,.761751,
.408362,.768976,
.391485,.773337,
.3759,.7747,
0.0*
%
%ADD12MACRO12*%
%ADD10C,4.1*%
%ADD14C,1.6*%
%ADD16C,1.9*%
%ADD11C,1.1176*%
%ADD15R,1.9X1.9*%
%LPD*%
G75*
G54D10*
X-1000000Y750000D03*
Y1450000D03*
X-750000Y0D03*
X750000D03*
X1000000Y750000D03*
Y1450000D03*
G54D11*
X-713740Y1018540D03*
X-304800Y-38100D03*
X-416560Y378460D03*
X-185420Y-193040D03*
X-287020Y675640D03*
X-283010Y976830D03*
X-275390Y1347270D03*
X69080Y-504960D03*
X63500Y-81280D03*
X129540Y320040D03*
X60960Y1026160D03*
X386080Y-167640D03*
X467360Y279400D03*
G54D12*
X-521770Y-609600D03*
X-336750D03*
X-277930Y490220D03*
X-275390Y1188720D03*
X-92910Y490220D03*
X-90370Y1188720D03*
X110690Y828040D03*
X87830Y1193800D03*
X295710Y828040D03*
X272850Y1193800D03*
G54D13*
X-521770Y-375920D03*
X-336750D03*
X-283010Y828040D03*
X-288090Y1526540D03*
X-97990Y828040D03*
X-103070Y1526540D03*
X113230Y492760D03*
X90370Y1529080D03*
X298250Y492760D03*
X275390Y1529080D03*
G54D14*
X-500000Y600000D03*
Y900000D03*
Y1300000D03*
Y1600000D03*
X500000Y600000D03*
Y900000D03*
Y1300000D03*
Y1600000D03*
G54D15*
X-373380Y-904240D03*
G54D16*
X-119380D03*
X134620D03*
X388620D03*
G54D17*
X-184920Y-351360D03*
X-185920Y178640D03*
X-57920Y-351360D03*
X-58920Y178640D03*
X69080Y-351360D03*
X68080Y178640D03*
X196080Y-351360D03*
X195080Y178640D03*
M02*
