G04 ================== begin FILE IDENTIFICATION RECORD ==================*
G04 Layout Name:  E:/«∂»Î Ω/git/PCB_SPEED/pcb/BBear_speed_sensor.brd*
G04 Film Name:    TOP*
G04 File Format:  Gerber RS274X*
G04 File Origin:  Cadence Allegro 16.6-P004*
G04 Origin Date:  Fri Sep 29 22:18:39 2017*
G04 *
G04 Layer:  ETCH/TOP*
G04 Layer:  PIN/TOP*
G04 Layer:  VIA CLASS/TOP*
G04 *
G04 Offset:    (0.0000 0.0000)*
G04 Mirror:    No*
G04 Mode:      Positive*
G04 Rotation:  0*
G04 FullContactRelief:  No*
G04 UndefLineWidth:     0.1524*
G04 ================== end FILE IDENTIFICATION RECORD ====================*
%FSLAX25Y25*MOMM*%
%IR0*IPPOS*OFA0.00000B0.00000*MIA0B0*SFA1.00000B1.00000*%
%AMMACRO13*
4,1,40,-.3251,-.7239,
.3251,-.7239,
.34237,-.722321,
.359104,-.717767,
.374793,-.710376,
.388959,-.700374,
.401174,-.688063,
.411066,-.673818,
.418333,-.658072,
.422756,-.641303,
.4242,-.6248,
.4242,.6248,
.422621,.64207,
.418067,.658804,
.410676,.674493,
.400674,.688659,
.388363,.700874,
.374118,.710766,
.358372,.718033,
.341603,.722456,
.3251,.7239,
-.3251,.7239,
-.34237,.722321,
-.359104,.717767,
-.374793,.710376,
-.388959,.700374,
-.401174,.688063,
-.411066,.673818,
-.418333,.658072,
-.422756,.641303,
-.4242,.6248,
-.4242,-.6248,
-.422621,-.64207,
-.418067,-.658804,
-.410676,-.674493,
-.400674,-.688659,
-.388363,-.700874,
-.374118,-.710766,
-.358372,-.718033,
-.341603,-.722456,
-.3251,-.7239,
0.0*
%
%ADD13MACRO13*%
%ADD17R,.48X1.5*%
%ADD11C,.6096*%
%AMMACRO12*
4,1,40,.3251,.7239,
-.3251,.7239,
-.34237,.722321,
-.359104,.717767,
-.374793,.710376,
-.388959,.700374,
-.401174,.688063,
-.411066,.673818,
-.418333,.658072,
-.422756,.641303,
-.4242,.6248,
-.4242,-.6248,
-.422621,-.64207,
-.418067,-.658804,
-.410676,-.674493,
-.400674,-.688659,
-.388363,-.700874,
-.374118,-.710766,
-.358372,-.718033,
-.341603,-.722456,
-.3251,-.7239,
.3251,-.7239,
.34237,-.722321,
.359104,-.717767,
.374793,-.710376,
.388959,-.700374,
.401174,-.688063,
.411066,-.673818,
.418333,-.658072,
.422756,-.641303,
.4242,-.6248,
.4242,.6248,
.422621,.64207,
.418067,.658804,
.410676,.674493,
.400674,.688659,
.388363,.700874,
.374118,.710766,
.358372,.718033,
.341603,.722456,
.3251,.7239,
0.0*
%
%ADD12MACRO12*%
%ADD10C,4.*%
%ADD14C,1.5*%
%ADD16C,1.8*%
%ADD15R,1.8X1.8*%
%ADD18C,.127*%
%ADD19C,.254*%
%ADD20C,.508*%
%ADD23C,2.0544*%
%ADD21C,4.2544*%
%ADD22C,1.7544*%
G75*
%LPD*%
G75*
G36*
G01X-949990Y-1049990D02*
Y450010D01*
X-950000D01*
Y454200D01*
G02X-997550Y450010I-50025J295798D01*
G01X-1000000D01*
G02X-1299990Y750000I0J299990D01*
G01Y1450000D01*
G02X-1000000Y1749990I299990J0D01*
G01X-997550D01*
G02X-950000Y1745800I-2475J-299988D01*
G01Y1749990D01*
X950000D01*
Y1745800D01*
G02X997550Y1749990I50025J-295798D01*
G01X1000000D01*
G02X1299990Y1450000I0J-299990D01*
G01Y750000D01*
G02X1000000Y450010I-299990J0D01*
G01X997550D01*
G02X950000Y454200I2475J299988D01*
G01Y450010D01*
X949990D01*
Y-1049990D01*
X-949990D01*
G37*
%LPC*%
G75*
G36*
G01X-281610Y-313420D02*
Y-438420D01*
G02X-304220Y-461030I-22669J59D01*
G01X-369280D01*
G02X-391890Y-438420I59J22669D01*
G01Y-313420D01*
G02X-369280Y-290810I22669J-59D01*
G01X-304220D01*
G02X-281610Y-313420I-59J-22669D01*
G37*
G36*
G01X-300810Y1273830D02*
Y1312340D01*
G02X-249970I25420J34930D01*
G01Y1273830D01*
X-242860D01*
G02X-220250Y1251220I-59J-22669D01*
G01Y1126220D01*
G02X-242860Y1103610I-22669J59D01*
G01X-307920D01*
G02X-330530Y1126220I59J22669D01*
G01Y1251220D01*
G02X-307920Y1273830I22669J-59D01*
G01X-300810D01*
G37*
G36*
G01X113250Y1042500D02*
X103690Y1032940D01*
X103940Y1030540D01*
G02X57710Y1069240I-42979J-4379D01*
G03X62410Y1074300I-379J5065D01*
G01Y1108690D01*
X55300D01*
G02X32690Y1131300I59J22669D01*
G01Y1256300D01*
G02X55300Y1278910I22669J-59D01*
G01X120360D01*
G02X142970Y1256300I-59J-22669D01*
G01Y1131300D01*
G02X120360Y1108690I-22669J59D01*
G01X113250D01*
Y1042500D01*
G37*
G36*
G01X-222790Y552720D02*
Y427720D01*
G02X-245400Y405110I-22669J59D01*
G01X-310460D01*
G02X-333070Y427720I59J22669D01*
G01Y552720D01*
G02X-312780Y575210I22671J-55D01*
G01X-310990Y575390D01*
X-306130Y580260D01*
X-312440Y586570D01*
Y640710D01*
G02X-261600I25420J34930D01*
G01Y607630D01*
X-252510Y598540D01*
Y575330D01*
X-245400D01*
G02X-222790Y552720I-59J-22669D01*
G37*
G36*
G01X-210840Y-227970D02*
G02X-160000I25420J34930D01*
G01Y-239930D01*
X-159500Y-240430D01*
Y-263640D01*
X-148200D01*
Y-439080D01*
X-221640D01*
Y-263640D01*
X-210840D01*
Y-227970D01*
G37*
G36*
G01X55510Y-693400D02*
X246010D01*
X441940Y-497470D01*
Y244470D01*
G02X492780I25420J34930D01*
G01Y-518530D01*
X267070Y-744240D01*
X76570D01*
X-30980Y-851790D01*
X-29160Y-855120D01*
G02X-70260Y-814020I-90220J-49120D01*
G01X-66930Y-815840D01*
X55510Y-693400D01*
G37*
G36*
G01X-311580Y4630D02*
X-309180Y4880D01*
G02X-347780Y-33720I4380J-42980D01*
G01X-347530Y-31320D01*
X-739160Y360310D01*
Y983610D01*
G02X-682910Y1048800I25419J34930D01*
G03X-665500Y1055920I7250J7118D01*
G01Y1170450D01*
X-577400Y1258550D01*
X-578970Y1261800D01*
G02X-538200Y1221030I78970J38200D01*
G01X-541450Y1222600D01*
X-614660Y1149390D01*
Y452490D01*
X-482230Y320060D01*
X-113390D01*
X-59690Y266360D01*
X-22200D01*
Y90920D01*
X-95640D01*
Y230410D01*
X-134450Y269220D01*
X-149200D01*
Y90920D01*
X-222640D01*
Y269220D01*
X-503290D01*
X-665500Y431430D01*
Y981160D01*
G03X-682910Y988280I-10160J2D01*
G02X-688320Y983610I-30837J30254D01*
G01Y381370D01*
X-311580Y4630D01*
G37*
G36*
G01X-373830Y385240D02*
X-373580Y382840D01*
G02X-412180Y421440I-42980J-4380D01*
G01X-409780Y421190D01*
X-396260Y434710D01*
Y1453250D01*
X-343230Y1506280D01*
Y1589040D01*
G02X-320620Y1611650I22669J-59D01*
G01X-255560D01*
G02X-232950Y1589040I-59J-22669D01*
G01Y1464040D01*
G02X-255560Y1441430I-22669J59D01*
G01X-320620D01*
G02X-329690Y1443350I60J22669D01*
G01X-332870Y1444750D01*
X-345420Y1432190D01*
Y916680D01*
G03X-329140Y908570I10160J1D01*
G02X-315540Y913150I13663J-18088D01*
G01X-308430D01*
Y941900D01*
G02X-257590I25420J34930D01*
G01Y913150D01*
X-250480D01*
G02X-227870Y890540I-59J-22669D01*
G01Y765540D01*
G02X-250480Y742930I-22669J59D01*
G01X-315540D01*
G02X-329140Y747510I63J22668D01*
G03X-345420Y739400I-6120J-8111D01*
G01Y413650D01*
X-373830Y385240D01*
G37*
G36*
G01X-270660Y-1006960D02*
X-476100D01*
Y-801520D01*
X-411500D01*
Y-764790D01*
X-374870Y-708740D01*
Y-694250D01*
X-377990Y-692950D01*
G02X-391890Y-672100I8770J20905D01*
G01Y-547100D01*
G02X-389810Y-537670I22669J-56D01*
G03X-399040Y-523260I-9227J4251D01*
G01X-440350D01*
X-479010Y-484600D01*
G03X-496350Y-491790I-7180J-7187D01*
G01Y-524490D01*
X-489240D01*
G02X-466630Y-547100I-59J-22669D01*
G01Y-672100D01*
G02X-489240Y-694710I-22669J59D01*
G01X-554300D01*
G02X-576910Y-672100I59J22669D01*
G01Y-547100D01*
G02X-554300Y-524490I22669J-59D01*
G01X-547190D01*
Y-461030D01*
X-554300D01*
G02X-576910Y-438420I59J22669D01*
G01Y-313420D01*
G02X-554300Y-290810I22669J-59D01*
G01X-489240D01*
G02X-466630Y-313420I-59J-22669D01*
G01Y-425080D01*
X-419290Y-472420D01*
X-163930D01*
X-94640Y-403130D01*
Y-263640D01*
X-83340D01*
Y12170D01*
X31360Y126870D01*
Y266360D01*
X104120D01*
Y285110D01*
G02X133620Y363050I25418J34932D01*
G03X141770Y380350I965J10115D01*
G01X114460Y407650D01*
X80700D01*
G02X58090Y430260I59J22669D01*
G01Y454640D01*
X5940D01*
X3400Y452100D01*
X-37770D01*
Y427720D01*
G02X-60380Y405110I-22669J59D01*
G01X-125440D01*
G02X-148050Y427720I59J22669D01*
G01Y552720D01*
G02X-125440Y575330I22669J-59D01*
G01X-60380D01*
G02X-37770Y552720I-59J-22669D01*
G01Y528340D01*
X-28180D01*
X-25640Y530880D01*
X58090D01*
Y555260D01*
G02X71990Y576110I22670J-55D01*
G01X75110Y577410D01*
Y661350D01*
X151640Y737880D01*
X146460Y743060D01*
X144220Y742950D01*
G02X143220Y742930I-953J22651D01*
G01X78160D01*
G02X55550Y765540I59J22669D01*
G01Y802620D01*
X-42850D01*
Y765540D01*
G02X-65460Y742930I-22669J59D01*
G01X-130520D01*
G02X-153130Y765540I59J22669D01*
G01Y890540D01*
G02X-130520Y913150I22669J-59D01*
G01X-65460D01*
G02X-42850Y890540I-59J-22669D01*
G01Y853460D01*
X55550D01*
Y890540D01*
G02X78160Y913150I22669J-59D01*
G01X143220D01*
G02X165830Y890540I-59J-22669D01*
G01Y765540D01*
G02X165810Y764540I-22671J-47D01*
G01X165700Y762300D01*
X170880Y757120D01*
X180580Y766820D01*
X210550D01*
X240570Y796840D01*
Y890540D01*
G02X254470Y911390I22670J-55D01*
G01X257590Y912690D01*
Y1044660D01*
X234730Y1067520D01*
Y1109150D01*
X231610Y1110450D01*
G02X217710Y1131300I8770J20905D01*
G01Y1225000D01*
X73110Y1369600D01*
X33930D01*
X-52250Y1283420D01*
Y1273370D01*
X-49130Y1272070D01*
G02X-35230Y1251220I-8770J-20905D01*
G01Y1126220D01*
G02X-57840Y1103610I-22669J59D01*
G01X-122900D01*
G02X-145510Y1126220I59J22669D01*
G01Y1251220D01*
G02X-131610Y1272070I22670J-55D01*
G01X-128490Y1273370D01*
Y1315000D01*
X2350Y1445840D01*
X26840D01*
G03X36450Y1459290I0J10158D01*
G02X35230Y1466580I21450J7337D01*
G01Y1591580D01*
G02X40680Y1606270I22670J-55D01*
G03X32970Y1623040I-7713J6611D01*
G01X-590D01*
X-47930Y1575700D01*
Y1464040D01*
G02X-70540Y1441430I-22669J59D01*
G01X-135600D01*
G02X-158210Y1464040I59J22669D01*
G01Y1589040D01*
G02X-135600Y1611650I22669J-59D01*
G01X-83880D01*
X-21650Y1673880D01*
X196510D01*
X256200Y1614190D01*
X307920D01*
G02X330530Y1591580I-59J-22669D01*
G01Y1466580D01*
G02X307920Y1443970I-22669J59D01*
G01X242860D01*
G02X220250Y1466580I59J22669D01*
G01Y1578240D01*
X175450Y1623040D01*
X147770D01*
G03X140060Y1606270I3J-10159D01*
G02X145510Y1591580I-17220J-14745D01*
G01Y1466580D01*
G02X130400Y1445270I-22668J61D01*
G01X127020Y1444070D01*
Y1423510D01*
X271620Y1278910D01*
X305380D01*
G02X327990Y1256300I-59J-22669D01*
G01Y1131300D01*
G02X314090Y1110450I-22670J55D01*
G01X310970Y1109150D01*
Y1099100D01*
X333830Y1076240D01*
Y912690D01*
X336950Y911390D01*
G02X350850Y890540I-8770J-20905D01*
G01Y765540D01*
G02X328240Y742930I-22669J59D01*
G01X294480D01*
X242130Y690580D01*
X212160D01*
X151350Y629770D01*
Y577410D01*
X154470Y576110D01*
G02X168370Y555260I-8770J-20905D01*
G01Y461560D01*
X198390Y431540D01*
X228360D01*
X238060Y421840D01*
X243240Y427020D01*
X243130Y429260D01*
G02X243110Y430260I22651J953D01*
G01Y555260D01*
G02X265720Y577870I22669J-59D01*
G01X272830D01*
Y601080D01*
X474580Y802830D01*
Y816040D01*
G02X525420I25420J83960D01*
G01Y781770D01*
X336290Y592640D01*
G03X339520Y576090I7180J-7189D01*
G02X353390Y555260I-8798J-20891D01*
G01Y443600D01*
X411500Y385490D01*
Y-132710D01*
G02X360660I-25420J-34930D01*
G01Y364430D01*
X317440Y407650D01*
X265720D01*
G02X264720Y407670I-47J22671D01*
G01X262480Y407780D01*
X257300Y402600D01*
X320060Y339840D01*
Y-230290D01*
X234200Y-316150D01*
Y-480250D01*
X231160Y-483290D01*
Y-587290D01*
X170730Y-647720D01*
X-281610D01*
Y-672100D01*
G02X-295510Y-692950I-22670J55D01*
G01X-298630Y-694250D01*
Y-731440D01*
X-335260Y-787490D01*
Y-801520D01*
X-270660D01*
Y-1006960D01*
G37*
G54D23*
X134620Y-904240D03*
X388620D03*
G54D21*
X-1000000Y1450000D03*
X1000000Y750000D03*
Y1450000D03*
G54D22*
X-500000Y600000D03*
Y900000D03*
Y1600000D03*
X500000Y600000D03*
Y1300000D03*
Y1600000D03*
%LPD*%
G75*
G54D10*
X-1000000Y750000D03*
Y1450000D03*
X-750000Y0D03*
X750000D03*
X1000000Y750000D03*
Y1450000D03*
G54D20*
G01X-373380Y-904240D02*
Y-776140D01*
X-336750Y-720090D01*
Y-609600D01*
G01D02*
X154940D01*
X193040Y-571500D01*
Y-467500D01*
X196080Y-464460D01*
Y-351360D01*
G01X113230Y492760D02*
X-9850D01*
X-12390Y490220D01*
X-92910D01*
G01X88900Y1407720D02*
X18140D01*
X-90370Y1299210D01*
Y1188720D01*
G01X113230Y492760D02*
Y462790D01*
X182600Y393420D01*
X212570D01*
X281940Y324050D01*
Y-214500D01*
X196080Y-300360D01*
Y-351360D01*
G01X113230Y492760D02*
Y645560D01*
X196370Y728700D01*
X226340D01*
X295710Y798070D01*
Y828040D01*
G01X90370Y1529080D02*
X88900Y1527610D01*
Y1407720D01*
G01D02*
X272850Y1223770D01*
Y1193800D01*
G01X295710Y828040D02*
Y1060450D01*
X272850Y1083310D01*
Y1193800D01*
G54D11*
X-713740Y1018540D03*
X-304800Y-38100D03*
X-416560Y378460D03*
X-185420Y-193040D03*
X-287020Y675640D03*
X-283010Y976830D03*
X-275390Y1347270D03*
X69080Y-504960D03*
X63500Y-81280D03*
X129540Y320040D03*
X60960Y1026160D03*
X386080Y-167640D03*
X467360Y279400D03*
G54D12*
X-521770Y-609600D03*
X-336750D03*
X-277930Y490220D03*
X-275390Y1188720D03*
X-92910Y490220D03*
X-90370Y1188720D03*
X110690Y828040D03*
X87830Y1193800D03*
X295710Y828040D03*
X272850Y1193800D03*
G54D13*
X-521770Y-375920D03*
X-336750D03*
X-283010Y828040D03*
X-288090Y1526540D03*
X-97990Y828040D03*
X-103070Y1526540D03*
X113230Y492760D03*
X90370Y1529080D03*
X298250Y492760D03*
X275390Y1529080D03*
G54D14*
X-500000Y600000D03*
Y900000D03*
Y1300000D03*
Y1600000D03*
X500000Y600000D03*
Y900000D03*
Y1300000D03*
Y1600000D03*
G54D15*
X-373380Y-904240D03*
G54D16*
X-119380D03*
X134620D03*
X388620D03*
G54D17*
X-184920Y-351360D03*
X-185920Y178640D03*
X-57920Y-351360D03*
X-58920Y178640D03*
X69080Y-351360D03*
X68080Y178640D03*
X196080Y-351360D03*
X195080Y178640D03*
G54D18*
G01X-592800Y900000D02*
X-500000D01*
G01X-592800Y1600000D02*
X-500000D01*
G01X-396970Y-375920D02*
X-336750D01*
G01X-500000Y807200D02*
Y900000D01*
G01D02*
Y992800D01*
G01Y900000D02*
X-407200D01*
G01X-500000Y1507200D02*
Y1600000D01*
G01D02*
Y1692800D01*
G01Y1600000D02*
X-407200D01*
G01X-336750Y-375920D02*
Y-285730D01*
G01Y-375920D02*
X-276530D01*
G01X-227720Y178640D02*
X-185920D01*
G01Y85840D02*
Y178640D01*
G01D02*
X-144120D01*
G01X280820Y-904240D02*
X388620D01*
G01Y-1012040D02*
Y-904240D01*
G01D02*
Y-796440D01*
G01Y-904240D02*
X496420D01*
G01X407200Y600000D02*
X500000D01*
G01X407200Y1300000D02*
X500000D01*
G01Y507200D02*
Y600000D01*
G01D02*
Y692800D01*
G01Y600000D02*
X592800D01*
G01X500000Y1207200D02*
Y1300000D01*
G01D02*
Y1392800D01*
G01Y1300000D02*
X592800D01*
G54D19*
G01X-713740Y1018540D02*
Y370840D01*
X-304800Y-38100D01*
G01X-521770Y-609600D02*
Y-405890D01*
G01X-57920Y-351360D02*
Y-402360D01*
X-153400Y-497840D01*
X-429820D01*
X-521770Y-405890D01*
G01Y-375920D02*
Y-405890D01*
G01X-58920Y178640D02*
Y229640D01*
X-123920Y294640D01*
X-492760D01*
X-640080Y441960D01*
Y1159920D01*
X-500000Y1300000D01*
G01X-416560Y378460D02*
X-370840Y424180D01*
Y1442720D01*
X-288090Y1525470D01*
Y1526540D01*
G01X-185420Y-193040D02*
Y-250460D01*
X-184920Y-250960D01*
Y-351360D01*
G01X-287020Y675640D02*
Y597100D01*
X-277930Y588010D01*
Y490220D01*
G01X-283010Y828040D02*
Y976830D01*
G01X-275390Y1188720D02*
Y1347270D01*
G01X-119380Y-904240D02*
X66040Y-718820D01*
X256540D01*
X467360Y-508000D01*
Y279400D01*
G01X-57920Y-351360D02*
Y1640D01*
X68080Y127640D01*
Y178640D01*
G01X110690Y828040D02*
X-97990D01*
G01X-103070Y1526540D02*
Y1556510D01*
X-11120Y1648460D01*
X185980D01*
X275390Y1559050D01*
Y1529080D01*
G01X63500Y-81280D02*
Y-245380D01*
X69080Y-250960D01*
Y-351360D01*
G01D02*
Y-504960D01*
G01X195080Y178640D02*
X129540Y244180D01*
Y320040D01*
G01X87830Y1193800D02*
Y1053030D01*
X60960Y1026160D01*
G01X386080Y-167640D02*
Y374960D01*
X298250Y462790D01*
Y492760D01*
G01X500000Y900000D02*
Y792300D01*
X298250Y590550D01*
Y492760D01*
M02*
