G04 ================== begin FILE IDENTIFICATION RECORD ==================*
G04 Layout Name:  E:/«∂»Î Ω/git/PCB/board/BBear_balance_car.brd*
G04 Film Name:    SOLDERMASK_BOTTOM*
G04 File Format:  Gerber RS274X*
G04 File Origin:  Cadence Allegro 16.6-P004*
G04 Origin Date:  Fri Oct 14 00:36:49 2016*
G04 *
G04 Layer:  VIA CLASS/SOLDERMASK_BOTTOM*
G04 Layer:  PIN/SOLDERMASK_BOTTOM*
G04 Layer:  PACKAGE GEOMETRY/SOLDERMASK_BOTTOM*
G04 Layer:  BOARD GEOMETRY/SOLDERMASK_BOTTOM*
G04 *
G04 Offset:    (0.00 0.00)*
G04 Mirror:    No*
G04 Mode:      Positive*
G04 Rotation:  0*
G04 FullContactRelief:  No*
G04 UndefLineWidth:     6.00*
G04 ================== end FILE IDENTIFICATION RECORD ====================*
%FSLAX25Y25*MOIN*%
%IR0*IPPOS*OFA0.00000B0.00000*MIA0B0*SFA1.00000B1.00000*%
%AMMACRO15*
4,1,40,.0305,.0148,
.0305,-.0148,
.030434,-.015483,
.03025,-.016144,
.029954,-.016763,
.029555,-.017322,
.029066,-.017803,
.0285,-.018191,
.027875,-.018475,
.027211,-.018647,
.0266,-.0187,
-.0266,-.0187,
-.027283,-.018634,
-.027944,-.01845,
-.028563,-.018154,
-.029122,-.017755,
-.029603,-.017266,
-.029991,-.0167,
-.030275,-.016075,
-.030447,-.015411,
-.0305,-.0148,
-.0305,.0148,
-.030434,.015483,
-.03025,.016144,
-.029954,.016763,
-.029555,.017322,
-.029066,.017803,
-.0285,.018191,
-.027875,.018475,
-.027211,.018647,
-.0266,.0187,
.0266,.0187,
.027283,.018634,
.027944,.01845,
.028563,.018154,
.029122,.017755,
.029603,.017266,
.029991,.0167,
.030275,.016075,
.030447,.015411,
.0305,.0148,
0.0*
%
%ADD15MACRO15*%
%ADD14C,.044*%
%ADD10C,.095*%
%ADD13C,.0748*%
%ADD16C,.0768*%
%ADD12R,.0748X.0748*%
%ADD17R,.0768X.0768*%
%ADD11C,.11*%
%LPD*%
G75*
G54D10*
X-97858Y-34000D03*
X-80142D03*
G54D11*
X-102780Y-24157D03*
X-75220D03*
G54D12*
X-101000Y-6700D03*
Y6100D03*
X-102900Y42600D03*
X-82000Y42500D03*
X-61000Y42400D03*
X-41300D03*
X-20900Y42500D03*
X3000Y4900D03*
X100Y42600D03*
X18500Y-13000D03*
X20900Y42700D03*
X34100Y-42600D03*
X102400Y42200D03*
G54D13*
X-102900Y22600D03*
Y32600D03*
X-91000Y-6700D03*
Y6100D03*
X-82000Y22500D03*
Y32500D03*
X-81000Y-6700D03*
Y6100D03*
X-61000Y22400D03*
Y32400D03*
X-41300Y22400D03*
Y32400D03*
X-20900Y22500D03*
Y32500D03*
X-17000Y4900D03*
X-7000D03*
X100Y22600D03*
Y32600D03*
X18500Y-43000D03*
Y-33000D03*
Y-23000D03*
X20900Y22700D03*
Y32700D03*
X44100Y-42600D03*
X42400Y-19200D03*
Y485D03*
X54100Y-42600D03*
X64100D03*
X74100D03*
X72400Y42200D03*
X82400D03*
X84100Y-42600D03*
X94100D03*
X92400Y42200D03*
X104100Y-42600D03*
G54D14*
X-79200Y12800D03*
X-68600Y21900D03*
X-74000Y22200D03*
X-66400Y-26800D03*
X-63700Y-19000D03*
X-61300Y-1000D03*
X-54500Y-32700D03*
X-52500Y22500D03*
X-49700Y-2200D03*
X-39000Y-28000D03*
X-38900Y15800D03*
X-28700Y-34455D03*
X-30000Y5600D03*
X-32900Y17200D03*
X-32500Y42400D03*
X-24842Y-5858D03*
X-23700Y12600D03*
X-27800Y19300D03*
X-10300Y-7200D03*
X-5200Y14900D03*
X-10200Y13100D03*
X-3100Y-18200D03*
Y-6800D03*
X9300Y15000D03*
X10600Y38300D03*
X17000Y2600D03*
X13000Y10400D03*
X32700Y2900D03*
X28900Y12600D03*
X32700Y20900D03*
X28900Y34000D03*
X36900Y8200D03*
X35500Y26500D03*
X55900Y-14700D03*
X52500Y-19100D03*
X57500Y15500D03*
X62800Y6800D03*
X62500Y12600D03*
X58800Y25300D03*
X58600Y20400D03*
X58900Y29700D03*
X66600Y-33400D03*
X72100Y-14400D03*
X74100Y1300D03*
X79884Y16D03*
X77600Y32200D03*
X77500Y26800D03*
X85500Y-34200D03*
X87500Y-10400D03*
X88900Y30100D03*
X94400Y6100D03*
X102900Y-10800D03*
X102690Y-2210D03*
Y6010D03*
G54D15*
X-42400Y-4942D03*
Y2342D03*
X25000Y-4542D03*
Y2742D03*
G54D16*
X40900Y41900D03*
G54D17*
X52900D03*
M02*
