G04 ================== begin FILE IDENTIFICATION RECORD ==================*
G04 Layout Name:  E:/«∂»Î Ω/git/PCB/board/BBear_balance_car.brd*
G04 Film Name:    PASTEMASK_TOP*
G04 File Format:  Gerber RS274X*
G04 File Origin:  Cadence Allegro 16.6-P004*
G04 Origin Date:  Fri Oct 14 00:36:49 2016*
G04 *
G04 Layer:  VIA CLASS/PASTEMASK_TOP*
G04 Layer:  PIN/PASTEMASK_TOP*
G04 Layer:  PACKAGE GEOMETRY/PASTEMASK_TOP*
G04 *
G04 Offset:    (0.00 0.00)*
G04 Mirror:    No*
G04 Mode:      Positive*
G04 Rotation:  0*
G04 FullContactRelief:  No*
G04 UndefLineWidth:     6.00*
G04 ================== end FILE IDENTIFICATION RECORD ====================*
%FSLAX25Y25*MOIN*%
%IR0*IPPOS*OFA0.00000B0.00000*MIA0B0*SFA1.00000B1.00000*%
%AMMACRO12*
4,1,40,.0285,-.0128,
.0285,.0128,
.028438,.01348,
.028258,.014139,
.027967,.014756,
.027573,.015314,
.027088,.015794,
.026527,.016184,
.025907,.016469,
.025247,.016643,
.0246,.0167,
-.0246,.0167,
-.02528,.016638,
-.025939,.016458,
-.026556,.016167,
-.027114,.015773,
-.027594,.015288,
-.027984,.014727,
-.028269,.014107,
-.028443,.013447,
-.0285,.0128,
-.0285,-.0128,
-.028438,-.01348,
-.028258,-.014139,
-.027967,-.014756,
-.027573,-.015314,
-.027088,-.015794,
-.026527,-.016184,
-.025907,-.016469,
-.025247,-.016643,
-.0246,-.0167,
.0246,-.0167,
.02528,-.016638,
.025939,-.016458,
.026556,-.016167,
.027114,-.015773,
.027594,-.015288,
.027984,-.014727,
.028269,-.014107,
.028443,-.013447,
.0285,-.0128,
0.0*
%
%ADD12MACRO12*%
%AMMACRO16*
4,1,40,-.0128,-.0285,
.0128,-.0285,
.01348,-.028438,
.014139,-.028258,
.014756,-.027967,
.015314,-.027573,
.015794,-.027088,
.016184,-.026527,
.016469,-.025907,
.016643,-.025247,
.0167,-.0246,
.0167,.0246,
.016638,.02528,
.016458,.025939,
.016167,.026556,
.015773,.027114,
.015288,.027594,
.014727,.027984,
.014107,.028269,
.013447,.028443,
.0128,.0285,
-.0128,.0285,
-.01348,.028438,
-.014139,.028258,
-.014756,.027967,
-.015314,.027573,
-.015794,.027088,
-.016184,.026527,
-.016469,.025907,
-.016643,.025247,
-.0167,.0246,
-.0167,-.0246,
-.016638,-.02528,
-.016458,-.025939,
-.016167,-.026556,
-.015773,-.027114,
-.015288,-.027594,
-.014727,-.027984,
-.014107,-.028269,
-.013447,-.028443,
-.0128,-.0285,
0.0*
%
%ADD16MACRO16*%
%ADD15R,.085X.108*%
%ADD20O,.0098X.065*%
%ADD19O,.065X.0098*%
%ADD11C,.07087*%
%ADD10R,.07087X.07087*%
%ADD17R,.08465X.12795*%
%AMMACRO14*
4,1,40,.0128,.0285,
-.0128,.0285,
-.01348,.028438,
-.014139,.028258,
-.014756,.027967,
-.015314,.027573,
-.015794,.027088,
-.016184,.026527,
-.016469,.025907,
-.016643,.025247,
-.0167,.0246,
-.0167,-.0246,
-.016638,-.02528,
-.016458,-.025939,
-.016167,-.026556,
-.015773,-.027114,
-.015288,-.027594,
-.014727,-.027984,
-.014107,-.028269,
-.013447,-.028443,
-.0128,-.0285,
.0128,-.0285,
.01348,-.028438,
.014139,-.028258,
.014756,-.027967,
.015314,-.027573,
.015794,-.027088,
.016184,-.026527,
.016469,-.025907,
.016643,-.025247,
.0167,-.0246,
.0167,.0246,
.016638,.02528,
.016458,.025939,
.016167,.026556,
.015773,.027114,
.015288,.027594,
.014727,.027984,
.014107,.028269,
.013447,.028443,
.0128,.0285,
0.0*
%
%ADD14MACRO14*%
%AMMACRO13*
4,1,40,-.0285,.0128,
-.0285,-.0128,
-.028438,-.01348,
-.028258,-.014139,
-.027967,-.014756,
-.027573,-.015314,
-.027088,-.015794,
-.026527,-.016184,
-.025907,-.016469,
-.025247,-.016643,
-.0246,-.0167,
.0246,-.0167,
.02528,-.016638,
.025939,-.016458,
.026556,-.016167,
.027114,-.015773,
.027594,-.015288,
.027984,-.014727,
.028269,-.014107,
.028443,-.013447,
.0285,-.0128,
.0285,.0128,
.028438,.01348,
.028258,.014139,
.027967,.014756,
.027573,.015314,
.027088,.015794,
.026527,.016184,
.025907,.016469,
.025247,.016643,
.0246,.0167,
-.0246,.0167,
-.02528,.016638,
-.025939,.016458,
-.026556,.016167,
-.027114,.015773,
-.027594,.015288,
-.027984,.014727,
-.028269,.014107,
-.028443,.013447,
-.0285,.0128,
0.0*
%
%ADD13MACRO13*%
%ADD18R,.08465X.0374*%
%LPD*%
G75*
G54D10*
X-101000Y-6700D03*
Y6100D03*
X-102900Y42600D03*
X-82000Y42500D03*
X-61000Y42400D03*
X-41300D03*
X-20900Y42500D03*
X3000Y4900D03*
X100Y42600D03*
X18500Y-13000D03*
X20900Y42700D03*
X34100Y-42600D03*
X102400Y42200D03*
G54D11*
X-102900Y22600D03*
Y32600D03*
X-91000Y-6700D03*
Y6100D03*
X-82000Y22500D03*
Y32500D03*
X-81000Y-6700D03*
Y6100D03*
X-61000Y22400D03*
Y32400D03*
X-41300Y22400D03*
Y32400D03*
X-20900Y22500D03*
Y32500D03*
X-17000Y4900D03*
X-7000D03*
X100Y22600D03*
Y32600D03*
X18500Y-43000D03*
Y-33000D03*
Y-23000D03*
X20900Y22700D03*
Y32700D03*
X44100Y-42600D03*
X42400Y-19200D03*
Y485D03*
X54100Y-42600D03*
X64100D03*
X74100D03*
X72400Y42200D03*
X82400D03*
X84100Y-42600D03*
X94100D03*
X92400Y42200D03*
X104100Y-42600D03*
G54D20*
X72010Y-25931D03*
X70042D03*
X68073D03*
Y7731D03*
X70042D03*
X72010D03*
X79884Y-25931D03*
X77916D03*
X75947D03*
X73979D03*
Y7731D03*
X75947D03*
X77916D03*
X79884D03*
X87758Y-25931D03*
X85790D03*
X83821D03*
X81853D03*
Y7731D03*
X83821D03*
X85790D03*
X87758D03*
X89727Y-25931D03*
Y7731D03*
G54D12*
X-68200Y-12742D03*
Y-5458D03*
X-67900Y2658D03*
Y9942D03*
X-39000Y-45142D03*
Y-37858D03*
X29700Y-26442D03*
Y-19158D03*
X29300Y-8642D03*
Y-1358D03*
X102400Y18858D03*
Y26142D03*
G54D13*
X-71400Y28158D03*
Y35442D03*
X-51100Y30658D03*
Y37942D03*
X-49900Y-37858D03*
Y-45142D03*
X-10300Y32658D03*
Y39942D03*
X10900Y24958D03*
Y32242D03*
G54D14*
X-66742Y-40600D03*
X-66442Y-32800D03*
X-59458Y-40600D03*
X-59158Y-32800D03*
X45858Y20900D03*
X46158Y29800D03*
X57642Y-30400D03*
X50358D03*
X53142Y20900D03*
X53442Y29800D03*
G54D15*
X-56700Y-10400D03*
G54D16*
X-54842Y10400D03*
X-47558D03*
X-41242D03*
X-33958D03*
X-16842Y-13100D03*
X-9558D03*
X2158Y-13200D03*
X9442D03*
X63958Y20100D03*
Y30000D03*
X71242Y20100D03*
Y30000D03*
X80358Y20700D03*
X87642D03*
X96558Y-29500D03*
X103842D03*
G54D17*
X-19935Y-34455D03*
G54D18*
X2900Y-43510D03*
Y-34455D03*
Y-25400D03*
G54D19*
X62069Y-19927D03*
Y-17958D03*
Y-15990D03*
Y-14021D03*
Y-12053D03*
Y-10084D03*
Y-8116D03*
Y-6147D03*
Y-4179D03*
Y-2210D03*
Y-242D03*
Y1727D03*
X95731Y-15990D03*
Y-17958D03*
Y-19927D03*
Y-8116D03*
Y-10084D03*
Y-12053D03*
Y-14021D03*
Y-242D03*
Y-2210D03*
Y-4179D03*
Y-6147D03*
Y1727D03*
M02*
