G04 ================== begin FILE IDENTIFICATION RECORD ==================*
G04 Layout Name:  E:/«∂»Î Ω/git/PCB/boardv2_0/BBear_balance_carv2_0.brd*
G04 Film Name:    SILKSCREEN_BOTTOM*
G04 File Format:  Gerber RS274X*
G04 File Origin:  Cadence Allegro 16.6-P004*
G04 Origin Date:  Thu Nov 24 02:42:32 2016*
G04 *
G04 Layer:  PACKAGE GEOMETRY/SILKSCREEN_BOTTOM*
G04 Layer:  MANUFACTURING/AUTOSILK_BOTTOM*
G04 Layer:  BOARD GEOMETRY/SILKSCREEN_BOTTOM*
G04 *
G04 Offset:    (0.00 0.00)*
G04 Mirror:    No*
G04 Mode:      Positive*
G04 Rotation:  0*
G04 FullContactRelief:  No*
G04 UndefLineWidth:     6.00*
G04 ================== end FILE IDENTIFICATION RECORD ====================*
%FSLAX25Y25*MOIN*%
%IR0*IPPOS*OFA0.00000B0.00000*MIA0B0*SFA1.00000B1.00000*%
%ADD10C,.006*%
%ADD11C,.00394*%
%ADD12C,.00787*%
G75*
%LPD*%
G75*
G54D10*
G01X-49893Y-28300D02*
Y-26078D01*
X-49740Y-25613D01*
X-49433Y-25303D01*
X-49050Y-25200D01*
X-48667Y-25303D01*
X-48360Y-25613D01*
X-48207Y-26078D01*
Y-28300D01*
G01X-45950Y-25200D02*
Y-28300D01*
X-46410Y-27680D01*
G01Y-25200D02*
X-45490D01*
G01X-42850D02*
X-42582Y-25252D01*
X-42275Y-25407D01*
X-42083Y-25665D01*
X-42007Y-26027D01*
X-42083Y-26388D01*
X-42313Y-26698D01*
X-42658Y-26853D01*
X-43042D01*
X-43272Y-26957D01*
X-43463Y-27215D01*
X-43540Y-27577D01*
X-43425Y-27938D01*
X-43157Y-28197D01*
X-42850Y-28300D01*
X-42543Y-28197D01*
X-42275Y-27938D01*
X-42160Y-27577D01*
X-42237Y-27215D01*
X-42428Y-26957D01*
X-42658Y-26853D01*
X-43042D01*
X-43387Y-26698D01*
X-43617Y-26388D01*
X-43693Y-26027D01*
X-43617Y-25665D01*
X-43425Y-25407D01*
X-43118Y-25252D01*
X-42850Y-25200D01*
G01X-45693Y16900D02*
Y19122D01*
X-45540Y19587D01*
X-45233Y19897D01*
X-44850Y20000D01*
X-44467Y19897D01*
X-44160Y19587D01*
X-44007Y19122D01*
Y16900D01*
G01X-41750Y20000D02*
Y16900D01*
X-42210Y17520D01*
G01Y20000D02*
X-41290D01*
G01X-39378Y18708D02*
X-39110Y18347D01*
X-38880Y18140D01*
X-38573Y18037D01*
X-38305Y18140D01*
X-38113Y18347D01*
X-37960Y18657D01*
X-37922Y19018D01*
X-37960Y19328D01*
X-38113Y19638D01*
X-38343Y19897D01*
X-38612Y20000D01*
X-38918Y19897D01*
X-39187Y19587D01*
X-39340Y19122D01*
X-39378Y18605D01*
X-39302Y17933D01*
X-39187Y17572D01*
X-38995Y17210D01*
X-38727Y16952D01*
X-38458Y16900D01*
X-38190Y17003D01*
X-37998Y17262D01*
G01X37083Y5300D02*
Y8400D01*
X38617D01*
G01X41717D02*
X40183D01*
Y5300D01*
X41717D01*
G01X41103Y6798D02*
X40183D01*
G01X43207Y8400D02*
Y5300D01*
X43973D01*
X44280Y5455D01*
X44510Y5662D01*
X44702Y5972D01*
X44855Y6333D01*
X44893Y6850D01*
X44855Y7367D01*
X44702Y7728D01*
X44510Y8038D01*
X44280Y8245D01*
X43973Y8400D01*
X43207D01*
G01X47150D02*
Y5300D01*
X46690Y5920D01*
G01Y8400D02*
X47610D01*
G01X24883Y21200D02*
Y18100D01*
X25842D01*
X26148Y18255D01*
X26340Y18462D01*
X26417Y18875D01*
X26340Y19288D01*
X26110Y19547D01*
X25842Y19702D01*
X24883D01*
G01X25842D02*
X26417Y21200D01*
G01X28022Y19908D02*
X28290Y19547D01*
X28520Y19340D01*
X28827Y19237D01*
X29095Y19340D01*
X29287Y19547D01*
X29440Y19857D01*
X29478Y20218D01*
X29440Y20528D01*
X29287Y20838D01*
X29057Y21097D01*
X28788Y21200D01*
X28482Y21097D01*
X28213Y20787D01*
X28060Y20322D01*
X28022Y19805D01*
X28098Y19133D01*
X28213Y18772D01*
X28405Y18410D01*
X28673Y18152D01*
X28942Y18100D01*
X29210Y18203D01*
X29402Y18462D01*
G01X88807Y-36600D02*
Y-34378D01*
X88960Y-33913D01*
X89267Y-33603D01*
X89650Y-33500D01*
X90033Y-33603D01*
X90340Y-33913D01*
X90493Y-34378D01*
Y-36600D01*
G01X92750Y-33500D02*
Y-36600D01*
X92290Y-35980D01*
G01Y-33500D02*
X93210D01*
G01X95198Y-33862D02*
X95467Y-33603D01*
X95773Y-33500D01*
X96080Y-33603D01*
X96348Y-33913D01*
X96540Y-34378D01*
X96617Y-34843D01*
Y-35412D01*
X96540Y-35877D01*
X96348Y-36290D01*
X96118Y-36497D01*
X95850Y-36600D01*
X95543Y-36497D01*
X95313Y-36290D01*
X95160Y-35980D01*
X95083Y-35567D01*
X95160Y-35205D01*
X95352Y-34843D01*
X95582Y-34637D01*
X95850Y-34585D01*
X96157Y-34688D01*
X96387Y-34947D01*
X96617Y-35412D01*
G01X88807Y3200D02*
Y5422D01*
X88960Y5887D01*
X89267Y6197D01*
X89650Y6300D01*
X90033Y6197D01*
X90340Y5887D01*
X90493Y5422D01*
Y3200D01*
G01X92750Y6300D02*
Y3200D01*
X92290Y3820D01*
G01Y6300D02*
X93210D01*
G01X95773D02*
X95850Y5628D01*
X95965Y5060D01*
X96118Y4543D01*
X96310Y3975D01*
X96617Y3200D01*
X95083D01*
G54D11*
G01X-98106Y-20139D02*
Y-8230D01*
X-98128Y-8208D01*
G01X-88100Y-31861D02*
Y-20022D01*
X-88147Y-19975D01*
G01X-77980Y-20129D02*
Y-8148D01*
X-77958Y-8126D01*
G01X-77980Y-20129D02*
Y-8148D01*
X-77958Y-8126D01*
G01X-88100Y-31861D02*
Y-20022D01*
X-88147Y-19975D01*
G01X-98106Y-20139D02*
Y-8230D01*
X-98128Y-8208D01*
G01X-71020Y20129D02*
Y8148D01*
X-71042Y8126D01*
G01X-80988Y31918D02*
Y20060D01*
X-81048Y20000D01*
G01X-90843Y19906D02*
Y8394D01*
X-90913Y8324D01*
Y8416D01*
G01X-90843Y19906D02*
Y8394D01*
X-90913Y8324D01*
Y8416D01*
G01X-80988Y31918D02*
Y20060D01*
X-81048Y20000D01*
G01X-71020Y20129D02*
Y8148D01*
X-71042Y8126D01*
G01X-68012Y-31918D02*
Y-20060D01*
X-67952Y-20000D01*
G01X-58157Y-19906D02*
Y-8394D01*
X-58087Y-8324D01*
Y-8416D01*
G01X-58157Y-19906D02*
Y-8394D01*
X-58087Y-8324D01*
Y-8416D01*
G01X-68012Y-31918D02*
Y-20060D01*
X-67952Y-20000D01*
G01X-50894Y20139D02*
Y8230D01*
X-50872Y8208D01*
G01X-60900Y31861D02*
Y20022D01*
X-60853Y19975D01*
G01X-60900Y31861D02*
Y20022D01*
X-60853Y19975D01*
G01X-50894Y20139D02*
Y8230D01*
X-50872Y8208D01*
G01X50894Y-20139D02*
Y-8230D01*
X50872Y-8208D01*
G01X60900Y-31861D02*
Y-20022D01*
X60853Y-19975D01*
G01X71020Y-20129D02*
Y-8148D01*
X71042Y-8126D01*
G01X71020Y-20129D02*
Y-8148D01*
X71042Y-8126D01*
G01X60900Y-31861D02*
Y-20022D01*
X60853Y-19975D01*
G01X50894Y-20139D02*
Y-8230D01*
X50872Y-8208D01*
G01X77980Y20129D02*
Y8148D01*
X77958Y8126D01*
G01X68012Y31918D02*
Y20060D01*
X67952Y20000D01*
G01X58157Y19906D02*
Y8394D01*
X58087Y8324D01*
Y8416D01*
G01X58157Y19906D02*
Y8394D01*
X58087Y8324D01*
Y8416D01*
G01X68012Y31918D02*
Y20060D01*
X67952Y20000D01*
G01X77980Y20129D02*
Y8148D01*
X77958Y8126D01*
G01X80988Y-31918D02*
Y-20060D01*
X81048Y-20000D01*
G01X90843Y-19906D02*
Y-8394D01*
X90913Y-8324D01*
Y-8416D01*
G01X90843Y-19906D02*
Y-8394D01*
X90913Y-8324D01*
Y-8416D01*
G01X80988Y-31918D02*
Y-20060D01*
X81048Y-20000D01*
G01X98106Y20139D02*
Y8230D01*
X98128Y8208D01*
G01X88100Y31861D02*
Y20022D01*
X88147Y19975D01*
G01X88100Y31861D02*
Y20022D01*
X88147Y19975D01*
G01X98106Y20139D02*
Y8230D01*
X98128Y8208D01*
G54D12*
G01X42300Y10846D02*
Y16554D01*
G01Y10846D02*
Y16554D01*
G01Y18646D02*
Y24354D01*
G01Y18646D02*
Y24354D01*
M02*
