G04 ================== begin FILE IDENTIFICATION RECORD ==================*
G04 Layout Name:  E:/«∂»Î Ω/git/PCB_MCU/boardv6_0/BBear_balance_carv2_0.brd*
G04 Film Name:    SILKSCREEN_TOP*
G04 File Format:  Gerber RS274X*
G04 File Origin:  Cadence Allegro 16.6-P004*
G04 Origin Date:  Fri May 26 23:16:05 2017*
G04 *
G04 Layer:  PACKAGE GEOMETRY/SILKSCREEN_TOP*
G04 Layer:  MANUFACTURING/AUTOSILK_TOP*
G04 Layer:  BOARD GEOMETRY/SILKSCREEN_TOP*
G04 *
G04 Offset:    (0.0000 0.0000)*
G04 Mirror:    No*
G04 Mode:      Positive*
G04 Rotation:  0*
G04 FullContactRelief:  No*
G04 UndefLineWidth:     0.1524*
G04 ================== end FILE IDENTIFICATION RECORD ====================*
%FSLAX25Y25*MOMM*%
%IR0*IPPOS*OFA0.00000B0.00000*MIA0B0*SFA1.00000B1.00000*%
%ADD10C,.1001*%
%ADD11C,.4*%
%ADD12C,.127*%
%ADD13C,.254*%
%ADD14C,.2499*%
%ADD15C,.1999*%
%ADD16C,.05*%
%ADD17C,.1524*%
G75*
%LPD*%
G75*
G54D10*
G01X2180940Y2402840D02*
X2432400D01*
X2465420Y2435860D01*
G01X2762600Y2407920D02*
X2475580D01*
X2473040Y2405380D01*
G01X2762600Y2407920D02*
X2475580D01*
X2473040Y2405380D01*
G01X2180940Y2402840D02*
X2432400D01*
X2465420Y2435860D01*
G54D11*
G01X5224600Y1266390D02*
G02I-19993J3D01*
G01D02*
G03I-19993J3D01*
G54D12*
G01X3063240Y764540D02*
Y1158240D01*
X3060700Y1160780D01*
X2603500D01*
X2600960Y1158240D01*
Y764540D01*
X3063240D01*
G01D02*
Y1158240D01*
X3060700Y1160780D01*
X2603500D01*
X2600960Y1158240D01*
Y764540D01*
X3063240D01*
G54D13*
G01X476600Y2131060D02*
X646780D01*
X649320Y2133600D01*
G01X557880Y2189480D02*
Y2059940D01*
G01X1759300Y381000D02*
X1899000D01*
G01X1820260Y441960D02*
Y317500D01*
G01X2071720Y375920D02*
X2226660D01*
Y360680D01*
G01X2353660Y177800D02*
X2503520D01*
Y180340D01*
G01X2419700Y264160D02*
X2422240D01*
Y99060D01*
G01X3118200Y220980D02*
X3278220D01*
Y210820D01*
G01X6544660Y2169160D02*
X6697060D01*
Y2166620D01*
G01X6615780Y2219960D02*
X6618320D01*
Y2095500D01*
G54D14*
G01X5014590Y1383890D02*
G02I-12497J4D01*
G01D02*
G03X5006490Y1395600I-12512J2D01*
G01X4995210Y1394360D02*
G03X4989600Y1383890I6950J-10462D01*
G01D02*
G03X5002090Y1371400I12494J4D01*
G01D02*
G03X5014590Y1383890I4J12496D01*
G54D15*
G01X1507840Y1169770D02*
Y1024790D01*
G01Y1169770D02*
Y1024790D01*
G01X1505300Y887830D02*
Y742850D01*
G01Y887830D02*
Y742850D01*
G01X1971290Y670560D02*
X2116270D01*
G01X1971290D02*
X2116270D01*
G01X2183480Y1362810D02*
Y1217830D01*
G01Y1362810D02*
Y1217830D01*
G01X2331970Y2065020D02*
X2476950D01*
G01X2331970D02*
X2476950D01*
G01X3903060Y2058770D02*
Y1913790D01*
G01Y2058770D02*
Y1913790D01*
G01X3965390Y2339340D02*
X3820410D01*
G01X3965390D02*
X3820410D01*
G01X4387750Y645160D02*
X4532730D01*
G01X4387750D02*
X4532730D01*
G01X4161690Y640080D02*
X4306670D01*
G01X4161690D02*
X4306670D01*
G01X4779360Y567790D02*
Y422810D01*
G01Y567790D02*
Y422810D01*
G01X4648650Y1714500D02*
X4503670D01*
G01X4648650D02*
X4503670D01*
G01X5514590Y481410D02*
G02I-9984J-4D01*
G01X4879590Y866390D02*
G02I-9984J4D01*
G01X5124600Y736400D02*
X5734600D01*
Y1346400D01*
X5124600D01*
Y736400D01*
G01D02*
X5734600D01*
Y1346400D01*
X5124600D01*
Y736400D01*
G01X4879590Y866390D02*
G03X4869610Y876380I-9984J6D01*
G01D02*
G03X4859620Y866390I-5J-9985D01*
G01D02*
G03X4869610Y856410I9984J4D01*
G01D02*
G03X4879590Y866390I-3J9983D01*
G01X5514590Y481410D02*
G03I-9984J-4D01*
G01X5564600Y1601390D02*
G02I-10007J4D01*
G01X4879590Y1316410D02*
G02I-9984J-4D01*
G01D02*
G03I-9984J-4D01*
G01X5564600Y1601390D02*
G03I-10007J4D01*
G01X4994090Y1541780D02*
X4849110D01*
G01X4994090D02*
X4849110D01*
G01X5999600Y1016410D02*
G02I-10006J-4D01*
G01D02*
G03X5989590Y1026410I-10006J-6D01*
G01D02*
G03X5979590Y1016410I5J-10005D01*
G01D02*
G03X5989590Y1006400I10006J-4D01*
G01D02*
G03X5999600Y1016410I3J10007D01*
G54D16*
G01X6181440Y2113280D02*
X6166200Y2098040D01*
Y800100D01*
X6948520D01*
Y2113280D01*
X6181440D01*
G01X6166200Y1139750D02*
Y1056510D01*
G01Y990730D02*
Y800100D01*
X6948520D01*
Y2113280D01*
X6181440D01*
G01D02*
X6166200Y2098040D01*
Y1181810D01*
G54D17*
G01X210070Y507150D02*
X216500Y513500D01*
X221330Y524080D01*
X224550Y538910D01*
X221330Y551600D01*
X214900Y560070D01*
X203630Y566420D01*
X160200D01*
Y439420D01*
X213290D01*
X224550Y447880D01*
X230980Y460590D01*
X234200Y475400D01*
X230980Y490220D01*
X221330Y502920D01*
X210070Y507150D01*
X160200D01*
G01X339610D02*
X346040Y513500D01*
X350870Y524080D01*
X354090Y538910D01*
X350870Y551600D01*
X344440Y560070D01*
X333170Y566420D01*
X289740D01*
Y439420D01*
X342830D01*
X354090Y447880D01*
X360520Y460590D01*
X363740Y475400D01*
X360520Y490220D01*
X350870Y502920D01*
X339610Y507150D01*
X289740D01*
G01X432150Y496570D02*
X483630D01*
X478800Y511390D01*
X470760Y519850D01*
X459500Y524080D01*
X448240Y521970D01*
X438580Y515620D01*
X432150Y500800D01*
X428930Y488100D01*
Y475400D01*
X432150Y462700D01*
X440190Y450000D01*
X449850Y441540D01*
X461110Y439420D01*
X472370Y443650D01*
X483630Y456350D01*
G01X614780Y439420D02*
Y524080D01*
G01Y509270D02*
X608340Y517740D01*
X598690Y521970D01*
X587430Y524080D01*
X576170Y519850D01*
X566520Y511390D01*
X560080Y498690D01*
X556860Y481750D01*
X560080Y464820D01*
X566520Y452120D01*
X576170Y443650D01*
X587430Y439420D01*
X598690Y441540D01*
X608340Y447880D01*
X614780Y456350D01*
G01X692840Y439420D02*
Y524080D01*
G01Y507150D02*
X700880Y515620D01*
X708930Y521970D01*
X720190Y524080D01*
X728230Y521970D01*
X737880Y515620D01*
G01X796640Y397090D02*
X893160D01*
G01X926180Y439420D02*
Y524080D01*
G01Y500800D02*
X931000Y511390D01*
X939050Y519850D01*
X950310Y524080D01*
X961570Y519850D01*
X969610Y511390D01*
X974440Y500800D01*
Y439420D01*
G01Y500800D02*
X979270Y511390D01*
X987310Y519850D01*
X998570Y524080D01*
X1009830Y519850D01*
X1017880Y511390D01*
X1022700Y498690D01*
Y439420D01*
G01X1132940D02*
Y524080D01*
G01Y509270D02*
X1126500Y517740D01*
X1116850Y521970D01*
X1105590Y524080D01*
X1094330Y519850D01*
X1084680Y511390D01*
X1078240Y498690D01*
X1075020Y481750D01*
X1078240Y464820D01*
X1084680Y452120D01*
X1094330Y443650D01*
X1105590Y439420D01*
X1116850Y441540D01*
X1126500Y447880D01*
X1132940Y456350D01*
G01X1233520Y524080D02*
Y439420D01*
G01Y557950D02*
X1230300Y560070D01*
Y564300D01*
X1233520Y566420D01*
X1236740Y564300D01*
Y560070D01*
X1233520Y557950D01*
G01X1363060Y439420D02*
Y566420D01*
G01X220470Y2137410D02*
X239950D01*
Y2113790D01*
X234100Y2105910D01*
X227290Y2100660D01*
X217550Y2098040D01*
X207810Y2100660D01*
X201000Y2105910D01*
X195160Y2113790D01*
X191260Y2122970D01*
X189310Y2133470D01*
Y2142660D01*
X191260Y2150530D01*
X195160Y2159720D01*
X201000Y2167590D01*
X206840Y2172840D01*
X214630Y2176780D01*
X221450D01*
X229230Y2174160D01*
X235080Y2168910D01*
G01X270980Y2098040D02*
Y2176780D01*
X315760Y2098040D01*
Y2176780D01*
G01X350690Y2098040D02*
Y2176780D01*
X370160D01*
X377950Y2172840D01*
X383790Y2167590D01*
X388660Y2159720D01*
X392560Y2150530D01*
X393530Y2137410D01*
X392560Y2124290D01*
X388660Y2115100D01*
X383790Y2107220D01*
X377950Y2101980D01*
X370160Y2098040D01*
X350690D01*
G01X160420Y2446020D02*
Y2166620D01*
X960420D01*
Y2446020D01*
X160420D01*
G01D02*
Y2166620D01*
X960420D01*
Y2446020D01*
X160420D01*
G01X378810Y242150D02*
X362720Y220980D01*
X346640D01*
X330550Y242150D01*
Y284480D01*
X346640Y305640D01*
X362720D01*
X378810Y284480D01*
Y242150D01*
X390070Y225210D01*
X402940Y242150D01*
Y326810D01*
X386850Y347980D01*
X322510D01*
X306420Y326810D01*
Y199810D01*
X322510Y178650D01*
X386850D01*
X402940Y199810D01*
G01X484220Y220980D02*
Y347980D01*
X464920Y322580D01*
G01Y220980D02*
X503520D01*
G01X583190Y273890D02*
X594460Y288710D01*
X604110Y297180D01*
X616980Y301410D01*
X628240Y297180D01*
X636280Y288710D01*
X642720Y276010D01*
X644330Y261200D01*
X642720Y248490D01*
X636280Y235790D01*
X626630Y225210D01*
X615370Y220980D01*
X602500Y225210D01*
X591240Y237910D01*
X584800Y256960D01*
X583190Y278130D01*
X586410Y305640D01*
X591240Y320470D01*
X599280Y335280D01*
X610540Y345860D01*
X621800Y347980D01*
X633060Y343750D01*
X641110Y333160D01*
G01X707910Y246380D02*
X717560Y231560D01*
X730430Y223100D01*
X744910Y220980D01*
X757780Y223100D01*
X770650Y233680D01*
X778690Y246380D01*
X780300Y259080D01*
X777080Y273890D01*
X765820Y284480D01*
X754560Y288710D01*
X740080D01*
G01X754560D02*
X764210Y295060D01*
X772260Y305640D01*
X775470Y318350D01*
X772260Y331050D01*
X764210Y341630D01*
X749730Y347980D01*
X735260Y345860D01*
X720780Y337400D01*
G01X872840Y216750D02*
X869620Y218860D01*
Y223100D01*
X872840Y225210D01*
X876060Y223100D01*
Y218860D01*
X872840Y216750D01*
G01X1028120Y295060D02*
X1016860Y303530D01*
X1007210Y305640D01*
X994340Y301410D01*
X984680Y292950D01*
X978250Y278130D01*
X976640Y263310D01*
X978250Y248490D01*
X984680Y235790D01*
X994340Y225210D01*
X1007210Y220980D01*
X1018470Y225210D01*
X1028120Y233680D01*
G01X1131920Y220980D02*
X1122270Y223100D01*
X1112620Y231560D01*
X1106180Y246380D01*
X1102960Y263310D01*
X1106180Y280250D01*
X1112620Y295060D01*
X1122270Y303530D01*
X1131920Y305640D01*
X1141570Y303530D01*
X1151220Y295060D01*
X1157660Y280250D01*
X1159270Y263310D01*
X1157660Y246380D01*
X1151220Y231560D01*
X1141570Y223100D01*
X1131920Y220980D01*
G01X1213200D02*
Y305640D01*
G01Y282360D02*
X1218020Y292950D01*
X1226070Y301410D01*
X1237330Y305640D01*
X1248590Y301410D01*
X1256630Y292950D01*
X1261460Y282360D01*
Y220980D01*
G01Y282360D02*
X1266290Y292950D01*
X1274330Y301410D01*
X1285590Y305640D01*
X1296850Y301410D01*
X1304900Y292950D01*
X1309720Y280250D01*
Y220980D01*
G01X650410Y2042160D02*
Y1951140D01*
X656840Y1932090D01*
X669710Y1919390D01*
X685800Y1915160D01*
X701890Y1919390D01*
X714760Y1932090D01*
X721190Y1951140D01*
Y2042160D01*
G01X815340Y1915160D02*
Y2042160D01*
X796040Y2016760D01*
G01Y1915160D02*
X834640D01*
G01X944880D02*
Y2042160D01*
X925580Y2016760D01*
G01Y1915160D02*
X964180D01*
G01X972820Y1361440D02*
Y1209040D01*
X1054100D01*
G01X1176020D02*
X1094740D01*
Y1361440D01*
X1176020D01*
G01X1143510Y1287780D02*
X1094740D01*
G01X1212600Y1209040D02*
Y1361440D01*
X1253240D01*
X1269490Y1353820D01*
X1281680Y1343660D01*
X1291850Y1328420D01*
X1299970Y1310640D01*
X1302000Y1285240D01*
X1299970Y1259840D01*
X1291850Y1242060D01*
X1281680Y1226820D01*
X1269490Y1216660D01*
X1253240Y1209040D01*
X1212600D01*
G01X1340610Y1336040D02*
X1352800Y1351280D01*
X1367030Y1358900D01*
X1383280Y1361440D01*
X1403600Y1356360D01*
X1417830Y1343660D01*
X1421890Y1328420D01*
X1419860Y1313180D01*
X1411730Y1300480D01*
X1371090Y1275080D01*
X1352800Y1257300D01*
X1340610Y1231900D01*
X1336550Y1209040D01*
X1421890D01*
G01X1007870Y2127250D02*
X1027350D01*
Y2103630D01*
X1021500Y2095750D01*
X1014690Y2090500D01*
X1004950Y2087880D01*
X995210Y2090500D01*
X988400Y2095750D01*
X982560Y2103630D01*
X978660Y2112810D01*
X976710Y2123310D01*
Y2132500D01*
X978660Y2140370D01*
X982560Y2149560D01*
X988400Y2157430D01*
X994240Y2162680D01*
X1002030Y2166620D01*
X1008850D01*
X1016630Y2164000D01*
X1022480Y2158750D01*
G01X1058380Y2087880D02*
Y2166620D01*
X1103160Y2087880D01*
Y2166620D01*
G01X1138090Y2087880D02*
Y2166620D01*
X1157560D01*
X1165350Y2162680D01*
X1171190Y2157430D01*
X1176060Y2149560D01*
X1179960Y2140370D01*
X1180930Y2127250D01*
X1179960Y2114130D01*
X1176060Y2104940D01*
X1171190Y2097060D01*
X1165350Y2091820D01*
X1157560Y2087880D01*
X1138090D01*
G01X968120Y2453640D02*
Y2174240D01*
X1968120D01*
Y2453640D01*
X968120D01*
G01D02*
Y2174240D01*
X1968120D01*
Y2453640D01*
X968120D01*
G01X1459750Y231140D02*
Y140120D01*
X1466180Y121070D01*
X1479050Y108370D01*
X1495140Y104140D01*
X1511230Y108370D01*
X1524100Y121070D01*
X1530530Y140120D01*
Y231140D01*
G01X1589290Y123190D02*
X1598940Y112600D01*
X1610200Y106260D01*
X1624680Y104140D01*
X1639160Y108370D01*
X1650420Y116840D01*
X1658460Y131650D01*
X1660070Y148590D01*
X1656850Y165520D01*
X1648810Y176110D01*
X1637550Y184570D01*
X1626290Y186690D01*
X1615030Y184570D01*
X1600550Y176110D01*
X1605380Y231140D01*
X1648810D01*
G01X2264760Y48260D02*
Y327660D01*
X1705960D01*
Y48260D01*
X2264760D01*
G01D02*
Y327660D01*
X1705960D01*
Y48260D01*
X2264760D01*
G01X1684620Y657860D02*
X1672430Y665480D01*
X1658210Y670560D01*
X1641950D01*
X1623660Y662940D01*
X1609440Y650240D01*
X1599280Y635000D01*
X1591150Y609600D01*
X1589120Y586740D01*
X1593180Y563880D01*
X1599280Y548640D01*
X1611470Y533400D01*
X1625700Y523240D01*
X1639920Y518160D01*
X1654140D01*
X1668370Y523240D01*
X1680560Y530860D01*
X1690720Y541020D01*
G01X1761840Y518160D02*
Y670560D01*
X1737460Y640080D01*
G01Y518160D02*
X1786220D01*
G01X1845150Y645160D02*
X1857340Y660400D01*
X1871570Y668020D01*
X1887820Y670560D01*
X1908140Y665480D01*
X1922370Y652780D01*
X1926430Y637540D01*
X1924400Y622300D01*
X1916270Y609600D01*
X1875630Y584200D01*
X1857340Y566420D01*
X1845150Y541020D01*
X1841090Y518160D01*
X1926430D01*
G01X1091280Y779780D02*
Y932180D01*
X1142080D01*
X1158340Y924560D01*
X1168500Y914400D01*
X1172560Y894080D01*
X1168500Y873760D01*
X1156300Y861060D01*
X1142080Y853440D01*
X1091280D01*
G01X1142080D02*
X1172560Y779780D01*
G01X1249780D02*
X1253840Y812800D01*
X1259940Y840740D01*
X1268060Y866140D01*
X1278220Y894080D01*
X1294480Y932180D01*
X1213200D01*
G01X1638470Y2044700D02*
Y1953680D01*
X1644900Y1934630D01*
X1657770Y1921930D01*
X1673860Y1917700D01*
X1689950Y1921930D01*
X1702820Y1934630D01*
X1709250Y1953680D01*
Y2044700D01*
G01X1772830Y2023530D02*
X1782490Y2036230D01*
X1793750Y2042580D01*
X1806620Y2044700D01*
X1822700Y2040470D01*
X1833970Y2029880D01*
X1837180Y2017190D01*
X1835570Y2004480D01*
X1829140Y1993900D01*
X1796970Y1972730D01*
X1782490Y1957920D01*
X1772830Y1936750D01*
X1769620Y1917700D01*
X1837180D01*
G01X1897550Y1936750D02*
X1907200Y1926160D01*
X1918460Y1919820D01*
X1932940Y1917700D01*
X1947420Y1921930D01*
X1958680Y1930400D01*
X1966720Y1945210D01*
X1968330Y1962150D01*
X1965110Y1979080D01*
X1957070Y1989670D01*
X1945810Y1998130D01*
X1934550Y2000250D01*
X1923290Y1998130D01*
X1908810Y1989670D01*
X1913640Y2044700D01*
X1957070D01*
G01X1249170Y2124710D02*
X1268650D01*
Y2101090D01*
X1262800Y2093210D01*
X1255990Y2087960D01*
X1246250Y2085340D01*
X1236510Y2087960D01*
X1229700Y2093210D01*
X1223860Y2101090D01*
X1219960Y2110270D01*
X1218010Y2120770D01*
Y2129960D01*
X1219960Y2137830D01*
X1223860Y2147020D01*
X1229700Y2154890D01*
X1235540Y2160140D01*
X1243330Y2164080D01*
X1250150D01*
X1257930Y2161460D01*
X1263780Y2156210D01*
G01X1299680Y2085340D02*
Y2164080D01*
X1344460Y2085340D01*
Y2164080D01*
G01X1379390Y2085340D02*
Y2164080D01*
X1398860D01*
X1406650Y2160140D01*
X1412490Y2154890D01*
X1417360Y2147020D01*
X1421260Y2137830D01*
X1422230Y2124710D01*
X1421260Y2111590D01*
X1417360Y2102400D01*
X1412490Y2094520D01*
X1406650Y2089280D01*
X1398860Y2085340D01*
X1379390D01*
G01X1486070Y2101090D02*
X1491910Y2091900D01*
X1499700Y2086650D01*
X1508460Y2085340D01*
X1516250Y2086650D01*
X1524040Y2093210D01*
X1528910Y2101090D01*
X1529880Y2108960D01*
X1527940Y2118150D01*
X1521120Y2124710D01*
X1514310Y2127340D01*
X1505540D01*
G01X1514310D02*
X1520150Y2131270D01*
X1525020Y2137830D01*
X1526960Y2145710D01*
X1525020Y2153580D01*
X1520150Y2160140D01*
X1511380Y2164080D01*
X1502620Y2162770D01*
X1493860Y2157520D01*
G01X1586230Y2082720D02*
X1584280Y2084030D01*
Y2086650D01*
X1586230Y2087960D01*
X1588180Y2086650D01*
Y2084030D01*
X1586230Y2082720D01*
G01X1643550Y2101090D02*
X1649390Y2091900D01*
X1657180Y2086650D01*
X1665940Y2085340D01*
X1673730Y2086650D01*
X1681520Y2093210D01*
X1686390Y2101090D01*
X1687360Y2108960D01*
X1685420Y2118150D01*
X1678600Y2124710D01*
X1671790Y2127340D01*
X1663020D01*
G01X1671790D02*
X1677630Y2131270D01*
X1682500Y2137830D01*
X1684440Y2145710D01*
X1682500Y2153580D01*
X1677630Y2160140D01*
X1668860Y2164080D01*
X1660100Y2162770D01*
X1651340Y2157520D01*
G01X1752770Y2096010D02*
X1758610Y2086820D01*
X1766400Y2081570D01*
X1775160Y2080260D01*
X1782950Y2081570D01*
X1790740Y2088130D01*
X1795610Y2096010D01*
X1796580Y2103880D01*
X1794640Y2113070D01*
X1787820Y2119630D01*
X1781010Y2122260D01*
X1772240D01*
G01X1781010D02*
X1786850Y2126190D01*
X1791720Y2132750D01*
X1793660Y2140630D01*
X1791720Y2148500D01*
X1786850Y2155060D01*
X1778080Y2159000D01*
X1769320Y2157690D01*
X1760560Y2152440D01*
G01X1852930Y2077640D02*
X1850980Y2078950D01*
Y2081570D01*
X1852930Y2082880D01*
X1854880Y2081570D01*
Y2078950D01*
X1852930Y2077640D01*
G01X1910250Y2096010D02*
X1916090Y2086820D01*
X1923880Y2081570D01*
X1932640Y2080260D01*
X1940430Y2081570D01*
X1948220Y2088130D01*
X1953090Y2096010D01*
X1954060Y2103880D01*
X1952120Y2113070D01*
X1945300Y2119630D01*
X1938490Y2122260D01*
X1929720D01*
G01X1938490D02*
X1944330Y2126190D01*
X1949200Y2132750D01*
X1951140Y2140630D01*
X1949200Y2148500D01*
X1944330Y2155060D01*
X1935560Y2159000D01*
X1926800Y2157690D01*
X1918040Y2152440D01*
G01X3069940Y38100D02*
Y317500D01*
X2511140D01*
Y38100D01*
X3069940D01*
G01D02*
Y317500D01*
X2511140D01*
Y38100D01*
X3069940D01*
G01X2276010Y574040D02*
Y483020D01*
X2282440Y463970D01*
X2295310Y451270D01*
X2311400Y447040D01*
X2327490Y451270D01*
X2340360Y463970D01*
X2346790Y483020D01*
Y574040D01*
G01X2437720Y447040D02*
X2440940Y474550D01*
X2445770Y497840D01*
X2452200Y519010D01*
X2460240Y542290D01*
X2473110Y574040D01*
X2408770D01*
G01X3075020Y383540D02*
Y662940D01*
X2516220D01*
Y383540D01*
X3075020D01*
G01D02*
Y662940D01*
X2516220D01*
Y383540D01*
X3075020D01*
G01X2455430Y1656080D02*
Y1565060D01*
X2461860Y1546010D01*
X2474730Y1533310D01*
X2490820Y1529080D01*
X2506910Y1533310D01*
X2519780Y1546010D01*
X2526210Y1565060D01*
Y1656080D01*
G01X2620360Y1529080D02*
Y1656080D01*
X2601060Y1630680D01*
G01Y1529080D02*
X2639660D01*
G01X2749900D02*
X2761160Y1531200D01*
X2774030Y1537540D01*
X2782070Y1548130D01*
X2785290Y1562950D01*
X2782070Y1577760D01*
X2772420Y1590460D01*
X2757940Y1596810D01*
X2741860D01*
X2732200Y1601050D01*
X2724160Y1611630D01*
X2720940Y1626450D01*
X2725770Y1641260D01*
X2737030Y1651850D01*
X2749900Y1656080D01*
X2762770Y1651850D01*
X2774030Y1641260D01*
X2778860Y1626450D01*
X2775640Y1611630D01*
X2767600Y1601050D01*
X2757940Y1596810D01*
X2741860D01*
X2727380Y1590460D01*
X2717730Y1577760D01*
X2714510Y1562950D01*
X2717730Y1548130D01*
X2725770Y1537540D01*
X2738640Y1531200D01*
X2749900Y1529080D01*
G01X2192620Y1551940D02*
X2180430Y1559560D01*
X2166210Y1564640D01*
X2149950D01*
X2131660Y1557020D01*
X2117440Y1544320D01*
X2107280Y1529080D01*
X2099150Y1503680D01*
X2097120Y1480820D01*
X2101180Y1457960D01*
X2107280Y1442720D01*
X2119470Y1427480D01*
X2133700Y1417320D01*
X2147920Y1412240D01*
X2162140D01*
X2176370Y1417320D01*
X2188560Y1424940D01*
X2198720Y1435100D01*
G01X2225140D02*
X2237330Y1422400D01*
X2251550Y1414780D01*
X2269840Y1412240D01*
X2288130Y1417320D01*
X2302350Y1427480D01*
X2312510Y1445260D01*
X2314540Y1465580D01*
X2310480Y1485900D01*
X2300320Y1498600D01*
X2286090Y1508760D01*
X2271870Y1511300D01*
X2257650Y1508760D01*
X2239360Y1498600D01*
X2245460Y1564640D01*
X2300320D01*
G01X2077720Y1856740D02*
Y2009140D01*
X2128520D01*
X2144780Y2001520D01*
X2154940Y1991360D01*
X2159000Y1971040D01*
X2154940Y1950720D01*
X2142740Y1938020D01*
X2128520Y1930400D01*
X2077720D01*
G01X2128520D02*
X2159000Y1856740D01*
G01X2201670Y1983740D02*
X2213860Y1998980D01*
X2228090Y2006600D01*
X2244340Y2009140D01*
X2264660Y2004060D01*
X2278890Y1991360D01*
X2282950Y1976120D01*
X2280920Y1960880D01*
X2272790Y1948180D01*
X2232150Y1922780D01*
X2213860Y1905000D01*
X2201670Y1879600D01*
X2197610Y1856740D01*
X2282950D01*
G01X3075020Y1877060D02*
Y2156460D01*
X2516220D01*
Y1877060D01*
X3075020D01*
G01D02*
Y2156460D01*
X2516220D01*
Y1877060D01*
X3075020D01*
G01X2042500Y2270760D02*
Y2225250D01*
X2045210Y2215720D01*
X2050630Y2209380D01*
X2057400Y2207260D01*
X2064170Y2209380D01*
X2069590Y2215720D01*
X2072300Y2225250D01*
Y2270760D01*
G01X2113280Y2207260D02*
Y2270760D01*
X2105150Y2258060D01*
G01Y2207260D02*
X2121410D01*
G01X2157640Y2214670D02*
X2162390Y2209380D01*
X2167810Y2207260D01*
X2173220Y2209380D01*
X2177970Y2215720D01*
X2181350Y2225250D01*
X2182710Y2234780D01*
Y2246420D01*
X2181350Y2255940D01*
X2177970Y2264410D01*
X2173900Y2268640D01*
X2169160Y2270760D01*
X2163740Y2268640D01*
X2159680Y2264410D01*
X2156970Y2258060D01*
X2155610Y2249590D01*
X2156970Y2242190D01*
X2160350Y2234780D01*
X2164420Y2230540D01*
X2169160Y2229480D01*
X2174580Y2231600D01*
X2178640Y2236890D01*
X2182710Y2246420D01*
G01X3113290Y185420D02*
Y94400D01*
X3119720Y75350D01*
X3132590Y62650D01*
X3148680Y58420D01*
X3164770Y62650D01*
X3177640Y75350D01*
X3184070Y94400D01*
Y185420D01*
G01X3278220Y58420D02*
Y185420D01*
X3258920Y160020D01*
G01Y58420D02*
X3297520D01*
G01X3404540D02*
X3407760Y85930D01*
X3412590Y109220D01*
X3419020Y130390D01*
X3427060Y153670D01*
X3439930Y185420D01*
X3375590D01*
G01X3735420Y383540D02*
Y662940D01*
X3176620D01*
Y383540D01*
X3735420D01*
G01D02*
Y662940D01*
X3176620D01*
Y383540D01*
X3735420D01*
G01X2828810Y1387350D02*
X2834650Y1378160D01*
X2842440Y1372910D01*
X2851200Y1371600D01*
X2858990Y1372910D01*
X2866780Y1379470D01*
X2871650Y1387350D01*
X2872620Y1395220D01*
X2870680Y1404410D01*
X2863860Y1410970D01*
X2857050Y1413600D01*
X2848280D01*
G01X2857050D02*
X2862890Y1417530D01*
X2867760Y1424090D01*
X2869700Y1431970D01*
X2867760Y1439840D01*
X2862890Y1446400D01*
X2854120Y1450340D01*
X2845360Y1449030D01*
X2836600Y1443780D01*
G01X2928970Y1368980D02*
X2927020Y1370290D01*
Y1372910D01*
X2928970Y1374220D01*
X2930920Y1372910D01*
Y1370290D01*
X2928970Y1368980D01*
G01X2986290Y1387350D02*
X2992130Y1378160D01*
X2999920Y1372910D01*
X3008680Y1371600D01*
X3016470Y1372910D01*
X3024260Y1379470D01*
X3029130Y1387350D01*
X3030100Y1395220D01*
X3028160Y1404410D01*
X3021340Y1410970D01*
X3014530Y1413600D01*
X3005760D01*
G01X3014530D02*
X3020370Y1417530D01*
X3025240Y1424090D01*
X3027180Y1431970D01*
X3025240Y1439840D01*
X3020370Y1446400D01*
X3011600Y1450340D01*
X3002840Y1449030D01*
X2994080Y1443780D01*
G01X3596940Y1465580D02*
Y1744980D01*
X2796940D01*
Y1465580D01*
X3596940D01*
G01D02*
Y1744980D01*
X2796940D01*
Y1465580D01*
X3596940D01*
G01X3092970Y1882140D02*
Y1791120D01*
X3099400Y1772070D01*
X3112270Y1759370D01*
X3128360Y1755140D01*
X3144450Y1759370D01*
X3157320Y1772070D01*
X3163750Y1791120D01*
Y1882140D01*
G01X3257900Y1755140D02*
Y1882140D01*
X3238600Y1856740D01*
G01Y1755140D02*
X3277200D01*
G01X3352050Y1780540D02*
X3361700Y1765720D01*
X3374570Y1757260D01*
X3389050Y1755140D01*
X3401920Y1757260D01*
X3414790Y1767840D01*
X3422830Y1780540D01*
X3424440Y1793240D01*
X3421220Y1808050D01*
X3409960Y1818640D01*
X3398700Y1822870D01*
X3384220D01*
G01X3398700D02*
X3408350Y1829220D01*
X3416400Y1839800D01*
X3419610Y1852510D01*
X3416400Y1865210D01*
X3408350Y1875790D01*
X3393870Y1882140D01*
X3379400Y1880020D01*
X3364920Y1871560D01*
G01X3735420Y1877060D02*
Y2156460D01*
X3176620D01*
Y1877060D01*
X3735420D01*
G01D02*
Y2156460D01*
X3176620D01*
Y1877060D01*
X3735420D01*
G01X2572270Y1861820D02*
Y1770800D01*
X2578700Y1751750D01*
X2591570Y1739050D01*
X2607660Y1734820D01*
X2623750Y1739050D01*
X2636620Y1751750D01*
X2643050Y1770800D01*
Y1861820D01*
G01X2737200Y1734820D02*
X2748460Y1736940D01*
X2761330Y1743280D01*
X2769370Y1753870D01*
X2772590Y1768690D01*
X2769370Y1783500D01*
X2759720Y1796200D01*
X2745240Y1802550D01*
X2729160D01*
X2719500Y1806790D01*
X2711460Y1817370D01*
X2708240Y1832190D01*
X2713070Y1847000D01*
X2724330Y1857590D01*
X2737200Y1861820D01*
X2750070Y1857590D01*
X2761330Y1847000D01*
X2766160Y1832190D01*
X2762940Y1817370D01*
X2754900Y1806790D01*
X2745240Y1802550D01*
X2729160D01*
X2714680Y1796200D01*
X2705030Y1783500D01*
X2701810Y1768690D01*
X2705030Y1753870D01*
X2713070Y1743280D01*
X2725940Y1736940D01*
X2737200Y1734820D01*
G01X2795140Y1178560D02*
Y1257300D01*
G01X2836040D02*
Y1178560D01*
G01Y1217930D02*
X2795140D01*
G01X2894330Y1178560D02*
Y1257300D01*
X2882650Y1241550D01*
G01Y1178560D02*
X2906010D01*
G01X2750990Y2316480D02*
Y2225460D01*
X2757420Y2206410D01*
X2770290Y2193710D01*
X2786380Y2189480D01*
X2802470Y2193710D01*
X2815340Y2206410D01*
X2821770Y2225460D01*
Y2316480D01*
G01X2885350Y2295310D02*
X2895010Y2308010D01*
X2906270Y2314360D01*
X2919140Y2316480D01*
X2935220Y2312250D01*
X2946490Y2301660D01*
X2949700Y2288970D01*
X2948090Y2276260D01*
X2941660Y2265680D01*
X2909490Y2244510D01*
X2895010Y2229700D01*
X2885350Y2208530D01*
X2882140Y2189480D01*
X2949700D01*
G01X3792520Y2222500D02*
Y2501900D01*
X2992520D01*
Y2222500D01*
X3792520D01*
G01D02*
Y2501900D01*
X2992520D01*
Y2222500D01*
X3792520D01*
G01X3857500Y88050D02*
X3870370Y77470D01*
X3884850Y71120D01*
X3897710D01*
X3910580Y77470D01*
X3920240Y88050D01*
X3925060Y102870D01*
X3921850Y117680D01*
X3913800Y130390D01*
X3899320Y138850D01*
X3880020Y143090D01*
X3868760Y151550D01*
X3863930Y166370D01*
X3867150Y181190D01*
X3875190Y191770D01*
X3886450Y198120D01*
X3897710D01*
X3908980Y193890D01*
X3918630Y183300D01*
G01X4020820Y71120D02*
Y198120D01*
X4001520Y172720D01*
G01Y71120D02*
X4040120D01*
G01X3573950Y345440D02*
Y254420D01*
X3580380Y235370D01*
X3593250Y222670D01*
X3609340Y218440D01*
X3625430Y222670D01*
X3638300Y235370D01*
X3644730Y254420D01*
Y345440D01*
G01X3738880Y218440D02*
Y345440D01*
X3719580Y320040D01*
G01Y218440D02*
X3758180D01*
G01X3837850Y324270D02*
X3847510Y336970D01*
X3858770Y343320D01*
X3871640Y345440D01*
X3887720Y341210D01*
X3898990Y330620D01*
X3902200Y317930D01*
X3900590Y305220D01*
X3894160Y294640D01*
X3861990Y273470D01*
X3847510Y258660D01*
X3837850Y237490D01*
X3834640Y218440D01*
X3902200D01*
G01X3824320Y770000D02*
X4103720D01*
Y1770000D01*
X3824320D01*
Y770000D01*
G01D02*
X4103720D01*
Y1770000D01*
X3824320D01*
Y770000D01*
G01X3985260Y618740D02*
X3977640Y606550D01*
X3972560Y592330D01*
Y576070D01*
X3980180Y557780D01*
X3992880Y543560D01*
X4008120Y533400D01*
X4033520Y525270D01*
X4056380Y523240D01*
X4079240Y527300D01*
X4094480Y533400D01*
X4109720Y545590D01*
X4119880Y559820D01*
X4124960Y574040D01*
Y588260D01*
X4119880Y602490D01*
X4112260Y614680D01*
X4102100Y624840D01*
G01X4061460Y657350D02*
X4043680Y671580D01*
X4033520Y683770D01*
X4028440Y700020D01*
X4033520Y714250D01*
X4043680Y724410D01*
X4058920Y732540D01*
X4076700Y734570D01*
X4091940Y732540D01*
X4107180Y724410D01*
X4119880Y712210D01*
X4124960Y697990D01*
X4119880Y681740D01*
X4104640Y667510D01*
X4081780Y659380D01*
X4056380Y657350D01*
X4023360Y661410D01*
X4005580Y667510D01*
X3987800Y677670D01*
X3975100Y691900D01*
X3972560Y706120D01*
X3977640Y720340D01*
X3990340Y730510D01*
G01X3374980Y1369060D02*
X3376930Y1386120D01*
X3379850Y1400550D01*
X3383750Y1413680D01*
X3388610Y1428110D01*
X3396400Y1447800D01*
X3357460D01*
G01X3455670Y1366440D02*
X3453720Y1367750D01*
Y1370370D01*
X3455670Y1371680D01*
X3457620Y1370370D01*
Y1367750D01*
X3455670Y1366440D01*
G01X3534410Y1369060D02*
X3541230Y1370370D01*
X3549010Y1374310D01*
X3553880Y1380870D01*
X3555830Y1390060D01*
X3553880Y1399240D01*
X3548040Y1407120D01*
X3539280Y1411060D01*
X3529540D01*
X3523700Y1413680D01*
X3518830Y1420240D01*
X3516880Y1429430D01*
X3519810Y1438610D01*
X3526620Y1445180D01*
X3534410Y1447800D01*
X3542200Y1445180D01*
X3549010Y1438610D01*
X3551940Y1429430D01*
X3549990Y1420240D01*
X3545120Y1413680D01*
X3539280Y1411060D01*
X3529540D01*
X3520780Y1407120D01*
X3514940Y1399240D01*
X3512990Y1390060D01*
X3514940Y1380870D01*
X3519810Y1374310D01*
X3527590Y1370370D01*
X3534410Y1369060D01*
G01X3617130Y1699260D02*
Y1608240D01*
X3623560Y1589190D01*
X3636430Y1576490D01*
X3652520Y1572260D01*
X3668610Y1576490D01*
X3681480Y1589190D01*
X3687910Y1608240D01*
Y1699260D01*
G01X3746670Y1597660D02*
X3756320Y1582840D01*
X3769190Y1574380D01*
X3783670Y1572260D01*
X3796540Y1574380D01*
X3809410Y1584960D01*
X3817450Y1597660D01*
X3819060Y1610360D01*
X3815840Y1625170D01*
X3804580Y1635760D01*
X3793320Y1639990D01*
X3778840D01*
G01X3793320D02*
X3802970Y1646340D01*
X3811020Y1656920D01*
X3814230Y1669630D01*
X3811020Y1682330D01*
X3802970Y1692910D01*
X3788490Y1699260D01*
X3774020Y1697140D01*
X3759540Y1688680D01*
G01X3654140Y1734820D02*
Y1887220D01*
X3704940D01*
X3721200Y1879600D01*
X3731360Y1869440D01*
X3735420Y1849120D01*
X3731360Y1828800D01*
X3719160Y1816100D01*
X3704940Y1808480D01*
X3654140D01*
G01X3704940D02*
X3735420Y1734820D01*
G01X3816700D02*
Y1887220D01*
X3792320Y1856740D01*
G01Y1734820D02*
X3841080D01*
G01X3666420Y2169160D02*
Y2247900D01*
X3690760D01*
X3698550Y2243960D01*
X3703420Y2238710D01*
X3705360Y2228210D01*
X3703420Y2217720D01*
X3697570Y2211160D01*
X3690760Y2207220D01*
X3666420D01*
G01X3690760D02*
X3705360Y2169160D01*
G01X3764630D02*
X3771450Y2170470D01*
X3779230Y2174410D01*
X3784100Y2180970D01*
X3786050Y2190160D01*
X3784100Y2199340D01*
X3778260Y2207220D01*
X3769500Y2211160D01*
X3759760D01*
X3753920Y2213780D01*
X3749050Y2220340D01*
X3747100Y2229530D01*
X3750030Y2238710D01*
X3756840Y2245280D01*
X3764630Y2247900D01*
X3772420Y2245280D01*
X3779230Y2238710D01*
X3782160Y2229530D01*
X3780210Y2220340D01*
X3775340Y2213780D01*
X3769500Y2211160D01*
X3759760D01*
X3751000Y2207220D01*
X3745160Y2199340D01*
X3743210Y2190160D01*
X3745160Y2180970D01*
X3750030Y2174410D01*
X3757810Y2170470D01*
X3764630Y2169160D01*
G01X6018880Y30480D02*
Y309880D01*
X4113880D01*
Y30480D01*
X6018880D01*
G01X5544540Y309880D02*
X4113880D01*
Y260200D01*
G01Y80160D02*
Y30480D01*
X6018880D01*
G01X4366260Y372360D02*
X4358640Y360170D01*
X4353560Y345950D01*
Y329690D01*
X4361180Y311400D01*
X4373880Y297180D01*
X4389120Y287020D01*
X4414520Y278890D01*
X4437380Y276860D01*
X4460240Y280920D01*
X4475480Y287020D01*
X4490720Y299210D01*
X4500880Y313440D01*
X4505960Y327660D01*
Y341880D01*
X4500880Y356110D01*
X4493260Y368300D01*
X4483100Y378460D01*
G01X4505960Y445520D02*
X4472940Y449580D01*
X4445000Y455680D01*
X4419600Y463800D01*
X4391660Y473960D01*
X4353560Y490220D01*
Y408940D01*
G01X4286580Y916000D02*
X4354140Y1043000D01*
G01X4286580D02*
X4354140Y916000D01*
G01X4449900D02*
Y1043000D01*
X4430600Y1017600D01*
G01Y916000D02*
X4469200D01*
G01X4816370Y844220D02*
Y1144220D01*
X4566390D01*
Y844220D01*
X4816370D01*
G01D02*
Y1144220D01*
X4566390D01*
Y844220D01*
X4816370D01*
G01X4101350Y1917700D02*
Y1826680D01*
X4107780Y1807630D01*
X4120650Y1794930D01*
X4136740Y1790700D01*
X4152830Y1794930D01*
X4165700Y1807630D01*
X4172130Y1826680D01*
Y1917700D01*
G01X4235710Y1843610D02*
X4246980Y1858430D01*
X4256630Y1866900D01*
X4269500Y1871130D01*
X4280760Y1866900D01*
X4288800Y1858430D01*
X4295240Y1845730D01*
X4296850Y1830920D01*
X4295240Y1818210D01*
X4288800Y1805510D01*
X4279150Y1794930D01*
X4267890Y1790700D01*
X4255020Y1794930D01*
X4243760Y1807630D01*
X4237320Y1826680D01*
X4235710Y1847850D01*
X4238930Y1875360D01*
X4243760Y1890190D01*
X4251800Y1905000D01*
X4263060Y1915580D01*
X4274320Y1917700D01*
X4285580Y1913470D01*
X4293630Y1902880D01*
G01X4805680Y1766320D02*
X4813300Y1778510D01*
X4818380Y1792730D01*
Y1808990D01*
X4810760Y1827280D01*
X4798060Y1841500D01*
X4782820Y1851660D01*
X4757420Y1859790D01*
X4734560Y1861820D01*
X4711700Y1857760D01*
X4696460Y1851660D01*
X4681220Y1839470D01*
X4671060Y1825240D01*
X4665980Y1811020D01*
Y1796800D01*
X4671060Y1782570D01*
X4678680Y1770380D01*
X4688840Y1760220D01*
G01X4665980Y1689100D02*
X4818380D01*
X4787900Y1713480D01*
G01X4665980D02*
Y1664720D01*
G01Y1567180D02*
X4818380D01*
X4787900Y1591560D01*
G01X4665980D02*
Y1542800D01*
G01X4973620Y2217420D02*
Y2496820D01*
X4173620D01*
Y2217420D01*
X4973620D01*
G01D02*
Y2496820D01*
X4173620D01*
Y2217420D01*
X4973620D01*
G01X4897420Y1938020D02*
Y2217420D01*
X4097420D01*
Y1938020D01*
X4897420D01*
G01D02*
Y2217420D01*
X4097420D01*
Y1938020D01*
X4897420D01*
G01X4940900Y723900D02*
X4928710Y731520D01*
X4914490Y736600D01*
X4898230D01*
X4879940Y728980D01*
X4865720Y716280D01*
X4855560Y701040D01*
X4847430Y675640D01*
X4845400Y652780D01*
X4849460Y629920D01*
X4855560Y614680D01*
X4867750Y599440D01*
X4881980Y589280D01*
X4896200Y584200D01*
X4910420D01*
X4924650Y589280D01*
X4936840Y596900D01*
X4947000Y607060D01*
G01X5018120Y584200D02*
Y736600D01*
X4993740Y706120D01*
G01Y584200D02*
X5042500D01*
G01X5595720Y1757680D02*
Y1648460D01*
X5603840Y1625600D01*
X5620100Y1610360D01*
X5640420Y1605280D01*
X5660740Y1610360D01*
X5677000Y1625600D01*
X5685120Y1648460D01*
Y1757680D01*
G01X5762340Y1605280D02*
Y1757680D01*
X5737960Y1727200D01*
G01Y1605280D02*
X5786720D01*
G01X4977380Y1889760D02*
X4965190Y1897380D01*
X4950970Y1902460D01*
X4934710D01*
X4916420Y1894840D01*
X4902200Y1882140D01*
X4892040Y1866900D01*
X4883910Y1841500D01*
X4881880Y1818640D01*
X4885940Y1795780D01*
X4892040Y1780540D01*
X4904230Y1765300D01*
X4918460Y1755140D01*
X4932680Y1750060D01*
X4946900D01*
X4961130Y1755140D01*
X4973320Y1762760D01*
X4983480Y1772920D01*
G01X5015990Y1877060D02*
X5028180Y1892300D01*
X5042410Y1899920D01*
X5058660Y1902460D01*
X5078980Y1897380D01*
X5093210Y1884680D01*
X5097270Y1869440D01*
X5095240Y1854200D01*
X5087110Y1841500D01*
X5046470Y1816100D01*
X5028180Y1798320D01*
X5015990Y1772920D01*
X5011930Y1750060D01*
X5097270D01*
G01X5314700Y2235200D02*
X5353300D01*
G01X5334000D02*
Y2108200D01*
G01X5314700D02*
X5353300D01*
G01X5463540D02*
X5450670Y2110320D01*
X5439410Y2118780D01*
X5429760Y2131480D01*
X5423320Y2146300D01*
X5420100Y2163230D01*
Y2180170D01*
X5423320Y2197100D01*
X5429760Y2211920D01*
X5439410Y2224620D01*
X5450670Y2233080D01*
X5463540Y2235200D01*
X5476410Y2233080D01*
X5487670Y2224620D01*
X5497320Y2211920D01*
X5503760Y2197100D01*
X5506980Y2180170D01*
Y2163230D01*
X5503760Y2146300D01*
X5497320Y2131480D01*
X5487670Y2118780D01*
X5476410Y2110320D01*
X5463540Y2108200D01*
G01X5615770Y2232240D02*
X5606120Y2238590D01*
X5594860Y2242820D01*
X5581990D01*
X5567510Y2236470D01*
X5556250Y2225890D01*
X5548210Y2213190D01*
X5541770Y2192020D01*
X5540160Y2172970D01*
X5543380Y2153920D01*
X5548210Y2141220D01*
X5557860Y2128520D01*
X5569120Y2120050D01*
X5580380Y2115820D01*
X5591640D01*
X5602900Y2120050D01*
X5612550Y2126400D01*
X5620600Y2134870D01*
G01X5677750Y2242820D02*
Y2115820D01*
X5742090D01*
G01X5804070D02*
Y2242820D01*
G01X5865200D02*
X5804070Y2164500D01*
G01X5874850Y2115820D02*
X5831420Y2200480D01*
G01X4981280Y2476500D02*
Y2430990D01*
X4983990Y2421460D01*
X4989410Y2415120D01*
X4996180Y2413000D01*
X5002950Y2415120D01*
X5008370Y2421460D01*
X5011080Y2430990D01*
Y2476500D01*
G01X5060190Y2413000D02*
Y2476500D01*
X5035130Y2430990D01*
X5068990D01*
G01X6051520Y2222500D02*
Y2501900D01*
X5051520D01*
Y2222500D01*
X6051520D01*
G01D02*
Y2501900D01*
X5051520D01*
Y2222500D01*
X6051520D01*
G01X4924310Y2164080D02*
Y2073060D01*
X4930740Y2054010D01*
X4943610Y2041310D01*
X4959700Y2037080D01*
X4975790Y2041310D01*
X4988660Y2054010D01*
X4995090Y2073060D01*
Y2164080D01*
G01X5058670Y2142910D02*
X5068330Y2155610D01*
X5079590Y2161960D01*
X5092460Y2164080D01*
X5108540Y2159850D01*
X5119810Y2149260D01*
X5123020Y2136570D01*
X5121410Y2123860D01*
X5114980Y2113280D01*
X5082810Y2092110D01*
X5068330Y2077300D01*
X5058670Y2056130D01*
X5055460Y2037080D01*
X5123020D01*
G01X5218780Y2164080D02*
X5205910Y2159850D01*
X5196260Y2149260D01*
X5189820Y2136570D01*
X5185000Y2119630D01*
X5183390Y2100580D01*
X5185000Y2081530D01*
X5189820Y2064590D01*
X5196260Y2051890D01*
X5205910Y2041310D01*
X5218780Y2037080D01*
X5231650Y2041310D01*
X5241300Y2051890D01*
X5247740Y2064590D01*
X5252560Y2081530D01*
X5254170Y2100580D01*
X5252560Y2119630D01*
X5247740Y2136570D01*
X5241300Y2149260D01*
X5231650Y2159850D01*
X5218780Y2164080D01*
G01X6111760Y97880D02*
X6115650Y101810D01*
X6118570Y108370D01*
X6120520Y117560D01*
X6118570Y125430D01*
X6114680Y130680D01*
X6107860Y134620D01*
X6081580D01*
Y55880D01*
X6113710D01*
X6120520Y61130D01*
X6124420Y69000D01*
X6126360Y78190D01*
X6124420Y87370D01*
X6118570Y95250D01*
X6111760Y97880D01*
X6081580D01*
G01X6182710Y55880D02*
Y134620D01*
X6171030Y118870D01*
G01Y55880D02*
X6194390D01*
G01X6242950Y121500D02*
X6248790Y129370D01*
X6255610Y133310D01*
X6263400Y134620D01*
X6273130Y132000D01*
X6279950Y125430D01*
X6281900Y117560D01*
X6280920Y109680D01*
X6277030Y103120D01*
X6257560Y90000D01*
X6248790Y80810D01*
X6242950Y67690D01*
X6241000Y55880D01*
X6281900D01*
G01X6381000Y97880D02*
X6384890Y101810D01*
X6387810Y108370D01*
X6389760Y117560D01*
X6387810Y125430D01*
X6383920Y130680D01*
X6377100Y134620D01*
X6350820D01*
Y55880D01*
X6382950D01*
X6389760Y61130D01*
X6393660Y69000D01*
X6395600Y78190D01*
X6393660Y87370D01*
X6387810Y95250D01*
X6381000Y97880D01*
X6350820D01*
G01X6451950Y55880D02*
Y134620D01*
X6440270Y118870D01*
G01Y55880D02*
X6463630D01*
G01X6509270Y71630D02*
X6515110Y62440D01*
X6522900Y57190D01*
X6531660Y55880D01*
X6539450Y57190D01*
X6547240Y63750D01*
X6552110Y71630D01*
X6553080Y79500D01*
X6551140Y88690D01*
X6544320Y95250D01*
X6537510Y97880D01*
X6528740D01*
G01X6537510D02*
X6543350Y101810D01*
X6548220Y108370D01*
X6550160Y116250D01*
X6548220Y124120D01*
X6543350Y130680D01*
X6534580Y134620D01*
X6525820Y133310D01*
X6517060Y128060D01*
G01X6018880Y30480D02*
Y106400D01*
G01Y233960D02*
Y309880D01*
X5594060D01*
G01X6077680Y421640D02*
Y142240D01*
X7077680D01*
Y421640D01*
X6077680D01*
G01D02*
Y142240D01*
X7077680D01*
Y421640D01*
X6077680D01*
G01X6220880Y678180D02*
X6261100Y805180D01*
X6301320Y678180D01*
G01X6286840Y722630D02*
X6235360D01*
G01X6390640Y678180D02*
X6401900Y680300D01*
X6414770Y686640D01*
X6422810Y697230D01*
X6426030Y712050D01*
X6422810Y726860D01*
X6413160Y739560D01*
X6398680Y745910D01*
X6382600D01*
X6372940Y750150D01*
X6364900Y760730D01*
X6361680Y775550D01*
X6366510Y790360D01*
X6377770Y800950D01*
X6390640Y805180D01*
X6403510Y800950D01*
X6414770Y790360D01*
X6419600Y775550D01*
X6416380Y760730D01*
X6408340Y750150D01*
X6398680Y745910D01*
X6382600D01*
X6368120Y739560D01*
X6358470Y726860D01*
X6355250Y712050D01*
X6358470Y697230D01*
X6366510Y686640D01*
X6379380Y680300D01*
X6390640Y678180D01*
G01X6062400Y492760D02*
Y447250D01*
X6065110Y437720D01*
X6070530Y431380D01*
X6077300Y429260D01*
X6084070Y431380D01*
X6089490Y437720D01*
X6092200Y447250D01*
Y492760D01*
G01X6120310Y482180D02*
X6124370Y488530D01*
X6129120Y491700D01*
X6134530Y492760D01*
X6141310Y490640D01*
X6146050Y485350D01*
X6147400Y479000D01*
X6146730Y472650D01*
X6144020Y467360D01*
X6130470Y456780D01*
X6124370Y449370D01*
X6120310Y438780D01*
X6118960Y429260D01*
X6147400D01*
G01X6197190D02*
Y492760D01*
X6172130Y447250D01*
X6205990D01*
G01X6110660Y647700D02*
Y602190D01*
X6113370Y592660D01*
X6118790Y586320D01*
X6125560Y584200D01*
X6132330Y586320D01*
X6137750Y592660D01*
X6140460Y602190D01*
Y647700D01*
G01X6168570Y637120D02*
X6172630Y643470D01*
X6177380Y646640D01*
X6182790Y647700D01*
X6189570Y645580D01*
X6194310Y640290D01*
X6195660Y633940D01*
X6194990Y627590D01*
X6192280Y622300D01*
X6178730Y611720D01*
X6172630Y604310D01*
X6168570Y593720D01*
X6167220Y584200D01*
X6195660D01*
G01X6222420Y596900D02*
X6226480Y589490D01*
X6231900Y585260D01*
X6238000Y584200D01*
X6243420Y585260D01*
X6248840Y590550D01*
X6252220Y596900D01*
X6252900Y603250D01*
X6251540Y610660D01*
X6246800Y615950D01*
X6242060Y618070D01*
X6235970D01*
G01X6242060D02*
X6246130Y621240D01*
X6249510Y626530D01*
X6250870Y632880D01*
X6249510Y639230D01*
X6246130Y644520D01*
X6240030Y647700D01*
X6233930Y646640D01*
X6227840Y642410D01*
G01X6279280Y708660D02*
Y429260D01*
X7079280D01*
Y708660D01*
X6279280D01*
G01D02*
Y429260D01*
X7079280D01*
Y708660D01*
X6279280D01*
G01X6121570Y2016760D02*
Y1925740D01*
X6128000Y1906690D01*
X6140870Y1893990D01*
X6156960Y1889760D01*
X6173050Y1893990D01*
X6185920Y1906690D01*
X6192350Y1925740D01*
Y2016760D01*
G01X6255930Y1995590D02*
X6265590Y2008290D01*
X6276850Y2014640D01*
X6289720Y2016760D01*
X6305800Y2012530D01*
X6317070Y2001940D01*
X6320280Y1989250D01*
X6318670Y1976540D01*
X6312240Y1965960D01*
X6280070Y1944790D01*
X6265590Y1929980D01*
X6255930Y1908810D01*
X6252720Y1889760D01*
X6320280D01*
G01X6385470Y1995590D02*
X6395130Y2008290D01*
X6406390Y2014640D01*
X6419260Y2016760D01*
X6435340Y2012530D01*
X6446610Y2001940D01*
X6449820Y1989250D01*
X6448210Y1976540D01*
X6441780Y1965960D01*
X6409610Y1944790D01*
X6395130Y1929980D01*
X6385470Y1908810D01*
X6382260Y1889760D01*
X6449820D01*
G01X5938010Y2174240D02*
X5970190D01*
Y2136140D01*
X5960530Y2123440D01*
X5949270Y2114970D01*
X5933190Y2110740D01*
X5917100Y2114970D01*
X5905840Y2123440D01*
X5896190Y2136140D01*
X5889750Y2150960D01*
X5886530Y2167890D01*
Y2182710D01*
X5889750Y2195400D01*
X5896190Y2210230D01*
X5905840Y2222920D01*
X5915490Y2231390D01*
X5928360Y2237740D01*
X5939620D01*
X5952490Y2233510D01*
X5962140Y2225040D01*
G01X6020900Y2110740D02*
Y2237740D01*
X6094900Y2110740D01*
Y2237740D01*
G01X6152050Y2110740D02*
Y2237740D01*
X6184220D01*
X6197090Y2231390D01*
X6206740Y2222920D01*
X6214790Y2210230D01*
X6221220Y2195400D01*
X6222830Y2174240D01*
X6221220Y2153070D01*
X6214790Y2138250D01*
X6206740Y2125550D01*
X6197090Y2117090D01*
X6184220Y2110740D01*
X6152050D01*
G01X6185070Y2166620D02*
Y2075600D01*
X6191500Y2056550D01*
X6204370Y2043850D01*
X6220460Y2039620D01*
X6236550Y2043850D01*
X6249420Y2056550D01*
X6255850Y2075600D01*
Y2166620D01*
G01X6350000Y2039620D02*
Y2166620D01*
X6330700Y2141220D01*
G01Y2039620D02*
X6369300D01*
G01X6498840D02*
Y2166620D01*
X6439320Y2075600D01*
X6519760D01*
G01X6992920Y2192020D02*
Y2471420D01*
X6192920D01*
Y2192020D01*
X6992920D01*
G01D02*
Y2471420D01*
X6192920D01*
Y2192020D01*
X6992920D01*
G01X6632460Y92800D02*
X6636350Y96730D01*
X6639270Y103290D01*
X6641220Y112480D01*
X6639270Y120350D01*
X6635380Y125600D01*
X6628560Y129540D01*
X6602280D01*
Y50800D01*
X6634410D01*
X6641220Y56050D01*
X6645120Y63920D01*
X6647060Y73110D01*
X6645120Y82290D01*
X6639270Y90170D01*
X6632460Y92800D01*
X6602280D01*
G01X6703410Y50800D02*
Y129540D01*
X6691730Y113790D01*
G01Y50800D02*
X6715090D01*
G01X6793830D02*
Y129540D01*
X6757810Y73110D01*
X6806490D01*
G01X6886460Y97880D02*
X6890350Y101810D01*
X6893270Y108370D01*
X6895220Y117560D01*
X6893270Y125430D01*
X6889380Y130680D01*
X6882560Y134620D01*
X6856280D01*
Y55880D01*
X6888410D01*
X6895220Y61130D01*
X6899120Y69000D01*
X6901060Y78190D01*
X6899120Y87370D01*
X6893270Y95250D01*
X6886460Y97880D01*
X6856280D01*
G01X6957410Y55880D02*
Y134620D01*
X6945730Y118870D01*
G01Y55880D02*
X6969090D01*
G01X7014730Y67690D02*
X7020570Y61130D01*
X7027390Y57190D01*
X7036150Y55880D01*
X7044910Y58500D01*
X7051730Y63750D01*
X7056600Y72940D01*
X7057570Y83440D01*
X7055620Y93940D01*
X7050750Y100500D01*
X7043940Y105750D01*
X7037120Y107060D01*
X7030310Y105750D01*
X7021550Y100500D01*
X7024470Y134620D01*
X7050750D01*
G01X6505360Y683260D02*
X6545580Y810260D01*
X6585800Y683260D01*
G01X6571320Y727710D02*
X6519840D01*
G01X6675120Y683260D02*
Y810260D01*
X6655820Y784860D01*
G01Y683260D02*
X6694420D01*
G01X6804660D02*
Y810260D01*
X6785360Y784860D01*
G01Y683260D02*
X6823960D01*
G01X6728880Y952500D02*
X6769100Y1079500D01*
X6809320Y952500D01*
G01X6794840Y996950D02*
X6743360D01*
G01X6898640Y952500D02*
Y1079500D01*
X6879340Y1054100D01*
G01Y952500D02*
X6917940D01*
G01X6997610Y1058330D02*
X7007270Y1071030D01*
X7018530Y1077380D01*
X7031400Y1079500D01*
X7047480Y1075270D01*
X7058750Y1064680D01*
X7061960Y1051990D01*
X7060350Y1039280D01*
X7053920Y1028700D01*
X7021750Y1007530D01*
X7007270Y992720D01*
X6997610Y971550D01*
X6994400Y952500D01*
X7061960D01*
G01X6800690Y2175510D02*
X6820170D01*
Y2151890D01*
X6814320Y2144010D01*
X6807510Y2138760D01*
X6797770Y2136140D01*
X6788030Y2138760D01*
X6781220Y2144010D01*
X6775380Y2151890D01*
X6771480Y2161070D01*
X6769530Y2171570D01*
Y2180760D01*
X6771480Y2188630D01*
X6775380Y2197820D01*
X6781220Y2205690D01*
X6787060Y2210940D01*
X6794850Y2214880D01*
X6801670D01*
X6809450Y2212260D01*
X6815300Y2207010D01*
G01X6851200Y2136140D02*
Y2214880D01*
X6895980Y2136140D01*
Y2214880D01*
G01X6930910Y2136140D02*
Y2214880D01*
X6950380D01*
X6958170Y2210940D01*
X6964010Y2205690D01*
X6968880Y2197820D01*
X6972780Y2188630D01*
X6973750Y2175510D01*
X6972780Y2162390D01*
X6968880Y2153200D01*
X6964010Y2145320D01*
X6958170Y2140080D01*
X6950380Y2136140D01*
X6930910D01*
M02*
