G04 ================== begin FILE IDENTIFICATION RECORD ==================*
G04 Layout Name:  E:/«∂»Î Ω/git/PCB/boardv2_0/BBear_balance_carv2_0.brd*
G04 Film Name:    BOTTOM*
G04 File Format:  Gerber RS274X*
G04 File Origin:  Cadence Allegro 16.6-P004*
G04 Origin Date:  Sun Oct 23 00:39:26 2016*
G04 *
G04 Layer:  ETCH/BOTTOM*
G04 Layer:  PIN/BOTTOM*
G04 Layer:  VIA CLASS/BOTTOM*
G04 *
G04 Offset:    (0.00 0.00)*
G04 Mirror:    No*
G04 Mode:      Positive*
G04 Rotation:  0*
G04 FullContactRelief:  No*
G04 UndefLineWidth:     6.00*
G04 ================== end FILE IDENTIFICATION RECORD ====================*
%FSLAX25Y25*MOIN*%
%IR0*IPPOS*OFA0.00000B0.00000*MIA0B0*SFA1.00000B1.00000*%
%AMMACRO15*
4,1,40,.0128,-.0285,
-.0128,-.0285,
-.01348,-.028438,
-.014139,-.028258,
-.014756,-.027967,
-.015314,-.027573,
-.015794,-.027088,
-.016184,-.026527,
-.016469,-.025907,
-.016643,-.025247,
-.0167,-.0246,
-.0167,.0246,
-.016638,.02528,
-.016458,.025939,
-.016167,.026556,
-.015773,.027114,
-.015288,.027594,
-.014727,.027984,
-.014107,.028269,
-.013447,.028443,
-.0128,.0285,
.0128,.0285,
.01348,.028438,
.014139,.028258,
.014756,.027967,
.015314,.027573,
.015794,.027088,
.016184,.026527,
.016469,.025907,
.016643,.025247,
.0167,.0246,
.0167,-.0246,
.016638,-.02528,
.016458,-.025939,
.016167,-.026556,
.015773,-.027114,
.015288,-.027594,
.014727,-.027984,
.014107,-.028269,
.013447,-.028443,
.0128,-.0285,
0.0*
%
%ADD15MACRO15*%
%ADD11C,.024*%
%ADD13C,.075*%
%ADD12C,.093*%
%ADD14C,.0728*%
%ADD16C,.07087*%
%ADD10R,.0728X.0728*%
%ADD17R,.07087X.07087*%
%AMMACRO18*
4,1,40,-.0128,.0285,
.0128,.0285,
.01348,.028438,
.014139,.028258,
.014756,.027967,
.015314,.027573,
.015794,.027088,
.016184,.026527,
.016469,.025907,
.016643,.025247,
.0167,.0246,
.0167,-.0246,
.016638,-.02528,
.016458,-.025939,
.016167,-.026556,
.015773,-.027114,
.015288,-.027594,
.014727,-.027984,
.014107,-.028269,
.013447,-.028443,
.0128,-.0285,
-.0128,-.0285,
-.01348,-.028438,
-.014139,-.028258,
-.014756,-.027967,
-.015314,-.027573,
-.015794,-.027088,
-.016184,-.026527,
-.016469,-.025907,
-.016643,-.025247,
-.0167,-.0246,
-.0167,.0246,
-.016638,.02528,
-.016458,.025939,
-.016167,.026556,
-.015773,.027114,
-.015288,.027594,
-.014727,.027984,
-.014107,.028269,
-.013447,.028443,
-.0128,.0285,
0.0*
%
%ADD18MACRO18*%
%ADD19C,.01*%
%ADD20C,.03*%
%ADD21C,.008*%
%ADD26C,.0809*%
%ADD24C,.08504*%
%ADD25C,.08284*%
%ADD23C,.10304*%
%ADD27R,.0809X.0809*%
%ADD22R,.08284X.08284*%
G75*
%LPD*%
G75*
G36*
G01X-98799Y-48799D02*
Y48799D01*
X98799D01*
Y-41360D01*
G02X98039Y-41534I-400J0D01*
G03Y-45066I-3639J-1766D01*
G02X98799Y-45240I360J-174D01*
G01Y-48799D01*
X-98799D01*
G37*
%LPC*%
G75*
G36*
G01X64630Y24439D02*
G02X63739Y23548I-893J2D01*
G01X61177D01*
G02X60286Y24439I3J894D01*
G01Y29361D01*
G02X61177Y30252I893J-2D01*
G01X63739D01*
G02X64630Y29361I-3J-894D01*
G01Y24439D01*
G37*
G36*
G01X-12455Y47045D02*
Y38955D01*
X-20545D01*
Y41998D01*
X-21459D01*
X-21559Y42098D01*
X-26955D01*
Y39055D01*
X-35045D01*
Y47145D01*
X-26955D01*
Y44102D01*
X-20545D01*
Y47045D01*
X-12455D01*
G37*
G36*
G01X77253Y41066D02*
X77181Y40935D01*
X80315Y37802D01*
X89215D01*
X89733Y37284D01*
X89827Y37293D01*
G02X88298Y35599I173J-1693D01*
G01Y35798D01*
X79485D01*
X75765Y39519D01*
X75634Y39447D01*
G02X77253Y41066I-1934J3553D01*
G37*
G36*
G01X80030Y29561D02*
Y24639D01*
G02X79139Y23748I-893J2D01*
G01X76577D01*
G02X75686Y24639I3J894D01*
G01Y26098D01*
X73027D01*
X72827Y25898D01*
X71914D01*
Y24439D01*
G02X71023Y23548I-893J2D01*
G01X68461D01*
G02X67570Y24439I3J894D01*
G01Y29361D01*
G02X68461Y30252I893J-2D01*
G01X71023D01*
G02X71914Y29361I-3J-894D01*
G01Y28167D01*
X72160Y28065D01*
X72197Y28102D01*
X75686D01*
Y29561D01*
G02X76577Y30452I893J-2D01*
G01X79139D01*
G02X80030Y29561I-3J-894D01*
G37*
G36*
G01X76826Y21346D02*
X76920Y21337D01*
X77794Y22210D01*
X80016D01*
X82970Y25165D01*
Y29561D01*
G02X83861Y30452I893J-2D01*
G01X86423D01*
G02X87314Y29561I-3J-894D01*
G01Y24639D01*
G02X86423Y23748I-893J2D01*
G01X84387D01*
X80846Y20208D01*
X78624D01*
X78337Y19920D01*
X78346Y19826D01*
G02X76826Y21346I-1693J-173D01*
G37*
G36*
G01X69156Y15198D02*
X28344D01*
G02Y17002I-1444J902D01*
G01X69156D01*
G02Y15198I1444J-902D01*
G37*
G36*
G01X23576Y12402D02*
X90415D01*
X93833Y8984D01*
X93927Y8993D01*
G02X92407Y7473I173J-1693D01*
G01X92416Y7567D01*
X89585Y10398D01*
X23576D01*
G02Y12402I-1376J1002D01*
G37*
G36*
G01X-940Y-11856D02*
X-9079D01*
G02Y-9854I-1376J1001D01*
G01X-1770D01*
X-1315Y-9398D01*
X-76D01*
G02Y-11402I1376J-1002D01*
G01X-485D01*
X-940Y-11856D01*
G37*
G36*
G01X-69907Y-7073D02*
X-69916Y-7167D01*
X-67230Y-9854D01*
X-52421D01*
G02Y-11856I1376J-1001D01*
G01X-68060D01*
X-71333Y-8584D01*
X-71427Y-8593D01*
G02X-69907Y-7073I-173J1693D01*
G37*
G36*
G01X-71685Y-698D02*
X19215D01*
X28915Y-10398D01*
X47424D01*
G02Y-12402I1376J-1002D01*
G01X28085D01*
X18385Y-2702D01*
X-72515D01*
X-74033Y-1184D01*
X-74127Y-1193D01*
G02X-72607Y327I-173J1693D01*
G01X-72616Y233D01*
X-71685Y-698D01*
G37*
G36*
G01X-23555Y-13898D02*
X1985D01*
X10385Y-5498D01*
X19915D01*
X28315Y-13898D01*
X61585D01*
X65116Y-10367D01*
X65107Y-10273D01*
G02X66627Y-11793I1693J173D01*
G01X66533Y-11784D01*
X62415Y-15902D01*
X27485D01*
X19085Y-7502D01*
X11215D01*
X2815Y-15902D01*
X-22725D01*
X-31399Y-24576D01*
G03X-31117Y-25258I283J-282D01*
G01X-28858D01*
Y-33542D01*
X-37142D01*
Y-25258D01*
X-34002D01*
Y-24345D01*
X-23555Y-13898D01*
G37*
G36*
G01X82824Y-34602D02*
X65276D01*
G02Y-32598I-1376J1002D01*
G01X82824D01*
G02Y-34602I1376J-1002D01*
G37*
G36*
G01X61015Y-36498D02*
X77524D01*
G02Y-38502I1376J-1002D01*
G01X60185D01*
X58985Y-37302D01*
X42476D01*
G02Y-35298I-1376J1002D01*
G01X59815D01*
X61015Y-36498D01*
G37*
G36*
G01X80315Y-11102D02*
X75285D01*
X68385Y-4202D01*
X53885D01*
X45685Y3998D01*
X18415D01*
X16215Y1798D01*
X2776D01*
G02Y3802I-1376J1002D01*
G01X15385D01*
X15899Y4316D01*
G03X15617Y4998I-283J282D01*
G01X12785D01*
X-2215Y19998D01*
X-37524D01*
G02X-39903Y22375I-1376J1002D01*
G03X-40138Y23098I-235J323D01*
G01X-44186D01*
Y21539D01*
G02X-45077Y20648I-893J2D01*
G01X-47639D01*
G02X-48530Y21539I3J894D01*
G01Y26461D01*
G02X-47639Y27352I893J-2D01*
G01X-45077D01*
G02X-44186Y26461I-3J-894D01*
G01Y24902D01*
X-37142D01*
Y28498D01*
X-49049D01*
X-51470Y26077D01*
Y21539D01*
G02X-52361Y20648I-893J2D01*
G01X-54923D01*
G02X-55814Y21539I3J894D01*
G01Y26461D01*
G02X-54923Y27352I893J-2D01*
G01X-52745D01*
X-49795Y30302D01*
X-37142D01*
Y33542D01*
X-28858D01*
Y24902D01*
X-27973D01*
X-27873Y25002D01*
X-26673D01*
X-24496Y27179D01*
G02X-23221Y25904I3496J2221D01*
G01X-25927Y23198D01*
X-27127D01*
X-27227Y23098D01*
X-37662D01*
G03X-37897Y22375I0J-400D01*
G02X-37524Y22002I-1002J-1375D01*
G01X-1385D01*
X13615Y7002D01*
X16039D01*
X16840Y7802D01*
X47260D01*
X55261Y-198D01*
X74115D01*
X78233Y-4316D01*
X78327Y-4307D01*
G02X76807Y-5827I173J-1693D01*
G01X76816Y-5733D01*
X73285Y-2202D01*
X70183D01*
G03X69901Y-2884I1J-400D01*
G01X76115Y-9098D01*
X79485D01*
X82154Y-6429D01*
Y-4571D01*
X80854Y-3271D01*
Y-2671D01*
X80567Y-2384D01*
X80473Y-2393D01*
G02X81993Y-873I-173J1693D01*
G01X81984Y-967D01*
X82858Y-1841D01*
Y-2441D01*
X84158Y-3741D01*
Y-7259D01*
X80315Y-11102D01*
G37*
G36*
G01X-58224Y4398D02*
G02Y6402I-1376J1002D01*
G01X-22415D01*
X-20344Y8472D01*
G03X-20627Y9155I-283J283D01*
G01X-28245D01*
Y17245D01*
X-20155D01*
Y9627D01*
G03X-19472Y9344I400J0D01*
G01X-17679Y11137D01*
G02X-16134Y9647I3480J2062D01*
G01X-16265Y9719D01*
X-21585Y4398D01*
X-58224D01*
G37*
G36*
G01X32558Y19140D02*
X7458D01*
G02X5934Y22439I0J2002D01*
G03X5629Y23098I-305J259D01*
G01X-4273D01*
X-4573Y23398D01*
X-5273D01*
X-7133Y25258D01*
X-14142D01*
Y33542D01*
X-5858D01*
Y26533D01*
X-4527Y25202D01*
X-3827D01*
X-3527Y24902D01*
X43D01*
G03X215Y25662I-1J400D01*
G02X4090Y32976I1786J3737D01*
G01X4223Y32898D01*
X7527Y36202D01*
X43895D01*
X52745Y27352D01*
X54923D01*
G02X55814Y26461I-3J-894D01*
G01Y21539D01*
G02X54923Y20648I-893J2D01*
G01X52361D01*
G02X51470Y21539I3J894D01*
G01Y26077D01*
X43149Y34398D01*
X8273D01*
X5498Y31623D01*
X5576Y31490D01*
G02X3785Y25662I-3576J-2090D01*
G03X3957Y24902I173J-360D01*
G01X44186D01*
Y26461D01*
G02X45077Y27352I893J-2D01*
G01X47639D01*
G02X48530Y26461I-3J-894D01*
G01Y21539D01*
G02X47639Y20648I-893J2D01*
G01X45077D01*
G02X44186Y21539I3J894D01*
G01Y23098D01*
X34387D01*
G03X34082Y22439I0J-400D01*
G02X32558Y19140I-1524J-1297D01*
G37*
G36*
G01X16501Y-40143D02*
G02X12299I-2101J-3457D01*
G03X12092Y-39402I-208J341D01*
G01X10585D01*
X4136Y-32952D01*
X4004Y-33025D01*
G02X5625Y-31404I-2004J3625D01*
G01X5552Y-31536D01*
X11415Y-37398D01*
X11535D01*
G03X11793Y-36693I0J400D01*
G02X12386Y-30092I2607J3093D01*
G03X12186Y-29346I-200J346D01*
G01X9729D01*
X3385Y-23002D01*
X-6825D01*
X-8399Y-24576D01*
G03X-8117Y-25258I283J-282D01*
G01X-5858D01*
Y-33542D01*
X-14142D01*
Y-25258D01*
X-11002D01*
Y-24345D01*
X-7655Y-20998D01*
X4215D01*
X10559Y-27342D01*
X11470D01*
G03X11734Y-26642I0J400D01*
G02Y-20558I2666J3042D01*
G03X11470Y-19858I-264J300D01*
G01X-15641D01*
X-19998Y-24215D01*
Y-25378D01*
X-19854Y-25420D01*
G02X-22146I-1146J-3980D01*
G01X-22002Y-25378D01*
Y-23385D01*
X-16471Y-17854D01*
X10355D01*
Y-9555D01*
X18445D01*
Y-17854D01*
X30771D01*
X37915Y-24998D01*
X38665D01*
G03X38857Y-24248I-1J400D01*
G02X42743I1943J3548D01*
G03X42935Y-24998I193J-350D01*
G01X60085D01*
X67916Y-17167D01*
X67907Y-17073D01*
G02X69427Y-18593I1693J173D01*
G01X69333Y-18584D01*
X61257Y-26660D01*
G03X61539Y-27342I283J-282D01*
G01X63641D01*
X73616Y-17367D01*
X73607Y-17273D01*
G02X75127Y-18793I1693J173D01*
G01X75033Y-18784D01*
X65101Y-28716D01*
G03X65383Y-29398I283J-282D01*
G01X67885D01*
X79916Y-17367D01*
X79907Y-17273D01*
G02X81427Y-18793I1693J173D01*
G01X81333Y-18784D01*
X68715Y-31402D01*
X42815D01*
X35442Y-38774D01*
G03X35606Y-39439I283J-283D01*
G02X31905Y-40116I-1206J-3861D01*
G03X31658Y-39402I-247J314D01*
G01X28445D01*
Y-47345D01*
X20355D01*
Y-39402D01*
X16708D01*
G03X16501Y-40143I1J-400D01*
G37*
G54D26*
X-51000Y43100D03*
X-41000D03*
X-6500Y43000D03*
X-4200Y13200D03*
X3500Y43000D03*
X44400Y-43300D03*
X40800Y-1015D03*
X74400Y-43300D03*
X64400D03*
X54400D03*
X83700Y43000D03*
X84400Y-43300D03*
X93700Y43000D03*
G54D24*
X-87158Y34400D03*
X-69442D03*
G54D25*
X-63000Y-42400D03*
X46500Y42800D03*
G54D23*
X-92080Y24557D03*
X-64520D03*
G54D27*
X63700Y43000D03*
G54D22*
X-75000Y-42400D03*
X34500Y42800D03*
%LPD*%
G75*
G36*
G01X41073Y-29346D02*
G02X41355Y-30028I-1J-400D01*
G01X33985Y-37398D01*
X17265D01*
G02X17007Y-36693I0J400D01*
G03X16414Y-30092I-2607J3093D01*
G02X16614Y-29346I200J346D01*
G01X41073D01*
G37*
G36*
G01X17330Y-27342D02*
G02X17066Y-26642I0J400D01*
G03Y-20558I-2666J3042D01*
G02X17330Y-19858I264J300D01*
G01X29941D01*
X36743Y-26660D01*
G02X36461Y-27342I-283J-282D01*
G01X17330D01*
G37*
G54D10*
X-75000Y-42400D03*
X-10000Y-29400D03*
X-33000D03*
X-10000Y29400D03*
X-33000D03*
X34500Y42800D03*
G54D20*
G01X32558Y21142D02*
X7458D01*
G54D11*
X-71600Y-6900D03*
X-74300Y500D03*
X-51045Y-10855D03*
X-59600Y5400D03*
X-38900Y21000D03*
X-10455Y-10855D03*
X1300Y-10400D03*
X1400Y2800D03*
X7458Y21142D03*
X41100Y-36300D03*
X25500Y-33800D03*
X48800Y-11400D03*
X32558Y21142D03*
X26900Y16100D03*
X22200Y11400D03*
X78900Y-37500D03*
X63900Y-33600D03*
X81600Y-17100D03*
X75300D03*
X69600Y-16900D03*
X66800Y-10100D03*
X78500Y-6000D03*
X80300Y-700D03*
X76653Y19653D03*
X70600Y16100D03*
X84200Y-33600D03*
X94100Y7300D03*
X90000Y35600D03*
G54D21*
G01X-73894Y34400D02*
X-69442D01*
G01X-63000Y-46742D02*
Y-42400D01*
G01D02*
Y-38058D01*
G01X-67342Y-42400D02*
X-63000D01*
G01D02*
X-58658D01*
G01X-33000Y29400D02*
X-49422D01*
X-53642Y25180D01*
Y24000D01*
G01X-46358D02*
X-27600D01*
X-27500Y24100D01*
X-26300D01*
X-21000Y29400D01*
G01X-51000Y38854D02*
Y43100D01*
G01D02*
Y47346D01*
G01X-55246Y43100D02*
X-51000D01*
G01D02*
X-46754D01*
G01X-69442Y29948D02*
Y34400D01*
G01D02*
Y38852D01*
G01Y34400D02*
X-64990D01*
G01X46358Y24000D02*
X-3900D01*
X-4200Y24300D01*
X-4900D01*
X-10000Y29400D01*
G01X10154Y-23600D02*
X14400D01*
G01D02*
X18646D01*
G01X53642Y24000D02*
Y25180D01*
X43522Y35300D01*
X7900D01*
X2000Y29400D01*
G01X3500Y38754D02*
Y43000D01*
G01D02*
Y47246D01*
G01X-746Y43000D02*
X3500D01*
G01D02*
X7746D01*
G01X34400Y-47546D02*
Y-43300D01*
G01X30154D02*
X34400D01*
G01D02*
X38646D01*
G01X26900Y16100D02*
X70600D01*
G01X34500Y38458D02*
Y42800D01*
G01D02*
Y47142D01*
G01X30158Y42800D02*
X34500D01*
G01D02*
X38842D01*
G01X62458Y23348D02*
Y26900D01*
G01D02*
Y30452D01*
G01X60086Y26900D02*
X62458D01*
G01D02*
X64830D01*
G01X93700Y38754D02*
Y43000D01*
G01D02*
Y47246D01*
G01X89454Y43000D02*
X93700D01*
G01D02*
X97946D01*
G54D12*
X-92080Y24557D03*
X-64520D03*
G54D13*
X-87158Y34400D03*
X-69442D03*
G54D14*
X-63000Y-42400D03*
X-21000Y-29400D03*
Y29400D03*
X2000Y-29400D03*
Y29400D03*
X46500Y42800D03*
G54D15*
X-46358Y24000D03*
X-53642D03*
X46358D03*
X53642D03*
X69742Y26900D03*
X62458D03*
G54D16*
X-51000Y43100D03*
X-41000D03*
X-14200Y13200D03*
X-6500Y43000D03*
X14400Y-43600D03*
Y-33600D03*
Y-23600D03*
X-4200Y13200D03*
X3500Y43000D03*
X44400Y-43300D03*
X34400D03*
X40800Y-20700D03*
Y-1015D03*
X74400Y-43300D03*
X64400D03*
X54400D03*
X83700Y43000D03*
X73700D03*
X94400Y-43300D03*
X84400D03*
X93700Y43000D03*
G54D17*
X-24200Y13200D03*
X-31000Y43100D03*
X-16500Y43000D03*
X14400Y-13600D03*
X24400Y-43300D03*
X63700Y43000D03*
G54D18*
X77858Y27100D03*
X85142D03*
G54D19*
G01X-51045Y-10855D02*
X-67645D01*
X-71600Y-6900D01*
G01X-74300Y500D02*
X-72100Y-1700D01*
X18800D01*
X28500Y-11400D01*
X48800D01*
G01X-59600Y5400D02*
X-22000D01*
X-14200Y13200D01*
G01X75300Y-17100D02*
X64056Y-28344D01*
X10144D01*
X3800Y-22000D01*
X-7240D01*
X-10000Y-24760D01*
Y-29400D01*
G01X69600Y-16900D02*
X60500Y-26000D01*
X37500D01*
X30356Y-18856D01*
X-16056D01*
X-21000Y-23800D01*
Y-29400D01*
G01X66800Y-10100D02*
X62000Y-14900D01*
X27900D01*
X19500Y-6500D01*
X10800D01*
X2400Y-14900D01*
X-23140D01*
X-33000Y-24760D01*
Y-29400D01*
G01X-10455Y-10855D02*
X-1355D01*
X-900Y-10400D01*
X1300D01*
G01X78500Y-6000D02*
X73700Y-1200D01*
X54846D01*
X46845Y6801D01*
X17255D01*
X16454Y6000D01*
X13200D01*
X-1800Y21000D01*
X-38900D01*
G01X-31000Y43100D02*
X-21144D01*
X-21044Y43000D01*
X-16500D01*
G01X81600Y-17100D02*
X68300Y-30400D01*
X42400D01*
X34400Y-38400D01*
X11000D01*
X2000Y-29400D01*
G01X80300Y-700D02*
X81856Y-2256D01*
Y-2856D01*
X83156Y-4156D01*
Y-6844D01*
X79900Y-10100D01*
X75700D01*
X68800Y-3200D01*
X54300D01*
X46100Y5000D01*
X18000D01*
X15800Y2800D01*
X1400D01*
G01X78900Y-37500D02*
X60600D01*
X59400Y-36300D01*
X41100D01*
G01X22200Y11400D02*
X90000D01*
X94100Y7300D01*
G01X63900Y-33600D02*
X84200D01*
G01X76653Y19653D02*
X78209Y21209D01*
X80431D01*
X85142Y25920D01*
Y27100D01*
G01X90000Y35600D02*
X88800Y36800D01*
X79900D01*
X73700Y43000D01*
G01X77858Y27100D02*
X72612D01*
X72412Y26900D01*
X69742D01*
M02*
