G04 ================== begin FILE IDENTIFICATION RECORD ==================*
G04 Layout Name:  E:/«∂»Î Ω/git/PCB/boardv2_0/BBear_balance_carv2_0.brd*
G04 Film Name:    SILKSCREEN_BOTTOM*
G04 File Format:  Gerber RS274X*
G04 File Origin:  Cadence Allegro 16.6-P004*
G04 Origin Date:  Sun Oct 23 00:39:26 2016*
G04 *
G04 Layer:  PACKAGE GEOMETRY/SILKSCREEN_BOTTOM*
G04 Layer:  MANUFACTURING/AUTOSILK_BOTTOM*
G04 Layer:  BOARD GEOMETRY/SILKSCREEN_BOTTOM*
G04 *
G04 Offset:    (0.00 0.00)*
G04 Mirror:    No*
G04 Mode:      Positive*
G04 Rotation:  0*
G04 FullContactRelief:  No*
G04 UndefLineWidth:     6.00*
G04 ================== end FILE IDENTIFICATION RECORD ====================*
%FSLAX25Y25*MOIN*%
%IR0*IPPOS*OFA0.00000B0.00000*MIA0B0*SFA1.00000B1.00000*%
%ADD10C,.006*%
%ADD11C,.00787*%
G75*
%LPD*%
G75*
G54D10*
G01X-43140Y19100D02*
Y14800D01*
X-43460Y13900D01*
X-44100Y13300D01*
X-44900Y13100D01*
X-45700Y13300D01*
X-46340Y13900D01*
X-46660Y14800D01*
Y19100D01*
G01X-49700Y13100D02*
Y19100D01*
X-48740Y17900D01*
G01Y13100D02*
X-50660D01*
G01X-54500Y19100D02*
X-53860Y18900D01*
X-53380Y18400D01*
X-53060Y17800D01*
X-52820Y17000D01*
X-52740Y16100D01*
X-52820Y15200D01*
X-53060Y14400D01*
X-53380Y13800D01*
X-53860Y13300D01*
X-54500Y13100D01*
X-55140Y13300D01*
X-55620Y13800D01*
X-55940Y14400D01*
X-56180Y15200D01*
X-56260Y16100D01*
X-56180Y17000D01*
X-55940Y17800D01*
X-55620Y18400D01*
X-55140Y18900D01*
X-54500Y19100D01*
G01X57960Y19900D02*
Y15600D01*
X57640Y14700D01*
X57000Y14100D01*
X56200Y13900D01*
X55400Y14100D01*
X54760Y14700D01*
X54440Y15600D01*
Y19900D01*
G01X51400Y13900D02*
Y19900D01*
X52360Y18700D01*
G01Y13900D02*
X50440D01*
G01X48360Y15100D02*
X47880Y14400D01*
X47240Y14000D01*
X46520Y13900D01*
X45880Y14000D01*
X45240Y14500D01*
X44840Y15100D01*
X44760Y15700D01*
X44920Y16400D01*
X45480Y16900D01*
X46040Y17100D01*
X46760D01*
G01X46040D02*
X45560Y17400D01*
X45160Y17900D01*
X45000Y18500D01*
X45160Y19100D01*
X45560Y19600D01*
X46280Y19900D01*
X47000Y19800D01*
X47720Y19400D01*
G01X88500Y22400D02*
Y16400D01*
X85300D01*
G01X80500D02*
X83700D01*
Y22400D01*
X80500D01*
G01X81780Y19500D02*
X83700D01*
G01X79060Y16400D02*
Y22400D01*
X77460D01*
X76820Y22100D01*
X76340Y21700D01*
X75940Y21100D01*
X75620Y20400D01*
X75540Y19400D01*
X75620Y18400D01*
X75940Y17700D01*
X76340Y17100D01*
X76820Y16700D01*
X77460Y16400D01*
X79060D01*
G01X72500D02*
Y22400D01*
X73460Y21200D01*
G01Y16400D02*
X71540D01*
G01X67700Y16700D02*
Y22700D01*
X65700D01*
X65060Y22400D01*
X64660Y22000D01*
X64500Y21200D01*
X64660Y20400D01*
X65140Y19900D01*
X65700Y19600D01*
X67700D01*
G01X65700D02*
X64500Y16700D01*
G01X60340D02*
Y22700D01*
X63300Y18400D01*
X59300D01*
G54D11*
G01X-50000Y26854D02*
Y21146D01*
G01Y26854D02*
Y21146D01*
G01X50000Y26854D02*
Y21146D01*
G01Y26854D02*
Y21146D01*
G01X66100Y29754D02*
Y24046D01*
G01Y29754D02*
Y24046D01*
G01X81500Y24246D02*
Y29954D01*
G01Y24246D02*
Y29954D01*
M02*
