G04 ================== begin FILE IDENTIFICATION RECORD ==================*
G04 Layout Name:  E:/«∂»Î Ω/git/PCB/boardv2_0/BBear_balance_carv2_0.brd*
G04 Film Name:    SILKSCREEN_TOP*
G04 File Format:  Gerber RS274X*
G04 File Origin:  Cadence Allegro 16.6-P004*
G04 Origin Date:  Sun Oct 23 00:39:26 2016*
G04 *
G04 Layer:  PACKAGE GEOMETRY/SILKSCREEN_TOP*
G04 Layer:  MANUFACTURING/AUTOSILK_TOP*
G04 Layer:  BOARD GEOMETRY/SILKSCREEN_TOP*
G04 *
G04 Offset:    (0.00 0.00)*
G04 Mirror:    No*
G04 Mode:      Positive*
G04 Rotation:  0*
G04 FullContactRelief:  No*
G04 UndefLineWidth:     6.00*
G04 ================== end FILE IDENTIFICATION RECORD ====================*
%FSLAX25Y25*MOIN*%
%IR0*IPPOS*OFA0.00000B0.00000*MIA0B0*SFA1.00000B1.00000*%
%ADD10C,.01575*%
%ADD11C,.006*%
%ADD12C,.00984*%
%ADD13C,.00787*%
G75*
%LPD*%
G75*
G54D10*
G01X65629Y-142D02*
G02I-787J0D01*
G01D02*
G03I-787J0D01*
G54D11*
G01X-76727Y-34000D02*
X-74487D01*
G01X-75700Y-32375D02*
Y-35625D01*
G01X-89893Y-40500D02*
Y-44083D01*
X-89640Y-44833D01*
X-89133Y-45333D01*
X-88500Y-45500D01*
X-87867Y-45333D01*
X-87360Y-44833D01*
X-87107Y-44083D01*
Y-40500D01*
G01X-83527Y-45500D02*
X-83400Y-44417D01*
X-83210Y-43500D01*
X-82957Y-42667D01*
X-82640Y-41750D01*
X-82133Y-40500D01*
X-84667D01*
G01X-58000Y-47900D02*
Y-36900D01*
X-80000D01*
Y-47900D01*
X-58000D01*
G01D02*
Y-36900D01*
X-80000D01*
Y-47900D01*
X-58000D01*
G01X-89900Y-3700D02*
X-95900D01*
Y-6900D01*
G01Y-11700D02*
Y-8500D01*
X-89900D01*
Y-11700D01*
G01X-92800Y-10420D02*
Y-8500D01*
G01X-95900Y-13140D02*
X-89900D01*
Y-14740D01*
X-90200Y-15380D01*
X-90600Y-15860D01*
X-91200Y-16260D01*
X-91900Y-16580D01*
X-92900Y-16660D01*
X-93900Y-16580D01*
X-94600Y-16260D01*
X-95200Y-15860D01*
X-95600Y-15380D01*
X-95900Y-14740D01*
Y-13140D01*
G01X-90900Y-18180D02*
X-90300Y-18660D01*
X-90000Y-19220D01*
X-89900Y-19860D01*
X-90100Y-20660D01*
X-90600Y-21220D01*
X-91200Y-21380D01*
X-91800Y-21300D01*
X-92300Y-20980D01*
X-93300Y-19380D01*
X-94000Y-18660D01*
X-95000Y-18180D01*
X-95900Y-18020D01*
Y-21380D01*
G01X-84900Y-27700D02*
Y-21700D01*
X-82900D01*
X-82260Y-22000D01*
X-81860Y-22400D01*
X-81700Y-23200D01*
X-81860Y-24000D01*
X-82340Y-24500D01*
X-82900Y-24800D01*
X-84900D01*
G01X-82900D02*
X-81700Y-27700D01*
G01X-80260Y-26800D02*
X-79780Y-27300D01*
X-79220Y-27600D01*
X-78500Y-27700D01*
X-77780Y-27500D01*
X-77220Y-27100D01*
X-76820Y-26400D01*
X-76740Y-25600D01*
X-76900Y-24800D01*
X-77300Y-24300D01*
X-77860Y-23900D01*
X-78420Y-23800D01*
X-78980Y-23900D01*
X-79700Y-24300D01*
X-79460Y-21700D01*
X-77300D01*
G01X-63930Y44243D02*
X-92670D01*
Y18652D01*
X-63930D01*
Y44243D01*
G01X-92670Y19945D02*
Y18652D01*
X-63930D01*
Y19945D01*
G01X-66940Y4100D02*
X-67420Y4400D01*
X-67980Y4600D01*
X-68620D01*
X-69340Y4300D01*
X-69900Y3800D01*
X-70300Y3200D01*
X-70620Y2200D01*
X-70700Y1300D01*
X-70540Y400D01*
X-70300Y-200D01*
X-69820Y-800D01*
X-69260Y-1200D01*
X-68700Y-1400D01*
X-68140D01*
X-67580Y-1200D01*
X-67100Y-900D01*
X-66700Y-500D01*
G01X-65660D02*
X-65180Y-1000D01*
X-64620Y-1300D01*
X-63900Y-1400D01*
X-63180Y-1200D01*
X-62620Y-800D01*
X-62220Y-100D01*
X-62140Y700D01*
X-62300Y1500D01*
X-62700Y2000D01*
X-63260Y2400D01*
X-63820Y2500D01*
X-64380Y2400D01*
X-65100Y2000D01*
X-64860Y4600D01*
X-62700D01*
G01X-91900Y-500D02*
Y5500D01*
X-89900D01*
X-89260Y5200D01*
X-88860Y4800D01*
X-88700Y4000D01*
X-88860Y3200D01*
X-89340Y2700D01*
X-89900Y2400D01*
X-91900D01*
G01X-89900D02*
X-88700Y-500D01*
G01X-87260Y700D02*
X-86780Y0D01*
X-86140Y-400D01*
X-85420Y-500D01*
X-84780Y-400D01*
X-84140Y100D01*
X-83740Y700D01*
X-83660Y1300D01*
X-83820Y2000D01*
X-84380Y2500D01*
X-84940Y2700D01*
X-85660D01*
G01X-84940D02*
X-84460Y3000D01*
X-84060Y3500D01*
X-83900Y4100D01*
X-84060Y4700D01*
X-84460Y5200D01*
X-85180Y5500D01*
X-85900Y5400D01*
X-86620Y5000D01*
G01X-95973Y40700D02*
Y47000D01*
G01X-92997D02*
X-95973Y43115D01*
G01X-92527Y40700D02*
X-94642Y44900D01*
G01X-87950Y40700D02*
Y47000D01*
X-88890Y45740D01*
G01Y40700D02*
X-87010D01*
G01X-71410Y44243D02*
Y48180D01*
X-85190D01*
Y44243D01*
G01X-63930D02*
X-92670D01*
Y29169D01*
G01X-71410Y44243D02*
Y48180D01*
X-85190D01*
Y44243D01*
G01X-64313Y-34100D02*
X-61887D01*
G01X-51040Y-23400D02*
X-51520Y-23100D01*
X-52080Y-22900D01*
X-52720D01*
X-53440Y-23200D01*
X-54000Y-23700D01*
X-54400Y-24300D01*
X-54720Y-25300D01*
X-54800Y-26200D01*
X-54640Y-27100D01*
X-54400Y-27700D01*
X-53920Y-28300D01*
X-53360Y-28700D01*
X-52800Y-28900D01*
X-52240D01*
X-51680Y-28700D01*
X-51200Y-28400D01*
X-50800Y-28000D01*
G01X-49360Y-28200D02*
X-48800Y-28700D01*
X-48160Y-28900D01*
X-47520Y-28700D01*
X-46960Y-28100D01*
X-46560Y-27200D01*
X-46400Y-26300D01*
Y-25200D01*
X-46560Y-24300D01*
X-46960Y-23500D01*
X-47440Y-23100D01*
X-48000Y-22900D01*
X-48640Y-23100D01*
X-49120Y-23500D01*
X-49440Y-24100D01*
X-49600Y-24900D01*
X-49440Y-25600D01*
X-49040Y-26300D01*
X-48560Y-26700D01*
X-48000Y-26800D01*
X-47360Y-26600D01*
X-46880Y-26100D01*
X-46400Y-25200D01*
G01X-44117Y7600D02*
Y1300D01*
X-40983D01*
G01X-36250D02*
Y7600D01*
X-37190Y6340D01*
G01Y1300D02*
X-35310D01*
G01X-53200Y18500D02*
Y24500D01*
X-51200D01*
X-50560Y24200D01*
X-50160Y23800D01*
X-50000Y23000D01*
X-50160Y22200D01*
X-50640Y21700D01*
X-51200Y21400D01*
X-53200D01*
G01X-51200D02*
X-50000Y18500D01*
G01X-48320Y23500D02*
X-47840Y24100D01*
X-47280Y24400D01*
X-46640Y24500D01*
X-45840Y24300D01*
X-45280Y23800D01*
X-45120Y23200D01*
X-45200Y22600D01*
X-45520Y22100D01*
X-47120Y21100D01*
X-47840Y20400D01*
X-48320Y19400D01*
X-48480Y18500D01*
X-45120D01*
G01X-63930Y29169D02*
Y44243D01*
G01X-63193Y46700D02*
Y43117D01*
X-62940Y42367D01*
X-62433Y41867D01*
X-61800Y41700D01*
X-61167Y41867D01*
X-60660Y42367D01*
X-60407Y43117D01*
Y46700D01*
G01X-58093Y42450D02*
X-57713Y42033D01*
X-57270Y41783D01*
X-56700Y41700D01*
X-56130Y41867D01*
X-55687Y42200D01*
X-55370Y42783D01*
X-55307Y43450D01*
X-55433Y44117D01*
X-55750Y44533D01*
X-56193Y44867D01*
X-56637Y44950D01*
X-57080Y44867D01*
X-57650Y44533D01*
X-57460Y46700D01*
X-55750D01*
G01X-56748Y48600D02*
Y37600D01*
X-25252D01*
Y48600D01*
X-56748D01*
G01D02*
Y37600D01*
X-25252D01*
Y48600D01*
X-56748D01*
G01X-10693Y-38300D02*
Y-41883D01*
X-10440Y-42633D01*
X-9933Y-43133D01*
X-9300Y-43300D01*
X-8667Y-43133D01*
X-8160Y-42633D01*
X-7907Y-41883D01*
Y-38300D01*
G01X-4200Y-43300D02*
Y-38300D01*
X-4960Y-39300D01*
G01Y-43300D02*
X-3440D01*
G01X900D02*
Y-38300D01*
X140Y-39300D01*
G01Y-43300D02*
X1660D01*
G01X-33593Y-37500D02*
Y-41083D01*
X-33340Y-41833D01*
X-32833Y-42333D01*
X-32200Y-42500D01*
X-31567Y-42333D01*
X-31060Y-41833D01*
X-30807Y-41083D01*
Y-37500D01*
G01X-27100Y-42500D02*
X-26657Y-42417D01*
X-26150Y-42167D01*
X-25833Y-41750D01*
X-25707Y-41167D01*
X-25833Y-40583D01*
X-26213Y-40083D01*
X-26783Y-39833D01*
X-27417D01*
X-27797Y-39667D01*
X-28113Y-39250D01*
X-28240Y-38667D01*
X-28050Y-38083D01*
X-27607Y-37667D01*
X-27100Y-37500D01*
X-26593Y-37667D01*
X-26150Y-38083D01*
X-25960Y-38667D01*
X-26087Y-39250D01*
X-26403Y-39667D01*
X-26783Y-39833D01*
X-27417D01*
X-27987Y-40083D01*
X-28367Y-40583D01*
X-28493Y-41167D01*
X-28367Y-41750D01*
X-28050Y-42167D01*
X-27543Y-42417D01*
X-27100Y-42500D01*
G01X-23500Y-2300D02*
Y-19600D01*
X-35900D01*
Y-2300D01*
X-23500D01*
G01D02*
X-35900D01*
Y-19600D01*
X-23500D01*
Y-2300D01*
G01X7000Y-34900D02*
Y-23900D01*
X-15000D01*
Y-34900D01*
X7000D01*
G01D02*
Y-23900D01*
X-15000D01*
Y-34900D01*
X7000D01*
G01X-16000D02*
Y-23900D01*
X-38000D01*
Y-34900D01*
X-16000D01*
G01D02*
Y-23900D01*
X-38000D01*
Y-34900D01*
X-16000D01*
G01X1548Y7700D02*
Y18700D01*
X-29948D01*
Y7700D01*
X1548D01*
G01D02*
Y18700D01*
X-29948D01*
Y7700D01*
X1548D01*
G01X7000Y23900D02*
Y34900D01*
X-15000D01*
Y23900D01*
X7000D01*
G01D02*
Y34900D01*
X-15000D01*
Y23900D01*
X7000D01*
G01X-28793Y24400D02*
Y20817D01*
X-28540Y20067D01*
X-28033Y19567D01*
X-27400Y19400D01*
X-26767Y19567D01*
X-26260Y20067D01*
X-26007Y20817D01*
Y24400D01*
G01X-23377Y19983D02*
X-22933Y19567D01*
X-22427Y19400D01*
X-21920Y19567D01*
X-21477Y20067D01*
X-21160Y20817D01*
X-21033Y21567D01*
Y22483D01*
X-21160Y23233D01*
X-21477Y23900D01*
X-21857Y24233D01*
X-22300Y24400D01*
X-22807Y24233D01*
X-23187Y23900D01*
X-23440Y23400D01*
X-23567Y22733D01*
X-23440Y22150D01*
X-23123Y21567D01*
X-22743Y21233D01*
X-22300Y21150D01*
X-21793Y21317D01*
X-21413Y21733D01*
X-21033Y22483D01*
G01X-16000Y23900D02*
Y34900D01*
X-38000D01*
Y23900D01*
X-16000D01*
G01D02*
Y34900D01*
X-38000D01*
Y23900D01*
X-16000D01*
G01X9248Y37500D02*
Y48500D01*
X-22248D01*
Y37500D01*
X9248D01*
G01D02*
Y48500D01*
X-22248D01*
Y37500D01*
X9248D01*
G01X8900Y-48285D02*
X19900D01*
Y-8915D01*
X8900D01*
Y-48285D01*
G01D02*
X19900D01*
Y-8915D01*
X8900D01*
Y-48285D01*
G01X-593Y-16000D02*
Y-19583D01*
X-340Y-20333D01*
X167Y-20833D01*
X800Y-21000D01*
X1433Y-20833D01*
X1940Y-20333D01*
X2193Y-19583D01*
Y-16000D01*
G01X4507Y-20000D02*
X4887Y-20583D01*
X5393Y-20917D01*
X5963Y-21000D01*
X6470Y-20917D01*
X6977Y-20500D01*
X7293Y-20000D01*
X7357Y-19500D01*
X7230Y-18917D01*
X6787Y-18500D01*
X6343Y-18333D01*
X5773D01*
G01X6343D02*
X6723Y-18083D01*
X7040Y-17667D01*
X7167Y-17167D01*
X7040Y-16667D01*
X6723Y-16250D01*
X6153Y-16000D01*
X5583Y-16083D01*
X5013Y-16417D01*
G01X3307Y12800D02*
Y9217D01*
X3560Y8467D01*
X4067Y7967D01*
X4700Y7800D01*
X5333Y7967D01*
X5840Y8467D01*
X6093Y9217D01*
Y12800D01*
G01X10560Y7800D02*
Y12800D01*
X8217Y9217D01*
X11383D01*
G01X13200Y19900D02*
Y25900D01*
X15200D01*
X15840Y25600D01*
X16240Y25200D01*
X16400Y24400D01*
X16240Y23600D01*
X15760Y23100D01*
X15200Y22800D01*
X13200D01*
G01X15200D02*
X16400Y19900D01*
G01X19600D02*
Y25900D01*
X18640Y24700D01*
G01Y19900D02*
X20560D01*
G01X16860Y4900D02*
X16380Y5200D01*
X15820Y5400D01*
X15180D01*
X14460Y5100D01*
X13900Y4600D01*
X13500Y4000D01*
X13180Y3000D01*
X13100Y2100D01*
X13260Y1200D01*
X13500Y600D01*
X13980Y0D01*
X14540Y-400D01*
X15100Y-600D01*
X15660D01*
X16220Y-400D01*
X16700Y-100D01*
X17100Y300D01*
G01X18380Y1900D02*
X18940Y2600D01*
X19420Y3000D01*
X20060Y3200D01*
X20620Y3000D01*
X21020Y2600D01*
X21340Y2000D01*
X21420Y1300D01*
X21340Y700D01*
X21020Y100D01*
X20540Y-400D01*
X19980Y-600D01*
X19340Y-400D01*
X18780Y200D01*
X18460Y1100D01*
X18380Y2100D01*
X18540Y3400D01*
X18780Y4100D01*
X19180Y4800D01*
X19740Y5300D01*
X20300Y5400D01*
X20860Y5200D01*
X21260Y4700D01*
G01X-8793Y24700D02*
Y21117D01*
X-8540Y20367D01*
X-8033Y19867D01*
X-7400Y19700D01*
X-6767Y19867D01*
X-6260Y20367D01*
X-6007Y21117D01*
Y24700D01*
G01X-2300Y19700D02*
Y24700D01*
X-3060Y23700D01*
G01Y19700D02*
X-1540D01*
G01X1597Y23867D02*
X1977Y24367D01*
X2420Y24617D01*
X2927Y24700D01*
X3560Y24533D01*
X4003Y24117D01*
X4130Y23617D01*
X4067Y23117D01*
X3813Y22700D01*
X2547Y21867D01*
X1977Y21283D01*
X1597Y20450D01*
X1470Y19700D01*
X4130D01*
G01X12607Y47300D02*
Y43717D01*
X12860Y42967D01*
X13367Y42467D01*
X14000Y42300D01*
X14633Y42467D01*
X15140Y42967D01*
X15393Y43717D01*
Y47300D01*
G01X17897Y46467D02*
X18277Y46967D01*
X18720Y47217D01*
X19227Y47300D01*
X19860Y47133D01*
X20303Y46717D01*
X20430Y46217D01*
X20367Y45717D01*
X20113Y45300D01*
X18847Y44467D01*
X18277Y43883D01*
X17897Y43050D01*
X17770Y42300D01*
X20430D01*
G01X29570Y-35233D02*
X30077Y-35650D01*
X30647Y-35900D01*
X31153D01*
X31660Y-35650D01*
X32040Y-35233D01*
X32230Y-34650D01*
X32103Y-34067D01*
X31787Y-33567D01*
X31217Y-33233D01*
X30457Y-33067D01*
X30013Y-32733D01*
X29823Y-32150D01*
X29950Y-31567D01*
X30267Y-31150D01*
X30710Y-30900D01*
X31153D01*
X31597Y-31067D01*
X31977Y-31483D01*
G01X36000Y-35900D02*
Y-30900D01*
X35240Y-31900D01*
G01Y-35900D02*
X36760D01*
G01X96900Y-48800D02*
Y-37800D01*
X21900D01*
Y-48800D01*
X96900D01*
G01X77738Y-37800D02*
X21900D01*
Y-39756D01*
G01Y-46844D02*
Y-48800D01*
X96900D01*
G01X26460Y-10900D02*
X25980Y-10600D01*
X25420Y-10400D01*
X24780D01*
X24060Y-10700D01*
X23500Y-11200D01*
X23100Y-11800D01*
X22780Y-12800D01*
X22700Y-13700D01*
X22860Y-14600D01*
X23100Y-15200D01*
X23580Y-15800D01*
X24140Y-16200D01*
X24700Y-16400D01*
X25260D01*
X25820Y-16200D01*
X26300Y-15900D01*
X26700Y-15500D01*
G01X29340Y-16400D02*
X29500Y-15100D01*
X29740Y-14000D01*
X30060Y-13000D01*
X30460Y-11900D01*
X31100Y-10400D01*
X27900D01*
G01X43060Y-27100D02*
X42580Y-26800D01*
X42020Y-26600D01*
X41380D01*
X40660Y-26900D01*
X40100Y-27400D01*
X39700Y-28000D01*
X39380Y-29000D01*
X39300Y-29900D01*
X39460Y-30800D01*
X39700Y-31400D01*
X40180Y-32000D01*
X40740Y-32400D01*
X41300Y-32600D01*
X41860D01*
X42420Y-32400D01*
X42900Y-32100D01*
X43300Y-31700D01*
G01X46100Y-32600D02*
Y-26600D01*
X45140Y-27800D01*
G01Y-32600D02*
X47060D01*
G01X42500Y-13430D02*
X37500Y-10770D01*
G01Y-13430D02*
X42500Y-10770D01*
G01Y-7000D02*
X37500D01*
X38500Y-7760D01*
G01X42500D02*
Y-6240D01*
G01X45721Y-16763D02*
Y-4952D01*
X35879D01*
Y-16763D01*
X45721D01*
G01D02*
Y-4952D01*
X35879D01*
Y-16763D01*
X45721D01*
G01X31960Y15000D02*
X31480Y15300D01*
X30920Y15500D01*
X30280D01*
X29560Y15200D01*
X29000Y14700D01*
X28600Y14100D01*
X28280Y13100D01*
X28200Y12200D01*
X28360Y11300D01*
X28600Y10700D01*
X29080Y10100D01*
X29640Y9700D01*
X30200Y9500D01*
X30760D01*
X31320Y9700D01*
X31800Y10000D01*
X32200Y10400D01*
G01X35000Y9500D02*
X35560Y9600D01*
X36200Y9900D01*
X36600Y10400D01*
X36760Y11100D01*
X36600Y11800D01*
X36120Y12400D01*
X35400Y12700D01*
X34600D01*
X34120Y12900D01*
X33720Y13400D01*
X33560Y14100D01*
X33800Y14800D01*
X34360Y15300D01*
X35000Y15500D01*
X35640Y15300D01*
X36200Y14800D01*
X36440Y14100D01*
X36280Y13400D01*
X35880Y12900D01*
X35400Y12700D01*
X34600D01*
X33880Y12400D01*
X33400Y11800D01*
X33240Y11100D01*
X33400Y10400D01*
X33800Y9900D01*
X34440Y9600D01*
X35000Y9500D01*
G01X44860Y10100D02*
X44380Y10400D01*
X43820Y10600D01*
X43180D01*
X42460Y10300D01*
X41900Y9800D01*
X41500Y9200D01*
X41180Y8200D01*
X41100Y7300D01*
X41260Y6400D01*
X41500Y5800D01*
X41980Y5200D01*
X42540Y4800D01*
X43100Y4600D01*
X43660D01*
X44220Y4800D01*
X44700Y5100D01*
X45100Y5500D01*
G01X46380Y9600D02*
X46860Y10200D01*
X47420Y10500D01*
X48060Y10600D01*
X48860Y10400D01*
X49420Y9900D01*
X49580Y9300D01*
X49500Y8700D01*
X49180Y8200D01*
X47580Y7200D01*
X46860Y6500D01*
X46380Y5500D01*
X46220Y4600D01*
X49580D01*
G01X24073Y43300D02*
X26313D01*
G01X25100Y44925D02*
Y41675D01*
G01X30093Y31383D02*
X29713Y31633D01*
X29270Y31800D01*
X28763D01*
X28193Y31550D01*
X27750Y31133D01*
X27433Y30633D01*
X27180Y29800D01*
X27117Y29050D01*
X27243Y28300D01*
X27433Y27800D01*
X27813Y27300D01*
X28257Y26967D01*
X28700Y26800D01*
X29143D01*
X29587Y26967D01*
X29967Y27217D01*
X30283Y27550D01*
G01X33800Y26800D02*
Y31800D01*
X33040Y30800D01*
G01Y26800D02*
X34560D01*
G01X38900Y31800D02*
X38393Y31633D01*
X38013Y31217D01*
X37760Y30717D01*
X37570Y30050D01*
X37507Y29300D01*
X37570Y28550D01*
X37760Y27883D01*
X38013Y27383D01*
X38393Y26967D01*
X38900Y26800D01*
X39407Y26967D01*
X39787Y27383D01*
X40040Y27883D01*
X40230Y28550D01*
X40293Y29300D01*
X40230Y30050D01*
X40040Y30717D01*
X39787Y31217D01*
X39407Y31633D01*
X38900Y31800D01*
G01X51500Y37300D02*
Y48300D01*
X29500D01*
Y37300D01*
X51500D01*
G01D02*
Y48300D01*
X29500D01*
Y37300D01*
X51500D01*
G01X74200Y22314D02*
X69900D01*
X69000Y21994D01*
X68400Y21354D01*
X68200Y20554D01*
X68400Y19754D01*
X69000Y19114D01*
X69900Y18794D01*
X74200D01*
G01X68200Y15754D02*
X74200D01*
X73000Y16714D01*
G01X68200D02*
Y14794D01*
G01X54687Y43400D02*
X57113D01*
G01X60760Y36467D02*
X61450Y34400D01*
X62140Y36467D01*
G01X65163Y36208D02*
X64895Y36415D01*
X64665Y36467D01*
X64358Y36363D01*
X64128Y36157D01*
X63975Y35795D01*
X63937Y35433D01*
X63975Y35072D01*
X64128Y34762D01*
X64358Y34503D01*
X64665Y34400D01*
X64933Y34503D01*
X65163Y34710D01*
G01X68263Y36208D02*
X67995Y36415D01*
X67765Y36467D01*
X67458Y36363D01*
X67228Y36157D01*
X67075Y35795D01*
X67037Y35433D01*
X67075Y35072D01*
X67228Y34762D01*
X67458Y34503D01*
X67765Y34400D01*
X68033Y34503D01*
X68263Y34710D01*
G01X69807Y33800D02*
Y36900D01*
X70573D01*
X70880Y36745D01*
X71110Y36538D01*
X71302Y36228D01*
X71455Y35867D01*
X71493Y35350D01*
X71455Y34833D01*
X71302Y34472D01*
X71110Y34162D01*
X70880Y33955D01*
X70573Y33800D01*
X69807D01*
G01X73290Y36900D02*
X74210D01*
G01X73750D02*
Y33800D01*
G01X73290D02*
X74210D01*
G01X76850D02*
X76543Y33852D01*
X76275Y34058D01*
X76045Y34368D01*
X75892Y34730D01*
X75815Y35143D01*
Y35557D01*
X75892Y35970D01*
X76045Y36332D01*
X76275Y36642D01*
X76543Y36848D01*
X76850Y36900D01*
X77157Y36848D01*
X77425Y36642D01*
X77655Y36332D01*
X77808Y35970D01*
X77885Y35557D01*
Y35143D01*
X77808Y34730D01*
X77655Y34368D01*
X77425Y34058D01*
X77157Y33852D01*
X76850Y33800D01*
G01X81593Y36442D02*
X81363Y36597D01*
X81095Y36700D01*
X80788D01*
X80443Y36545D01*
X80175Y36287D01*
X79983Y35977D01*
X79830Y35460D01*
X79792Y34995D01*
X79868Y34530D01*
X79983Y34220D01*
X80213Y33910D01*
X80482Y33703D01*
X80750Y33600D01*
X81018D01*
X81287Y33703D01*
X81517Y33858D01*
X81708Y34065D01*
G01X83083Y36700D02*
Y33600D01*
X84617D01*
G01X86107D02*
Y36700D01*
G01X87563D02*
X86107Y34788D01*
G01X87793Y33600D02*
X86758Y35667D01*
G01X50807Y34900D02*
Y31317D01*
X51060Y30567D01*
X51567Y30067D01*
X52200Y29900D01*
X52833Y30067D01*
X53340Y30567D01*
X53593Y31317D01*
Y34900D01*
G01X56097Y31983D02*
X56540Y32567D01*
X56920Y32900D01*
X57427Y33067D01*
X57870Y32900D01*
X58187Y32567D01*
X58440Y32067D01*
X58503Y31483D01*
X58440Y30983D01*
X58187Y30483D01*
X57807Y30067D01*
X57363Y29900D01*
X56857Y30067D01*
X56413Y30567D01*
X56160Y31317D01*
X56097Y32150D01*
X56223Y33233D01*
X56413Y33817D01*
X56730Y34400D01*
X57173Y34817D01*
X57617Y34900D01*
X58060Y34733D01*
X58377Y34317D01*
G01X98385Y37500D02*
Y48500D01*
X59015D01*
Y37500D01*
X98385D01*
G01D02*
Y48500D01*
X59015D01*
Y37500D01*
X98385D01*
G01X96900Y-48800D02*
Y-45811D01*
G01Y-40789D02*
Y-37800D01*
X80062D01*
G01X88693Y-36458D02*
X88463Y-36303D01*
X88195Y-36200D01*
X87888D01*
X87543Y-36355D01*
X87275Y-36613D01*
X87083Y-36923D01*
X86930Y-37440D01*
X86892Y-37905D01*
X86968Y-38370D01*
X87083Y-38680D01*
X87313Y-38990D01*
X87582Y-39197D01*
X87850Y-39300D01*
X88118D01*
X88387Y-39197D01*
X88617Y-39042D01*
X88808Y-38835D01*
G01X90107Y-38680D02*
X90337Y-39042D01*
X90643Y-39248D01*
X90988Y-39300D01*
X91295Y-39248D01*
X91602Y-38990D01*
X91793Y-38680D01*
X91832Y-38370D01*
X91755Y-38008D01*
X91487Y-37750D01*
X91218Y-37647D01*
X90873D01*
G01X91218D02*
X91448Y-37492D01*
X91640Y-37233D01*
X91717Y-36923D01*
X91640Y-36613D01*
X91448Y-36355D01*
X91103Y-36200D01*
X90758Y-36252D01*
X90413Y-36458D01*
G01X92960Y29400D02*
X92480Y29700D01*
X91920Y29900D01*
X91280D01*
X90560Y29600D01*
X90000Y29100D01*
X89600Y28500D01*
X89280Y27500D01*
X89200Y26600D01*
X89360Y25700D01*
X89600Y25100D01*
X90080Y24500D01*
X90640Y24100D01*
X91200Y23900D01*
X91760D01*
X92320Y24100D01*
X92800Y24400D01*
X93200Y24800D01*
G01X96960Y23900D02*
Y29900D01*
X94000Y25600D01*
X98000D01*
G01X95080Y35250D02*
X95847D01*
Y34320D01*
X95617Y34010D01*
X95348Y33803D01*
X94965Y33700D01*
X94582Y33803D01*
X94313Y34010D01*
X94083Y34320D01*
X93930Y34682D01*
X93853Y35095D01*
Y35457D01*
X93930Y35767D01*
X94083Y36128D01*
X94313Y36438D01*
X94543Y36645D01*
X94850Y36800D01*
X95118D01*
X95425Y36697D01*
X95655Y36490D01*
G54D12*
G01X57361Y4484D02*
G02I-492J0D01*
G01D02*
G03X57042Y4945I-493J0D01*
G01X56598Y4896D02*
G03X56377Y4484I274J-412D01*
G01D02*
G03X56869Y3992I492J0D01*
G01D02*
G03X57361Y4484I0J492D01*
G54D13*
G01X-80700Y-3946D02*
Y-9654D01*
G01Y-3946D02*
Y-9654D01*
G01X-80800Y-15046D02*
Y-20754D01*
G01Y-15046D02*
Y-20754D01*
G01X-70700Y6446D02*
Y12154D01*
G01Y6446D02*
Y12154D01*
G01X-88500Y12254D02*
Y6546D01*
G01Y12254D02*
Y6546D01*
G01X-62454Y-23600D02*
X-56746D01*
G01X-62454D02*
X-56746D01*
G01X-49300Y31954D02*
Y26246D01*
G01Y31954D02*
Y26246D01*
G01X15500Y32954D02*
Y27246D01*
G01Y32954D02*
Y27246D01*
G01X24046Y-24300D02*
X29754D01*
G01X24046D02*
X29754D01*
G01X42954Y17500D02*
X37246D01*
G01X42954D02*
X37246D01*
G01X29354Y2800D02*
X23646D01*
G01X29354D02*
X23646D01*
G01X77046Y-31047D02*
G02I-393J0D01*
G01X52046Y-15890D02*
G02I-393J0D01*
G01X61692Y-21008D02*
X85708D01*
Y3008D01*
X61692D01*
Y-21008D01*
G01D02*
X85708D01*
Y3008D01*
X61692D01*
Y-21008D01*
G01X52046Y-15890D02*
G03I-393J0D01*
G01X77046Y-31047D02*
G03I-393J0D01*
G01X53600Y-28446D02*
Y-34154D01*
G01Y-28446D02*
Y-34154D01*
G01X79015Y13047D02*
G02I-394J0D01*
G01X52046Y1827D02*
G02I-393J0D01*
G01D02*
G03I-393J0D01*
G01X79015Y13047D02*
G03I-394J0D01*
G01X56554Y10700D02*
X50846D01*
G01X56554D02*
X50846D01*
G01X96141Y-9984D02*
G02I-394J0D01*
G01D02*
G03I-394J0D01*
G01X90346Y-30000D02*
X96054D01*
G01X90346D02*
X96054D01*
G01X94854Y15700D02*
X89146D01*
G01X94854D02*
X89146D01*
M02*
