G04 ================== begin FILE IDENTIFICATION RECORD ==================*
G04 Layout Name:  E:/«∂»Î Ω/git/PCB_MCU/boardv4_020170213/BBear_balance_carv2_0.brd*
G04 Film Name:    BOTTOM*
G04 File Format:  Gerber RS274X*
G04 File Origin:  Cadence Allegro 16.6-P004*
G04 Origin Date:  Sat Feb 25 13:04:05 2017*
G04 *
G04 Layer:  ETCH/BOTTOM*
G04 Layer:  PIN/BOTTOM*
G04 Layer:  VIA CLASS/BOTTOM*
G04 *
G04 Offset:    (0.00 0.00)*
G04 Mirror:    No*
G04 Mode:      Positive*
G04 Rotation:  0*
G04 FullContactRelief:  No*
G04 UndefLineWidth:     6.00*
G04 ================== end FILE IDENTIFICATION RECORD ====================*
%FSLAX25Y25*MOIN*%
%IR0*IPPOS*OFA0.00000B0.00000*MIA0B0*SFA1.00000B1.00000*%
%ADD15C,.024*%
%ADD16C,.0728*%
%ADD14R,.05906X.11811*%
%ADD11C,.07087*%
%ADD13R,.0728X.0728*%
%ADD12R,.07087X.07087*%
%AMMACRO17*
4,1,40,-.0128,.0285,
.0128,.0285,
.01348,.028438,
.014139,.028258,
.014756,.027967,
.015314,.027573,
.015794,.027088,
.016184,.026527,
.016469,.025907,
.016643,.025247,
.0167,.0246,
.0167,-.0246,
.016638,-.02528,
.016458,-.025939,
.016167,-.026556,
.015773,-.027114,
.015288,-.027594,
.014727,-.027984,
.014107,-.028269,
.013447,-.028443,
.0128,-.0285,
-.0128,-.0285,
-.01348,-.028438,
-.014139,-.028258,
-.014756,-.027967,
-.015314,-.027573,
-.015794,-.027088,
-.016184,-.026527,
-.016469,-.025907,
-.016643,-.025247,
-.0167,-.0246,
-.0167,.0246,
-.016638,.02528,
-.016458,.025939,
-.016167,.026556,
-.015773,.027114,
-.015288,.027594,
-.014727,.027984,
-.014107,.028269,
-.013447,.028443,
-.0128,.0285,
0.0*
%
%ADD17MACRO17*%
%ADD10C,.15748*%
%ADD18C,.01*%
%ADD19C,.008*%
%ADD21C,.0809*%
%ADD24C,.08284*%
%ADD20R,.06908X.12814*%
%ADD22C,.16752*%
%ADD23R,.0809X.0809*%
%ADD25R,.08284X.08284*%
G75*
%LPD*%
G75*
G36*
G01X-137400Y-48800D02*
X-138800Y-47400D01*
Y47400D01*
X-137400Y48800D01*
X-129502D01*
X-129501Y48799D01*
X137401D01*
X138700Y47500D01*
Y-47100D01*
X137001Y-48799D01*
X98241D01*
G02X97959Y-48116I1J400D01*
G01X100598Y-45477D01*
Y-43637D01*
X100602Y-43633D01*
Y-42265D01*
X100598Y-42247D01*
Y-41598D01*
X100885D01*
X100944Y-41661D01*
G03X104950Y-34994I2956J2761D01*
G01X104802Y-34954D01*
Y-34083D01*
X104702Y-33983D01*
Y-32927D01*
X102074Y-30300D01*
Y-23000D01*
X101802Y-22727D01*
Y-22448D01*
X101886Y-22388D01*
G03X99998Y-22444I-986J1388D01*
G01Y-23473D01*
X100272Y-23746D01*
Y-31046D01*
X102898Y-33673D01*
Y-34729D01*
X102994Y-34825D01*
X102816Y-35003D01*
X102767Y-35017D01*
G03X101115Y-35967I1134J-3883D01*
G02X100440Y-35677I-275J290D01*
G01Y-35573D01*
X100000Y-35133D01*
Y-35131D01*
X99902Y-35033D01*
Y-35031D01*
X99702Y-34831D01*
Y-34829D01*
X94986Y-30114D01*
Y-30112D01*
X94261Y-29386D01*
X94278Y-29284D01*
G03X92884Y-30678I-1678J284D01*
G01X92986Y-30661D01*
X93184Y-30858D01*
Y-30860D01*
X97898Y-35575D01*
Y-35577D01*
X98098Y-35777D01*
Y-35779D01*
X98196Y-35877D01*
Y-35879D01*
X98635Y-36318D01*
X98346Y-36607D01*
Y-41189D01*
X98794Y-41637D01*
Y-42445D01*
X98798Y-42463D01*
Y-42868D01*
X98426D01*
X98400Y-42698D01*
G03X91734Y-46342I-4000J-602D01*
G02X91470Y-47042I-264J-300D01*
G01X87330D01*
G02X87066Y-46342I0J400D01*
G03X81734I-2666J3042D01*
G02X81470Y-47042I-264J-300D01*
G01X77330D01*
G02X77066Y-46342I0J400D01*
G03X77007Y-40207I-2666J3042D01*
G02X77265Y-39502I258J305D01*
G01X77824D01*
G03Y-37498I1376J1002D01*
G01X62015D01*
X59815Y-35298D01*
X42476D01*
G03X42294Y-35087I-1376J-1002D01*
G02X42574Y-34402I280J285D01*
G01X58976D01*
X59176Y-34602D01*
X68415D01*
X80363Y-22654D01*
G02X81046Y-22936I283J-283D01*
G01Y-32313D01*
X82295D01*
G02X82657Y-32882I-1J-400D01*
G03X82507Y-33772I1543J-718D01*
G01X82517Y-33866D01*
X82185Y-34198D01*
X73185D01*
X73085Y-34298D01*
X72679D01*
X72619Y-34224D01*
G03X72676Y-36302I-1319J-1076D01*
G01X73915D01*
X74015Y-36202D01*
X83015D01*
X83933Y-35284D01*
X84028Y-35293D01*
G03X85743Y-32882I172J1693D01*
G02X86105Y-32313I363J169D01*
G01X87954D01*
Y-19499D01*
X80802D01*
Y-18315D01*
X81833Y-17284D01*
X81928Y-17293D01*
G03X80404Y-15745I172J1693D01*
G01X80405Y-15751D01*
X80406Y-15766D01*
X80416Y-15867D01*
X78798Y-17485D01*
Y-21385D01*
X68637Y-31546D01*
G02X67955Y-31264I-282J283D01*
G01Y-19499D01*
X62732D01*
G02X62449Y-18816I0J400D01*
G01X64564Y-16702D01*
X69615D01*
X70363Y-15954D01*
G02X71046Y-16236I283J-283D01*
G01Y-20501D01*
X77954D01*
Y-7687D01*
X72195D01*
G02X71912Y-7004I0J400D01*
G01X73134Y-5783D01*
X73228Y-5793D01*
G03X71704Y-4245I172J1693D01*
G01X71705Y-4251D01*
X71706Y-4266D01*
X71716Y-4367D01*
X69198Y-6885D01*
Y-14285D01*
X68785Y-14698D01*
X63734D01*
X58424Y-20009D01*
Y-23860D01*
X57785Y-24498D01*
X50585D01*
X46885Y-28198D01*
X18015D01*
X14315Y-24498D01*
X7715D01*
X6215Y-22998D01*
X-9655D01*
X-11002Y-24345D01*
Y-25258D01*
X-14142D01*
Y-33542D01*
X-5858D01*
Y-25002D01*
X-154D01*
G02X35Y-25754I0J-400D01*
G03X4004Y-33025I1965J-3646D01*
G01X4136Y-32952D01*
X10585Y-39402D01*
X20355D01*
Y-47042D01*
X-21487D01*
G02X-21726Y-46322I0J400D01*
G03X-26674I-2474J3322D01*
G02X-26913Y-47042I-239J-320D01*
G01X-32058D01*
Y-38858D01*
X-40342D01*
Y-47042D01*
X-53829D01*
G02X-54012Y-46287I0J400D01*
G03X-57788I-1888J3687D01*
G02X-57971Y-47042I-183J-355D01*
G01X-63758D01*
Y-38458D01*
X-72042D01*
Y-47042D01*
X-84483D01*
X-98198Y-33327D01*
Y-20501D01*
X-95402D01*
Y-32673D01*
X-92373Y-35702D01*
X-50244D01*
G03Y-33898I1444J902D01*
G01X-91627D01*
X-93598Y-31927D01*
Y-20501D01*
X-91046D01*
Y-7687D01*
X-98198D01*
Y7687D01*
X-92321D01*
X-88332Y3698D01*
X-79144D01*
G03Y5502I1444J902D01*
G01X-87586D01*
X-91046Y8961D01*
Y20501D01*
X-98198D01*
Y37073D01*
X-102827Y41702D01*
X-103955D01*
Y44845D01*
X-112045D01*
Y36755D01*
X-103955D01*
Y39898D01*
X-103573D01*
X-100002Y36327D01*
Y-34073D01*
X-85959Y-48116D01*
G02X-86241Y-48799I-283J-283D01*
G01X-129301D01*
X-129302Y-48800D01*
X-137400D01*
G37*
G36*
G01X11415Y-37398D02*
X5552Y-31536D01*
X5625Y-31404D01*
G03X3965Y-25754I-3625J2004D01*
G02X4154Y-25002I189J352D01*
G01X5385D01*
X6885Y-26502D01*
X13485D01*
X17185Y-30201D01*
X22341D01*
G02X22482Y-30543I0J-200D01*
G01X22286Y-30739D01*
X22184Y-30722D01*
G03X23600Y-32482I-284J-1678D01*
G02X24000Y-32102I399J-20D01*
G01X36917D01*
G02X37199Y-32784I-1J-400D01*
G01X32585Y-37398D01*
X11415D01*
G37*
G36*
G01X37330Y-47042D02*
G02X37066Y-46342I0J400D01*
G03X34514Y-39257I-2666J3042D01*
G02X34242Y-38574I11J400D01*
G01X38415Y-34402D01*
X39626D01*
G02X39906Y-35087I0J-400D01*
G03X42476Y-37302I1194J-1213D01*
G01X58985D01*
X61185Y-39502D01*
X61535D01*
G02X61793Y-40207I0J-400D01*
G03X61734Y-46342I2607J-3093D01*
G02X61470Y-47042I-264J-300D01*
G01X57330D01*
G02X57066Y-46342I0J400D01*
G03X51734I-2666J3042D01*
G02X51470Y-47042I-264J-300D01*
G01X47330D01*
G02X47066Y-46342I0J400D01*
G03X41734I-2666J3042D01*
G02X41470Y-47042I-264J-300D01*
G01X37330D01*
G37*
G36*
G01X28445D02*
Y-39402D01*
X31658D01*
G02X31905Y-40116I0J-400D01*
G03X31734Y-46342I2495J-3184D01*
G02X31470Y-47042I-264J-300D01*
G01X28445D01*
G37*
%LPC*%
G75*
G36*
G01X-20627Y9155D02*
X-28245D01*
Y17245D01*
X-20155D01*
Y9627D01*
G03X-19472Y9344I400J0D01*
G01X-17679Y11137D01*
G02X-16134Y9647I3480J2062D01*
G01X-16265Y9719D01*
X-21585Y4398D01*
X-57685D01*
X-60442Y1641D01*
Y1441D01*
X-61316Y567D01*
X-61307Y473D01*
G02X-62827Y1993I-1693J-173D01*
G01X-62733Y1984D01*
X-62446Y2271D01*
Y2471D01*
X-58515Y6402D01*
X-22415D01*
X-20344Y8472D01*
G03X-20627Y9155I-283J283D01*
G37*
G36*
G01X-64424Y-5898D02*
X-64015D01*
X-63415Y-5298D01*
X-50541D01*
X-47898Y-7941D01*
Y-8085D01*
X-47398Y-8585D01*
Y-9824D01*
G02X-49402I-1002J-1376D01*
G01Y-9415D01*
X-49902Y-8915D01*
Y-8771D01*
X-50363Y-8310D01*
G03X-51046Y-8592I-283J-283D01*
G01Y-20501D01*
X-57954D01*
Y-7302D01*
X-62585D01*
X-63185Y-7902D01*
X-64424D01*
G02Y-5898I-1376J1002D01*
G37*
G36*
G01X126944Y7102D02*
X133873D01*
X137982Y2992D01*
Y-23792D01*
X136945Y-24830D01*
Y-31645D01*
X128855D01*
Y-23555D01*
X135670D01*
X136180Y-23046D01*
Y2246D01*
X133127Y5298D01*
X126944D01*
G02Y7102I-1444J902D01*
G37*
G36*
G01X-9079Y-9854D02*
X-1770D01*
X-1315Y-9398D01*
X-76D01*
G02Y-11402I1376J-1002D01*
G01X-485D01*
X-940Y-11856D01*
X-9079D01*
G02Y-9854I-1376J1001D01*
G37*
G36*
G01X94844Y6302D02*
X97427D01*
X100698Y9573D01*
Y27773D01*
X104927Y32002D01*
X108527D01*
X108598Y32073D01*
Y32173D01*
X116072Y39647D01*
X115996Y39780D01*
G02X117480Y38296I3504J2020D01*
G01X117347Y38372D01*
X110402Y31427D01*
Y31327D01*
X109273Y30198D01*
X105673D01*
X102502Y27027D01*
Y8827D01*
X98173Y4498D01*
X94844D01*
G02Y6302I-1444J902D01*
G37*
G36*
G01X-61802Y8644D02*
Y12473D01*
X-59279Y14996D01*
X-57954D01*
Y20501D01*
X-51046D01*
Y7687D01*
X-57954D01*
Y13192D01*
X-58533D01*
X-59998Y11727D01*
Y8644D01*
G02X-61802I-902J-1444D01*
G37*
G36*
G01X-50007Y31727D02*
X-50016Y31633D01*
X-40585Y22202D01*
X-11785D01*
X-6263Y16679D01*
G02X-7753Y15134I2062J-3480D01*
G01X-7681Y15265D01*
X-12615Y20198D01*
X-41415D01*
X-43557Y22340D01*
G03X-44240Y22058I-283J-283D01*
G01Y19644D01*
X-45416Y18467D01*
X-45407Y18373D01*
G02X-46927Y19893I-1693J-173D01*
G01X-46833Y19884D01*
X-46242Y20474D01*
Y25026D01*
X-51433Y30216D01*
X-51527Y30207D01*
G02X-50007Y31727I-173J1693D01*
G37*
G36*
G01X1276Y22102D02*
X1685D01*
X1727Y22144D01*
X31182D01*
G02Y20140I1376J-1002D01*
G01X2557D01*
X2515Y20098D01*
X1276D01*
G02Y22102I-1376J1002D01*
G37*
G36*
G01X-25051Y33407D02*
X-24902Y33446D01*
Y34327D01*
X-27973Y37398D01*
X-55186D01*
X-61046Y31539D01*
Y19499D01*
X-67954D01*
Y32313D01*
X-62821D01*
X-55932Y39202D01*
X-27227D01*
X-23098Y35073D01*
Y33446D01*
X-22949Y33407D01*
G02X-25051I-1051J-4007D01*
G37*
G36*
G01X77586Y40852D02*
X77665D01*
X81815Y36702D01*
X90714D01*
X93702Y33714D01*
Y27276D01*
G02X91698I-1002J-1376D01*
G01Y32884D01*
X89884Y34698D01*
X80985D01*
X76835Y38848D01*
X76235D01*
X75565Y39519D01*
X75434Y39447D01*
G02X77219Y41409I-1934J3553D01*
G03X77586Y40852I368J-157D01*
G37*
G36*
G01X117727Y-34001D02*
X111242D01*
G03X110959Y-34684I0J-400D01*
G01X111748Y-35473D01*
G02X113908Y-34854I2151J-3427D01*
G02X117943Y-38736I-7J-4045D01*
G02X110443Y-36798I-4043J-164D01*
G01X110472Y-36747D01*
X103798Y-30073D01*
Y-19073D01*
X102312Y-17586D01*
X101912D01*
X101186Y-16861D01*
X101084Y-16878D01*
G02X102478Y-15484I-284J1678D01*
G01X102461Y-15586D01*
X102658Y-15784D01*
X103058D01*
X105602Y-18327D01*
Y-29327D01*
X105816Y-29541D01*
G03X106498Y-29258I282J283D01*
G01Y-18273D01*
X103384Y-15158D01*
Y-11558D01*
X103186Y-11361D01*
X103084Y-11378D01*
G02X104478Y-9984I-284J1678D01*
G01X104461Y-10086D01*
X105186Y-10812D01*
Y-14412D01*
X108302Y-17527D01*
Y-29027D01*
X109153Y-29878D01*
X109399Y-29632D01*
X109330Y-29502D01*
G02X113905Y-23682I3570J1902D01*
G01X114015Y-23710D01*
X122027Y-15698D01*
X125456D01*
G02X128275Y-15597I1444J-902D01*
G03X128998Y-15362I323J235D01*
G01Y-3373D01*
X126727Y-1102D01*
X117124D01*
G03X116986Y-1877I1J-400D01*
G02X111172I-2907J-7855D01*
G03X111034Y-1102I-139J375D01*
G01X107973D01*
X107088Y-1986D01*
Y-2186D01*
X105361Y-3914D01*
X105378Y-4016D01*
G02X103984Y-2622I-1678J-284D01*
G01X104086Y-2639D01*
X105286Y-1440D01*
Y-1240D01*
X107227Y702D01*
X127473D01*
X130802Y-2627D01*
Y-17919D01*
G03X131484Y-18202I400J0D01*
G01X132098Y-17588D01*
Y-1873D01*
X129486Y739D01*
X129384Y722D01*
G02X130778Y2116I-284J1678D01*
G01X130761Y2014D01*
X133902Y-1127D01*
Y-18334D01*
X129536Y-22700D01*
X129075D01*
X126328Y-25447D01*
X126404Y-25580D01*
G02X120247Y-30653I-3505J-2019D01*
G01X120190Y-30604D01*
X119916D01*
Y-31013D01*
X119975Y-31155D01*
X120011Y-31336D01*
X120873Y-32198D01*
X128473D01*
X131130Y-34855D01*
X137945D01*
Y-42945D01*
X129855D01*
Y-36130D01*
X127727Y-34002D01*
X121242D01*
G03X120959Y-34684I0J-400D01*
G01X121747Y-35472D01*
X121880Y-35396D01*
G02X120396Y-36880I2020J-3504D01*
G01X120472Y-36747D01*
X117727Y-34001D01*
G37*
G36*
G01X-31858Y-33542D02*
X-40142D01*
Y-25258D01*
X-36802D01*
Y-24385D01*
X-26315Y-13898D01*
X1985D01*
X6685Y-9198D01*
X13692D01*
G03X13899Y-8457I-1J400D01*
G02X13505Y-1816I2101J3457D01*
G03X13258Y-1102I-247J314D01*
G01X-6215D01*
X-6915Y-402D01*
X-33715D01*
X-33815Y-302D01*
X-34224D01*
G02Y1702I-1376J1002D01*
G01X-32985D01*
X-32885Y1602D01*
X-6085D01*
X-5385Y902D01*
X13535D01*
G03X13756Y1634I-1J400D01*
G02X13334Y8042I2244J3366D01*
G03X13070Y8742I-264J300D01*
G01X12359D01*
X9884Y6267D01*
X9893Y6173D01*
G02X8373Y7693I-1693J-173D01*
G01X8467Y7684D01*
X11529Y10746D01*
X11955D01*
Y19045D01*
X20045D01*
Y10746D01*
X29873D01*
G03X30155Y11428I-1J400D01*
G01X28867Y12716D01*
X28773Y12707D01*
G02X30293Y14227I-173J1693D01*
G01X30284Y14133D01*
X34715Y9702D01*
X45715D01*
X46636Y8781D01*
G03X47318Y9063I282J283D01*
G01Y9727D01*
X46697Y10348D01*
X44661D01*
G02X43770Y11239I3J894D01*
G01Y16161D01*
G02X44661Y17052I893J-2D01*
G01X47223D01*
G02X48114Y16161I-3J-894D01*
G01Y11765D01*
X49322Y10557D01*
Y8895D01*
X50953Y7263D01*
X51119Y7429D01*
X51134Y7459D01*
G02X51154Y7497I363J-167D01*
G01X51259Y7667D01*
X51046Y7799D01*
Y20501D01*
X53158D01*
G03X53441Y21184I0J400D01*
G01X50077Y24548D01*
X48499D01*
G03X48104Y24090I0J-400D01*
G02X48114Y23961I-884J-133D01*
G01Y19039D01*
G02X47223Y18148I-893J2D01*
G01X44661D01*
G02X43770Y19039I3J894D01*
G01Y23961D01*
G02X43780Y24090I894J-4D01*
G03X43385Y24548I-395J58D01*
G01X41215D01*
G03X40820Y24090I0J-400D01*
G02X40830Y23961I-884J-133D01*
G01Y19039D01*
G02X39939Y18148I-893J2D01*
G01X39660D01*
Y17052D01*
X39939D01*
G02X40830Y16161I-3J-894D01*
G01Y11239D01*
G02X39939Y10348I-893J2D01*
G01X37377D01*
G02X36486Y11239I3J894D01*
G01Y16161D01*
G02X37377Y17052I893J-2D01*
G01X37656D01*
Y18148D01*
X37377D01*
G02X36486Y19039I3J894D01*
G01Y23961D01*
G02X36496Y24090I894J-4D01*
G03X36101Y24548I-395J58D01*
G01X28623D01*
X27773Y23698D01*
X5727D01*
X5667Y23758D01*
X-5633D01*
X-7133Y25258D01*
X-14142D01*
Y33542D01*
X-5858D01*
Y26533D01*
X-4887Y25562D01*
X-967D01*
G03X-706Y26264I-1J400D01*
G02X6007Y30451I2706J3136D01*
G01X6046Y30302D01*
X21030D01*
X22272Y29060D01*
G03X22955Y29343I283J283D01*
G01Y30898D01*
X22183D01*
X20183Y32898D01*
X14544D01*
G02Y34702I-1444J902D01*
G01X20929D01*
X22272Y33359D01*
G03X22955Y33642I283J283D01*
G01Y35845D01*
X25573D01*
G03X25856Y36528I0J400D01*
G01X21767Y40616D01*
X21673Y40607D01*
G02X23193Y42127I-173J1693D01*
G01X23184Y42033D01*
X25272Y39944D01*
G03X25955Y40227I283J283D01*
G01Y46845D01*
X34045D01*
Y38755D01*
X27427D01*
G03X27144Y38072I0J-400D01*
G01X27671Y37546D01*
X69171D01*
X72133Y34584D01*
X72227Y34593D01*
G02X70707Y33073I173J-1693D01*
G01X70716Y33167D01*
X68341Y35542D01*
X49930D01*
G03X49666Y34842I0J-400D01*
G02X49552Y28662I-2666J-3042D01*
G03X49805Y27952I252J-310D01*
G01X52824D01*
X53968Y26808D01*
X61046D01*
Y32313D01*
X67954D01*
Y20055D01*
G03X68296Y19913I200J-1D01*
G01X68598Y20216D01*
Y21915D01*
X72529Y25846D01*
X72929D01*
X73216Y26133D01*
X73207Y26227D01*
G02X74727Y24707I1693J173D01*
G01X74633Y24716D01*
X73759Y23842D01*
X73359D01*
X70602Y21085D01*
Y19386D01*
X68814Y17598D01*
X65782D01*
X61502Y13318D01*
Y7286D01*
X59100Y4884D01*
G03X59382Y4202I283J-282D01*
G01X82315D01*
X85402Y1115D01*
Y-3115D01*
X83886Y-4631D01*
Y-8608D01*
G02X81882I-1002J-1376D01*
G01Y-3801D01*
X83398Y-2285D01*
Y285D01*
X81485Y2198D01*
X50385D01*
X44885Y7699D01*
X44532D01*
G03X44250Y7016I1J-400D01*
G01X50964Y302D01*
X78924D01*
G02Y-1702I1376J-1002D01*
G01X50134D01*
X43034Y5398D01*
X37169D01*
G03X36871Y4732I0J-400D01*
G02X35316Y1922I-1271J-1132D01*
G01X35214Y1939D01*
X34502Y1227D01*
Y-4156D01*
G02X32698I-902J-1444D01*
G01Y1973D01*
X33939Y3214D01*
X33922Y3316D01*
G02X34329Y4732I1678J284D01*
G03X34031Y5398I-298J266D01*
G01X33639D01*
X30295Y8742D01*
X18930D01*
G03X18666Y8042I0J-400D01*
G02X18244Y1634I-2666J-3042D01*
G03X18465Y902I222J-332D01*
G01X21315D01*
X32615Y-10398D01*
X42115D01*
X42615Y-10898D01*
X43024D01*
G02Y-12902I1376J-1002D01*
G01X41785D01*
X41285Y-12402D01*
X31785D01*
X20485Y-1102D01*
X18742D01*
G03X18495Y-1816I0J-400D01*
G02X18101Y-8457I-2495J-3184D01*
G03X18308Y-9198I208J-341D01*
G01X23615D01*
X28815Y-14398D01*
X46685D01*
X47098Y-13985D01*
Y-6384D01*
X50284Y-3198D01*
X63015D01*
X64215Y-4398D01*
X64624D01*
G02Y-6402I1376J-1002D01*
G01X63385D01*
X62185Y-5202D01*
X61701D01*
G03X61559Y-5543I0J-200D01*
G01X66433Y-10416D01*
X66527Y-10407D01*
G02X65007Y-11927I173J-1693D01*
G01X65016Y-11833D01*
X60385Y-7202D01*
X51915D01*
X51771Y-7346D01*
G03X51912Y-7687I141J-141D01*
G01X57954D01*
Y-20501D01*
X51102D01*
Y-21315D01*
X44815Y-27602D01*
X19785D01*
X13585Y-21402D01*
X-4215D01*
X-4615Y-21002D01*
X-5024D01*
G02Y-18998I-1376J1002D01*
G01X-3785D01*
X-3385Y-19398D01*
X14415D01*
X20615Y-25598D01*
X43985D01*
X49099Y-20485D01*
Y-15783D01*
G03X48416Y-15501I-400J-1D01*
G01X47515Y-16402D01*
X42935D01*
G03X42743Y-17152I1J-400D01*
G02X38857I-1943J-3548D01*
G03X38665Y-16402I-193J350D01*
G01X27985D01*
X22785Y-11202D01*
X18865D01*
G03X18607Y-11907I0J-400D01*
G02X13393I-2607J-3093D01*
G03X13135Y-11202I-258J305D01*
G01X7515D01*
X2815Y-15902D01*
X-25485D01*
X-34159Y-24576D01*
G03X-33877Y-25258I283J-282D01*
G01X-31858D01*
Y-33542D01*
G37*
G54D21*
X129500Y41800D03*
X93500Y43000D03*
X83500D03*
X40000Y42800D03*
X50000D03*
X40800Y-1015D03*
X3500Y43000D03*
X-6500D03*
X-118000Y40800D03*
X-128000D03*
G54D24*
X-24000Y-29400D03*
G54D20*
X74500Y14094D03*
X94500D03*
X84500Y25906D03*
X94500Y-14094D03*
X-64500Y-25906D03*
X-74500Y14094D03*
X-84500Y25906D03*
X-74500Y-14094D03*
X-84500Y-25906D03*
G54D22*
X123921Y23732D03*
X-114079Y-9732D03*
X-123921Y23732D03*
G54D23*
X63500Y43000D03*
X-16500D03*
X109500Y41800D03*
G54D25*
X-36000Y29400D03*
%LPD*%
G75*
G54D10*
X-123921Y23732D03*
X-114079Y-9732D03*
X114079D03*
X123921Y23732D03*
G54D11*
X-128000Y40800D03*
X-118000D03*
X-14200Y13200D03*
X-6500Y43000D03*
X16000Y-15000D03*
Y-5000D03*
Y5000D03*
X-4200Y13200D03*
X3500Y43000D03*
X44400Y-43300D03*
X34400D03*
X40800Y-20700D03*
Y-1015D03*
X50000Y42800D03*
X40000D03*
X47000Y31800D03*
X37000D03*
X74400Y-43300D03*
X64400D03*
X54400D03*
X83500Y43000D03*
X73500D03*
X94400Y-43300D03*
X84400D03*
X103900Y-38900D03*
X112900Y-27600D03*
X93500Y43000D03*
X113900Y-38900D03*
X123900D03*
X122900Y-27600D03*
X129500Y41800D03*
X119500D03*
G54D12*
X-108000Y40800D03*
X-24200Y13200D03*
X-16500Y43000D03*
X16000Y15000D03*
X24400Y-43300D03*
X30000Y42800D03*
X27000Y31800D03*
X63500Y43000D03*
X109500Y41800D03*
X133900Y-38900D03*
X132900Y-27600D03*
G54D13*
X-67900Y-42600D03*
X-36200Y-43000D03*
X-36000Y-29400D03*
Y29400D03*
X-10000Y-29400D03*
Y29400D03*
G54D14*
X-84500Y-25906D03*
X-94500Y-14094D03*
X-74500D03*
X-84500Y25906D03*
X-74500Y14094D03*
X-94500D03*
X-64500Y-25906D03*
X-54500Y-14094D03*
X-64500Y25906D03*
X-54500Y14094D03*
X64500Y-25906D03*
X54500Y-14094D03*
X74500D03*
X64500Y25906D03*
X74500Y14094D03*
X54500D03*
X84500Y-25906D03*
X94500Y-14094D03*
X84500Y25906D03*
X94500Y14094D03*
G54D15*
X-77700Y4600D03*
X-48800Y-34800D03*
X-65800Y-6900D03*
X-48400Y-11200D03*
X-63000Y300D03*
X-60900Y7200D03*
X-47100Y18200D03*
X-51700Y31900D03*
X-10455Y-10855D03*
X-35600Y700D03*
X15600Y-33400D03*
X-2600Y-39700D03*
X-6400Y-20000D03*
X1300Y-10400D03*
X21900Y-32400D03*
X8200Y6000D03*
X-100Y21100D03*
X21500Y42300D03*
X13100Y33800D03*
X41100Y-36300D03*
X44400Y-11900D03*
X33600Y-5600D03*
X28600Y14400D03*
X32558Y21142D03*
X35600Y3600D03*
X79200Y-38500D03*
X71300Y-35300D03*
X82100Y-15600D03*
X73400Y-4100D03*
X66700Y-12100D03*
X66000Y-5400D03*
X58100Y-29214D03*
X80300Y-700D03*
X74900Y26400D03*
X67100Y14900D03*
X72400Y32900D03*
X84200Y-33600D03*
X94000Y-24000D03*
X82884Y-9984D03*
X92600Y-29000D03*
X100900Y-21000D03*
X100800Y-15200D03*
X102800Y-9700D03*
X103700Y-4300D03*
X92700Y25900D03*
X93400Y5400D03*
X126900Y-16600D03*
X114400Y8900D03*
X129100Y2400D03*
X125500Y6200D03*
G54D16*
X-55900Y-42600D03*
X-24200Y-43000D03*
X-24000Y-29400D03*
Y29400D03*
X2000Y-29400D03*
Y29400D03*
G54D17*
X38658Y13700D03*
X45942D03*
X38658Y21500D03*
X45942D03*
G54D18*
G01X-48400Y-11200D02*
Y-9000D01*
X-48900Y-8500D01*
Y-8356D01*
X-50956Y-6300D01*
X-63000D01*
X-63600Y-6900D01*
X-65800D01*
G01X-63000Y300D02*
X-61444Y1856D01*
Y2056D01*
X-58100Y5400D01*
X-22000D01*
X-14200Y13200D01*
G01X-51700Y31900D02*
X-45241Y25441D01*
G01D02*
X-41000Y21200D01*
X-12200D01*
X-4200Y13200D01*
G01X-47100Y18200D02*
X-45241Y20059D01*
Y25441D01*
G01X73400Y-4100D02*
X70200Y-7300D01*
Y-14700D01*
X69200Y-15700D01*
X64149D01*
X59425Y-20424D01*
Y-24275D01*
X58200Y-25500D01*
X51000D01*
X47300Y-29200D01*
X17600D01*
X13900Y-25500D01*
X7300D01*
X5800Y-24000D01*
X-9240D01*
X-10000Y-24760D01*
Y-29400D01*
G01X66000Y-5400D02*
X63800D01*
X62600Y-4200D01*
X50699D01*
X48100Y-6799D01*
Y-14400D01*
X47100Y-15400D01*
X28400D01*
X23200Y-10200D01*
X7100D01*
X2400Y-14900D01*
X-25900D01*
X-35800Y-24800D01*
Y-29200D01*
X-36000Y-29400D01*
G01X-10455Y-10855D02*
X-1355D01*
X-900Y-10400D01*
X1300D01*
G01X44400Y-11900D02*
X42200D01*
X41700Y-11400D01*
X32200D01*
X20900Y-100D01*
X-5800D01*
X-6500Y600D01*
X-33300D01*
X-33400Y700D01*
X-35600D01*
G01X82100Y-15600D02*
X79800Y-17900D01*
Y-21800D01*
X68000Y-33600D01*
X59591D01*
X59391Y-33400D01*
X38000D01*
X33000Y-38400D01*
X11000D01*
X2000Y-29400D01*
G01X66700Y-12100D02*
X60800Y-6200D01*
X51500D01*
X50100Y-7600D01*
Y-20900D01*
X44400Y-26600D01*
X20200D01*
X14000Y-20400D01*
X-3800D01*
X-4200Y-20000D01*
X-6400D01*
G01X80300Y-700D02*
X50549D01*
X43449Y6400D01*
X34054D01*
X30710Y9744D01*
X11944D01*
X8200Y6000D01*
G01X-100Y21100D02*
X2100D01*
X2142Y21142D01*
X32558D01*
G01X79200Y-38500D02*
X61600D01*
X59400Y-36300D01*
X41100D01*
G01X45942Y13700D02*
Y12520D01*
X48320Y10142D01*
Y8480D01*
X51200Y5600D01*
X58399D01*
X60500Y7701D01*
Y16100D01*
X63000Y18600D01*
X68399D01*
X69600Y19801D01*
Y21500D01*
X72944Y24844D01*
X73344D01*
X74900Y26400D01*
G01X38658Y13700D02*
Y21500D01*
G01X28600Y14400D02*
X34300Y8700D01*
X45300D01*
X50800Y3200D01*
X81900D01*
X84400Y700D01*
Y-2700D01*
X82884Y-4216D01*
Y-9984D01*
G01X21500Y42300D02*
X27256Y36544D01*
X68756D01*
X72400Y32900D01*
G01X71300Y-35300D02*
X73500D01*
X73600Y-35200D01*
X82600D01*
X84200Y-33600D01*
G01X73500Y43000D02*
X76650Y39850D01*
X77250D01*
X81400Y35700D01*
X90299D01*
X92700Y33299D01*
Y25900D01*
G54D19*
G01X-132246Y40800D02*
X-128000D01*
G01Y36554D02*
Y40800D01*
G01D02*
Y45046D01*
G01Y40800D02*
X-123754D01*
G01X92600Y-29000D02*
X94085Y-30485D01*
Y-30487D01*
X98800Y-35202D01*
Y-35204D01*
X99000Y-35404D01*
Y-35406D01*
X99098Y-35504D01*
Y-35506D01*
X99538Y-35946D01*
Y-36690D01*
X99248Y-36980D01*
Y-40816D01*
X99696Y-41264D01*
Y-42346D01*
X99700Y-42364D01*
Y-43260D01*
X99696Y-43264D01*
Y-45104D01*
X96856Y-47944D01*
X-84856D01*
X-99100Y-33700D01*
Y36700D01*
X-103200Y40800D01*
X-108000D01*
G01X-48800Y-34800D02*
X-92000D01*
X-94500Y-32300D01*
Y-14094D01*
G01X-84500Y-32514D02*
Y-25906D01*
G01D02*
Y-19298D01*
G01X-88155Y-25906D02*
X-84500D01*
G01D02*
X-80845D01*
G01X-84500Y19298D02*
Y25906D01*
G01X-77700Y4600D02*
X-87959D01*
X-94500Y11141D01*
Y14094D01*
G01X-84500Y25906D02*
Y32514D01*
G01X-88155Y25906D02*
X-84500D01*
G01D02*
X-80845D01*
G01X-55900Y-42600D02*
Y-38258D01*
G01X-60242Y-42600D02*
X-55900D01*
G01D02*
X-51558D01*
G01X-60900Y7200D02*
Y12100D01*
X-58906Y14094D01*
X-54500D01*
G01X-65000Y25906D02*
Y26406D01*
G01D02*
Y28859D01*
X-55559Y38300D01*
X-27600D01*
X-24000Y34700D01*
Y29400D01*
G01X-64500Y25906D02*
X-65000Y26406D01*
G01X-24200Y-43000D02*
Y-38658D01*
G01X-28542Y-43000D02*
X-24200D01*
G01D02*
X-19858D01*
G01X-10000Y29400D02*
X-5260Y24660D01*
X6040D01*
X6100Y24600D01*
X27400D01*
X28250Y25450D01*
X50450D01*
X55000Y20900D01*
Y14594D01*
X54500Y14094D01*
G01X11754Y5000D02*
X16000D01*
G01D02*
X20246D01*
G01X3500Y38754D02*
Y43000D01*
G01D02*
Y47246D01*
G01X-746Y43000D02*
X3500D01*
G01D02*
X7746D01*
G01X64500Y25906D02*
X53595D01*
X52451Y27050D01*
X23007D01*
X20657Y29400D01*
X2000D01*
G01X13100Y33800D02*
X20556D01*
X22556Y31800D01*
X27000D01*
G01X30154Y-43300D02*
X34400D01*
G01D02*
X38646D01*
G01X21900Y-32400D02*
X23100Y-31200D01*
X48300D01*
X50286Y-29214D01*
X58100D01*
G01X33600Y-5600D02*
Y1600D01*
X35600Y3600D01*
G01X45942Y17948D02*
Y21500D01*
G01X43570D02*
X45942D01*
G01D02*
X48314D01*
G01X65500Y25906D02*
X64500D01*
G01X100900Y-21000D02*
Y-23100D01*
X101173Y-23373D01*
Y-30673D01*
X103800Y-33300D01*
Y-34356D01*
X103900Y-34456D01*
Y-38900D01*
G01X100800Y-15200D02*
X102285Y-16685D01*
X102685D01*
X104700Y-18700D01*
Y-29700D01*
X113900Y-38900D01*
G01X102800Y-9700D02*
X104285Y-11185D01*
Y-14785D01*
X107400Y-17900D01*
Y-29400D01*
X111100Y-33100D01*
X118100D01*
X123900Y-38900D01*
G01X93400Y5400D02*
X97800D01*
X101600Y9200D01*
Y27400D01*
X105300Y31100D01*
X108900D01*
X109500Y31700D01*
Y31800D01*
X119500Y41800D01*
G01X133900Y-38900D02*
X128100Y-33100D01*
X120500D01*
X119158Y-31758D01*
Y-31670D01*
X119108Y-31419D01*
X119014Y-31193D01*
Y-30284D01*
X117800Y-29070D01*
Y-23463D01*
X121063Y-20200D01*
X128498D01*
X129900Y-18798D01*
Y-3000D01*
X127100Y-200D01*
X107600D01*
X106187Y-1613D01*
Y-1813D01*
X103700Y-4300D01*
G01X93500Y38754D02*
Y43000D01*
G01D02*
Y47246D01*
G01X89254Y43000D02*
X93500D01*
G01D02*
X97746D01*
G01X112900Y-27600D02*
Y-26100D01*
X122400Y-16600D01*
X126900D01*
G01X122900Y-27600D02*
X128702Y-21798D01*
X129163D01*
X133000Y-17961D01*
Y-1500D01*
X129100Y2400D01*
G01X132900Y-27600D02*
X137081Y-23419D01*
Y2619D01*
X133500Y6200D01*
X125500D01*
G01X129500Y37554D02*
Y41800D01*
G01D02*
Y46046D01*
G01X125254Y41800D02*
X129500D01*
G01D02*
X133746D01*
M02*
