G04 ================== begin FILE IDENTIFICATION RECORD ==================*
G04 Layout Name:  E:/«∂»Î Ω/git/PCB/board/BBear_balance_car.brd*
G04 Film Name:    PASTEMASK_BOTTOM*
G04 File Format:  Gerber RS274X*
G04 File Origin:  Cadence Allegro 16.6-P004*
G04 Origin Date:  Fri Oct 14 00:36:49 2016*
G04 *
G04 Layer:  VIA CLASS/PASTEMASK_BOTTOM*
G04 Layer:  PIN/PASTEMASK_BOTTOM*
G04 Layer:  PACKAGE GEOMETRY/PASTEMASK_BOTTOM*
G04 *
G04 Offset:    (0.00 0.00)*
G04 Mirror:    No*
G04 Mode:      Positive*
G04 Rotation:  0*
G04 FullContactRelief:  No*
G04 UndefLineWidth:     6.00*
G04 ================== end FILE IDENTIFICATION RECORD ====================*
%FSLAX25Y25*MOIN*%
%IR0*IPPOS*OFA0.00000B0.00000*MIA0B0*SFA1.00000B1.00000*%
%AMMACRO12*
4,1,40,.0285,.0128,
.0285,-.0128,
.028438,-.01348,
.028258,-.014139,
.027967,-.014756,
.027573,-.015314,
.027088,-.015794,
.026527,-.016184,
.025907,-.016469,
.025247,-.016643,
.0246,-.0167,
-.0246,-.0167,
-.02528,-.016638,
-.025939,-.016458,
-.026556,-.016167,
-.027114,-.015773,
-.027594,-.015288,
-.027984,-.014727,
-.028269,-.014107,
-.028443,-.013447,
-.0285,-.0128,
-.0285,.0128,
-.028438,.01348,
-.028258,.014139,
-.027967,.014756,
-.027573,.015314,
-.027088,.015794,
-.026527,.016184,
-.025907,.016469,
-.025247,.016643,
-.0246,.0167,
.0246,.0167,
.02528,.016638,
.025939,.016458,
.026556,.016167,
.027114,.015773,
.027594,.015288,
.027984,.014727,
.028269,.014107,
.028443,.013447,
.0285,.0128,
0.0*
%
%ADD12MACRO12*%
%ADD11C,.07087*%
%ADD10R,.07087X.07087*%
%LPD*%
G75*
G54D10*
X-101000Y-6700D03*
Y6100D03*
X-102900Y42600D03*
X-82000Y42500D03*
X-61000Y42400D03*
X-41300D03*
X-20900Y42500D03*
X3000Y4900D03*
X100Y42600D03*
X18500Y-13000D03*
X20900Y42700D03*
X34100Y-42600D03*
X102400Y42200D03*
G54D11*
X-102900Y22600D03*
Y32600D03*
X-91000Y-6700D03*
Y6100D03*
X-82000Y22500D03*
Y32500D03*
X-81000Y-6700D03*
Y6100D03*
X-61000Y22400D03*
Y32400D03*
X-41300Y22400D03*
Y32400D03*
X-20900Y22500D03*
Y32500D03*
X-17000Y4900D03*
X-7000D03*
X100Y22600D03*
Y32600D03*
X18500Y-43000D03*
Y-33000D03*
Y-23000D03*
X20900Y22700D03*
Y32700D03*
X44100Y-42600D03*
X42400Y-19200D03*
Y485D03*
X54100Y-42600D03*
X64100D03*
X74100D03*
X72400Y42200D03*
X82400D03*
X84100Y-42600D03*
X94100D03*
X92400Y42200D03*
X104100Y-42600D03*
G54D12*
X-42400Y-4942D03*
Y2342D03*
X25000Y-4542D03*
Y2742D03*
M02*
